<?xml version="1.0" encoding="UTF-8"?>
<svg id="Layer_2" data-name="Layer 2" xmlns="http://www.w3.org/2000/svg" viewBox="0 0 959.34 1020.72">
  <defs>
    <style>
      .cls-1 {
        fill: #fff;
      }

      .cls-2 {
        fill: #f0a202;
      }
    </style>
  </defs>
  <g id="object">
    <g>
      <path class="cls-2" d="m880.21,520.92c-29.87-17.24-80.2-33.56-132.87-42.34,40.11-9.2,76.39-22.22,99.94-35.82,75.67-43.68,101.59-140.44,57.91-216.1-43.68-75.67-140.44-101.6-216.11-57.91-29.86,17.25-69.16,52.68-103.1,93.9,12.09-39.33,18.95-77.27,18.95-104.46,0-87.37-70.83-158.2-158.2-158.2s-158.2,70.82-158.2,158.21c0,34.48,11.04,86.23,29.77,136.23-28.03-30.13-57.44-55.05-80.99-68.65-75.67-43.68-172.42-17.75-216.11,57.91-43.68,75.68-17.76,172.42,57.91,216.11,29.87,17.24,80.19,33.55,132.87,42.33-40.12,9.2-76.39,22.23-99.94,35.83-75.66,43.68-101.59,140.42-57.91,216.09,43.68,75.67,140.44,101.6,216.11,57.91,29.87-17.25,69.16-52.69,103.1-93.9-12.08,39.33-18.95,77.26-18.95,104.46,0,87.37,70.83,158.2,158.2,158.2s158.2-70.83,158.2-158.2c0-34.49-11.04-86.23-29.78-136.24,28.02,30.14,57.44,55.06,80.99,68.65,75.67,43.68,172.42,17.76,216.11-57.9,43.69-75.67,17.76-172.42-57.91-216.11Z"/>
      <g>
        <path class="cls-1" d="m603.61,513.63c-9.24-5.34-24.81-10.38-41.11-13.1,12.41-2.85,23.64-6.88,30.93-11.08,23.41-13.53,31.43-43.46,17.92-66.87-13.52-23.42-43.46-31.44-66.88-17.92-9.23,5.33-21.4,16.31-31.9,29.06,3.74-12.17,5.87-23.91,5.87-32.33,0-27.03-21.92-48.94-48.95-48.94s-48.95,21.91-48.95,48.94c0,10.67,3.42,26.69,9.21,42.16-8.67-9.33-17.77-17.04-25.06-21.25-23.41-13.51-53.35-5.49-66.87,17.92-13.52,23.42-5.5,53.35,17.91,66.87,9.25,5.33,24.82,10.37,41.11,13.1-12.41,2.85-23.64,6.87-30.93,11.08-23.41,13.52-31.43,43.46-17.91,66.87,13.52,23.41,43.45,31.43,66.87,17.91,9.24-5.33,21.4-16.3,31.9-29.05-3.73,12.17-5.86,23.91-5.86,32.33,0,27.03,21.91,48.94,48.95,48.94s48.95-21.91,48.95-48.94c0-10.68-3.41-26.69-9.21-42.15,8.67,9.32,17.77,17.03,25.06,21.23,23.41,13.52,53.35,5.49,66.87-17.91,13.52-23.41,5.49-53.36-17.92-66.87Z"/>
        <path class="cls-1" d="m479.67,743.38c-128.49,0-233.02-104.53-233.02-233.02s104.53-233.02,233.02-233.02,233.02,104.54,233.02,233.02-104.53,233.02-233.02,233.02Zm0-430.46c-108.86,0-197.43,88.57-197.43,197.44s88.57,197.44,197.43,197.44,197.44-88.57,197.44-197.44-88.57-197.44-197.44-197.44Z"/>
      </g>
      <path class="cls-2" d="m559.73,510.36c0,44.22-35.84,80.07-80.06,80.07s-80.06-35.85-80.06-80.07,35.85-80.06,80.06-80.06,80.06,35.85,80.06,80.06Z"/>
    </g>
  </g>
</svg>