<?xml version="1.0" encoding="UTF-8"?>
<svg id="Layer_2" data-name="Layer 2" xmlns="http://www.w3.org/2000/svg" viewBox="0 0 959.34 1020.72">
  <defs>
    <style>
      .cls-1 {
        fill: #f0a202;
      }
    </style>
  </defs>
  <g id="object">
    <path class="cls-1" d="m880.21,520.92c-29.87-17.24-80.2-33.56-132.87-42.34,40.11-9.2,76.39-22.22,99.94-35.82,75.67-43.68,101.59-140.44,57.91-216.1-43.68-75.67-140.44-101.6-216.11-57.91-29.86,17.25-69.16,52.68-103.1,93.9,12.09-39.33,18.95-77.27,18.95-104.46,0-87.37-70.83-158.2-158.2-158.2s-158.2,70.82-158.2,158.21c0,34.48,11.04,86.23,29.77,136.23-28.03-30.13-57.44-55.05-80.99-68.65-75.67-43.68-172.42-17.75-216.11,57.91-43.68,75.68-17.76,172.42,57.91,216.11,29.87,17.24,80.19,33.55,132.87,42.33-40.12,9.2-76.39,22.23-99.94,35.83-75.66,43.68-101.59,140.42-57.91,216.09,43.68,75.67,140.44,101.6,216.11,57.91,29.87-17.25,69.16-52.69,103.1-93.9-12.08,39.33-18.95,77.26-18.95,104.46,0,87.37,70.83,158.2,158.2,158.2s158.2-70.83,158.2-158.2c0-34.49-11.04-86.23-29.78-136.24,28.02,30.14,57.44,55.06,80.99,68.65,75.67,43.68,172.42,17.76,216.11-57.9,43.69-75.67,17.76-172.42-57.91-216.11Z"/>
  </g>
</svg>