<?xml version="1.0" encoding="UTF-8"?>
<svg id="Layer_2" data-name="Layer 2" xmlns="http://www.w3.org/2000/svg" viewBox="0 0 896.52 715.53">
  <defs>
    <style>
      .cls-1 {
        fill: #f9eac0;
      }

      .cls-2 {
        fill: #efd9ab;
      }

      .cls-3 {
        fill: #ecd078;
      }

      .cls-4 {
        fill: #f26c5a;
      }

      .cls-5 {
        fill: #eea243;
      }

      .cls-6 {
        fill: #ffe499;
      }

      .cls-7 {
        fill: #d95b43;
      }

      .cls-8 {
        fill: #53777a;
      }
    </style>
  </defs>
  <g id="objects">
    <g>
      <path class="cls-2" d="m442.51,108.25L749.46.44c4.96-1.74,10.16,1.94,10.16,7.2v56.73l-317.11,43.88Z"/>
      <path class="cls-2" d="m453.02,108.25L146.07.44c-4.96-1.74-10.16,1.94-10.16,7.2v56.73l317.11,43.88Z"/>
      <path class="cls-1" d="m827.3,663.78l-377.42,38.26c-1.08.11-2.16.11-3.24,0l-377.42-38.26c-3.67-.34-6.47-3.42-6.47-7.1V51.09c0-4.33,3.83-7.66,8.11-7.06l376.41,52.41h1.97l376.39-52.41c4.3-.6,8.13,2.74,8.13,7.08v605.58c0,3.68-2.8,6.76-6.47,7.1Z"/>
      <path class="cls-5" d="m888.22,665.39l-439.95,49.4L8.31,665.39c-4.73-.53-8.31-4.73-8.31-9.73V63.97c0-5.4,4.16-9.78,9.29-9.78l425.68,53.54c8.21,1.03,16.52,1.03,24.73,0l427.53-53.54c5.13,0,9.29,4.38,9.29,9.78v591.69c0,5-3.58,9.2-8.31,9.73Z"/>
      <path class="cls-7" d="m485.13,710.65l-29.99,4.14c-3.77.65-8.53,1.03-12.31.46l-36.46-5.16V104.13l39.38,4.34,39.38-3.92v606.1Z"/>
      <path class="cls-3" d="m485.13,173.68l-36.33,5.11c-2.02.28-4.07.28-6.1,0l-36.33-5.11v-34.46l36,5.63c2.24.35,4.52.35,6.76,0l36-5.63v34.46Z"/>
      <path class="cls-3" d="m485.13,681.92l-36.33,5.11c-2.02.28-4.07.28-6.1,0l-36.33-5.11v-34.46l36,5.63c2.24.35,4.52.35,6.76,0l35.99-5.63v34.46Z"/>
      <path class="cls-5" d="m406.37,647.47V104.13L9.29,54.19c-5.13,0-9.29,4.38-9.29,9.78v591.69c0,5,3.58,9.2,8.31,9.73l398.07,44.7v-62.62Z"/>
      <path class="cls-8" d="m446.14,108.43s-.08,0-.13,0v.02h.13Z"/>
      <path class="cls-8" d="m446.01,108.44v-.02c-.53,0-1.05-.08-1.58-.1l1.32.14.26-.03Z"/>
      <path class="cls-7" d="m444.43,108.32l-38.06-4.19h0l28.6,3.6c3.14.39,6.3.5,9.46.59Z"/>
      <path class="cls-7" d="m459.7,107.73l25.43-3.19h0l-38.99,3.88c4.53.06,9.06-.13,13.56-.69Z"/>
      <path class="cls-4" d="m447.52,653.09l-1.32-474.3c-1.17.02-2.34.16-3.5,0l-36.33-5.11v473.78l36,5.63c1.71.27,3.43.14,5.15,0Z"/>
      <path class="cls-4" d="m447.62,687.03c-1.64.14-3.28.23-4.91,0l-36.33-5.11v28.16l41.32,4.64-.08-27.69Z"/>
      <path class="cls-4" d="m442.38,144.85c1.24.19,2.49.02,3.74,0l-.1-36.41-.26.03-1.32-.14c-3.16-.09-6.32-.2-9.46-.59l-28.6-3.6v35.09l36,5.63Z"/>
      <path class="cls-6" d="m446.21,178.79l-.09-33.94c-1.25.02-2.5.19-3.74,0l-36-5.63v34.46l36.33,5.11c1.16.16,2.33.02,3.5,0Z"/>
      <path class="cls-6" d="m442.38,653.09l-36-5.63v34.46l36.33,5.11c1.63.23,3.28.14,4.91,0l-.1-33.94c-1.72.14-3.44.27-5.15,0Z"/>
    </g>
  </g>
</svg>