<?xml version="1.0" encoding="UTF-8"?>
<svg id="Layer_2" data-name="Layer 2" xmlns="http://www.w3.org/2000/svg" xmlns:xlink="http://www.w3.org/1999/xlink" viewBox="0 0 267.52 273.37">
  <defs>
    <style>
      .cls-1 {
        fill: url(#linear-gradient);
      }

      .cls-2 {
        opacity: .12;
      }

      .cls-3 {
        fill: url(#White_Black_2-2);
      }

      .cls-4 {
        fill: url(#White_Black_2-3);
      }

      .cls-5 {
        fill: #010101;
      }

      .cls-6 {
        fill: #efa320;
      }

      .cls-7 {
        fill: #ed2224;
      }

      .cls-8 {
        fill: #e6e6e5;
      }

      .cls-9 {
        fill: #eea242;
      }

      .cls-10 {
        fill: #fff;
      }

      .cls-11 {
        fill: #818181;
      }

      .cls-12 {
        fill: #736458;
      }

      .cls-13 {
        fill: #e51e25;
      }

      .cls-14 {
        fill: #ca2027;
      }

      .cls-15 {
        fill: url(#Golden_Ring);
      }

      .cls-16 {
        fill: url(#linear-gradient-2);
        stroke: #010101;
        stroke-miterlimit: 10;
        stroke-width: 3.36px;
      }

      .cls-17 {
        fill: url(#White_Black_2);
      }
    </style>
    <linearGradient id="White_Black_2" data-name="White, Black 2" x1="170.21" y1="200.24" x2="174.5" y2="200.24" gradientUnits="userSpaceOnUse">
      <stop offset="0" stop-color="#fff"/>
      <stop offset="1" stop-color="#010101"/>
    </linearGradient>
    <linearGradient id="White_Black_2-2" data-name="White, Black 2" x1="120.99" y1="97.3" x2="126.13" y2="97.3" xlink:href="#White_Black_2"/>
    <radialGradient id="Golden_Ring" data-name="Golden Ring" cx="3.74" cy="130.7" fx="3.74" fy="130.7" r="7.32" gradientTransform="translate(214.35 114.68) scale(.44)" gradientUnits="userSpaceOnUse">
      <stop offset=".74" stop-color="#fff" stop-opacity="0"/>
      <stop offset=".76" stop-color="#fff" stop-opacity="0"/>
      <stop offset=".77" stop-color="#fff" stop-opacity=".04"/>
      <stop offset=".79" stop-color="#fff" stop-opacity=".1"/>
      <stop offset=".79" stop-color="#fff" stop-opacity=".18"/>
      <stop offset=".8" stop-color="#fff" stop-opacity=".28"/>
      <stop offset=".81" stop-color="#fff" stop-opacity=".4"/>
      <stop offset=".82" stop-color="#fff" stop-opacity=".5"/>
      <stop offset=".82" stop-color="#dabf26"/>
      <stop offset=".83" stop-color="#f1dc3c"/>
      <stop offset=".84" stop-color="#f5e13f"/>
      <stop offset=".84" stop-color="#dabf26"/>
      <stop offset=".85" stop-color="#dfc845"/>
      <stop offset=".87" stop-color="#e7d676"/>
      <stop offset=".89" stop-color="#eee3a0"/>
      <stop offset=".91" stop-color="#f4edc2"/>
      <stop offset=".93" stop-color="#f9f5dd"/>
      <stop offset=".95" stop-color="#fcfaf0"/>
      <stop offset=".98" stop-color="#fefdfb"/>
      <stop offset="1" stop-color="#fff"/>
    </radialGradient>
    <linearGradient id="White_Black_2-3" data-name="White, Black 2" x1="43.69" y1="206.58" x2="46.37" y2="206.58" xlink:href="#White_Black_2"/>
    <linearGradient id="linear-gradient" x1="82.43" y1="169.25" x2="172.55" y2="169.25" gradientUnits="userSpaceOnUse">
      <stop offset="0" stop-color="#932a8e"/>
      <stop offset="1" stop-color="#010101"/>
    </linearGradient>
    <linearGradient id="linear-gradient-2" x1="4.71" y1="174.67" x2="85.21" y2="174.67" xlink:href="#linear-gradient"/>
  </defs>
  <g id="Layer_2-2" data-name="Layer 2">
    <g>
      <g>
        <ellipse class="cls-6" cx="139.01" cy="148.35" rx="124.72" ry="123.34"/>
        <path class="cls-5" d="m139.01,26.69c32.87,0,63.77,12.66,87.01,35.65,23.23,22.98,36.02,53.52,36.02,86.01s-12.79,63.04-36.02,86.01c-23.24,22.99-54.14,35.65-87.01,35.65s-63.77-12.66-87.01-35.65c-23.23-22.98-36.02-53.52-36.02-86.01s12.79-63.04,36.02-86.01c23.24-22.99,54.14-35.65,87.01-35.65m0-3.36c-69.81,0-126.4,55.97-126.4,125.02s56.59,125.02,126.4,125.02,126.4-55.97,126.4-125.02S208.82,23.33,139.01,23.33h0Z"/>
      </g>
      <g>
        <path class="cls-10" d="m5.86,160.88c-2.74-5.87-4.18-12.35-4.18-18.81,0-24.75,20.37-44.88,45.4-44.88s45.4,20.14,45.4,44.88c0,6.64-1.52,13.3-4.41,19.3l-41.91,8.58-40.3-9.07Z"/>
        <path class="cls-5" d="m47.08,98.86c11.6,0,22.56,4.52,30.86,12.73,8.29,8.2,12.86,19.02,12.86,30.47,0,6.12-1.34,12.25-3.89,17.82l-40.73,8.34-39.13-8.81c-2.41-5.45-3.68-11.41-3.68-17.35,0-11.45,4.57-22.27,12.86-30.47,8.3-8.21,19.26-12.73,30.86-12.73m0-3.36C21.25,95.5,0,116.52,0,142.07c0,7.02,1.6,13.95,4.69,20.27l41.44,9.33,43.07-8.82c3.25-6.45,4.95-13.57,4.95-20.78,0-25.54-21.25-46.56-47.08-46.56h0Z"/>
      </g>
      <g>
        <path class="cls-10" d="m170.73,169.18c-.08,0-.15,0-.23-.01l-60.05-5.29c-.25-.02-.49-.08-.72-.17l-24.1-9.36c-1.23-.48-2.06-1.84-2.01-3.32.01-.44.02-.83.02-1.13,0-20.75,21.35-37.64,47.6-37.64s47.6,16.88,47.6,37.64c0,6.27-2.01,12.49-5.8,18-.55.79-1.41,1.27-2.31,1.27Z"/>
        <path class="cls-5" d="m131.24,113.96c12.32,0,23.92,3.85,32.68,10.84,8.54,6.81,13.24,15.73,13.24,25.12,0,5.92-1.9,11.82-5.51,17.04-.24.34-.57.54-.92.54-.03,0-.05,0-.08,0l-60.05-5.29c-.09,0-.18-.03-.26-.06l-24.1-9.35c-.57-.22-.96-.93-.94-1.7.02-.46.03-.87.03-1.18,0-9.39,4.7-18.31,13.24-25.12,8.76-6.99,20.36-10.84,32.68-10.84m0-3.36c-27.03,0-49.28,17.75-49.28,39.32,0,.28-.01.66-.02,1.07-.07,2.2,1.18,4.2,3.08,4.94l24.1,9.35c.38.15.78.24,1.18.28l60.05,5.29c.13.01.25.02.38.02,1.44,0,2.81-.73,3.69-1.99,3.99-5.79,6.1-12.31,6.1-18.95,0-21.57-22.24-39.32-49.28-39.32h0Z"/>
      </g>
      <g>
        <path class="cls-5" d="m34.13,149.44c-3.53,0-6.41-2.52-6.41-5.62s2.87-5.62,6.41-5.62,6.41,2.52,6.41,5.62-2.87,5.62-6.41,5.62Z"/>
        <path class="cls-5" d="m34.13,138.62c3.3,0,5.99,2.33,5.99,5.2s-2.69,5.2-5.99,5.2-5.99-2.33-5.99-5.2,2.69-5.2,5.99-5.2m0-.84c-3.77,0-6.83,2.7-6.83,6.04s3.06,6.04,6.83,6.04,6.83-2.7,6.83-6.04-3.06-6.04-6.83-6.04h0Z"/>
      </g>
      <path class="cls-5" d="m67.61,232.97c17.9-3.42,35.97-5.93,54.13-7.48,18.22-1.56,36.52-2.19,54.81-1.87,8.9.16,18.22.53,26.34,4.59,2.89,1.45,5.45-2.9,2.54-4.35-7.62-3.82-16.09-4.86-24.51-5.17-9.2-.34-18.44-.25-27.64,0-18.61.49-37.19,1.95-55.64,4.38-10.5,1.38-20.96,3.06-31.37,5.05-1.34.26-2.1,1.86-1.76,3.1.38,1.4,1.76,2.02,3.1,1.76h0Z"/>
      <g>
        <path class="cls-10" d="m82.62,228.98c-1.1,5.67,4.72,6.61-.93,14.31,5.78-.83,8.65,2.9,14.35,4.16-2.25-1.89-2.26-5.24-2.45-8.16-.25-3.88-1.15-7.72-2.64-11.32"/>
        <path class="cls-5" d="m81.4,228.64c-.23,1.3-.24,2.57.08,3.85.25.98.69,1.89,1.03,2.84.98,2.75-.29,5.06-1.92,7.32-.52.73.17,2.02,1.09,1.9,2.49-.32,4.69.24,6.93,1.29s4.57,2.24,7.08,2.82c1.15.27,2.22-1.23,1.23-2.11-2.24-1.99-1.9-5.43-2.15-8.15-.33-3.71-1.21-7.33-2.62-10.77-.26-.63-.84-1.07-1.55-.88-.6.16-1.14.92-.88,1.55,1.49,3.64,2.38,7.47,2.62,11.4.18,3.05.34,6.46,2.79,8.64l1.23-2.11c-2.57-.6-4.81-1.85-7.21-2.9s-4.84-1.65-7.47-1.3l1.09,1.9c1.8-2.49,3.25-5.38,2.42-8.5-.56-2.09-1.76-3.85-1.35-6.11.28-1.59-2.14-2.27-2.43-.67h0Z"/>
      </g>
      <g>
        <path class="cls-10" d="m111.35,224.99c.28,3.82.22,9.2-.8,12.9-.15.55-.32,1.15-.12,1.69.42,1.13,2.18,1.36,2.51,2.52.2.72-.25,1.44-.68,2.06-1.37,1.93-2.74,3.87-4.11,5.8,8.36-2.16,17,2.15,25.64,2.14-1.84-2-1.91-4.97-1.98-7.67-.17-6.77-1.15-14.25-2.51-20.89"/>
        <path class="cls-5" d="m110.09,224.99c.16,2.23.19,4.47.08,6.7-.06,1.17-.16,2.34-.34,3.5s-.58,2.24-.71,3.38c-.11.98.18,1.87.89,2.56.47.45,1.69.87,1.64,1.52-.03.47-.64,1.08-.9,1.45-.41.58-.82,1.16-1.23,1.74-.82,1.16-1.64,2.32-2.46,3.48-.67.94.43,2.09,1.42,1.85,8.43-2.07,16.87,2.13,25.31,2.19,1.16,0,1.58-1.35.89-2.15-1.41-1.64-1.53-3.94-1.59-6-.08-2.45-.19-4.9-.41-7.34-.45-4.92-1.18-9.82-2.16-14.66-.32-1.59-2.75-.92-2.43.67,1.06,5.22,1.83,10.51,2.22,15.82.32,4.37-.47,9.73,2.59,13.29l.89-2.15c-8.74-.07-17.21-4.25-25.98-2.1l1.42,1.85c.82-1.16,1.64-2.32,2.46-3.48.75-1.06,1.69-2.12,2.22-3.31.41-.92.43-1.95-.14-2.82-.5-.76-1.62-1-2.07-1.72-.27-.43.11-1.26.22-1.74.13-.55.23-1.11.32-1.67.18-1.18.31-2.36.39-3.55.16-2.44.13-4.89-.04-7.33-.11-1.61-2.63-1.62-2.52,0h0Z"/>
      </g>
      <g>
        <path class="cls-8" d="m98.67,226.66c-.63,4.91-1.36,9.81-2.2,14.69,3.67-.93,7.49-1.27,11.27-1.02-2.6-4.7-4.09-9.28-4.44-14.62"/>
        <path class="cls-5" d="m97.41,226.66c-.62,4.8-1.34,9.59-2.16,14.36-.16.94.55,1.8,1.55,1.55,3.58-.89,7.25-1.21,10.94-.97.99.06,1.52-1.11,1.09-1.9-2.39-4.35-3.93-9.02-4.27-13.99-.11-1.61-2.63-1.62-2.52,0,.37,5.42,2,10.5,4.61,15.26l1.09-1.9c-3.9-.25-7.81.12-11.61,1.06l1.55,1.55c.86-4.99,1.6-10,2.25-15.03.09-.68-.64-1.26-1.26-1.26-.75,0-1.17.58-1.26,1.26h0Z"/>
      </g>
      <g>
        <path class="cls-8" d="m134.69,223.34c.9,5.65,1.26,11.74,1.21,17.46,6.01.23,6.62,2.25,12.63,2.48-1.17-1.58,3.47-5.25,3.18-7.2-.31-2.12.8-4.53,1.06-6.66.3-2.42-.16-4.39.13-6.82"/>
        <path class="cls-5" d="m133.48,223.67c.89,5.66,1.21,11.4,1.17,17.13,0,.7.58,1.23,1.26,1.26,2.17.1,4.15.58,6.19,1.27s4.21,1.11,6.44,1.21c.94.04,1.59-1.11,1.09-1.9-.1-.16-.07.12,0-.1.09-.25.19-.47.33-.7.37-.65.83-1.25,1.27-1.86.77-1.07,1.75-2.31,1.76-3.69.01-1-.04-1.87.18-2.87.25-1.12.59-2.22.78-3.35.4-2.48-.04-4.98.22-7.47.17-1.61-2.35-1.6-2.52,0-.28,2.6.26,5.22-.33,7.79-.26,1.13-.6,2.24-.78,3.38-.09.55-.16,1.11-.14,1.66,0,.31.08.77.04.97-.52,2.36-4.73,4.78-2.99,7.5l1.09-1.9c-2.17-.1-4.15-.58-6.19-1.27s-4.21-1.11-6.44-1.21l1.26,1.26c.04-5.96-.33-11.91-1.26-17.8-.25-1.6-2.68-.92-2.43.67h0Z"/>
      </g>
      <g>
        <path class="cls-10" d="m161.18,222.09c-1.2,6.98,4.01,7.55-3.23,17.08,10.97-3.36,9.47,4.21,16.95,4.62-1.71-1.27-.06-6.13-.87-8.09-1.97-4.73-3.15-8.65-4.42-13.61"/>
        <path class="cls-5" d="m159.96,221.76c-.25,1.53-.29,3.02-.05,4.55.17,1.11.5,2.19.65,3.31.44,3.29-1.79,6.39-3.7,8.93-.68.9.44,2.14,1.42,1.85,3.22-.96,6.3-1.33,8.99.92.99.83,1.94,1.73,3.05,2.41,1.4.84,2.96,1.23,4.57,1.34,1.05.07,1.72-1.45.89-2.15s-.42-2.64-.36-3.58c.11-1.59.19-3.04-.42-4.53-1.73-4.24-3.04-8.61-4.19-13.04-.41-1.57-2.84-.9-2.43.67.6,2.31,1.22,4.62,1.95,6.89s1.74,4.51,2.5,6.8c.87,2.6-1.31,6.47,1.17,8.57l.89-2.15c-2.98-.2-4.59-2.15-6.84-3.79-3.12-2.28-6.93-1.83-10.44-.78l1.42,1.85c2.12-2.82,4.39-6.2,4.07-9.9-.22-2.57-1.15-4.86-.72-7.49.26-1.59-2.17-2.27-2.43-.67h0Z"/>
      </g>
      <g>
        <path class="cls-8" d="m179.4,222.7c.05,5.2,1.72,12.3,1.62,17.5,4.31-.68,13.18,3.08,11.2-.01-1.83-2.86-1.97-4.51-1.78-4.61.43-.23,3.83-.04,3.77-.51-.67-5.29-1.02-6.47,1.1-11.38"/>
        <path class="cls-5" d="m178.14,222.7c.09,5.87,1.7,11.62,1.62,17.5-.01.9.81,1.33,1.59,1.21,2.26-.32,4.85.44,7.11.86,1.44.27,4.63,1.17,5.23-.89.35-1.19-.73-2.32-1.23-3.29-.29-.56-.55-1.13-.72-1.74-.05-.17-.09-.34-.12-.51.05.37.01.01.01.01,0-.03,0-.07,0-.1-.01.47-.28.81-.81,1.02,0,0,.12-.02.17-.03.26-.02.53-.03.79-.04.57-.02,1.14-.04,1.71-.1s1.1-.14,1.52-.52c.65-.61.39-1.46.29-2.23-.2-1.56-.44-3.14-.33-4.71.11-1.67.77-3.29,1.42-4.81.27-.63.18-1.34-.45-1.72-.53-.32-1.46-.17-1.72.45-1.17,2.72-1.97,5.32-1.72,8.3.06.74.16,1.48.25,2.21.05.42.04.95.17,1.34.21.62,1.09-.76.62-.84-.02,0-.36.06-.19.03-1,.14-2.05-.02-3.04.21-2.55.59-.38,4.49.32,5.69.19.33.41.65.6.98.12.22,0,.07.02-.08.03-.35.2-.53.47-.73.21-.15-.03.06-.07,0,.01.02.29-.01,0,0-.92.01-1.68-.15-2.6-.33-2.73-.52-5.56-1.25-8.36-.85l1.59,1.21c.08-5.88-1.53-11.63-1.62-17.5-.02-1.62-2.54-1.62-2.52,0h0Z"/>
      </g>
      <g>
        <path class="cls-5" d="m89.12,194.24c-1.55,3.4-3.1,6.83-3.94,10.46-.27,1.16-.46,2.38-.22,3.54.53,2.53,3.26,4.33,5.87,4.07,2.6-.26,4.84-2.36,5.48-4.88s-.22-5.28-1.97-7.2c-.83-.9-1.88-1.71-2.19-2.89-.36-1.39.39-3.06-.48-4.21-.55-.73-1.7-.93-2.47-.43s-1.03,1.63-.57,2.42"/>
        <path class="cls-5" d="m88.03,193.6c-.99,2.18-1.99,4.37-2.81,6.62-.78,2.13-1.6,4.48-1.63,6.78-.05,3.94,3.64,7.02,7.51,6.54s6.7-4.05,6.67-7.87c-.01-2.02-.74-4.01-1.97-5.61-.54-.71-1.19-1.28-1.78-1.95-.74-.85-.75-1.57-.69-2.66.12-2.13-.82-4.39-3.32-4.27-2.34.11-3.44,2.62-2.48,4.58.72,1.46,2.89.18,2.18-1.27-.17-.36.04-.76.42-.8.6-.07.7.58.71,1.03.04,1.48-.23,2.81.61,4.14.72,1.15,1.88,1.94,2.62,3.08.78,1.2,1.23,2.59,1.18,4.03-.09,2.5-2.11,4.97-4.7,5.1-1.25.07-2.49-.44-3.37-1.33-1.05-1.05-1.21-2.42-.97-3.84.64-3.85,2.39-7.51,3.99-11.04.67-1.47-1.5-2.75-2.18-1.27h0Z"/>
      </g>
      <g>
        <path class="cls-5" d="m100.89,198.03c-1.28,2.43-1.25,5.37-.57,8.03.36,1.41.93,2.83,2.06,3.77,1.88,1.57,4.92,1.22,6.73-.42,1.81-1.65,2.45-4.29,2.1-6.69-.22-1.48-.79-2.93-1.77-4.07-1.45-1.69-3.67-2.61-5.08-4.34-.69-.85-1.16-1.85-1.76-2.76s-1.41-1.77-2.46-2.08c-.49-.14-1.05-.15-1.5.09-.96.5-1.09,1.82-.89,2.88.4,2.11,1.61,4.05,3.32,5.36"/>
        <path class="cls-5" d="m99.8,197.39c-1.09,2.18-1.39,4.57-1.08,6.98.27,2.09.85,4.33,2.31,5.92,3.01,3.26,8.35,1.77,10.37-1.78,2.15-3.78,1.21-8.96-2.1-11.75-.78-.66-1.63-1.22-2.43-1.83-1.03-.78-1.77-1.66-2.43-2.77-1.08-1.82-2.42-3.88-4.76-4.03-2.59-.17-3.53,2.36-3.17,4.52.4,2.37,1.8,4.56,3.67,6.04,1.26.99,3.05-.78,1.78-1.78-1.21-.95-2.17-2.16-2.68-3.62-.27-.78-.89-3.24.77-2.51,1.49.66,2.1,2.65,3,3.88s2.19,2.19,3.46,3.11,2.48,2.01,3.05,3.58c.53,1.44.63,3.04.22,4.53-.7,2.55-3.71,4.91-6.32,3.2-1.48-.97-1.96-3.06-2.21-4.69-.3-1.93-.15-3.95.73-5.71.72-1.45-1.45-2.72-2.18-1.27h0Z"/>
      </g>
      <g>
        <path class="cls-9" d="m65.68,68.22c17.67,10.85,48.67-9.58,64.97,4.11,15.82,13.28,33.26,8.66,59.32,2.57,19.77-4.62,34.08,35.41,41.19,60.95,1.18,4.25,1.83,11.6,5.13,14.13,4.15,3.19,17.96,4.43,18.32-1.81.58-10.16-4.43-16.25-5.86-24.28-.48-2.68.31-16.98,2.96-16.98,3.09,0,3.03,5.21,7.55-3.89,7.89-15.91,1.46-41.96-6.69-55.49-3.83-6.34-11.1-10.05-14.1-16.86-2.54-5.77-13.26-10.21-20.03-7.54-6.77,2.67-12.08,14.79-9.67,21.83,0-17.18-11.58-33.71-27.4-39.14-9.15-3.14-20.23-2.36-27.18,4.53-6.71,6.66-.6,14.54.29,25.27.02.2.26-.05.23-.25C151.18,10.42,132.57,1.6,110.36,1.23c-1.44-.02-12.98,3.63-14.07,4.6-1.17,1.04-4.79,3.61-4.79,5.2,0,9.64,3.42,11.77,10.28,17.07-12.28-9.84-21.77-15.78-36.72-11.35-4.23,1.25-10.38,12.15-10.96,16.65-.43,3.31.99,10.82,1.37,14.14,1.45,12.48,7.81,14.33,10.21,20.69"/>
        <path class="cls-5" d="m65.04,69.31c5.91,3.57,13.03,3.85,19.73,3.23,7.47-.69,14.79-2.42,22.23-3.33,6.53-.8,13.79-1.19,19.78,2.02,3.21,1.72,5.79,4.4,8.98,6.21s6.55,3.07,10.08,3.82c7.56,1.59,15.36.84,22.9-.46,4.51-.77,8.97-1.76,13.42-2.79,2.5-.57,4.99-1.16,7.48-1.75,1.34-.31,2.64-.52,4.03-.47,5.5.23,10.03,4.22,13.42,8.2,4.63,5.45,8.04,11.95,11,18.42,3.34,7.3,6.07,14.87,8.51,22.51,1.13,3.54,2.19,7.1,3.19,10.68s1.4,7.33,2.74,10.81c.6,1.57,1.38,3.17,2.68,4.29.98.85,2.17,1.4,3.38,1.84,2.81,1.03,5.97,1.45,8.95,1.3,2.61-.14,5.72-.72,7.38-2.95.94-1.27,1-2.73,1.01-4.26,0-2.3-.28-4.61-.79-6.86-.94-4.06-2.71-7.84-4.01-11.78-.96-2.94-1.3-4.97-1.21-8s.32-5.99.96-8.9c.22-.98.44-2.08,1.02-2.92-.11.16.13-.31.02-.03.02-.05-.23-.03-.05.04.19.08.44.11.73.28,1.53.91,2.81,1.83,4.44.39,1.23-1.08,2.04-2.71,2.79-4.14.94-1.81,1.76-3.68,2.37-5.63,2.53-7.97,2.28-16.67.99-24.84s-3.77-16.23-7.48-23.61c-1.82-3.63-4.04-6.79-6.93-9.66-3.03-3.01-6.46-5.8-8.56-9.6-.84-1.52-1.47-2.96-2.68-4.25s-2.74-2.4-4.31-3.26c-3.32-1.84-7.26-2.96-11.08-2.74-7.59.43-12.37,7.32-14.34,14.07-.94,3.24-1.32,6.87-.26,10.13.43,1.32,2.48,1.13,2.47-.33-.07-14.69-8.14-29.02-20.65-36.73-6.22-3.83-13.63-5.95-20.96-5.33-3.66.31-7.27,1.28-10.49,3.08-3.01,1.69-5.97,4.15-7.29,7.43s-.71,7.12.13,10.56c.5,2.05,1.08,4.09,1.56,6.15.25,1.11.48,2.23.65,3.35.14.9-.03,2.45.7,3.11.49.45,1.29.51,1.78,0,.77-.81.45-1.84.28-2.83-.2-1.18-.43-2.36-.71-3.53-.5-2.06-1.13-4.1-1.93-6.06-1.47-3.63-3.44-7-5.98-10-4.81-5.68-11.43-9.45-18.49-11.59-3.82-1.16-7.77-1.85-11.73-2.25-3.12-.31-6.19-.64-9.24.18s-6.32,1.85-9.37,3.02c-2.67,1.03-5.01,2.78-6.85,4.99-1.51,1.82-1.23,3.92-.96,6.15.25,2.05.75,4.05,1.74,5.87,2,3.69,5.71,6.13,8.95,8.63,1.12.87,2.64-1.08,1.53-1.98-6.14-4.91-12.65-9.99-20.34-12.14-3.55-.99-7.29-1.29-10.96-.88-3.29.37-6.93.84-9.51,3.09-2.34,2.03-4.13,4.79-5.64,7.47-1.38,2.45-2.78,5.17-3.29,7.96-.58,3.2.11,6.68.56,9.86.49,3.5.78,7.12,1.78,10.52s2.61,6.18,4.71,8.87c1.64,2.1,3.5,4.1,4.48,6.63.58,1.5,3.02.85,2.43-.67-1.75-4.52-5.67-7.65-7.82-11.96-1.52-3.05-2.06-6.34-2.51-9.68s-1.04-6.56-1.24-9.87c-.16-2.63.37-4.81,1.46-7.2,1.25-2.77,2.82-5.48,4.73-7.85.79-.98,1.67-1.99,2.7-2.72,1.17-.83,2.65-1.07,4.02-1.37,3.58-.78,7.32-.98,10.94-.32,8.31,1.53,15.28,6.92,21.72,12.07l1.53-1.98c-2.61-2.01-5.61-3.98-7.47-6.76-.86-1.28-1.41-2.7-1.74-4.2-.2-.9-.31-1.81-.37-2.72-.06-.81-.28-1.88.09-2.62.67-1.38,2.44-2.47,3.6-3.42.13-.11.71-.58.59-.5-.19.13.19-.1.23-.12.4-.18.79-.37,1.19-.53,2.79-1.11,5.67-2.01,8.55-2.84,1.03-.3,2.11-.66,3.18-.79-.24.03,0,0,.1,0,.44-.01.88.02,1.32.03.98.03,1.96.08,2.94.15,3.65.25,7.29.78,10.84,1.66,6.5,1.63,12.74,4.54,17.6,9.22,2.77,2.67,5,5.82,6.68,9.28.92,1.9,1.66,3.88,2.26,5.91.33,1.11.61,2.24.85,3.37.11.53.22,1.06.31,1.59.05.3.11.6.16.91l.06.37c.02.55.11.5.28-.17h1.78l-.07-.07.37.89c-.33-3.67-1.23-7.21-2.16-10.76-.73-2.8-1.61-5.85-1.11-8.77.54-3.16,2.9-5.47,5.48-7.17,2.85-1.87,6.17-2.99,9.54-3.4,13.63-1.66,26.55,6.69,33.61,17.91,4.05,6.44,6.36,13.91,6.4,21.53l2.47-.33c-1.07-3.27-.45-6.86.66-10.04s3.11-6.66,5.89-8.89c5.45-4.36,14.68-1.55,19.12,3.08,1.18,1.24,1.72,2.71,2.56,4.17,1.03,1.78,2.34,3.38,3.75,4.87,2.88,3.05,6.27,5.67,8.71,9.11,2.1,2.97,3.68,6.43,5.04,9.79,1.51,3.75,2.74,7.61,3.7,11.53,1.96,8.02,2.95,16.61,1.61,24.82-.65,3.98-1.91,7.74-3.87,11.27-.4.71-.8,1.46-1.32,2.1-.14.18-.3.35-.47.51-.05.05-.36.33-.22.18-.01.02.05.05-.05-.02-.27-.19-.55-.37-.82-.56-1.54-1.05-3.45-1.34-4.59.4-1.32,2.02-1.55,4.85-1.85,7.18-.34,2.73-.54,5.51-.46,8.26.1,3.18,1.26,6.27,2.37,9.22,1.46,3.88,3.03,7.77,3.5,11.92.12,1.1.17,2.21.16,3.31,0,.7.05,1.48-.25,2.14-.4.89-1.36,1.41-2.24,1.72-2.61.94-5.69.78-8.37.28-2.49-.46-5.32-1.18-6.72-3.49-1.9-3.14-2.27-7.09-3.08-10.61s-1.87-6.77-2.91-10.11c-2.26-7.3-4.78-14.52-7.76-21.56s-6.1-13.42-10.37-19.39c-3.32-4.64-7.4-9.19-12.79-11.39-2.26-.93-4.73-1.35-7.16-1.1-1.89.19-3.74.73-5.59,1.16-2.37.55-4.73,1.11-7.1,1.64-8.03,1.81-16.23,3.57-24.51,3.5-7.04-.06-13.81-1.81-19.7-5.74-2.88-1.92-5.28-4.3-8.51-5.67-2.98-1.26-6.18-1.84-9.4-2.01-7.09-.38-14.2,1.04-21.15,2.22s-13.94,2.47-20.88,1.57c-3.02-.39-5.95-1.3-8.56-2.88-1.39-.84-2.66,1.34-1.27,2.18h0Z"/>
      </g>
      <g>
        <path class="cls-17" d="m172.09,203.16c-.72,0-1.56-1.11-1.86-2.1-.04-.12-.02-.26.06-.36.02-.03.09-.11.19-.11.56,0,.95-.29,1.12-.75.19-.51.04-1.07-.35-1.41-.09-.07-.13-.19-.13-.33,0-.13.06-.25.15-.31.42-.3.9-.46,1.4-.46,1.22,0,1.84.91,1.84,2.69,0,1.59-.82,2.37-2.04,3.04-.12.07-.24.1-.36.1Z"/>
        <path class="cls-5" d="m172.66,197.75c.39,0,1.42,0,1.42,2.27,0,1.22-.49,1.94-1.82,2.68-.08.04-.13.05-.16.05-.41,0-1.13-.77-1.45-1.73.6-.03,1.12-.43,1.34-1.03.25-.67.05-1.43-.48-1.85.35-.25.74-.38,1.15-.38m0-.84c-.59,0-1.16.19-1.64.54-.41.3-.44.98-.05,1.3.53.45.26,1.42-.4,1.42h-.1c-.46,0-.8.52-.65,1.01.33,1.09,1.27,2.4,2.27,2.4.19,0,.38-.05.57-.15,1.32-.72,2.26-1.62,2.26-3.41s-.62-3.11-2.26-3.11h0Z"/>
      </g>
      <g>
        <path class="cls-3" d="m123.87,100.22c-.17,0-.33-.04-.48-.11-1.44-.68-2.39-1.45-2.39-3.03,0-1.79.75-2.69,2.21-2.69.6,0,1.19.17,1.7.48.11.07.17.18.18.3,0,.12-.05.23-.15.3-.43.31-.61.84-.44,1.34.16.51.62.84,1.15.84h.11c.13,0,.24.06.32.16.04.05.09.16.04.29-.36,1.02-1.35,2.12-2.25,2.12Z"/>
        <path class="cls-5" d="m123.2,94.81c.52,0,1.02.14,1.43.36-.55.42-.76,1.11-.55,1.77.22.67.84,1.13,1.55,1.13h.04c-.33.83-1.15,1.73-1.81,1.73-.1,0-.2-.02-.3-.07-1.57-.74-2.15-1.46-2.15-2.65,0-2.01.96-2.27,1.79-2.27m0-.84c-1.91,0-2.63,1.32-2.63,3.11s1.1,2.69,2.63,3.41c.22.1.44.15.66.15,1.16,0,2.26-1.31,2.64-2.4.18-.5-.22-1.01-.76-1.01h-.11c-.77,0-1.09-.97-.47-1.42.46-.33.43-1.01-.05-1.3-.56-.35-1.23-.54-1.92-.54h0Z"/>
      </g>
      <g>
        <path class="cls-11" d="m197.91,113.01c-.68,0-1.34-.28-1.91-.82-.38-.36-.4-1.28-.04-1.68.58-.64.59-1.65.3-2.31-.24-.54-.65-.85-1.14-.85h-.13c-.12,0-.22-.1-.26-.17-.17-.22-.3-.64-.2-1.08.42-1.82,1.61-3.84,2.62-3.84.17,0,.34.06.52.18,1.48,1.06,2.85,2.47,2.85,5.59,0,2.27-.45,4.99-2.6,4.99Z"/>
        <path class="cls-5" d="m197.15,102.67s.12,0,.27.11c1.6,1.15,2.67,2.48,2.67,5.25,0,2.08-.38,4.57-2.18,4.57-.57,0-1.13-.25-1.63-.71-.2-.19-.24-.84-.02-1.09.7-.77.72-1.97.37-2.77-.3-.69-.87-1.1-1.52-1.1h-.06c-.08-.09-.2-.38-.12-.73.46-1.95,1.58-3.52,2.22-3.52m0-.84c-1.33,0-2.59,2.27-3.03,4.17-.2.86.26,1.76.87,1.76h.13c.88,0,1.25,1.69.53,2.46h0c-.52.57-.49,1.75.06,2.27.65.6,1.41.94,2.2.94,2.19,0,3.02-2.3,3.02-5.41s-1.26-4.67-3.02-5.93c-.25-.18-.51-.26-.76-.26h0Z"/>
      </g>
      <g>
        <path class="cls-5" d="m68.33,90.98c-.17,0-.33-.04-.48-.11-1.44-.68-2.39-1.45-2.39-3.03,0-1.79.75-2.69,2.21-2.69.6,0,1.19.16,1.7.48.11.07.17.18.18.3,0,.12-.05.23-.15.3-.43.31-.61.84-.44,1.34.16.51.62.84,1.15.84h.11c.13,0,.24.06.32.16.04.05.09.16.04.29-.36,1.02-1.35,2.12-2.25,2.12Z"/>
        <path class="cls-5" d="m67.67,85.56c.52,0,1.02.14,1.43.36-.55.42-.76,1.11-.55,1.77.22.67.84,1.13,1.55,1.13h.04c-.33.83-1.15,1.73-1.81,1.73-.1,0-.2-.02-.3-.07-1.57-.74-2.15-1.46-2.15-2.65,0-2.01.96-2.27,1.79-2.27m0-.84c-1.91,0-2.63,1.32-2.63,3.11s1.1,2.69,2.63,3.41c.22.1.44.15.66.15,1.16,0,2.26-1.31,2.64-2.4.18-.5-.22-1.01-.76-1.01h-.11c-.77,0-1.09-.97-.47-1.42.46-.33.43-1.01-.05-1.3-.56-.35-1.23-.54-1.92-.54h0Z"/>
      </g>
      <g>
        <path class="cls-15" d="m215.63,174.74c-1.47,0-2.21-1.14-2.21-3.39,0-2.01.97-2.98,2.43-3.82.15-.09.3-.13.45-.13.89,0,1.87,1.36,2.24,2.64.07.23,0,.44-.1.56-.04.06-.13.15-.26.15h-.11c-.49,0-.92.32-1.11.83-.22.59-.08,1.25.37,1.65.12.11.19.29.18.49,0,.19-.09.37-.21.46-.5.38-1.07.58-1.66.58Z"/>
        <path class="cls-5" d="m216.29,167.82c.59,0,1.5,1.16,1.84,2.33.02.07,0,.14-.02.17h-.05c-.67,0-1.25.42-1.5,1.1-.29.75-.09,1.6.48,2.11.02.02.04.08.04.16,0,.08-.03.14-.05.14-.42.32-.91.49-1.41.49-.44,0-1.79,0-1.79-2.98,0-1.81.85-2.67,2.22-3.46.08-.05.16-.07.24-.07m0-.84c-.22,0-.44.06-.66.18-1.54.89-2.63,1.99-2.63,4.18s.73,3.82,2.63,3.82c.69,0,1.35-.24,1.92-.66.48-.36.51-1.2.05-1.6h0c-.62-.55-.3-1.74.47-1.74h.11c.53,0,.93-.63.76-1.24-.39-1.34-1.48-2.94-2.64-2.94h0Z"/>
      </g>
      <g>
        <path class="cls-4" d="m44.85,208.6c-.38,0-.94-.7-1.15-1.44-.03-.11.03-.2.05-.21h0c.42,0,.73-.23.87-.59.16-.42.06-.89-.26-1.17-.03-.03-.05-.09-.05-.16,0-.06.03-.12.06-.15.26-.2.56-.31.87-.31.28,0,1.13,0,1.13,1.85,0,1.11-.54,1.65-1.34,2.12-.06.04-.12.05-.18.05Z"/>
        <path class="cls-5" d="m45.24,204.99c.19,0,.71,0,.71,1.43,0,.81-.28,1.26-1.11,1.75-.15-.06-.45-.4-.64-.86.36-.12.67-.41.82-.8.18-.48.11-1.02-.18-1.42.13-.06.27-.09.4-.09m0-.84c-.41,0-.8.14-1.13.39-.28.22-.3.71-.03.95.36.33.18,1.03-.27,1.03h-.07c-.31,0-.55.38-.45.74.23.8.87,1.75,1.55,1.75.13,0,.26-.03.39-.11.9-.53,1.55-1.18,1.55-2.49s-.43-2.27-1.55-2.27h0Z"/>
      </g>
      <g>
        <path class="cls-12" d="m154.97,266.21c-.72,0-1.56-1.11-1.87-2.1-.04-.12-.02-.26.06-.36.02-.03.09-.11.19-.11.56,0,.95-.29,1.12-.75.19-.51.04-1.07-.35-1.4-.09-.07-.13-.2-.13-.33,0-.13.06-.25.15-.31.42-.3.9-.46,1.4-.46,1.22,0,1.84.91,1.84,2.69,0,1.59-.82,2.37-2.04,3.04-.12.07-.24.1-.36.1Z"/>
        <path class="cls-5" d="m155.54,260.8c.39,0,1.42,0,1.42,2.27,0,1.22-.49,1.94-1.82,2.68-.08.04-.13.05-.16.05-.41,0-1.13-.77-1.45-1.73.6-.03,1.12-.43,1.34-1.03.25-.67.05-1.43-.48-1.85.35-.25.74-.38,1.15-.38m0-.84c-.59,0-1.16.19-1.64.54-.41.3-.44.98-.05,1.3.53.45.26,1.42-.4,1.42h-.1c-.46,0-.8.52-.65,1.01.33,1.09,1.27,2.4,2.27,2.4.19,0,.38-.05.57-.15,1.32-.72,2.26-1.62,2.26-3.41s-.62-3.11-2.26-3.11h0Z"/>
      </g>
      <g>
        <path class="cls-6" d="m247.84,183.11c3.33-.78,6.75-1.17,10.17-1.15,2.17.01,4.51.25,6.16,1.64,1.36,1.15,2.05,2.95,2.08,4.72.07,3.31-2.05,6.46-4.98,8.07-2.93,1.61-6.52,1.78-9.75.9-3.23-.88-6.11-2.75-8.58-4.98"/>
        <path class="cls-5" d="m248.18,184.32c2.21-.51,4.45-.86,6.72-1.01,1.98-.13,4.11-.28,6.06.16,4.08.91,4.96,5.27,3.03,8.59s-5.84,4.73-9.59,4.46c-4.01-.29-7.62-2.48-10.55-5.1-1.21-1.08-3,.7-1.78,1.78,5.42,4.83,13.87,8.34,20.6,3.82,2.82-1.89,4.86-5.08,4.86-8.54,0-3.66-2.32-6.65-5.89-7.44-2.19-.49-4.51-.4-6.73-.25-2.49.17-4.96.54-7.39,1.1-1.58.36-.91,2.79.67,2.43h0Z"/>
      </g>
      <g>
        <path class="cls-6" d="m49.61,232.56c-3.16,1.3-6.48,2.22-9.86,2.75-2.15.33-4.49.47-6.35-.65-1.53-.92-2.5-2.59-2.82-4.33-.6-3.26.98-6.7,3.61-8.75s6.15-2.79,9.48-2.43,6.48,1.74,9.28,3.55"/>
        <path class="cls-5" d="m49.28,231.34c-2.03.82-4.11,1.51-6.23,2.03-2.01.49-4.12.96-6.2.91-1.97-.05-3.65-.87-4.53-2.69-.78-1.61-.73-3.47-.15-5.13,1.28-3.65,4.92-5.75,8.64-6.08,4.15-.37,8.08,1.23,11.52,3.42,1.37.87,2.64-1.31,1.27-2.18-6.16-3.93-14.99-5.89-20.92-.38-2.51,2.34-3.9,5.86-3.32,9.28.61,3.65,3.49,6.06,7.13,6.28,2.14.13,4.36-.33,6.44-.8,2.4-.54,4.75-1.29,7.03-2.21,1.48-.6.83-3.04-.67-2.43h0Z"/>
      </g>
      <path class="cls-5" d="m251.73,92.14c-.29-3.17-2.33-5.58-4.97-7.2-3.12-1.91-6.82-2.37-10.13-3.82-6.03-2.65-9.31-9.21-9.67-15.56-.21-3.71,1.08-8.87,5.61-9.15,1.61-.1,1.62-2.62,0-2.52-3.5.22-6.23,2.69-7.41,5.9-1.29,3.51-.82,7.67.21,11.18.94,3.25,2.59,6.35,4.96,8.79,2.65,2.73,5.99,4.05,9.55,5.14s8.91,2.76,9.33,7.24c.15,1.6,2.67,1.62,2.52,0h0Z"/>
      <path class="cls-5" d="m190.63,73.54c-1.96-1.42-3.97-2.8-5.88-4.28-1.77-1.37-3.44-2.97-3.99-5.22-1.15-4.69,2-9.15,4.02-13.1.98-1.91,2.32-4.32,2.15-6.53-.14-1.9-1.66-3.37-3.37-4.01-1.86-.7-4.19-.76-6.14-.45-1.67.27-3.12,1.07-3.65,2.75-.49,1.55,1.94,2.21,2.43.67.43-1.37,3.21-1.06,4.26-1s2.22.18,3.09.84c.97.74.96,1.62.65,2.73-1.13,3.93-3.82,7.23-5.2,11.07-1.29,3.59-1.48,7.7.85,10.91s6.31,5.46,9.52,7.78c1.32.95,2.57-1.23,1.27-2.18h0Z"/>
      <path class="cls-5" d="m139.92,70.55c-3.14-1.12-5.86-3.56-7.04-6.71-1.3-3.45-.66-7.4,1.66-10.26,2.04-2.52,4.69-4.92,3.92-8.49s-4.4-5.49-7.75-6.14c-1.58-.31-2.26,2.12-.67,2.43,1.84.36,3.82.96,5.05,2.47,1.13,1.38,1.27,3.03.38,4.57s-2.22,2.69-3.26,4.08-1.78,2.97-2.17,4.65c-1.59,6.93,2.69,13.52,9.21,15.84,1.53.55,2.19-1.89.67-2.43h0Z"/>
      <path class="cls-5" d="m100.53,67.05c-1.05-1.03-2.33-1.56-3.65-2.15s-2.48-1.17-2.79-2.65c-.32-1.58.07-3.28-.12-4.88s-.63-3.09-1.28-4.55c-1.36-3.05-3.54-5.68-5.79-8.12s-4.38-4.97-7.55-5.84c-1.57-.43-2.23,2-.67,2.43,2.99.82,5.28,3.87,7.26,6.1,2.14,2.4,4.19,5.09,5.12,8.22.46,1.56.48,3.07.44,4.68-.04,1.48.02,3.02.83,4.31,1.49,2.38,4.54,2.38,6.41,4.23,1.16,1.14,2.94-.64,1.78-1.78h0Z"/>
      <path class="cls-5" d="m84.43,45.44c-1.55,1.52-3.6,2.65-5.84,2.39s-3.47-1.86-4.72-3.44-2.43-3.02-4.23-3.86c-1.93-.9-4.07-1.08-6.12-.53-1.57.42-.9,2.85.67,2.43,2.12-.56,4.35-.05,5.95,1.47,1.48,1.41,2.48,3.26,4.04,4.59,3.73,3.17,8.77,1.93,12.04-1.26,1.16-1.14-.62-2.92-1.78-1.78h0Z"/>
      <path class="cls-5" d="m181.17,60.2c1.03-1.5,2.96-4.2,5.09-2.85.92.58,1.63,1.38,2.63,1.86.95.45,1.94.74,2.98.87,4.17.51,7.98-1.99,9.52-5.82.6-1.5-1.83-2.16-2.43-.67-1.51,3.77-6.22,5.14-9.61,3-.89-.56-1.56-1.39-2.56-1.79-.94-.38-1.98-.39-2.95-.13-2.22.59-3.61,2.47-4.85,4.26-.92,1.34,1.26,2.6,2.18,1.27h0Z"/>
      <path class="cls-5" d="m230.52,80.04c1.92,1.45,3.57,3.35,4.59,5.54,1.08,2.34,1.02,4.54.49,6.99s-.56,4.7,1.53,6.3c2.23,1.7,5,2.91,7.54,4.07,1.46.67,2.75-1.5,1.27-2.18-1.3-.59-2.58-1.22-3.84-1.89-1.16-.62-2.63-1.22-3.6-2.12-1.02-.94-.72-2.29-.46-3.51s.53-2.36.53-3.58c.01-4.82-3.07-9.01-6.77-11.8-1.3-.98-2.55,1.21-1.27,2.18h0Z"/>
      <path class="cls-5" d="m135.74,41.08c-.71-.43-1.52-.9-1.96-1.64-.51-.86-.22-1.98-.29-2.93-.17-2.07-1.29-3.82-2.69-5.29-2.95-3.11-6.76-5.54-10.66-7.26-.63-.28-1.35-.18-1.72.45-.32.53-.17,1.45.45,1.72,3.85,1.7,7.72,4.08,10.52,7.27.62.7,1.17,1.51,1.43,2.41.29.99.09,2.02.2,3.04.23,2.09,1.76,3.37,3.45,4.4,1.39.84,2.66-1.34,1.27-2.18h0Z"/>
      <g>
        <path class="cls-5" d="m123.74,155.96c-3.18,0-5.77-2.26-5.77-5.03s2.59-5.03,5.77-5.03,5.77,2.26,5.77,5.03-2.59,5.03-5.77,5.03Z"/>
        <path class="cls-5" d="m123.74,146.32c2.95,0,5.35,2.07,5.35,4.61s-2.4,4.61-5.35,4.61-5.35-2.07-5.35-4.61,2.4-4.61,5.35-4.61m0-.84c-3.42,0-6.19,2.44-6.19,5.45s2.77,5.45,6.19,5.45,6.19-2.44,6.19-5.45-2.77-5.45-6.19-5.45h0Z"/>
      </g>
      <g class="cls-2">
        <path class="cls-5" d="m117.2,29.37c1.45.72,2.88,1.48,4.24,2.35.37.24.74.48,1.1.73.1.07,1.04.79.55.39s.38.33.48.42c.3.26.59.54.87.82.47.47.9.97,1.34,1.47-.77-.89.03.08.15.26.22.33.42.67.61,1.02.07.13.6,1.11.26.46s.11.29.16.46c.15.48.07,1.2.06.03,0-.34.69-1.7.18-1-1.63,2.2-.34,5.63,1.81,6.9.06.04.96.54.94.61-.47-.38-.57-.45-.29-.21.14.12.28.25.41.38.22.21.42.46.64.68.24.28.17.18-.21-.29.11.15.22.3.32.46.17.26.33.53.48.8.09.16.17.33.25.5.16.34.11.22-.15-.35.11.08.35,1.04.32,1.06l-.06-.61c.06-.42.16-.83.28-1.23l1.81-1.81c-1.05.79-1.97,1.49-2.76,2.57-.41.57-.75,1.18-1.11,1.78-.71,1.2-1.46,2.39-2.05,3.66-1.62,3.48-2.15,7.04-1.56,10.83.99,6.36,5.68,11.16,11.51,13.45,2.46.96,5.64-1.06,6.2-3.52.66-2.9-.89-5.17-3.52-6.2,1.19.47.13.05-.14-.09-.33-.17-.65-.35-.96-.55-.21-.13-.41-.27-.61-.41l.43.34c-.3-.14-.59-.5-.83-.73-.27-.26-.5-.54-.76-.8-.76-.77.41.71-.11-.14-.19-.31-.4-.61-.58-.94-.24-.43-.5-.91-.15-.18-.37-.76-.54-1.65-.7-2.48.22,1.15.02-.08,0-.37-.01-.43.02-.86.02-1.29.01-1.14-.23.65.06-.36.12-.41.23-.83.33-1.25.25-1.05-.32.49.16-.43.24-.47.48-.94.74-1.4.43-.75.87-1.49,1.31-2.24.21-.36.47-.71.64-1.08.35-.55.08-.29-.82.77.28-.21.55-.42.83-.63,2.42-1.87,2.79-5.1,1.95-7.87-1.16-3.84-3.75-7.08-7.2-9.12l1.81,6.9c1.56-2.11,1.43-5.15.53-7.49s-2.15-4.33-3.78-6.25c-2.76-3.26-6.57-5.57-10.36-7.45-2.36-1.17-5.57-.71-6.9,1.81-1.2,2.28-.71,5.64,1.81,6.9h0Z"/>
      </g>
      <g class="cls-2">
        <path class="cls-5" d="m66.83,46.47c.59-.38-.19.09-.39.09.07,0,1.17-.26.21-.11-.82.13-.1.07.09.05.54-.06-.94-.25-.42-.06.04.02.76.23.76.21-.04.06-1.03-.52-.32-.13.19.1.38.2.56.31.07.04.94.64.28.17-.6-.43.03.06.15.16.22.2.43.4.64.6.34.32.67.65,1.02.97.99.89,2.06,1.74,3.2,2.43,4.54,2.75,10.44,3.2,15.07.4,2.25-1.36,3.3-4.58,1.81-6.9s-4.48-3.27-6.9-1.81c-.19.12-.39.22-.59.34-.9.52.67-.16.11-.05-.22.04-.43.14-.65.19-.17.04-.93.13-.16.07.85-.07-.17,0-.35,0-.23,0-.46,0-.68,0s-.46-.07-.68-.05c1.08-.07.64.08.17-.03s-.99-.42-1.45-.46c.27.03.87.42.28.09-.2-.11-.4-.21-.6-.32s-.39-.23-.58-.35c-.08-.05-.93-.7-.32-.19.56.47-.04-.04-.15-.13-.22-.19-.44-.38-.65-.58-1.93-1.79-3.74-3.36-6.23-4.32-2.66-1.02-5.89-.82-8.31.71-2.23,1.41-3.32,4.55-1.81,6.9s4.51,3.32,6.9,1.81h0Z"/>
      </g>
      <g class="cls-2">
        <path class="cls-5" d="m75.39,43.27c1.32.88,2.63,1.78,3.89,2.74-.7-.53.08.08.33.28.28.23.55.46.82.7.6.52,1.18,1.05,1.73,1.61.51.51,1,1.03,1.47,1.57.1.11.93,1.2.26.28.21.28.41.56.61.85.43.63.83,1.28,1.19,1.96.16.3.3.63.47.93.15.33.12.25-.09-.26.08.19.15.38.22.58.26.71.48,1.43.64,2.17.03.14.24,1.29.12.55s.03.39.04.54c.12,1.75.11,3.56.59,5.26,1.19,4.24,4.67,6.33,8.66,7.48,2.53.73,5.6-.89,6.2-3.52s-.81-5.42-3.52-6.2c-.37-.11-.74-.21-1.1-.33-.17-.06-1.1-.52-.47-.16.72.41-.39-.21-.4-.27.46.39.56.46.29.21-.25-.26-.19-.16.18.29-.51-.73.04.52-.05,0-.02-.11-.29-.91-.22-.94-.05.02.11,1.11.03-.03-.02-.33-.04-.67-.05-1-.18-3.64-1.03-6.97-2.72-10.21-3.11-5.93-8.55-10.15-14.01-13.79-2.2-1.47-5.68-.5-6.9,1.81-1.34,2.53-.54,5.33,1.81,6.9h0Z"/>
      </g>
      <g class="cls-2">
        <path class="cls-5" d="m179.47,44.19c-.49.57-.56.67-.2.28-.62.45-.71.53-.25.24-1.35.62-.02.07.33-.04.55-.1.44-.09-.33.03.23-.02.45-.03.68-.04.45-.02.9.02,1.36.02.56.05.47.04-.29-.05.23.04.45.09.68.16.92.17-.79-.52.02.03-.38-.21-.67-.51-.87-.9.28.5.26.45-.04-.14.12.57.12.51.03-.17.03.26.06.53.08.79.11,1.07.2,2.16.15,3.24,0,.2-.02.4-.04.6-.04.38-.02.27.04-.36-.05.26-.11.51-.19.76-.19.53-.16.5.07-.11-.12.24-.26.48-.42.7.38-.47.38-.48.01-.05-.39.4-.77.81-1.14,1.22-.85.94-1.67,1.95-2.31,3.05-2.61,4.51-2.79,9.99-.64,14.7,1.95,4.29,6.08,7.54,10.62,8.67,2.55.64,5.58-.82,6.2-3.52s-.78-5.52-3.52-6.2c-.36-.09-.71-.2-1.06-.3-.9-.27.67.39-.15-.07-.38-.21-.75-.41-1.11-.65-.03-.02-.45-.31-.45-.31.04-.05.76.68.16.09-.26-.26-.53-.5-.78-.77-.12-.13-.24-.28-.36-.41-.39-.43.25.27.23.29,0,0-.65-1.06-.67-1.09-.02-.04-.22-.49-.25-.49.11,0,.33.98.09.19-.11-.36-.21-.73-.31-1.09-.26-.93,0,.81-.04-.15-.02-.38-.04-.75-.03-1.13,0-.1.06-.75.05-.75.1.06-.21,1.05-.02.22.09-.37.17-.74.28-1.1.06-.18.13-.36.18-.54.16-.58-.11.36-.15.33-.05-.04.48-.91.53-1,.1-.16.22-.31.31-.48.31-.56-.8.86.05-.06,1.48-1.6,2.96-3.16,3.82-5.19s1.16-4.24,1.06-6.44c-.1-2.33-.29-4.75-1.31-6.87s-3.29-3.72-5.61-4.32c-4.73-1.23-10.39-.22-13.18,4.07-1.44,2.21-.52,5.67,1.81,6.9,2.51,1.33,5.36.56,6.9-1.81h0Z"/>
      </g>
      <g class="cls-2">
        <path class="cls-5" d="m195.88,51.24c-.22.45-.47.86-.77,1.26l.79-1.02c-.42.54-.89,1.01-1.42,1.43l1.02-.79c-.65.5-1.34.9-2.09,1.23l1.2-.51c-.88.37-1.79.62-2.74.75l1.34-.18c-.72.09-1.44.13-2.17.06l1.34.18c-.3-.04-.56-.11-.84-.22l1.2.51c-.24-.12-.46-.26-.67-.43l1.02.79c-.75-.61-1.47-1.31-2.34-1.73-1.55-.75-3.35-1.14-5.04-.56-1.25.43-2.33,1.15-3.01,2.32-.63,1.08-.9,2.67-.51,3.88s1.15,2.4,2.32,3.01,2.6.95,3.88.51c.12-.05.25-.09.38-.1l-1.34.18h.2c-.45-.06-.89-.12-1.34-.18.21.03.38.07.58.15l-1.2-.51c.25.12.47.26.69.43l-1.02-.79c.94.76,1.8,1.51,2.92,1.98s2.37.7,3.63.68c1.59-.02,3.27-.26,4.78-.79,3.27-1.16,6.35-3.28,7.91-6.48.6-1.23.88-2.53.51-3.88-.32-1.17-1.23-2.44-2.32-3.01-1.17-.62-2.59-.93-3.88-.51-1.2.39-2.44,1.15-3.01,2.32h0Z"/>
      </g>
      <g class="cls-2">
        <path class="cls-5" d="m232.94,50.33c-5.61-.52-10.18,3.93-11.93,8.87s-1.54,10.49.61,15.02c.93,1.97,2.33,3.7,3.7,5.37.57.69,1.16,1.37,1.73,2.06.29.35.77.78.97,1.19-.01-.02-.53-.74-.21-.26.19.28.39.54.58.82.56.84,1.03,1.71,1.49,2.61.43.84.09.16.01-.03.11.26.21.53.31.8.19.54.37,1.08.52,1.64.13.48.25.97.34,1.46.08.41.16,1.56.11.57.06,1.13.09,2.26.14,3.39.08,1.82.38,3.54,1.22,5.16s2.06,2.7,3.44,3.73c2.22,1.66,4.82,2.83,7.48,3.59s5.6-.88,6.2-3.52-.81-5.43-3.52-6.2c-.43-.12-.86-.25-1.28-.4-.32-.11-1.19-.56-.45-.16-.93-.49-1.83-.97-2.71-1.55-.79-.52.49.45-.21-.19s.43.54-.16-.2c.1.13.17.74.14.25-.01-.17-.17-.43-.13-.6,0,0,.02.92.08.3.02-.27-.02-.57-.02-.84-.07-4.41-.94-8.51-2.89-12.48-.9-1.82-2.08-3.42-3.33-5.01-.52-.65-1.05-1.29-1.59-1.92-.35-.42-1.52-1.39-1.59-1.92,0,.01.55.74.21.27-.11-.15-.23-.3-.34-.46-.22-.3-.43-.61-.63-.93-.23-.37-.45-.74-.65-1.13-.02-.04-.23-.5-.24-.5.09-.02.34.98.09.18-.11-.36-.21-.71-.31-1.08-.02-.08-.15-.81-.06-.2s0-.12,0-.21c-.04-.96-.03-1.91.03-2.86.02-.29.06-.57.07-.86.04-.75-.18.79,0,.06.12-.49.19-.98.33-1.46.06-.2.15-.41.19-.61.13-.66-.36.6-.03.02.07-.12.59-1.27.72-1.24.08.02-.67.7-.21.3.17-.15.38-.35.52-.52.38-.45-.26.28-.3.21-.02-.04.71-.42.78-.48.47-.33-.32.21-.37.14,0,0,.69-.18.69-.2-.03.07-1.01.02-.45.06.3.02.6,0,.91.03,2.63.24,5.15-2.49,5.04-5.04-.13-2.94-2.22-4.78-5.04-5.04h0Z"/>
      </g>
      <g class="cls-2">
        <path class="cls-5" d="m232.01,86.59c3.45,1.22,7.16,1.23,10.67,2.18.41.11.81.23,1.21.37.16.06.84.34.13.03s-.03,0,.11.06c.38.18.74.38,1.1.61.18.12.42.23.58.39-.1-.1-.87-.75-.39-.27.26.26.52.51.76.77.51.55-.27-.38-.29-.38.06,0,.26.4.3.45.12.19.21.4.32.59.29.48-.33-1.01-.2-.47.09.39.22.75.28,1.15l-.18-1.34c.04.36.06.7.04,1.06-.08,2.64,2.38,5.16,5.04,5.04,2.8-.13,4.95-2.21,5.04-5.04s-1.1-5.52-2.88-7.76c-1.64-2.07-3.94-3.37-6.35-4.33-4.05-1.61-8.52-1.39-12.61-2.83-2.49-.88-5.62,1-6.2,3.52-.64,2.82.86,5.26,3.52,6.2h0Z"/>
      </g>
      <g>
        <path class="cls-14" d="m2.14,139.95c1.42.35,2.64.1,4.02-.27.21-.06.43-.13.65-.1.15.02.11.05.2.14.19.2.44.7.67,1.03.8,1.14,1.96,1.64,3.35,1.31,1.29-.31,2.49-1.15,3.49-2,.52-.44.45-1.33,0-1.78-.51-.51-1.26-.44-1.78,0-.66.56-1.67,1.34-2.57,1.38-.21.01-.29-.16-.39-.3-.27-.41-.5-.83-.81-1.21-.76-.94-1.86-1.22-3.02-1.01-.56.1-1.08.33-1.63.43-.5.1-1.01.06-1.5-.06-1.58-.38-2.25,2.05-.67,2.43h0Z"/>
        <path class="cls-7" d="m8.11,140.09c.85-.25,1.65-.71,2.26-1.36.3-.32.59-.69.79-1.09.12-.23.22-.47.32-.71.04-.1.08-.21.12-.31.08-.22-.05.06.03-.06.05-.07.08-.16.13-.23l-.07.09c.09-.08.1-.1.03-.03,0,0-.18.14-.17.08,0-.01.32-.02.34-.02.51-.02,1.01-.04,1.52-.06,1.09-.04,2.15-.02,3.01-.78.49-.44.48-1.34,0-1.78-.53-.48-1.26-.47-1.78,0,.16-.14-.1.02.03-.02.14-.05-.18.03-.18.03.12-.03.1-.01-.01,0-.1,0-.2.01-.31.01-.48.02-.96.04-1.44.05-1.1.04-2.25,0-2.99.95-.28.37-.45.78-.62,1.21-.03.07-.05.14-.08.21.09-.22-.01.02-.04.06-.09.17-.19.33-.3.49s.19-.2-.05.06c-.05.06-.1.11-.16.17-.07.07-.14.13-.21.19-.1.09.14-.08-.06.05-.16.1-.31.2-.48.28-.1.05-.12.04,0,0-.11.04-.21.07-.32.1-.63.18-1.09.9-.88,1.55s.87,1.08,1.55.88h0Z"/>
      </g>
      <path class="cls-14" d="m16.38,110.19l1.79,1.73c.55.53,1.25,1.05,1.71,1.66.31.41.29,1.17.41,1.66.19.79.49,1.55.8,2.29.58,1.36,1.14,3.13,2.69,3.63.68.22,1.47.22,2.18.23.9,0,1.78-.08,2.67-.21.67-.1,1.04-.95.88-1.55-.2-.73-.87-.98-1.55-.88s-1.4.13-2.1.12c-.38,0-1.14.07-1.4-.15-.16-.14-.26-.45-.36-.63-.16-.33-.32-.66-.47-1-.28-.6-.53-1.21-.72-1.84s-.29-1.24-.42-1.87c-.15-.7-.5-1.26-1-1.76-1.1-1.08-2.22-2.14-3.33-3.21-1.17-1.13-2.95.65-1.78,1.78h0Z"/>
      <path class="cls-14" d="m22.47,119.22c-.01.15-.01.16,0,.02-.01.08-.03.15-.05.23-.04.15-.08.3-.14.45.08-.2-.04.07-.07.12-.07.14-.16.27-.25.39.14-.19-.06.06-.1.1-.1.11-.22.21-.33.32-.11.09-.12.1-.01.01-.07.05-.14.1-.22.15-.11.07-.22.13-.34.19-.08.04-.15.08-.23.11.1-.04.08-.04-.06.02-.12.04-.24.08-.37.12-.16.05-.33.09-.5.12-.04,0-.52.09-.3.06-.63.09-1.23.13-1.78.49-.7.46-1.06,1.28-.83,2.11s1.01,1.25,1.67,1.68c1.18.77,2.4,1.48,3.65,2.13.58.3,1.4.17,1.72-.45.31-.58.17-1.4-.45-1.72-1.16-.6-2.3-1.26-3.4-1.97-.29-.19-.57-.38-.85-.57-.21-.14.08.15-.07-.06.25.37.12.51.01.89-.07.08-.07.08,0,0-.14.11-.15.12-.03.05-.18.14-.07.03.06,0,.06-.02.12-.03.19-.04-.17.02-.2.03-.09.01.22-.02.44-.05.65-.08,2.57-.38,4.83-2.14,5-4.87.04-.66-.61-1.29-1.26-1.26-.72.03-1.22.55-1.26,1.26h0Z"/>
      <g>
        <path class="cls-14" d="m84.84,121.13c-.73,1.25-1.51,2.48-2.58,3.47-.87.79-1.91,1.19-3.02,1.51-2.28.66-4.4,1.31-5.83,3.34-1.35,1.9-1.73,4.33-2.42,6.51-.31.95-.66,2.02-1.38,2.75-.9.91-2.09.77-3.21.41-1.55-.5-2.21,1.93-.67,2.43,2.68.86,5.29.07,6.69-2.45,1.26-2.27,1.45-4.94,2.54-7.27,1.18-2.51,3.47-2.74,5.83-3.55,2.93-1.01,4.73-3.26,6.25-5.86.82-1.4-1.36-2.67-2.18-1.27h0Z"/>
        <path class="cls-14" d="m69.26,140.15c-.84-3.03-3.03-6.25-6.37-6.71-.74-.1-1.49-.06-2.21.15-.87.26-1.67.74-2.54.99-.02,0-.5.14-.51.1.05.32.22.14.27.11.03-.03-.26-1.31-.29-1.43-.19-1.12-.38-2.23-.56-3.35-.11-.67-.95-1.05-1.55-.88-.72.2-.99.88-.88,1.55.18,1.12.36,2.24.56,3.35.15.88.25,1.89.91,2.56,1.55,1.57,3.88-.21,5.52-.63.2-.05.38-.07.7-.05.27.01.4.03.76.15.46.14,1.03.47,1.44.83,1.18,1.05,1.91,2.43,2.32,3.94s2.86.9,2.43-.67h0Z"/>
        <path class="cls-14" d="m58.3,134.88c-1.16,1.63-1.27,3.75-1.95,5.58-.01.04-.14.35-.08.21s-.1.21-.12.24c-.09.18-.2.37-.32.54.1-.15-.12.14-.12.14-.08.09-.17.17-.26.25.18-.16-.06.04-.11.07-.11.07-.23.12-.34.19-.08.04-.07.03.05-.02-.05.02-.1.04-.15.05-.12.04-.24.07-.36.1-.11.02-.21.04-.32.06.28-.07-.04,0-.1,0-.47.04-.93.03-1.4.01-.66-.02-1.29.6-1.26,1.26.03.7.55,1.23,1.26,1.26,1.04.04,2.12.01,3.1-.38,1.18-.47,2.09-1.37,2.62-2.53.46-1.02.73-2.09,1-3.17.13-.51.27-1.01.44-1.5.04-.1.08-.21.12-.31-.11.27.07-.15.09-.19.11-.22.23-.42.37-.62.38-.54.11-1.42-.45-1.72-.65-.34-1.32-.12-1.72.45h0Z"/>
      </g>
      <path class="cls-14" d="m38.98,98.42c-.95,1.88-.84,3.98,0,5.88.9,2.02,2.58,3.47,4,5.1,1.64,1.88,2.22,3.78,1.39,6.18s-1.83,4.56-2.52,6.95c-.45,1.56,1.98,2.23,2.43.67.65-2.25,1.56-4.37,2.38-6.56s.94-4.25-.04-6.33c-.87-1.86-2.42-3.23-3.76-4.73s-2.76-3.81-1.71-5.89c.73-1.44-1.44-2.72-2.18-1.27h0Z"/>
      <path class="cls-14" d="m44.47,115.94c-.41,1.17.13,2.48.98,3.32.37.36.81.64,1.14.93.36.32.53.57.65.93.62,1.86.39,4.45,2.49,5.45.61.29,1.36.17,1.72-.45.32-.55.17-1.43-.45-1.72-.03-.01-.29-.16-.18-.08.09.06-.08-.07-.1-.09-.05-.05-.17-.22-.08-.08-.05-.07-.09-.14-.13-.22-.13-.24-.24-.57-.33-.97-.2-.87-.24-1.78-.55-2.63-.38-1.05-1.03-1.75-1.91-2.42-.16-.12-.22-.16-.38-.31-.07-.06-.14-.13-.2-.19-.26-.27.02.06-.1-.12s-.17-.26-.19-.39c-.01-.06-.01-.2,0-.07,0-.29-.05.09.05-.19.22-.64-.26-1.38-.88-1.55-.69-.19-1.32.24-1.55.88h0Z"/>
      <path class="cls-13" d="m83.54,144.8c.62-.12,1.48.45,2.11.54.87.12,1.7-.09,2.48-.48,1.58-.78,2.52-2.5,4.12-3.19.66-.28,1.4-.34,2.09-.15.78.21,1.39.75,2.1,1.11,1.49.74,3.26.63,4.21-.87.87-1.37-1.31-2.64-2.18-1.27-.18.29-.81-.06-1.1-.22-.66-.39-1.27-.81-2-1.06-1.5-.53-3.21-.35-4.61.4s-2.3,2.17-3.67,2.96c-.68.39-1.2.31-1.91.06-.79-.27-1.5-.4-2.33-.24-1.59.31-.92,2.74.67,2.43h0Z"/>
      <path class="cls-13" d="m95.85,141.34c.71-.55,1.17-1.34,1.59-2.12.35-.64.67-1.34,1.29-1.77,1.2-.83,2.89-.78,4.26-1.13,1.78-.46,3.18-1.5,3.89-3.23s.65-3.51,1.34-5.17c.26-.63-.28-1.39-.88-1.55-.73-.2-1.29.25-1.55.88-.67,1.6-.57,3.43-1.27,5.01-.59,1.32-1.89,1.61-3.19,1.85-1.56.29-3.13.53-4.4,1.56s-1.58,2.88-2.87,3.89c-.54.42-.44,1.34,0,1.78.53.53,1.24.42,1.78,0h0Z"/>
      <path class="cls-13" d="m92.87,156.41c-.04-.2-.09-.39-.15-.58-.03-.09-.05-.17-.07-.26,0-.02-.07-.26-.05-.15,0,.08,0,.05,0-.09l-.02.08c-.03-.06.05-.16-.03.01.03-.06.06-.11.1-.17-.13.21-.03.06.03,0,.12-.11-.17.09-.02.02.07-.03.15-.09.22-.13.12-.06.08-.04-.02,0,.06-.03.13-.05.19-.07.38-.14.77-.24,1.16-.36,1.69-.52,3.39-1.03,5.08-1.55.63-.19,1.09-.89.88-1.55s-.87-1.09-1.55-.88c-1.98.6-3.97,1.19-5.95,1.81-.85.27-1.7.66-2.2,1.43-.29.45-.43,1.02-.37,1.55s.25,1.03.35,1.56c.12.65.94,1.08,1.55.88.69-.22,1.01-.86.88-1.55h0Z"/>
      <path class="cls-13" d="m96.8,152.65c-.05-.13-.09-.26-.11-.4l.05.33c-.02-.16-.02-.32,0-.48l-.05.33c.02-.17.07-.33.13-.49l-.13.3c.06-.13.12-.25.21-.36l-.2.25c.08-.1.17-.19.27-.27l-.25.2.02-.02c.15-.08.26-.19.35-.32.11-.12.19-.26.23-.43.08-.3.05-.7-.13-.97s-.43-.51-.75-.58-.7-.07-.97.13c-.16.12-.32.23-.45.38s-.24.29-.35.45c-.06.08-.1.17-.14.27-.08.18-.16.36-.21.55s-.07.4-.1.6c-.01.1-.02.2-.01.3,0,.2.04.4.08.6.02.1.05.2.09.29.04.16.11.31.23.43.09.14.21.25.35.32.27.16.67.22.97.13s.6-.29.75-.58l.13-.3c.06-.22.06-.45,0-.67h0Z"/>
      <path class="cls-13" d="m114.41,115.42c.3,2.7,2.71,3.44,4.44,5.12s2.93,4.13,3.25,6.6c.15,1.18-.21,2.67.63,3.65s2.39.71,3.57.76c3.11.12,6.19.88,9.02,2.18,1.46.67,2.75-1.5,1.27-2.18-2.58-1.19-5.27-1.99-8.09-2.34-.67-.08-1.34-.14-2.02-.18-.37-.02-1.68.18-1.93-.02.26.2.14-.27.14-.48,0-.31-.01-.63-.04-.94-.05-.58-.13-1.16-.24-1.73-.44-2.29-1.5-4.43-2.98-6.22-.71-.85-1.54-1.58-2.45-2.21-.67-.47-1.96-1.07-2.07-2.01-.18-1.59-2.7-1.61-2.52,0h0Z"/>
      <path class="cls-13" d="m126.34,131.21c.13.98.48,1.94,1.02,2.77s1.19,1.47,1.82,2.18c.27.3.48.54.69.88.1.16.2.33.27.51-.05-.12,0,.02.02.07.03.08.05.17.08.25.03.11.05.21.07.32.04.21,0-.16,0,.05.01.19.02.38,0,.57.03-.21-.06.19-.09.26.06-.17,0,0-.05.08-.12.17.19-.2-.06.08-.46.5-.49,1.29,0,1.78.47.47,1.32.5,1.78,0,1.43-1.54,1.1-3.94-.06-5.55-.6-.83-1.35-1.53-2-2.33-.59-.72-.94-1.62-1.07-2.59-.09-.67-.96-1.04-1.55-.88-.73.2-.97.87-.88,1.55h0Z"/>
      <g>
        <path class="cls-13" d="m174.53,163.15c-3.58-1.21-7.51-1.28-11.25-1.23-.9.01-1.92-.09-2.81.05-.06,0-.13,0-.19-.02-.22-.07-.15.08.2.43-.04,0,.04-.3.05-.4.06-.45.11-.89.1-1.34-.03-1.95-.74-3.79-1.82-5.38-.91-1.33-3.09-.07-2.18,1.27,1.12,1.64,1.68,3.38,1.38,5.37-.13.88.1,1.73.91,2.21.86.51,1.93.4,2.89.37,4-.1,8.21-.19,12.05,1.11,1.54.52,2.2-1.91.67-2.43h0Z"/>
        <path class="cls-13" d="m159.08,160.06c1.05.25,2.19.2,3.22-.13.96-.31,1.96-.87,2.29-1.89.41-1.26-.49-2.35-1.46-3.03-.49-.35-1.04-.59-1.6-.82-.11-.04-.22-.09-.33-.13-.17-.07.19.09.03,0-.06-.03-.12-.05-.17-.08-.04-.02-.28-.13-.27-.16,0-.02.22.22.07.05-.12-.13.05.07.07.1.15.26.09.25.06.14.04.12.04.23.02.35-.02.12-.03.15-.01.09.03-.14-.13.28-.06.15.08-.15.07.03-.07.08.03-.01.21-.18.21-.2,0,.09-.21.14-.06.05.06-.04.12-.08.19-.12.24-.14.49-.26.74-.38.05-.02.22-.09-.01,0,.07-.03.13-.05.19-.08.16-.06.33-.12.49-.18.62-.22,1.1-.87.88-1.55-.2-.61-.88-1.11-1.55-.88-.98.34-2.15.75-2.86,1.54-.45.5-.68,1.12-.52,1.79.14.59.63,1.05,1.14,1.33.28.15.58.27.88.39.05.02.09.04.14.06.03.01.23.1.09.04s.03.01.05.02c.08.04.17.08.25.12.22.11.43.23.63.36.05.04.11.08.16.11.12.08-.07-.05-.07-.06,0,0,.27.25.29.27.2.2-.07-.16.02.02.01.02.07.12.07.13-.02,0-.08-.25-.06-.14,0,.04.02.09.04.13.05.11-.02-.17-.02-.17,0,.19.02-.12.03-.14-.01.02-.04.11-.04.13,0-.17.13-.28.06-.16-.08.13.01-.1.1-.12-.03,0-.12.13-.14.15-.18.18.2-.12.02-.02-.08.05-.16.1-.25.15-.05.02-.09.04-.14.07-.2.1.19-.07.04-.02-.11.04-.21.08-.32.11-.23.07-.52.08-.74.16,0,0,.25-.02.11-.02-.08,0-.15.01-.23.02-.12,0-.25,0-.37,0-.06,0-.12,0-.18,0-.04,0-.31,0-.11,0,.17,0,.03,0-.01,0-.09-.02-.18-.03-.26-.06-.64-.15-1.39.2-1.55.88-.15.65.19,1.39.88,1.55h0Z"/>
      </g>
      <path class="cls-13" d="m175.63,139.92c-1.13.54-2.59-.61-3.55-1.08-1.34-.65-2.76-.98-4.22-.49-1.32.44-2.38,1.3-3.55,2.03-.98.61-2.2,1.15-3.21.37-.54-.42-1.41-.08-1.72.45-.38.65-.09,1.31.45,1.72,1.22.94,2.87.9,4.26.37,1.49-.57,2.64-1.69,4.07-2.35s2.62.08,3.93.74c1.56.79,3.18,1.19,4.82.41,1.46-.7.19-2.87-1.27-2.18h0Z"/>
      <g>
        <path class="cls-1" d="m172.55,168.84l-7.53,5.41c-10.55,7.58-22.88,11.69-35.51,11.83-3.95.04-7.45-.04-9.62-.18l-.35-.02c-5.45-.35-10.8-1.76-15.8-4.15l-.57-.27c-8.6-4.12-15.24-11.94-18.34-21.6l-2.39-7.45c8.93,3.93,19.99,9.43,28.92,13.36"/>
        <path class="cls-5" d="m171.91,167.75c-3.51,2.52-6.96,5.17-10.6,7.49-7.79,4.95-16.68,8.21-25.87,9.22-4.53.5-9.14.45-13.69.27-4.29-.16-8.49-.81-12.57-2.16-7.75-2.58-14.46-7.33-18.94-14.22-3.25-5-4.79-10.68-6.59-16.29l-1.85,1.42c9.72,4.28,19.2,9.07,28.92,13.36,1.47.65,2.75-1.52,1.27-2.18-9.72-4.28-19.2-9.07-28.92-13.36-.92-.41-2.22.27-1.85,1.42,1.57,4.89,2.92,9.93,5.4,14.46,3.9,7.12,9.95,12.67,17.33,16.01,8.68,3.93,18.09,4.49,27.48,4.09,9.45-.4,18.73-3.01,27.06-7.47,5.21-2.79,9.92-6.45,14.71-9.89,1.31-.94.05-3.12-1.27-2.18h0Z"/>
      </g>
      <path class="cls-13" d="m166.1,139.89c-.13-.06-.25-.13-.37-.21-.04-.03-.09-.08-.14-.1.21.08.11.09.02,0-.1-.09-.19-.19-.27-.28-.19-.21.09.15,0,.01-.04-.06-.08-.12-.12-.19-.07-.12-.13-.24-.19-.36-.07-.13.08.23,0,0-.02-.07-.05-.14-.07-.22s-.04-.35-.09-.4c.05.04.03.27,0,.02,0-.08,0-.15-.01-.23,0-.06,0-.12,0-.18,0-.02.04-.31,0-.11s.02-.09.02-.1c.01-.06.03-.12.04-.18.04-.13.07-.31.14-.43-.04.07-.09.19-.02.05.04-.07.07-.13.11-.2s.08-.13.12-.19c.02-.04.18-.23.06-.09s.06-.07.07-.08c.04-.04.08-.08.12-.13.05-.05.11-.1.16-.15.11-.11-.25.16-.01.01.12-.08.24-.15.37-.21.59-.29.8-1.18.45-1.72-.39-.61-1.09-.77-1.72-.45-1.51.75-2.45,2.48-2.44,4.15s.96,3.39,2.49,4.11c.59.28,1.39.18,1.72-.45.3-.56.18-1.42-.45-1.72h0Z"/>
      <path class="cls-13" d="m147.71,116.23c-.05,2.09.68,4.05,2.08,5.61.63.69,1.47,1.31,1.82,2.21s-.1,1.29-.78,1.83-1.2,1.27-1.26,2.18c-.07,1.05.42,2.03.85,2.96.82,1.74,1.9,3.32,3.77,3.99,1.53.55,2.19-1.88.67-2.43-1.35-.49-2.11-2.33-2.59-3.56-.35-.89-.07-1.01.6-1.56s1.14-1.16,1.31-1.98c.38-1.79-.64-3.37-1.83-4.6-1.32-1.36-2.17-2.67-2.13-4.64.04-1.62-2.48-1.62-2.52,0h0Z"/>
      <path class="cls-13" d="m154.91,128.34c-.05.11-.1.2-.17.3l.2-.25c-.08.1-.17.19-.26.26l.25-.2c-.18.14-.38.24-.59.33l.3-.13c-.54.22-1.11.36-1.61.66-.28.17-.55.37-.75.62-.27.33-.51.7-.58,1.13-.06.35-.06.66.13.97.15.26.45.51.75.58.32.07.68.06.97-.13.26-.17.53-.44.58-.75.02-.1.04-.19.08-.28l-.13.3c.04-.1.1-.19.16-.28l-.2.25c.08-.11.18-.2.29-.28l-.25.2c.19-.14.4-.26.62-.35l-.3.13c.48-.2.97-.33,1.43-.56.52-.26,1.03-.7,1.26-1.25.09-.14.14-.3.15-.47.04-.17.03-.33-.02-.5-.08-.29-.31-.61-.58-.75-.29-.15-.65-.23-.97-.13-.29.09-.63.29-.75.58h0Z"/>
      <path class="cls-5" d="m111.27,166.92c9.81,1.5,19.81,1.59,29.7,2.14s20.09,1.17,30.12,1.86c1.62.11,1.61-2.41,0-2.52-9.87-.68-19.75-1.29-29.63-1.83-9.82-.54-19.78-.59-29.52-2.07-1.59-.24-2.27,2.19-.67,2.43h0Z"/>
      <path class="cls-5" d="m85.23,162.45c3.93,1.22,7.43,3.79,10.92,5.92,3.78,2.3,7.55,4.59,11.33,6.89,1.39.85,2.66-1.33,1.27-2.18-3.9-2.37-7.8-4.75-11.71-7.12-3.57-2.17-7.12-4.69-11.14-5.94-1.55-.48-2.22,1.95-.67,2.43h0Z"/>
      <path class="cls-5" d="m101.5,170.85c10.37-.57,20.53.66,30.58,3.21s19.2,5.31,29.12,3.73c1.6-.26.92-2.68-.67-2.43-9.9,1.58-19.67-1.72-29.16-4.08-9.78-2.42-19.79-3.51-29.86-2.95-1.61.09-1.62,2.61,0,2.52h0Z"/>
      <path class="cls-5" d="m107.61,175.3c1.97.16,3.67,1.28,5.3,2.3,1.74,1.1,3.48,2.18,5.25,3.22,3.61,2.13,7.3,4.11,11.06,5.97,1.45.72,2.73-1.46,1.27-2.18-4.01-1.98-7.95-4.12-11.79-6.41-3.44-2.05-6.96-5.09-11.09-5.43-1.62-.13-1.61,2.39,0,2.52h0Z"/>
      <path class="cls-5" d="m83.41,154.54c5.06,2.55,10.1,5.15,15.23,7.55,4.67,2.18,9.47,4.84,14.66,5.46,1.61.19,1.59-2.33,0-2.52-2.58-.31-5.02-1.31-7.36-2.36s-4.61-2.08-6.9-3.17c-4.83-2.28-9.58-4.73-14.35-7.14-1.44-.73-2.72,1.45-1.27,2.18h0Z"/>
      <path class="cls-5" d="m137.26,205.8c1.62,0,1.62-2.52,0-2.52s-1.62,2.52,0,2.52h0Z"/>
      <path class="cls-16" d="m85.21,163.45c-.65,1.59-1.68,3.8-3.3,6.16-1.22,1.8-3.69,5.02-8.95,8.73-6.95,4.91-13.81,7.16-17.89,8.21-4.04,1.04-12.22,3.05-22.6,1.03-1.8-.35-3.72-1.14-5.62-2.12-6.87-3.54-12.65-9.16-16.87-16.06-1.53-2.5-3.07-5.02-5.29-8.52"/>
      <path class="cls-5" d="m5.39,162.2c1.62,0,1.62-2.52,0-2.52s-1.62,2.52,0,2.52h0Z"/>
      <path class="cls-5" d="m4.64,162.65c5.42.93,11.06.63,16.54.82,4.94.17,9.88.36,14.82.46,8.6.17,17.21.12,25.81.27,7.12.12,14.24.2,21.35.09,1.62-.03,1.62-2.55,0-2.52-11.12.17-22.23-.21-33.35-.27-8.83-.04-17.64-.16-26.47-.47-2.66-.09-5.31-.18-7.97-.25-3.35-.08-6.75,0-10.07-.56-1.59-.27-2.27,2.16-.67,2.43h0Z"/>
      <path class="cls-5" d="m6.04,162.93c4.82,1.91,9.67,3.83,14.72,5.06s10.05,1.5,15.19,1.14,10.31-.89,15.51-.96,10.37.03,15.56-.15c5.74-.2,11.47-.78,17.03-2.28,1.56-.42.9-2.85-.67-2.43-9.8,2.64-19.98,2.24-30.03,2.31-5.1.04-10.14.38-15.22.81s-10.24.52-15.33-.57c-5.54-1.19-10.84-3.29-16.09-5.38-1.51-.6-2.16,1.84-.67,2.43h0Z"/>
      <path class="cls-5" d="m31.67,167.32c-6.6,3.81-14.35,2.62-21.43,1.07-1.58-.35-2.26,2.08-.67,2.43,7.77,1.7,16.15,2.84,23.38-1.32,1.4-.81.14-2.99-1.27-2.18h0Z"/>
      <path class="cls-5" d="m15.35,177.35c10.17.12,19.74,3.87,29.8,4.83,2.09.2,4.31.46,6.38,0,1.61-.35,3.15-1.04,4.63-1.74,3.4-1.6,6.62-3.66,10.13-5.01,2-.77,3.75-.86,5.87-.47,2.49.46,4.73.73,7.02-.61,1.4-.82.13-2.99-1.27-2.18-2.08,1.21-4.16.45-6.37.14-1.78-.25-3.46-.16-5.17.41-3.42,1.14-6.55,3.07-9.76,4.69-1.55.78-3.12,1.56-4.79,2.07-1.77.54-3.53.4-5.36.27-4.96-.35-9.8-1.49-14.64-2.59-5.43-1.24-10.9-2.28-16.49-2.35-1.62-.02-1.62,2.5,0,2.52h0Z"/>
      <path class="cls-13" d="m16.4,160.48c-.05-.41-.12-.81-.2-1.22-.06-.29,0,.28,0-.02,0-.07,0-.15,0-.22,0-.21.03-.08-.02.04.02-.06.04-.15.05-.21.05-.23-.14.24-.03.05.03-.04.06-.09.08-.13.06-.13-.21.23-.07.09.04-.04.08-.08.12-.12.14-.14-.22.15-.1.07.05-.03.09-.06.14-.09.08-.05.17-.09.25-.14,1.25-.61,2.52-1.21,3.78-1.81.6-.29.8-1.18.45-1.72-.39-.61-1.09-.76-1.72-.45-.69.33-1.37.66-2.06.99-.63.3-1.29.57-1.9.92-.66.37-1.15.95-1.38,1.68-.12.38-.14.8-.1,1.2.03.26.07.52.12.77.02.09.03.18.05.26.01.08.06.43.02.06.04.35.11.64.37.89.22.22.58.38.89.37.62-.03,1.34-.56,1.26-1.26h0Z"/>
      <path class="cls-13" d="m18.85,156.39c-.03-.1-.04-.19-.06-.29l.05.33c-.03-.24-.03-.49,0-.73l-.05.33c.03-.21.08-.42.16-.61l-.13.3c.05-.11.1-.21.17-.31l-.2.25s.03-.04.04-.05c.12-.11.21-.25.26-.41.08-.15.12-.31.11-.49,0-.31-.14-.68-.37-.89s-.56-.38-.89-.37c-.32.01-.68.12-.89.37-.11.13-.23.27-.32.42s-.16.33-.23.5-.12.35-.15.54c-.1.6-.11,1.18.04,1.77.08.3.31.6.58.75s.67.22.97.13.6-.29.75-.58.21-.63.13-.97h0Z"/>
    </g>
  </g>
</svg>