<?xml version="1.0" encoding="UTF-8"?>
<svg id="Layer_2" data-name="Layer 2" xmlns="http://www.w3.org/2000/svg" viewBox="0 0 657.79 672.85">
  <defs>
    <style>
      .cls-1, .cls-2, .cls-3 {
        stroke-width: 17.04px;
      }

      .cls-1, .cls-2, .cls-3, .cls-4 {
        stroke: #000;
      }

      .cls-1, .cls-5 {
        fill: #f0a202;
      }

      .cls-2, .cls-3, .cls-4 {
        fill: none;
      }

      .cls-3, .cls-4 {
        stroke-linecap: round;
      }

      .cls-4 {
        stroke-linejoin: round;
        stroke-width: 17.04px;
      }
    </style>
  </defs>
  <g id="background">
    <g id="objects">
      <g>
        <line class="cls-2" x1="282.85" y1="15.81" x2="343.9" y2="57.58"/>
        <line class="cls-2" x1="529.88" y1="15.68" x2="590.94" y2="57.45"/>
        <g>
          <g>
            <g>
              <path class="cls-5" d="m231.55,661.84l-91.6.05c-21.81.01-34.03-9.48-31.42-31.06l12.17-85.46-33.15.02c-21.81.01,10.62-51.75,10.61-74.2l-42.08-49.22c-.01-21.58,9.58-31.08,31.39-31.09l55.83-.03,12.17-83.73-19.61-72.81c-21.81.01-65.5,34.56-65.52,12.11l17.02-62.7c-.01-21.58,9.58-31.08,31.39-31.09l59.32-.03,11.3-81.14c2.61-21.58,9.58-31.08,31.39-31.09l91.6-.05c21.81-.01,34.03,9.48,33.74,31.06l-11.3,81.14,96.26-.05,11.3-81.14c2.6-21.58,9.58-31.08,31.39-31.09l91.61-.05c21.81-.01,34.03,9.48,31.42,31.06l-11.3,81.14,32.28-.02c21.81-.01,31.42,8.62,31.43,31.06l.05,92.36c.01,22.44-9.58,31.08-31.39,31.09l-54.96.03-12.17,83.73,35.77-.02c21.81-.01,31.41,8.62,31.42,31.06l.05,92.36c.01,22.45-9.58,31.08-31.39,31.09l-58.45.03-12.17,85.46c-2.61,21.58-9.58,31.08-31.39,31.09l-91.6.05c-21.81.01-34.03-9.48-31.42-31.06l12.17-85.46-98.58.05-12.17,85.46c-2.61,21.58-9.58,31.08-31.39,31.09Zm176.91-354.86l-98.58.05-12.17,83.73,98.58-.05,12.17-83.73Z"/>
              <path class="cls-3" d="m121.31,617.93l11.89-68.6-32.37.02c-21.29.01-30.67-8.5-30.68-30.66l-.05-91.15c-.01-21.3,9.35-30.67,30.65-30.68l54.52-.03,11.88-82.64-35.78.02c-21.3.01-30.67-8.5-30.68-30.65l-.05-91.15c-.01-21.3,9.35-30.67,30.65-30.68l57.93-.03,11.03-80.08c2.55-21.3,9.35-30.67,30.65-30.68l57.85-.03m81.61,568.45l9.88-70.14-96.26.05-11.88,84.34c-2.55,21.3-9.35,30.68-30.65,30.69l-104.05.06m469.08-264.2c8.36,4.34,12.2,12.94,12.21,27.12l.05,91.15c.01,22.15-9.35,30.68-30.65,30.69l-57.08.03-11.88,84.34c-2.55,21.3-9.36,30.68-30.65,30.69l-101.67.05m237.76-506.44c17.76,12.94,24.65,14.98,24.66,34.36l.05,91.15c.01,22.15-9.36,30.67-30.65,30.68l-53.66.03-11.88,82.64m43.62-330.94c1.61,4.26,2.11,9.47,1.36,15.72l-11.03,80.08m-252.93-110.61c9.74,3.8,18.99,15.2,16.93,30.66l-11.03,80.08,96.26-.05,11.03-80.08c2.54-21.3,9.35-30.67,30.65-30.68m-63.75,263.27l-96.26.05-11.88,82.64,96.26-.05,11.88-82.64Z"/>
              <path class="cls-1" d="m179.86,622.05l-89.44.05c-21.3.01-33.23-9.36-30.68-30.66l11.88-84.34-32.37.02c-21.29.01-30.67-8.5-30.68-30.65l-.05-91.15c-.01-21.3,9.35-30.67,30.65-30.68l54.52-.03,11.88-82.64-35.78.02c-21.3.01-30.67-8.5-30.68-30.65l-.05-91.15c-.01-21.3,9.35-30.67,30.65-30.69l57.93-.03,11.03-80.08c2.55-21.3,9.35-30.67,30.65-30.68l89.44-.05c21.29-.01,33.23,9.35,32.94,30.65l-11.03,80.08,93.99-.05,11.03-80.08c2.54-21.3,9.35-30.67,30.65-30.68l89.45-.05c21.3-.01,33.23,9.35,30.68,30.65l-11.03,80.08,31.52-.02c21.3-.01,30.67,8.5,30.69,30.65l.05,91.15c.01,22.15-9.36,30.67-30.65,30.68l-53.66.03-11.88,82.64,34.92-.02c21.3-.01,30.67,8.5,30.68,30.65l.05,91.15c.01,22.15-9.35,30.68-30.65,30.69l-57.07.03-11.88,84.34c-2.55,21.3-9.36,30.68-30.65,30.69l-89.44.05c-21.3.01-33.23-9.36-30.68-30.65l11.88-84.34-96.26.05-11.88,84.34c-2.55,21.3-9.35,30.68-30.65,30.69Zm172.74-350.22l-96.26.05-11.88,82.64,96.26-.05,11.88-82.64Z"/>
              <line class="cls-2" x1="580.48" y1="259.21" x2="642.37" y2="304.32"/>
              <line class="cls-4" x1="507.28" y1="272.14" x2="566.91" y2="314.99"/>
              <line class="cls-4" x1="552.4" y1="361.38" x2="611.49" y2="403.8"/>
              <line class="cls-4" x1="552.47" y1="506.12" x2="606.54" y2="545.52"/>
              <line class="cls-4" x1="476.1" y1="516.54" x2="530.17" y2="555.94"/>
            </g>
            <line class="cls-4" x1="449.13" y1="615.67" x2="503.2" y2="655.08"/>
            <line class="cls-4" x1="311.97" y1="613.4" x2="382.27" y2="661.5"/>
            <line class="cls-4" x1="191.12" y1="622.04" x2="255.87" y2="659.98"/>
            <line class="cls-4" x1="231.74" y1="512.55" x2="287.67" y2="546.09"/>
            <line class="cls-4" x1="264.42" y1="278.06" x2="320.35" y2="311.6"/>
          </g>
          <line class="cls-4" x1="64.95" y1="613.53" x2="132.86" y2="660.56"/>
        </g>
        <path class="cls-2" d="m569.32,42.66s31.05,14.78,28.79,33.24"/>
      </g>
    </g>
  </g>
</svg>