<?xml version="1.0" encoding="UTF-8"?>
<svg id="Layer_2" data-name="Layer 2" xmlns="http://www.w3.org/2000/svg" viewBox="0 0 657.79 672.85">
  <defs>
    <style>
      .cls-1, .cls-2, .cls-3, .cls-4, .cls-5 {
        stroke: #000;
      }

      .cls-1, .cls-2, .cls-4 {
        stroke-width: 17.04px;
      }

      .cls-1, .cls-6 {
        fill: #eea243;
      }

      .cls-2, .cls-3, .cls-4, .cls-5 {
        fill: none;
      }

      .cls-3 {
        stroke-width: 17.31px;
      }

      .cls-3, .cls-4, .cls-5 {
        stroke-linecap: round;
      }

      .cls-3, .cls-5 {
        stroke-linejoin: round;
      }

      .cls-5 {
        stroke-width: 17.04px;
      }
    </style>
  </defs>
  <g id="background">
    <g id="objects">
      <g>
        <line class="cls-2" x1="580.48" y1="259.21" x2="642.37" y2="304.32"/>
        <line class="cls-5" x1="507.28" y1="272.14" x2="566.91" y2="314.99"/>
        <line class="cls-5" x1="552.4" y1="361.38" x2="611.49" y2="403.8"/>
        <line class="cls-5" x1="552.47" y1="506.12" x2="606.54" y2="545.52"/>
        <line class="cls-5" x1="476.1" y1="516.54" x2="530.17" y2="555.94"/>
        <line class="cls-5" x1="449.13" y1="615.67" x2="503.2" y2="655.08"/>
        <path class="cls-6" d="m233.32,664.39l-89.73.05c-21.36.01-47.24-20.59-44.69-42.39l25.82-75.3-32.47.02c-21.36.01,10.4-52.28,10.39-74.95l-41.22-49.72c-.01-21.8,9.38-31.39,30.75-31.41l54.69-.03,11.92-84.58-19.21-73.54c-21.36.01-64.16,34.9-64.17,12.23l16.67-63.34c-.01-21.8,9.38-31.39,30.75-31.41l58.11-.03,11.06-81.96c2.55-21.8,9.38-31.39,30.75-31.41l83.3,14.9c21.36-.01,39.76-5.38,39.48,16.42l-11.06,81.96,94.29-.05,11.07-81.96c2.55-21.8,9.38-31.39,30.74-31.4l89.73-.05c19.43,4.7,24.31,31.58,30.78,31.37l-11.07,81.96,31.62-.02c21.36-.01,30.77,8.7,30.78,31.37l.05,93.29c.01,22.67-9.39,31.39-30.75,31.41l-53.83.03,1.2,69.98,21.92,14.58c21.36-.01,30.77,8.7,30.78,31.37l.05,93.29c.01,22.67-9.38,31.4-30.75,31.41l-57.26.03-11.92,86.32c-2.55,21.8-9.39,31.4-30.75,31.41l-89.73.05c-21.36.01-33.33-9.58-30.78-31.38l11.92-86.32-96.56.05-11.92,86.32c-2.55,21.8-9.38,31.4-30.75,31.41Zm175.14-361.42l-98.58.05-12.17,87.16,98.58-.05,12.17-87.16Z"/>
        <path class="cls-4" d="m121.31,617.93l11.89-68.6-32.37.02c-21.29.01-30.67-8.5-30.68-30.66l-.05-91.15c-.01-21.3,9.35-30.67,30.65-30.68l54.52-.03,11.88-82.64-35.78.02c-21.3.01-30.67-8.5-30.68-30.65l-.05-91.15c-.01-21.3,9.35-30.67,30.65-30.68l57.93-.03,11.03-80.08c2.55-21.3,9.35-30.67,30.65-30.68l57.85-.03m81.61,568.45l9.88-70.14-96.26.05-11.88,84.34c-2.55,21.3-9.35,30.68-30.65,30.69l-104.05.06m469.08-264.2c8.36,4.34,12.2,12.94,12.21,27.12l.05,91.15c.01,22.15-9.35,30.68-30.65,30.69l-57.08.03-11.88,84.34c-2.55,21.3-9.36,30.68-30.65,30.69l-101.67.05m237.76-506.44c17.76,12.94,24.65,14.98,24.66,34.36l.05,91.15c.01,22.15-9.36,30.67-30.65,30.68l-53.66.03-11.88,82.64m43.62-330.94c1.61,4.26,2.11,9.47,1.36,15.72l-11.03,80.08m-252.93-110.61c9.74,3.8,18.99,15.2,16.93,30.66l-11.03,80.08,96.26-.05,11.03-80.08c2.54-21.3,9.35-30.67,30.65-30.68m-63.75,263.27l-96.26.05-11.88,82.64,96.26-.05,11.88-82.64Z"/>
        <path class="cls-1" d="m179.86,622.05l-89.44.05c-21.3.01-33.23-9.36-30.68-30.66l11.88-84.34-32.37.02c-21.29.01-30.67-8.5-30.68-30.65l-.05-91.15c-.01-21.3,9.35-30.67,30.65-30.68l54.52-.03,11.88-82.64-35.78.02c-21.3.01-30.67-8.5-30.68-30.65l-.05-91.15c-.01-21.3,9.35-30.67,30.65-30.69l57.93-.03,11.03-80.08c2.55-21.3,9.35-30.67,30.65-30.68l89.44-.05c21.29-.01,33.23,9.35,32.94,30.65l-11.03,80.08,93.99-.05,11.03-80.08c2.54-21.3,9.35-30.67,30.65-30.68l89.45-.05c21.3-.01,33.23,9.35,30.68,30.65l-11.03,80.08,31.52-.02c21.3-.01,30.67,8.5,30.69,30.65l.05,91.15c.01,22.15-9.36,30.67-30.65,30.68l-53.66.03-11.88,82.64,34.92-.02c21.3-.01,30.67,8.5,30.68,30.65l.05,91.15c.01,22.15-9.35,30.68-30.65,30.69l-57.07.03-11.88,84.34c-2.55,21.3-9.36,30.68-30.65,30.69l-89.44.05c-21.3.01-33.23-9.36-30.68-30.65l11.88-84.34-96.26.05-11.88,84.34c-2.55,21.3-9.35,30.68-30.65,30.69Zm172.74-350.22l-96.26.05-11.88,82.64,96.26-.05,11.88-82.64Z"/>
        <line class="cls-5" x1="311.97" y1="613.4" x2="382.27" y2="661.5"/>
        <line class="cls-5" x1="191.12" y1="622.04" x2="255.87" y2="659.98"/>
        <line class="cls-5" x1="231.74" y1="512.55" x2="287.67" y2="546.09"/>
        <line class="cls-5" x1="64.95" y1="613.53" x2="132.86" y2="660.56"/>
        <path class="cls-2" d="m534.75,22.55s70.82,29.88,63.53,53.35"/>
        <line class="cls-3" x1="581.94" y1="125.71" x2="638.48" y2="167.82"/>
        <line class="cls-2" x1="449.13" y1="614.49" x2="510.18" y2="656.26"/>
        <line class="cls-5" x1="553.99" y1="501.02" x2="609.92" y2="534.57"/>
        <line class="cls-2" x1="580.48" y1="259.21" x2="642.37" y2="304.32"/>
        <line class="cls-2" x1="334.09" y1="50.87" x2="296.79" y2="42.34"/>
        <line class="cls-2" x1="606.47" y1="400.13" x2="557.6" y2="365.12"/>
      </g>
    </g>
  </g>
</svg>