<?xml version="1.0" encoding="UTF-8"?>
<svg id="Layer_2" data-name="Layer 2" xmlns="http://www.w3.org/2000/svg" viewBox="0 0 657.79 672.85">
  <defs>
    <style>
      .cls-1, .cls-2, .cls-3, .cls-4 {
        stroke-width: 17.04px;
      }

      .cls-1, .cls-2, .cls-3, .cls-4, .cls-5 {
        stroke: #000;
      }

      .cls-1, .cls-6 {
        fill: #f0a202;
      }

      .cls-2, .cls-3, .cls-4, .cls-5 {
        fill: none;
      }

      .cls-3, .cls-4, .cls-5 {
        stroke-linecap: round;
      }

      .cls-4, .cls-5 {
        stroke-linejoin: round;
      }

      .cls-5 {
        stroke-width: 17.04px;
      }
    </style>
  </defs>
  <g id="background">
    <g id="objects">
      <g>
        <g>
          <g>
            <g>
              <g>
                <g>
                  <line class="cls-2" x1="529.88" y1="15.68" x2="590.94" y2="57.45"/>
                  <line class="cls-2" x1="580.48" y1="259.21" x2="642.37" y2="304.32"/>
                  <line class="cls-5" x1="507.28" y1="272.14" x2="566.91" y2="314.99"/>
                  <line class="cls-5" x1="552.4" y1="361.38" x2="611.49" y2="403.8"/>
                  <line class="cls-5" x1="552.47" y1="506.12" x2="606.54" y2="545.52"/>
                  <line class="cls-5" x1="476.1" y1="516.54" x2="530.17" y2="555.94"/>
                  <line class="cls-5" x1="449.13" y1="615.67" x2="503.2" y2="655.08"/>
                  <g>
                    <path class="cls-6" d="m233.32,654.22l-89.73.05c-21.36.01-33.33-9.2-30.78-30.14l11.92-82.93-32.47.02c-21.36.01,10.4-50.23,10.39-72.01l-41.21-47.76c-.01-20.94,9.38-30.16,30.75-30.17l54.69-.03,11.92-81.26-19.21-70.66c-21.36.01-64.16,33.53-64.17,11.76l16.67-60.85c-.01-20.94,9.38-30.16,30.75-30.17l58.11-.03,11.07-78.74c2.55-20.94,9.38-30.16,30.75-30.17l89.73-.05c21.36-.01,33.33,9.2,33.05,30.14l-11.07,78.74,94.29-.05,11.07-78.74c2.55-20.94,9.38-30.16,30.74-30.17l89.73-.05c21.36-.01,33.33,9.2,30.78,30.14l-11.07,78.74,31.62-.02c21.36-.01,30.77,8.36,30.78,30.14l.05,89.63c.01,21.78-9.39,30.16-30.75,30.17l-53.83.03-11.92,81.26,35.03-.02c21.36-.01,30.77,8.36,30.78,30.14l.05,89.63c.01,21.78-9.38,30.16-30.75,30.18l-57.26.03-11.92,82.93c-2.55,20.94-9.39,30.16-30.75,30.18l-89.73.05c-21.36.01-33.33-9.2-30.78-30.14l11.92-82.93-96.56.05-11.92,82.93c-2.55,20.94-9.38,30.16-30.75,30.18Zm175.15-347.24l-98.58.05-12.17,83.73,98.58-.05,12.17-83.73Z"/>
                    <path class="cls-3" d="m121.31,617.93l11.89-68.6-32.37.02c-21.29.01-30.67-8.5-30.68-30.66l-.05-91.15c-.01-21.3,9.35-30.67,30.65-30.68l54.52-.03,11.88-82.64-35.78.02c-21.3.01-30.67-8.5-30.68-30.65l-.05-91.15c-.01-21.3,9.35-30.67,30.65-30.68l57.93-.03,11.03-80.08c2.55-21.3,9.35-30.67,30.65-30.68l57.85-.03m81.61,568.45l9.88-70.14-96.26.05-11.88,84.34c-2.55,21.3-9.35,30.68-30.65,30.69l-104.05.06m469.08-264.2c8.36,4.34,12.2,12.94,12.21,27.12l.05,91.15c.01,22.15-9.35,30.68-30.65,30.69l-57.08.03-11.88,84.34c-2.55,21.3-9.36,30.68-30.65,30.69l-101.67.05m237.76-506.44c17.76,12.94,24.65,14.98,24.66,34.36l.05,91.15c.01,22.15-9.36,30.67-30.65,30.68l-53.66.03-11.88,82.64m43.62-330.94c1.61,4.26,2.11,9.47,1.36,15.72l-11.03,80.08m-252.93-110.61c9.74,3.8,18.99,15.2,16.93,30.66l-11.03,80.08,96.26-.05,11.03-80.08c2.54-21.3,9.35-30.67,30.65-30.68m-63.75,263.27l-96.26.05-11.88,82.64,96.26-.05,11.88-82.64Z"/>
                    <path class="cls-1" d="m179.86,622.05l-89.44.05c-21.3.01-33.23-9.36-30.68-30.66l11.88-84.34-32.37.02c-21.29.01-30.67-8.5-30.68-30.65l-.05-91.15c-.01-21.3,9.35-30.67,30.65-30.68l54.52-.03,11.88-82.64-35.78.02c-21.3.01-30.67-8.5-30.68-30.65l-.05-91.15c-.01-21.3,9.35-30.67,30.65-30.69l57.93-.03,11.03-80.08c2.55-21.3,9.35-30.67,30.65-30.68l89.44-.05c21.29-.01,33.23,9.35,32.94,30.65l-11.03,80.08,93.99-.05,11.03-80.08c2.54-21.3,9.35-30.67,30.65-30.68l89.45-.05c21.3-.01,33.23,9.35,30.68,30.65l-11.03,80.08,31.52-.02c21.3-.01,30.67,8.5,30.69,30.65l.05,91.15c.01,22.15-9.36,30.67-30.65,30.68l-53.66.03-11.88,82.64,34.92-.02c21.3-.01,30.67,8.5,30.68,30.65l.05,91.15c.01,22.15-9.35,30.68-30.65,30.69l-57.07.03-11.88,84.34c-2.55,21.3-9.36,30.68-30.65,30.69l-89.44.05c-21.3.01-33.23-9.36-30.68-30.65l11.88-84.34-96.26.05-11.88,84.34c-2.55,21.3-9.35,30.68-30.65,30.69Zm172.74-350.22l-96.26.05-11.88,82.64,96.26-.05,11.88-82.64Z"/>
                    <line class="cls-5" x1="311.97" y1="613.4" x2="382.27" y2="661.5"/>
                    <line class="cls-5" x1="191.12" y1="622.04" x2="255.87" y2="659.98"/>
                    <line class="cls-5" x1="231.74" y1="512.55" x2="287.67" y2="546.09"/>
                    <line class="cls-5" x1="64.95" y1="613.53" x2="132.86" y2="660.56"/>
                  </g>
                  <path class="cls-2" d="m569.32,42.66s31.05,14.78,28.79,33.24"/>
                  <line class="cls-4" x1="581.94" y1="125.71" x2="641.03" y2="164.74"/>
                </g>
                <line class="cls-2" x1="449.13" y1="614.49" x2="510.18" y2="656.26"/>
              </g>
              <line class="cls-5" x1="559.06" y1="509.05" x2="614.98" y2="542.59"/>
            </g>
            <line class="cls-2" x1="580.48" y1="259.21" x2="642.37" y2="304.32"/>
          </g>
          <line class="cls-2" x1="340.99" y1="40.42" x2="295.64" y2="40.45"/>
        </g>
        <line class="cls-2" x1="606.47" y1="400.13" x2="557.6" y2="365.12"/>
      </g>
    </g>
  </g>
</svg>