<?xml version="1.0" encoding="UTF-8"?>
<svg id="Layer_2" data-name="Layer 2" xmlns="http://www.w3.org/2000/svg" viewBox="0 0 245 213.49">
  <defs>
    <style>
      .cls-1 {
        fill: none;
      }

      .cls-2 {
        fill: #f4b953;
      }

      .cls-3, .cls-4 {
        fill: #f9a37d;
      }

      .cls-5 {
        fill: #ea8165;
      }

      .cls-6 {
        fill: #fff;
      }

      .cls-7 {
        fill: #f2a2a3;
      }

      .cls-8 {
        fill: #ee777d;
      }

      .cls-9 {
        fill: #f18432;
      }

      .cls-10 {
        fill: #b47738;
      }

      .cls-11 {
        fill: #72a065;
      }

      .cls-12, .cls-13 {
        fill: #491b02;
      }

      .cls-14 {
        fill: #606cb4;
      }

      .cls-13 {
        opacity: .17;
      }

      .cls-4 {
        opacity: .43;
      }
    </style>
  </defs>
  <g id="OBJECTS">
    <g>
      <ellipse class="cls-13" cx="122.5" cy="208.67" rx="122.5" ry="4.82"/>
      <g>
        <g>
          <rect class="cls-10" x="182.62" y="37.3" width="38.58" height="50.8" rx="7.05" ry="7.05"/>
          <g>
            <rect class="cls-6" x="188.33" y="22.33" width="45.49" height="8.46" rx="2.34" ry="2.34" transform="translate(120.78 219.18) rotate(-72.05)"/>
            <path class="cls-9" d="m220.69,5.76l-5.15-1.67c-.8-.26-1.66.18-1.92.98h0c-.26.8.18,1.66.98,1.92l5.15,1.67c.8.26,1.66-.18,1.92-.98h0c.26-.8-.18-1.66-.98-1.92Z"/>
            <rect class="cls-6" x="200.36" y="26.84" width="37.07" height="6.89" rx="1.91" ry="1.91" transform="translate(122.63 229.2) rotate(-72.05)"/>
            <path class="cls-9" d="m226.72,13.34l-4.2-1.36c-.65-.21-1.35.15-1.56.8h0c-.21.65.15,1.35.8,1.56l4.2,1.36c.65.21,1.35-.15,1.56-.8h0c.21-.65-.15-1.35-.8-1.56Z"/>
          </g>
          <g>
            <rect class="cls-7" x="203.3" y="114.98" width="10.2" height="84.19"/>
            <polygon class="cls-12" points="215.56 199.17 223.93 206.42 203.3 206.42 203.3 199.17 215.56 199.17"/>
          </g>
          <g>
            <rect class="cls-7" x="187.77" y="114.98" width="10.51" height="84.19"/>
            <polygon class="cls-12" points="186.01 199.17 177.65 206.42 198.28 206.42 198.28 199.17 186.01 199.17"/>
          </g>
          <path class="cls-12" d="m184.59,103.27h-.19v14c0,1.65,1.34,2.99,2.99,2.99h.39v33.44h10.51v-33.44h5.02v33.44h10.2v-33.44h.65c1.65,0,2.99-1.34,2.99-2.99v-14h-32.53Z"/>
          <g>
            <g>
              <g>
                <path class="cls-7" d="m181.07,115.63s1.73-.69,3.7,3.53l1.74,3.34c.13.25.06.55-.15.72l-.08.07c-.23.18-.56.17-.77-.04l-1.72-1.71c-.33-.33-.89-.15-.98.3l-.59,2.96s0,.06-.01.09l-.16,3.87c-.01.3-.25.54-.54.55h-.14c-.33.03-.6-.23-.61-.55l-.12-4.08-.56,4.87c-.04.32-.33.55-.65.51h-.07c-.29-.05-.51-.3-.5-.6l.13-5-.7,4.24c-.06.38-.47.59-.81.43l-.14-.07c-.22-.1-.35-.33-.34-.57l.3-4.24-.93,2.85c-.08.24-.3.4-.55.4h0c-.36,0-.63-.32-.57-.67l.52-3.24s0-.04,0-.06c.02-.44.3-5.74.74-7.72.06-.28.32-.47.6-.45l3.97.25Z"/>
                <rect class="cls-11" x="177.71" y="110.07" width="3.22" height="10.29" rx=".69" ry=".69" transform="translate(61.23 292.65) rotate(-89.08)"/>
              </g>
              <rect class="cls-6" x="174.27" y="63.02" width="10.29" height="51.44"/>
            </g>
            <g>
              <path class="cls-7" d="m221.89,115.63s-1.73-.69-3.7,3.53l-1.74,3.34c-.13.25-.06.55.15.72l.08.07c.23.18.56.17.77-.04l1.72-1.71c.33-.33.89-.15.98.3l.59,2.96s0,.06.01.09l.16,3.87c.01.3.25.54.54.55h.14c.33.03.6-.23.61-.55l.12-4.08.56,4.87c.04.32.33.55.65.51h.07c.29-.05.51-.3.5-.6l-.13-5,.7,4.24c.06.38.47.59.81.43l.14-.07c.22-.1.35-.33.34-.57l-.3-4.24.93,2.85c.08.24.3.4.55.4h0c.36,0,.63-.32.57-.67l-.52-3.24s0-.04,0-.06c-.02-.44-.3-5.74-.74-7.72-.06-.28-.32-.47-.6-.45l-3.97.25Z"/>
              <rect class="cls-11" x="217.71" y="113.61" width="10.29" height="3.22" rx=".69" ry=".69" transform="translate(-1.83 3.61) rotate(-.92)"/>
              <rect class="cls-6" x="217.62" y="63.02" width="10.29" height="51.44"/>
            </g>
          </g>
          <path class="cls-11" d="m212.2,44.08l.02.14c-.91-.36-1.91-.56-2.95-.56h-16.65c-2.09,0-4,.8-5.43,2.11-4.23,2.6-12.41,8.73-12.93,17.54h10.29v39.22c0,.25.02.49.04.73h32.53v1.13c.14-.6.23-1.22.23-1.87v-39.51h10.29c-.7-11.93-15.43-18.94-15.43-18.94Z"/>
          <g>
            <path class="cls-12" d="m184.66,83.48h0s0-.03,0-.05l2.38-40.29c.02-.4.31-.7.66-.7h4.05c.41,0,.72.43.65.89l-6.43,40.29c-.14.9-1.31.78-1.31-.14Z"/>
            <path class="cls-12" d="m216.84,83.48h0s0-.03,0-.05l-2.38-40.29c-.02-.4-.31-.7-.66-.7h-4.05c-.41,0-.72.43-.65.89l6.43,40.29c.14.9,1.31.78,1.31-.14Z"/>
          </g>
        </g>
        <g>
          <path class="cls-10" d="m213.6,24.14c-.79-.56-1.06-1.57-.67-2.46.21-.48.33-1.02.33-1.58,0-1.38-.7-2.59-1.77-3.3-.64-.42-.99-1.16-.99-1.92v-.89c0-1.87-1.52-3.39-3.39-3.39h-12.31c-1.87,0-3.39,1.52-3.39,3.39v.75c0,.85-.41,1.65-1.11,2.15-1,.72-1.66,1.89-1.66,3.22,0,.87.28,1.67.75,2.32.32.44.16,1.07-.34,1.29-1.57.7-2.65,2.3-2.57,4.15.1,2.31,2.11,4.18,4.42,4.13,2.07-.05,3.79-1.56,4.15-3.54h11.8c.36,1.98,2.08,3.49,4.15,3.54,2.31.05,4.31-1.82,4.42-4.13.07-1.54-.67-2.9-1.82-3.72Z"/>
          <path class="cls-7" d="m210.46,24.44h-.59v-5.58c0-2.96-2.4-5.35-5.35-5.35h-6.58c-2.96,0-5.35,2.4-5.35,5.35v5.58h-.59c-1.06,0-1.92.86-1.92,1.92v1.39c0,1.06.86,1.92,1.92,1.92h.59v3.56c0,2.25,1.38,4.17,3.35,4.96v7.65l1.99,3.5c1.37,2.41,4.82,2.49,6.3.15l2.3-3.64v-7.65c1.96-.79,3.35-2.71,3.35-4.96v-3.56h.59c1.06,0,1.92-.86,1.92-1.92v-1.39c0-1.06-.86-1.92-1.92-1.92Z"/>
          <g>
            <path class="cls-12" d="m197.2,26.36h0c-.24,0-.43-.19-.43-.43v-.43c0-.24.19-.43.43-.43h0c.24,0,.43.19.43.43v.43c0,.24-.19.43-.43.43Z"/>
            <path class="cls-12" d="m204.92,26.36h0c-.24,0-.43-.19-.43-.43v-.43c0-.24.19-.43.43-.43h0c.24,0,.43.19.43.43v.43c0,.24-.19.43-.43.43Z"/>
            <path class="cls-8" d="m202.09,28.62h-1.93c-.15,0-.29-.07-.38-.2-.35-.51.25-2.44.81-3.97.06-.17.25-.25.41-.19.17.06.25.25.19.41-.47,1.28-.92,2.82-.89,3.3h1.78c.18,0,.32.14.32.32s-.14.32-.32.32Zm-1.77-.55h0,0Z"/>
            <path class="cls-10" d="m204.2,23.15h3.18c.27,0,.42-.31.25-.52-.39-.49-1.1-1.14-2.14-1.14-1.13,0-1.49.78-1.61,1.27-.05.2.11.39.31.39Z"/>
            <path class="cls-10" d="m198.38,23.15h-3.18c-.27,0-.42-.31-.25-.52.39-.49,1.1-1.14,2.14-1.14,1.13,0,1.49.78,1.61,1.27.05.2-.11.39-.31.39Z"/>
            <path class="cls-6" d="m200.63,30.87s4.29.82,4.72-1.2l-4.72,1.2"/>
          </g>
          <g>
            <g>
              <path class="cls-9" d="m212.46,14.79h0c-.5,0-.9-.4-.9-.9v-3.78c0-3.8-3.08-6.89-6.89-6.89h-6.16c-3.8,0-6.89,3.08-6.89,6.89v3.78c0,.5-.4.9-.9.9h0c-.92,0-1.67.75-1.67,1.67v1.16c0,.92.75,1.67,1.67,1.67h21.74c.92,0,1.67-.75,1.67-1.67v-1.16c0-.92-.75-1.67-1.67-1.67Z"/>
              <path class="cls-2" d="m210.28,15.11h-18.65c-.18,0-.32-.14-.32-.32s.14-.32.32-.32h18.65c.18,0,.32.14.32.32s-.14.32-.32.32Z"/>
            </g>
            <path class="cls-2" d="m192.59,19.13c-.09,0-.16-.07-.16-.16v-3.86c0-.09.07-.16.16-.16s.16.07.16.16v3.86c0,.09-.07.16-.16.16Z"/>
            <path class="cls-2" d="m196.45,19.13c-.09,0-.16-.07-.16-.16v-3.86c0-.09.07-.16.16-.16s.16.07.16.16v3.86c0,.09-.07.16-.16.16Z"/>
            <path class="cls-2" d="m200.31,19.13c-.09,0-.16-.07-.16-.16v-3.86c0-.09.07-.16.16-.16s.16.07.16.16v3.86c0,.09-.07.16-.16.16Z"/>
            <path class="cls-2" d="m207.38,19.13c-.09,0-.16-.07-.16-.16v-3.86c0-.09.07-.16.16-.16s.16.07.16.16v3.86c0,.09-.07.16-.16.16Z"/>
            <path class="cls-2" d="m204.17,19.13c-.09,0-.16-.07-.16-.16v-3.86c0-.09.07-.16.16-.16s.16.07.16.16v3.86c0,.09-.07.16-.16.16Z"/>
            <path class="cls-2" d="m211.24,19.13c-.09,0-.16-.07-.16-.16v-3.86c0-.09.07-.16.16-.16s.16.07.16.16v3.86c0,.09-.07.16-.16.16Z"/>
            <path class="cls-2" d="m194.52,14.63c-.09,0-.16-.07-.16-.16v-4.45c0-1.32.51-2.57,1.45-3.5l3.1-3.1c.06-.06.16-.06.23,0,.06.06.06.16,0,.23l-3.1,3.1c-.87.87-1.36,2.04-1.36,3.27v4.45c0,.09-.07.16-.16.16Z"/>
            <path class="cls-2" d="m208.02,14.63c-.09,0-.16-.07-.16-.16v-4.45c0-1.24-.48-2.4-1.36-3.27l-3.1-3.1c-.06-.06-.06-.16,0-.23.06-.06.16-.06.23,0l3.1,3.1c.94.94,1.45,2.18,1.45,3.5v4.45c0,.09-.07.16-.16.16Z"/>
            <path class="cls-2" d="m197.09,14.63c-.09,0-.16-.07-.16-.16v-4.45c0-1.32.51-2.57,1.45-3.5l3.1-3.1c.06-.06.16-.06.23,0,.06.06.06.16,0,.23l-3.1,3.1c-.87.87-1.36,2.04-1.36,3.27v4.45c0,.09-.07.16-.16.16Z"/>
            <path class="cls-2" d="m206.1,14.63c-.09,0-.16-.07-.16-.16v-4.45c0-1.24-.48-2.4-1.36-3.27l-3.1-3.1c-.06-.06-.06-.16,0-.23.06-.06.16-.06.23,0l3.1,3.1c.94.94,1.45,2.18,1.45,3.5v4.45c0,.09-.07.16-.16.16Z"/>
            <path class="cls-2" d="m201.59,14.63c-.09,0-.16-.07-.16-.16V4.18c0-.09.07-.16.16-.16s.16.07.16.16v10.29c0,.09-.07.16-.16.16Z"/>
          </g>
        </g>
      </g>
      <g>
        <g>
          <path class="cls-12" d="m167.26,44c-3.16-2.14-5.18-5.58-5.18-9.4v-.23c0-5.9-3.87-10.89-9.2-12.56.51-.83.81-1.8.81-2.85,0-3.02-2.45-5.47-5.47-5.47s-5.47,2.45-5.47,5.47c0,1.02.28,1.97.77,2.79-5.44,1.6-9.41,6.64-9.41,12.61v.53c0,3.94-1.22,7.72-3.17,11.14-.77,1.34-1.2,2.89-1.2,4.55,0,4.65,3.43,8.48,7.89,9.11-.01.18-.03.36-.03.54,0,5.09,4.11,9.21,9.18,9.21,2.51,0,4.78-1.01,6.43-2.65,2.56-2.54,5.88-4.06,9.47-4.42.23-.02.46-.05.69-.09,4.31-.72,7.71-4.3,8.24-8.65.49-4-1.35-7.61-4.35-9.64Z"/>
          <g>
            <path class="cls-5" d="m157.09,36.65h-.59v-3.22h-5.57c-.39,0-.75-.2-.95-.53l-.51-.82c-.55-.88-1.89-.61-2.06.41h0c-.09.54-.56.94-1.11.94h-6.93c-.05,0-.11,0-.16-.02v3.23h-.59c-1.06,0-1.92.86-1.92,1.92v1.39c0,1.06.86,1.92,1.92,1.92h.59v1.23c0,3.28,2.24,6.02,5.27,6.81v8.13h7.27v-8.29c2.76-.95,4.74-3.56,4.74-6.65v-1.23h.59c1.06,0,1.92-.86,1.92-1.92v-1.39c0-1.06-.86-1.92-1.92-1.92Z"/>
            <g>
              <path class="cls-12" d="m143.9,39.87h0c-.27,0-.5-.22-.5-.5v-.29c0-.27.22-.5.5-.5h0c.27,0,.5.22.5.5v.29c0,.27-.22.5-.5.5Z"/>
              <path class="cls-12" d="m151.61,39.87h0c-.27,0-.5-.22-.5-.5v-.29c0-.27.22-.5.5-.5h0c.27,0,.5.22.5.5v.29c0,.27-.22.5-.5.5Z"/>
              <path class="cls-3" d="m148.71,42.68h-1.33c-.1,0-.19-.04-.25-.12-.3-.38.12-2.4.52-4.03.03-.13.16-.21.29-.18.13.03.21.16.18.29-.35,1.43-.67,3.11-.62,3.56h1.21c.13,0,.24.11.24.24s-.11.24-.24.24Zm-1.19-.4h0,0Z"/>
              <path class="cls-12" d="m150.19,37.17h3.18c.27,0,.42-.31.25-.52-.39-.48-1.1-1.13-2.14-1.13-1.13,0-1.49.77-1.61,1.26-.05.2.11.39.31.39Z"/>
              <path class="cls-12" d="m145.04,36.95l-3.17.44c-.27.04-.43-.25-.28-.48.36-.53,1.04-1.28,2.07-1.42,1.13-.16,1.53.56,1.67,1.03.06.19-.09.4-.29.43Z"/>
              <path class="cls-4" d="m143.72,42.44h-1.29c-.53,0-.96-.43-.96-.96h0c0-.53.43-.96.96-.96h1.29c.53,0,.96.43.96.96h0c0,.53-.43.96-.96.96Z"/>
              <path class="cls-4" d="m153.37,42.44h-1.29c-.53,0-.96-.43-.96-.96h0c0-.53.43-.96.96-.96h1.29c.53,0,.96.43.96.96h0c0,.53-.43.96-.96.96Z"/>
              <path class="cls-3" d="m149.61,45c-.43,0-.76-.06-.79-.06-.13-.02-.22-.15-.19-.28.02-.13.15-.22.28-.19.02,0,1.45.26,2.18-.35.29-.24.43-.58.43-1.03,0-.13.11-.24.24-.24s.24.11.24.24c0,.6-.2,1.07-.6,1.4-.51.42-1.23.52-1.79.52Z"/>
            </g>
          </g>
        </g>
        <g>
          <path class="cls-5" d="m159.89,60.24c1.98-1.05,4.44-.29,5.49,1.69,1.07,2.03,2.06,4,3.04,6.01.98,2.01,1.95,4.02,2.87,6.07.93,2.04,1.81,4.12,2.66,6.23.83,2.13,1.63,4.27,2.23,6.64.29,1.2.56,2.42.62,3.94,0,.18.01.4,0,.56l-.02.46-.04.91-.16,1.76c-.26,2.3-.63,4.52-1.04,6.72-.78,4.33-1.71,8.56-2.69,12.84.22,1.91.36,4.5.37,4.77,0,.02,0,.03,0,.05l.42,2.62c.05.29-.18.54-.47.54-.2,0-.38-.13-.44-.32l-.75-2.31.24,3.44c.01.19-.09.38-.27.46l-.12.05c-.28.13-.61-.04-.66-.35l-.57-3.44.1,4.05c0,.24-.17.45-.41.48h-.05c-.26.04-.5-.14-.53-.4l-.46-3.95-.1,3.3c0,.26-.23.47-.5.45h-.11c-.24-.02-.43-.21-.44-.45l-.13-3.14s0-.05,0-.07l-.48-2.4c-.07-.37-.52-.5-.79-.24l-1.4,1.39c-.17.17-.44.18-.62.03l-.07-.05c-.18-.14-.23-.38-.12-.58l1.41-2.71c.61-1.3,1.19-2.02,1.67-2.42h-.03c.96-4.15,1.76-8.38,2.39-12.56.3-2.13.57-4.26.71-6.33l.07-1.52v-.73s0-.37,0-.37c0-.12-.02-.18-.02-.27-.06-.67-.29-1.61-.58-2.53-.58-1.86-1.42-3.8-2.3-5.71-.89-1.92-1.87-3.82-2.89-5.71-2.03-3.77-4.27-7.53-6.57-11.11l-.02-.03c-.06-.09-.11-.19-.17-.28-1.05-1.98-.29-4.44,1.69-5.49Z"/>
          <path class="cls-5" d="m138.64,61.52c-1.98-1.05-4.44-.29-5.49,1.69-1.07,2.03-2.06,4-3.04,6.01-.98,2.01-1.95,4.02-2.87,6.07-.93,2.04-1.81,4.12-2.66,6.23-.83,2.13-1.63,4.27-2.23,6.64-.29,1.2-.56,2.42-.62,3.94,0,.18-.01.4,0,.56l.02.46.04.91.16,1.76c.26,2.3.63,4.52,1.04,6.72.78,4.33,1.71,8.56,2.69,12.84-.22,1.91-.36,4.5-.37,4.77,0,.02,0,.03,0,.05l-.42,2.62c-.05.29.18.54.47.54.2,0,.38-.13.44-.32l.75-2.31-.24,3.44c-.01.19.09.38.27.46l.12.05c.28.13.61-.04.66-.35l.57-3.44-.1,4.05c0,.24.17.45.41.48h.05c.26.04.5-.14.53-.4l.46-3.95.1,3.3c0,.26.23.47.5.45h.11c.24-.02.43-.21.44-.45l.13-3.14s0-.05,0-.07l.48-2.4c.07-.37.52-.5.79-.24l1.4,1.39c.17.17.44.18.62.03l.07-.05c.18-.14.23-.38.12-.58l-1.41-2.71c-.61-1.3-1.19-2.02-1.67-2.42h.03c-.96-4.15-1.76-8.38-2.39-12.56-.3-2.13-.57-4.26-.71-6.33l-.07-1.52v-.73s0-.37,0-.37c0-.12.02-.18.02-.27.06-.67.29-1.61.58-2.53.58-1.86,1.42-3.8,2.3-5.71.89-1.92,1.87-3.82,2.89-5.71,2.03-3.77,4.27-7.53,6.57-11.11l.02-.03c.06-.09.11-.19.17-.28,1.05-1.98.29-4.44-1.69-5.49Z"/>
          <g>
            <g>
              <g>
                <g>
                  <polygon class="cls-5" points="156.82 201.08 156.82 201.08 161.67 118.83 149.41 118.83 149.41 191.63 157.34 191.63 156.82 201.08"/>
                  <polygon class="cls-9" points="156.82 201.08 157.34 191.63 149.41 191.63 148.98 191.63 148.98 201.92 149.11 201.92 149.12 200.98 156.82 201.08"/>
                  <polygon class="cls-12" points="163.33 206.18 157.61 201.09 156.82 201.08 156.82 201.08 149.12 200.98 149.11 201.92 149.05 206 163.33 206.18"/>
                </g>
                <g>
                  <polygon class="cls-5" points="140.18 191.63 148.12 191.63 148.12 118.83 135.85 118.83 140.7 201.08 140.7 201.08 140.18 191.63"/>
                  <polygon class="cls-9" points="148.54 191.63 148.12 191.63 140.18 191.63 140.7 201.08 148.48 200.98 148.49 201.92 148.54 201.92 148.54 191.63"/>
                  <polygon class="cls-12" points="140.7 201.08 140.7 201.08 139.99 201.09 134.26 206.18 148.54 206 148.49 201.92 148.48 200.98 140.7 201.08"/>
                </g>
              </g>
              <g>
                <path class="cls-9" d="m161.4,59.8h0c1.6,0,3.1.81,3.97,2.16l4.9,7.6-6.3,8.07-3.22-5.14.64-12.69Z"/>
                <polygon class="cls-9" points="132.98 63.62 127 75.56 132.37 81.74 132.98 63.62"/>
                <path class="cls-2" d="m163.98,108.63h-31.6v-42.49c0-4.56,3.7-8.26,8.26-8.26h15.75c4.19,0,7.59,3.4,7.59,7.59v43.16Z"/>
              </g>
              <path class="cls-9" d="m135.47,92.6h25.75c1.25,0,2.34.88,2.65,2.15l8.37,33.47c.46,1.82-.86,3.61-2.65,3.61h-41.45c-1.76,0-3.07-1.72-2.67-3.52l7.33-33.47c.29-1.31,1.4-2.23,2.67-2.23Z"/>
              <g>
                <rect class="cls-10" x="132.47" y="92.6" width="31.51" height="3.22"/>
                <path class="cls-10" d="m132.55,108.95h-.09v-.64h.09c4.14,0,7.51-3.37,7.51-7.52v-5.11h.64v5.11c0,4.5-3.66,8.16-8.16,8.16Z"/>
                <path class="cls-10" d="m164.82,108.95h-.09c-4.5,0-8.16-3.66-8.16-8.16v-5.11h.64v5.11c0,4.14,3.37,7.52,7.51,7.52h.09v.64Z"/>
              </g>
              <g>
                <g>
                  <path class="cls-9" d="m156.46,78.13h-1.57c-1.75,0-3.17-1.42-3.17-3.17v-4.34c0-.47.38-.86.86-.86h6.27c.43,0,.78.35.78.78v4.41c0,1.75-1.42,3.17-3.17,3.17Zm-3.88-7.72c-.12,0-.21.1-.21.21v4.34c0,1.39,1.13,2.53,2.53,2.53h1.57c1.39,0,2.53-1.13,2.53-2.53v-4.41c0-.08-.06-.14-.14-.14h-6.27Z"/>
                  <path class="cls-9" d="m159.28,72.91h-6.36c-.18,0-.32-.14-.32-.32s.14-.32.32-.32h6.36c.18,0,.32.14.32.32s-.14.32-.32.32Z"/>
                </g>
                <g>
                  <path class="cls-9" d="m148.06,63.98s-.1,0-.15,0c-.34-.04-.65-.21-.86-.48-.21-.27-.31-.61-.27-.95.04-.34.21-.65.48-.86.27-.21.6-.31.95-.27.34.04.65.21.86.48.21.27.31.61.27.95h0c-.04.34-.21.65-.48.86-.23.18-.51.28-.8.28Zm0-1.93c-.14,0-.28.05-.4.14-.13.11-.22.26-.24.43-.02.17.03.34.14.47.11.13.26.22.43.24.17.02.34-.03.47-.14.13-.11.22-.26.24-.43h0c.02-.17-.03-.34-.14-.47-.11-.13-.26-.22-.43-.24-.02,0-.05,0-.07,0Z"/>
                  <path class="cls-9" d="m147.9,70.09s-.1,0-.15,0c-.34-.04-.65-.21-.86-.48-.21-.27-.31-.61-.27-.95.08-.7.72-1.21,1.43-1.13.7.08,1.21.72,1.13,1.42h0c-.04.34-.21.65-.48.86-.23.18-.51.28-.8.28Zm0-1.93c-.32,0-.6.24-.64.57-.02.17.03.34.14.47.11.13.26.22.43.24.17.02.34-.03.47-.14s.22-.26.24-.43h0c.04-.35-.21-.67-.57-.71-.02,0-.05,0-.07,0Z"/>
                  <polygon class="cls-9" points="148.2 58.06 142.76 63.66 141.47 57.87 148.2 58.06"/>
                  <polygon class="cls-9" points="147.9 58.06 153.35 63.66 154.63 57.87 147.9 58.06"/>
                </g>
              </g>
            </g>
            <g>
              <rect class="cls-12" x="163.34" y="107.7" width="12.21" height="20.91" rx="3.3" ry="3.3" transform="translate(-10.12 16.04) rotate(-5.26)"/>
              <path class="cls-10" d="m163.25,110.72l4.13,4.08c.7.69,2.16.57,2.76-.22l3.59-4.81c.65-.88-.23-1.89-1.54-1.77l-7.72.73c-1.28.12-1.97,1.24-1.21,1.99Z"/>
              <path class="cls-10" d="m175.26,126.01l-3.78-1.82c-.64-.31-2.04-.19-2.65.23l-3.64,2.52c-.66.46.14.92,1.4.8l7.42-.69c1.23-.12,1.94-.7,1.25-1.03Z"/>
              <path class="cls-12" d="m169.02,114.23l-.41.04c-.33.03-.61-.21-.64-.54h0c-.03-.33.21-.61.54-.64l.41-.04c.33-.03.61.21.64.54h0c.03.33-.21.61-.54.64Z"/>
            </g>
            <path class="cls-12" d="m139.18,55.92s7.82,34.7,29.55,51.59c.92.72-3.39-.06-5.1,1.92-1.58,1.82-24.53-20.39-29.23-52.44,0,0,2.12-1.59,4.78-1.06Z"/>
          </g>
        </g>
      </g>
      <g>
        <g>
          <g>
            <polygon class="cls-10" points="57.11 199.17 65.47 206.42 44.84 206.42 44.84 199.17 57.11 199.17"/>
            <polygon class="cls-10" points="27.56 199.17 19.19 206.42 39.82 206.42 39.82 199.17 27.56 199.17"/>
          </g>
          <path class="cls-12" d="m25.72,105.84v14c0,1.24.76,2.3,1.84,2.76v76.75h12.27v-76.52h5.02v76.52h12.27v-76.98c.84-.53,1.41-1.46,1.41-2.53v-14H25.72Z"/>
        </g>
        <g>
          <path class="cls-14" d="m74.59,70.73v-11.72c0-.09-.01-.17-.01-.26,0-.08,0-.16-.01-.24-.26-6.85-5.78-12.39-12.69-12.59H22.36c-6.91.2-12.43,5.74-12.69,12.59,0,.08-.01.16-.01.24,0,.09-.01.17-.01.26v11.72h11.61v30.32c0,4.56,3.7,8.26,8.26,8.26h24.73c4.56,0,8.26-3.7,8.26-8.26v-30.32h12.08Z"/>
          <path class="cls-5" d="m9.65,58.52v.24c0-.08.01-.16.02-.24h-.02Z"/>
          <g>
            <path class="cls-1" d="m65.81,119.77v-.05s0,.05,0,.05Z"/>
            <path class="cls-5" d="m73.48,115.52c-.01-.11-.06-.21-.12-.29-.01-.11-.02-.17-.02-.17h-.03s1-44.32,1-44.32h-10.31s1.27,35.78,1.61,45.71c-.35.42-.72.93-1.11,1.57l-2.2,3.27c-.16.24-.13.56.07.77l.08.08c.22.22.56.24.8.05l1.99-1.58c.18-.14.39-.16.57-.09.12.33.27.68.45,1.03l.22,2.63s0,.06,0,.09l-.28,4.04c-.02.31.19.59.5.64l.14.02c.34.06.65-.17.7-.51l.6-4.22v5.13c.01.34.29.61.63.6h.07c.31,0,.57-.24.59-.55l.45-5.21.23,4.49c.02.4.41.67.79.54l.16-.05c.24-.08.4-.3.42-.55l.18-4.44.63,3.07c.05.26.26.45.52.48.37.04.69-.26.68-.63l-.16-3.42s0-.04,0-.06c.03-.46.36-6,.13-8.1Z"/>
          </g>
          <path class="cls-5" d="m74.59,58.52h-.02c0,.08.01.16.01.24v-.24Z"/>
        </g>
        <g>
          <path class="cls-12" d="m36.66,34.87h10.56c2.64,0,4.79-2.14,4.79-4.79V11.91c0-1.61-1.3-2.91-2.91-2.91h-11.09c-3.39,0-6.14,2.75-6.14,6.14v14.95c0,2.64,2.14,4.79,4.79,4.79Z"/>
          <path class="cls-5" d="m51.12,24.44h-.59v-2.78c0-2.66-2.15-4.81-4.81-4.81h-7.66c-2.66,0-4.81,2.15-4.81,4.81v2.78h-.59c-1.06,0-1.92.86-1.92,1.92v1.39c0,1.06.86,1.92,1.92,1.92h.59v6.03c0,2.15,1.41,3.96,3.35,4.58v5.56l3.37,7.31c.92,1.99,3.78,1.88,4.55-.17l2.67-7.14v-5.56c1.94-.62,3.35-2.44,3.35-4.58v-6.03h.59c1.06,0,1.92-.86,1.92-1.92v-1.39c0-1.06-.86-1.92-1.92-1.92Z"/>
          <path class="cls-12" d="m52.73,19.1h-9.34c-2.66,0-4.81-2.15-4.81-4.81v-7.22h3.22c6.04,0,10.93,4.89,10.93,10.93v1.09Z"/>
          <g>
            <path class="cls-12" d="m45.92,26.36h0c.24,0,.43-.19.43-.43v-.43c0-.24-.19-.43-.43-.43h0c-.24,0-.43.19-.43.43v.43c0,.24.19.43.43.43Z"/>
            <path class="cls-12" d="m38.2,26.36h0c.24,0,.43-.19.43-.43v-.43c0-.24-.19-.43-.43-.43h0c-.24,0-.43.19-.43.43v.43c0,.24.19.43.43.43Z"/>
            <path class="cls-3" d="m42.96,28.54h-1.93c-.13,0-.24-.11-.24-.24s.11-.24.24-.24h1.86c.08-.39-.38-2.03-.89-3.4-.05-.12.02-.26.14-.31.12-.05.26.02.31.14.37,1,1.19,3.37.82,3.89-.07.11-.18.16-.31.16Z"/>
            <g>
              <path class="cls-6" d="m39.51,28.29h-3.79c-.91,0-1.64-.74-1.64-1.64v-1.86c0-.91.74-1.64,1.64-1.64h3.79c.91,0,1.64.74,1.64,1.64v1.86c0,.91-.74,1.64-1.64,1.64Zm-3.79-4.5c-.55,0-1,.45-1,1v1.86c0,.55.45,1,1,1h3.79c.55,0,1-.45,1-1v-1.86c0-.55-.45-1-1-1h-3.79Z"/>
              <path class="cls-6" d="m49.16,28.29h-3.79c-.91,0-1.64-.74-1.64-1.64v-1.86c0-.91.74-1.64,1.64-1.64h3.79c.91,0,1.64.74,1.64,1.64v1.86c0,.91-.74,1.64-1.64,1.64Zm-3.79-4.5c-.55,0-1,.45-1,1v1.86c0,.55.45,1,1,1h3.79c.55,0,1-.45,1-1v-1.86c0-.55-.45-1-1-1h-3.79Z"/>
              <rect class="cls-6" x="40.83" y="24.76" width="3.22" height=".64"/>
            </g>
            <path class="cls-12" d="m38.92,22.51h-3.18c-.27,0-.42-.31-.25-.52.39-.49,1.1-1.14,2.14-1.14,1.13,0,1.49.78,1.61,1.27.05.2-.11.39-.31.39Z"/>
            <path class="cls-12" d="m44.74,22.51h3.18c.27,0,.42-.31.25-.52-.39-.49-1.1-1.14-2.14-1.14-1.13,0-1.49.78-1.61,1.27-.05.2.11.39.31.39Z"/>
            <path class="cls-6" d="m38.08,33.44h2.18c.52,0,.94-.42.94-.94v-1.33c0-.52-.42-.94-.94-.94h-3.26c-.52,0-.94.42-.94.94v.25c0,1.11.9,2.02,2.02,2.02Z"/>
          </g>
        </g>
        <g>
          <g>
            <path class="cls-11" d="m16.3,123.66l13.27-2.82c1.44-.31,2.36-1.77,2.04-3.27l-3.02-14.2-18.5,3.93,3.02,14.2c.32,1.5,1.75,2.47,3.19,2.16Z"/>
            <path class="cls-6" d="m29.38,119.31h0c.89-.19,1.45-1.06,1.27-1.95l-3.03-14.25-3.21.68,3.03,14.25c.19.89,1.06,1.45,1.95,1.27Z"/>
          </g>
          <path class="cls-5" d="m10.93,115.06h-.03s-.96,7.49,2.88,8.87c3.84,1.37,5.66,1.15,6.8-1.1.84-1.65-2.01-3.99-2.03-3.85-.02.13-.04.24-.05.33l.27-4.28,1.5-44.29h-10.34l1,44.32Zm7.51,4.66s0,.05,0,.05v-.05Z"/>
        </g>
        <path class="cls-5" d="m14.74,118.83c1.44,1.19,3.48.04,4.24-.47.17-.12.41-.08.53.09l1.89,2.57c.35.37.95.37,1.3-.01h0c.37-.41.42-1.02.11-1.48l-2.04-3.08c-.73-1.1-2.01-1.69-3.32-1.52l-1.79.23"/>
      </g>
      <g>
        <path class="cls-7" d="m123.02,92.11c-.05-1.52-.33-2.74-.62-3.94-.6-2.37-1.4-4.52-2.23-6.64-.85-2.12-1.73-4.19-2.66-6.23-.92-2.05-1.9-4.06-2.87-6.07-.98-2.02-1.97-3.99-3.04-6.01-.05-.1-.11-.2-.17-.29-1.21-1.89-3.72-2.44-5.61-1.23-1.89,1.21-2.44,3.72-1.23,5.61v.02c2.31,3.58,4.55,7.34,6.58,11.11,1.02,1.89,2,3.79,2.89,5.71.88,1.91,1.72,3.85,2.3,5.71.29.91.52,1.85.58,2.53,0,.09.02.15.02.27v.37s0,.73,0,.73l-.07,1.52c-.14,2.07-.4,4.2-.71,6.33-.63,4.18-1.44,8.41-2.39,12.54h0c-.39.21-.85.48-1.36.87l-2.35,1.59c-.17.12-.24.34-.16.53l.03.07c.09.2.31.31.53.25l1.76-.52c.33-.1.64.21.54.55l-.67,2.18s-.01.04-.02.06l-1.28,2.63c-.1.2-.03.44.16.56l.09.05c.21.13.48.06.61-.15l1.54-2.66-1.37,3.44c-.09.23.02.48.25.57l.05.02c.21.08.44-.01.55-.21l1.71-3.37-1.05,3.07c-.09.27.1.56.38.58h.12c.18.02.35-.08.43-.25l1.32-2.92-.4,2.23c-.03.19.06.37.22.46.24.13.53.02.62-.24l.82-2.33s.01-.03.02-.04c.06-.13.43-.9.85-1.84.39-.56,1.43-3.78,1.37-3.88.98-4.3,1.91-8.55,2.7-12.9.41-2.2.78-4.42,1.04-6.72l.16-1.76.04-.91.02-.46c0-.16,0-.37,0-.56Z"/>
        <path class="cls-7" d="m81.2,69.82c-1.29-1.86-2.5-3.68-3.72-5.55-1.21-1.86-2.42-3.72-3.58-5.62-2.31-3.82-4.62-7.6-6.5-11.98-.23-.55-.44-1.17-.65-1.75-.05-.15-.11-.28-.15-.45l-.13-.51-.25-1.02c-.1-.36-.1-.62-.16-.93l-.13-.9-.16-1.74c-.18-2.29-.22-4.52-.23-6.75-.04-4.45.09-8.83.24-13.27.05-1.5,1.31-2.67,2.81-2.62,1.5.05,2.67,1.31,2.62,2.81v.02s0,.03,0,.03c-.17,4.28-.17,8.63-.01,12.9.1,2.13.23,4.26.48,6.31l.21,1.51.13.72.07.36c.02.13.04.24.08.32l.18.56.08.28c.03.1.09.21.13.31.2.43.35.85.57,1.29,1.77,3.55,4.17,7.15,6.66,10.61,2.48,3.47,5.16,6.9,7.86,10.16l.02.02c1.43,1.73,1.18,4.29-.54,5.72-1.73,1.43-4.29,1.18-5.72-.54-.07-.09-.14-.18-.21-.27Z"/>
        <g>
          <g>
            <g>
              <polygon class="cls-7" points="96.68 203.03 89.38 203.2 84.41 118.83 96.68 118.83 96.68 203.03"/>
              <g>
                <polygon class="cls-12" points="88.74 191.63 89.31 201.93 97.1 201.92 97.1 191.63 88.74 191.63"/>
                <polygon class="cls-14" points="88.48 201.09 82.75 206.18 97.03 206 96.97 200.98 88.48 201.09"/>
              </g>
            </g>
            <g>
              <polygon class="cls-7" points="109.94 203.55 117.19 202.68 110 118.47 97.86 120.23 109.94 203.55"/>
              <g>
                <polygon class="cls-12" points="116.34 190.49 117.09 200.79 109.36 201.76 108.05 191.56 116.34 190.49"/>
                <polygon class="cls-14" points="117.68 200.82 123.06 206.26 108.82 205.16 109.21 200.16 117.68 200.82"/>
              </g>
            </g>
            <rect class="cls-14" x="82.31" y="104.17" width="28.94" height="17.36" rx="2.77" ry="2.77"/>
          </g>
          <rect class="cls-9" x="83.6" y="25.72" width="26.36" height="43.08" rx="7.96" ry="7.96"/>
          <g>
            <g>
              <polygon class="cls-12" points="81.09 74.02 75.12 62.08 81.41 54.02 84.63 59.16 81.09 74.02"/>
              <polygon class="cls-12" points="111.77 63.62 117.75 75.56 112.37 81.74 111.77 63.62"/>
              <path class="cls-12" d="m82.25,108.63h28.65c.82,0,1.48-.66,1.48-1.48v-39.54c0-5.38-4.36-9.74-9.74-9.74h-12.79c-5.01,0-9.07,4.06-9.07,9.07v40.21c0,.82.66,1.48,1.48,1.48Z"/>
            </g>
            <path class="cls-7" d="m106.12,36.65h-.59v-3.25c0-3.89-3.15-7.04-7.04-7.04h-3.21c-3.89,0-7.04,3.15-7.04,7.04v3.25h-.59c-1.06,0-1.92.86-1.92,1.92v1.39c0,1.06.86,1.92,1.92,1.92h.59v1.23c0,3.08,1.98,5.69,4.74,6.65v8.29h7.27v-8.13c3.03-.78,5.27-3.53,5.27-6.81v-1.23h.59c1.06,0,1.92-.86,1.92-1.92v-1.39c0-1.06-.86-1.92-1.92-1.92Z"/>
            <g>
              <path class="cls-12" d="m100.85,39.87h0c.27,0,.5-.22.5-.5v-.29c0-.27-.22-.5-.5-.5h0c-.27,0-.5.22-.5.5v.29c0,.27.22.5.5.5Z"/>
              <path class="cls-12" d="m93.13,39.87h0c.27,0,.5-.22.5-.5v-.29c0-.27-.22-.5-.5-.5h0c-.27,0-.5.22-.5.5v.29c0,.27.22.5.5.5Z"/>
              <path class="cls-8" d="m97.37,42.68h-1.33c-.13,0-.24-.11-.24-.24s.11-.24.24-.24h1.21c0-.34-.3-1.38-.62-2.25-.05-.13.02-.26.14-.31.13-.05.26.02.31.14.39,1.06.81,2.4.56,2.75-.06.09-.16.14-.28.14Z"/>
              <path class="cls-9" d="m94.56,36.65h-3.18c-.27,0-.42-.19-.25-.32.39-.3,1.1-.69,2.14-.69,1.13,0,1.49.47,1.61.77.05.12-.11.24-.31.24Z"/>
              <path class="cls-9" d="m99.7,36.51l3.17.27c.27.02.43-.15.28-.3-.36-.33-1.04-.79-2.07-.88-1.13-.1-1.53.34-1.67.63-.06.12.09.25.29.27Z"/>
              <path class="cls-8" d="m101.03,42.44h1.29c.53,0,.96-.43.96-.96h0c0-.53-.43-.96-.96-.96h-1.29c-.53,0-.96.43-.96.96h0c0,.53.43.96.96.96Z"/>
              <path class="cls-8" d="m91.38,42.44h1.29c.53,0,.96-.43.96-.96h0c0-.53-.43-.96-.96-.96h-1.29c-.53,0-.96.43-.96.96h0c0,.53.43.96.96.96Z"/>
              <path class="cls-6" d="m95.97,45.33h-1.29c-.97,0-1.76-.79-1.76-1.76h0c0-.09.08-.17.17-.17h2.88c.09,0,.17.08.17.17v1.59c0,.09-.08.17-.17.17Z"/>
            </g>
          </g>
          <path class="cls-9" d="m104.74,25.69c.36-1.28-.65-2.54-2.05-2.54h-7.33c-5.38,0-7.91.99-7.91,5.91v6.91l7.74-1.69c4.68-1.02,8.35-4.33,9.55-8.6h0Z"/>
        </g>
        <g>
          <path class="cls-12" d="m84.33,0l-16.33,1.49c-.07,0-.13.03-.18.08l-12.4,10.75c-.23.2-.08.57.22.56l8.7-.23,2.66,6.55c.1.24.32.4.58.41l1.81.1c3.88.21,7.66-1.33,10.3-4.18l1.23-1.33c.17-.19.22-.46.13-.7l-2.77-6.82,6.31-6.12c.22-.21.05-.58-.25-.55Z"/>
          <path class="cls-9" d="m64.17,12.51s5.69-4.7,14.22-5.77l-.61-1.51s-8.2.46-14.22,5.77l.61,1.51Z"/>
          <path class="cls-9" d="m92.88,10.3l-.56-.31c-.12-.06-.21-.16-.27-.28-.04-.08-.1-.16-.16-.24l-.72-.86c-.2-.24-.51-.38-.83-.36-.19.01-.37.06-.52.12l-6.62-7.83c-.16-.19-.44-.21-.62-.05-.19.16-.21.44-.05.62l6.62,7.83c-.26.46-.23,1.07.14,1.5l.6.71s.13.15.21.23c.06.06.11.14.14.22l.28.71c.16.42.69.55,1.03.26l1.44-1.22c.35-.3.29-.85-.11-1.07Z"/>
        </g>
        <path class="cls-7" d="m71,20.34l.51-1.36c.37-.99.14-2.11-.59-2.88l-2.05-2.16c-.31-.32-.79-.4-1.18-.18h0c-.36.2-.48.67-.25,1.01l1.67,1.95c.11.13.1.32-.03.44-.54.5-1.81,1.89-1.14,3.24"/>
      </g>
    </g>
  </g>
</svg>