<?xml version="1.0" encoding="UTF-8"?>
<svg id="Layer_2" data-name="Layer 2" xmlns="http://www.w3.org/2000/svg" viewBox="0 0 381 332">
  <defs>
    <style>
      .cls-1 {
        fill: none;
      }

      .cls-2 {
        fill: #f4b953;
      }

      .cls-3, .cls-4 {
        fill: #f9a37d;
      }

      .cls-5 {
        fill: #ea8165;
      }

      .cls-6 {
        fill: #fff;
      }

      .cls-7 {
        fill: #f2a2a3;
      }

      .cls-8 {
        fill: #ee777d;
      }

      .cls-9 {
        fill: #f18432;
      }

      .cls-10 {
        fill: #b47738;
      }

      .cls-11 {
        fill: #72a065;
      }

      .cls-12, .cls-13 {
        fill: #491b02;
      }

      .cls-14 {
        fill: #606cb4;
      }

      .cls-13 {
        opacity: .17;
      }

      .cls-4 {
        opacity: .43;
      }
    </style>
  </defs>
  <g id="OBJECTS">
    <g>
      <ellipse class="cls-13" cx="190.5" cy="324.5" rx="190.5" ry="7.5"/>
      <g>
        <g>
          <rect class="cls-10" x="284" y="58" width="60" height="79" rx="10.96" ry="10.96"/>
          <g>
            <rect class="cls-6" x="292.88" y="34.72" width="70.74" height="13.15" rx="3.64" ry="3.64" transform="translate(187.82 340.85) rotate(-72.05)"/>
            <path class="cls-9" d="m343.19,8.96l-8.01-2.59c-1.24-.4-2.58.28-2.98,1.52h0c-.4,1.24.28,2.58,1.52,2.98l8.01,2.59c1.24.4,2.58-.28,2.98-1.52h0c.4-1.24-.28-2.58-1.52-2.98Z"/>
            <rect class="cls-6" x="311.58" y="41.75" width="57.64" height="10.71" rx="2.97" ry="2.97" transform="translate(190.71 356.43) rotate(-72.05)"/>
            <path class="cls-9" d="m352.58,20.75l-6.52-2.11c-1.01-.33-2.1.23-2.43,1.24h0c-.33,1.01.23,2.1,1.24,2.43l6.52,2.11c1.01.33,2.1-.23,2.43-1.24h0c.33-1.01-.23-2.1-1.24-2.43Z"/>
          </g>
          <g>
            <rect class="cls-7" x="316.15" y="178.8" width="15.85" height="130.93"/>
            <polygon class="cls-12" points="335.22 309.73 348.23 321 316.15 321 316.15 309.73 335.22 309.73"/>
          </g>
          <g>
            <rect class="cls-7" x="292" y="178.8" width="16.34" height="130.93"/>
            <polygon class="cls-12" points="289.27 309.73 276.26 321 308.34 321 308.34 309.73 289.27 309.73"/>
          </g>
          <path class="cls-12" d="m287.06,160.59h-.3v21.76c0,2.56,2.08,4.64,4.64,4.64h.6v52h16.34v-52h7.8v52h15.85v-52h1c2.56,0,4.64-2.08,4.64-4.64v-21.76h-50.59Z"/>
          <g>
            <g>
              <g>
                <path class="cls-7" d="m281.58,179.81s2.69-1.07,5.75,5.49l2.71,5.19c.2.38.1.85-.24,1.12l-.13.1c-.36.28-.87.26-1.2-.06l-2.68-2.66c-.51-.51-1.38-.24-1.52.46l-.91,4.6s-.01.09-.02.14l-.25,6.02c-.02.46-.39.83-.85.86h-.22c-.51.04-.94-.35-.95-.86l-.19-6.34-.87,7.58c-.06.5-.51.85-1.01.79h-.1c-.46-.07-.8-.47-.79-.93l.2-7.78-1.09,6.6c-.1.59-.72.92-1.26.67l-.22-.1c-.34-.16-.55-.51-.52-.88l.47-6.6-1.44,4.44c-.12.37-.46.62-.85.62h0c-.56,0-.98-.49-.89-1.04l.8-5.03s0-.06,0-.09c.03-.68.46-8.93,1.15-12,.1-.43.49-.73.94-.7l6.17.39Z"/>
                <rect class="cls-11" x="276.36" y="171.17" width="5" height="16" rx="1.08" ry="1.08" transform="translate(95.22 455.11) rotate(-89.08)"/>
              </g>
              <rect class="cls-6" x="271" y="98" width="16" height="80"/>
            </g>
            <g>
              <path class="cls-7" d="m345.06,179.81s-2.69-1.07-5.75,5.49l-2.71,5.19c-.2.38-.1.85.24,1.12l.13.1c.36.28.87.26,1.2-.06l2.68-2.66c.51-.51,1.38-.24,1.52.46l.91,4.6s.01.09.02.14l.25,6.02c.02.46.39.83.85.86h.22c.51.04.94-.35.95-.86l.19-6.34.87,7.58c.06.5.51.85,1.01.79h.1c.46-.07.8-.47.79-.93l-.2-7.78,1.09,6.6c.1.59.72.92,1.26.67l.22-.1c.34-.16.55-.51.52-.88l-.47-6.6,1.44,4.44c.12.37.46.62.85.62h0c.56,0,.98-.49.89-1.04l-.8-5.03s0-.06,0-.09c-.03-.68-.46-8.93-1.15-12-.1-.43-.49-.73-.94-.7l-6.17.39Z"/>
              <rect class="cls-11" x="338.56" y="176.67" width="16" height="5" rx="1.08" ry="1.08" transform="translate(-2.84 5.61) rotate(-.92)"/>
              <rect class="cls-6" x="338.42" y="98" width="16" height="80"/>
            </g>
          </g>
          <path class="cls-11" d="m330,68.55l.03.22c-1.42-.56-2.96-.88-4.58-.88h-25.9c-3.26,0-6.21,1.25-8.44,3.28-6.59,4.04-19.3,13.57-20.11,27.28h16v60.99c0,.39.02.77.06,1.14h50.59v1.76c.22-.93.35-1.9.35-2.9v-61.45h16c-1.09-18.55-24-29.45-24-29.45Z"/>
          <g>
            <path class="cls-12" d="m287.17,129.83h0s0-.05,0-.08l3.7-62.65c.04-.62.48-1.09,1.02-1.09h6.3c.64,0,1.12.66,1.01,1.39l-10,62.65c-.22,1.41-2.03,1.22-2.03-.21Z"/>
            <path class="cls-12" d="m337.21,129.83h0s0-.05,0-.08l-3.7-62.65c-.04-.62-.48-1.09-1.02-1.09h-6.3c-.64,0-1.12.66-1.01,1.39l10,62.65c.22,1.41,2.03,1.22,2.03-.21Z"/>
          </g>
        </g>
        <g>
          <path class="cls-10" d="m332.17,37.54c-1.23-.87-1.64-2.44-1.04-3.82.33-.75.51-1.59.51-2.46,0-2.15-1.1-4.03-2.76-5.14-.99-.66-1.54-1.81-1.54-2.99v-1.38c0-2.91-2.36-5.27-5.27-5.27h-19.15c-2.91,0-5.27,2.36-5.27,5.27v1.16c0,1.33-.64,2.57-1.72,3.34-1.56,1.12-2.57,2.94-2.57,5.01,0,1.35.43,2.6,1.17,3.61.5.69.25,1.66-.53,2-2.44,1.08-4.12,3.58-3.99,6.45.16,3.59,3.28,6.5,6.87,6.42,3.23-.07,5.89-2.42,6.45-5.5h18.34c.57,3.08,3.23,5.43,6.45,5.5,3.59.08,6.71-2.83,6.87-6.42.11-2.39-1.04-4.51-2.83-5.79Z"/>
          <path class="cls-7" d="m327.29,38h-.91v-8.68c0-4.6-3.73-8.32-8.32-8.32h-10.23c-4.6,0-8.32,3.73-8.32,8.32v8.68h-.91c-1.65,0-2.99,1.34-2.99,2.99v2.16c0,1.65,1.34,2.99,2.99,2.99h.91v5.54c0,3.49,2.15,6.48,5.2,7.71v11.89l3.09,5.44c2.13,3.75,7.49,3.88,9.8.23l3.58-5.67v-11.89c3.05-1.24,5.2-4.22,5.2-7.71v-5.54h.91c1.65,0,2.99-1.34,2.99-2.99v-2.16c0-1.65-1.34-2.99-2.99-2.99Z"/>
          <g>
            <path class="cls-12" d="m306.67,41h0c-.37,0-.67-.3-.67-.67v-.67c0-.37.3-.67.67-.67h0c.37,0,.67.3.67.67v.67c0,.37-.3.67-.67.67Z"/>
            <path class="cls-12" d="m318.67,41h0c-.37,0-.67-.3-.67-.67v-.67c0-.37.3-.67.67-.67h0c.37,0,.67.3.67.67v.67c0,.37-.3.67-.67.67Z"/>
            <path class="cls-8" d="m314.27,44.5h-3c-.24,0-.45-.11-.58-.31-.55-.79.38-3.79,1.26-6.17.1-.26.38-.39.64-.29.26.1.39.38.29.64-.74,1.99-1.42,4.39-1.39,5.12h2.77c.28,0,.5.22.5.5s-.22.5-.5.5Zm-2.75-.85h0,0Z"/>
            <path class="cls-10" d="m317.55,36h4.95c.42,0,.65-.48.39-.81-.6-.76-1.71-1.77-3.33-1.77-1.76,0-2.32,1.21-2.5,1.97-.07.31.17.61.49.61Z"/>
            <path class="cls-10" d="m308.5,36h-4.95c-.42,0-.65-.48-.39-.81.6-.76,1.71-1.77,3.33-1.77,1.76,0,2.32,1.21,2.5,1.97.07.31-.17.61-.49.61Z"/>
            <path class="cls-6" d="m312,48s6.67,1.28,7.33-1.86l-7.33,1.86"/>
          </g>
          <g>
            <g>
              <path class="cls-9" d="m330.4,23h0c-.78,0-1.4-.63-1.4-1.4v-5.88c0-5.92-4.8-10.71-10.71-10.71h-9.57c-5.92,0-10.71,4.8-10.71,10.71v5.88c0,.78-.63,1.4-1.4,1.4h0c-1.43,0-2.6,1.16-2.6,2.6v1.81c0,1.43,1.16,2.6,2.6,2.6h33.81c1.43,0,2.6-1.16,2.6-2.6v-1.81c0-1.43-1.16-2.6-2.6-2.6Z"/>
              <path class="cls-2" d="m327,23.5h-29c-.28,0-.5-.22-.5-.5s.22-.5.5-.5h29c.28,0,.5.22.5.5s-.22.5-.5.5Z"/>
            </g>
            <path class="cls-2" d="m299.5,29.75c-.14,0-.25-.11-.25-.25v-6c0-.14.11-.25.25-.25s.25.11.25.25v6c0,.14-.11.25-.25.25Z"/>
            <path class="cls-2" d="m305.5,29.75c-.14,0-.25-.11-.25-.25v-6c0-.14.11-.25.25-.25s.25.11.25.25v6c0,.14-.11.25-.25.25Z"/>
            <path class="cls-2" d="m311.5,29.75c-.14,0-.25-.11-.25-.25v-6c0-.14.11-.25.25-.25s.25.11.25.25v6c0,.14-.11.25-.25.25Z"/>
            <path class="cls-2" d="m322.5,29.75c-.14,0-.25-.11-.25-.25v-6c0-.14.11-.25.25-.25s.25.11.25.25v6c0,.14-.11.25-.25.25Z"/>
            <path class="cls-2" d="m317.5,29.75c-.14,0-.25-.11-.25-.25v-6c0-.14.11-.25.25-.25s.25.11.25.25v6c0,.14-.11.25-.25.25Z"/>
            <path class="cls-2" d="m328.5,29.75c-.14,0-.25-.11-.25-.25v-6c0-.14.11-.25.25-.25s.25.11.25.25v6c0,.14-.11.25-.25.25Z"/>
            <path class="cls-2" d="m302.5,22.75c-.14,0-.25-.11-.25-.25v-6.91c0-2.06.8-3.99,2.26-5.45l4.82-4.82c.1-.1.26-.1.35,0,.1.1.1.26,0,.35l-4.82,4.82c-1.36,1.36-2.11,3.17-2.11,5.09v6.91c0,.14-.11.25-.25.25Z"/>
            <path class="cls-2" d="m323.5,22.75c-.14,0-.25-.11-.25-.25v-6.91c0-1.92-.75-3.73-2.11-5.09l-4.82-4.82c-.1-.1-.1-.26,0-.35.1-.1.26-.1.35,0l4.82,4.82c1.46,1.45,2.26,3.39,2.26,5.45v6.91c0,.14-.11.25-.25.25Z"/>
            <path class="cls-2" d="m306.5,22.75c-.14,0-.25-.11-.25-.25v-6.91c0-2.06.8-3.99,2.26-5.45l4.82-4.82c.1-.1.26-.1.35,0,.1.1.1.26,0,.35l-4.82,4.82c-1.36,1.36-2.11,3.17-2.11,5.09v6.91c0,.14-.11.25-.25.25Z"/>
            <path class="cls-2" d="m320.5,22.75c-.14,0-.25-.11-.25-.25v-6.91c0-1.92-.75-3.73-2.11-5.09l-4.82-4.82c-.1-.1-.1-.26,0-.35.1-.1.26-.1.35,0l4.82,4.82c1.46,1.45,2.26,3.39,2.26,5.45v6.91c0,.14-.11.25-.25.25Z"/>
            <path class="cls-2" d="m313.5,22.75c-.14,0-.25-.11-.25-.25V6.5c0-.14.11-.25.25-.25s.25.11.25.25v16c0,.14-.11.25-.25.25Z"/>
          </g>
        </g>
      </g>
      <g>
        <g>
          <path class="cls-12" d="m260.11,68.42c-4.91-3.32-8.06-8.68-8.06-14.62v-.35c0-9.17-6.02-16.93-14.3-19.53.79-1.29,1.25-2.8,1.25-4.43,0-4.69-3.81-8.5-8.5-8.5s-8.5,3.81-8.5,8.5c0,1.59.44,3.07,1.2,4.34-8.46,2.49-14.64,10.32-14.64,19.62v.83c0,6.12-1.89,12.01-4.92,17.32-1.19,2.09-1.87,4.5-1.87,7.08,0,7.23,5.34,13.19,12.27,14.16-.02.28-.04.56-.04.84,0,7.91,6.39,14.32,14.27,14.32,3.9,0,7.43-1.57,10-4.11,3.99-3.95,9.15-6.31,14.72-6.88.36-.04.71-.08,1.07-.14,6.7-1.13,11.98-6.69,12.82-13.45.77-6.22-2.1-11.83-6.76-14.99Z"/>
          <g>
            <path class="cls-5" d="m244.29,57h-.91v-5h-8.66c-.6,0-1.16-.31-1.48-.82l-.8-1.27c-.85-1.36-2.93-.95-3.2.64h0c-.14.84-.87,1.46-1.72,1.46h-10.78c-.08,0-.17-.01-.25-.02v5.02h-.91c-1.65,0-2.99,1.34-2.99,2.99v2.16c0,1.65,1.34,2.99,2.99,2.99h.91v1.92c0,5.1,3.49,9.36,8.2,10.58v12.64h11.3v-12.89c4.29-1.48,7.38-5.54,7.38-10.34v-1.92h.91c1.65,0,2.99-1.34,2.99-2.99v-2.16c0-1.65-1.34-2.99-2.99-2.99Z"/>
            <g>
              <path class="cls-12" d="m223.78,62h0c-.43,0-.78-.35-.78-.78v-.45c0-.43.35-.78.78-.78h0c.43,0,.78.35.78.78v.45c0,.43-.35.78-.78.78Z"/>
              <path class="cls-12" d="m235.78,62h0c-.43,0-.78-.35-.78-.78v-.45c0-.43.35-.78.78-.78h0c.43,0,.78.35.78.78v.45c0,.43-.35.78-.78.78Z"/>
              <path class="cls-3" d="m231.25,66.37h-2.07c-.15,0-.29-.07-.39-.19-.46-.59.19-3.74.82-6.27.05-.2.25-.32.45-.27.2.05.32.25.27.45-.55,2.22-1.04,4.84-.96,5.54h1.88c.21,0,.37.17.37.38s-.17.38-.37.38Zm-1.85-.63h0,0Z"/>
              <path class="cls-12" d="m233.55,57.81h4.95c.42,0,.65-.48.39-.81-.6-.75-1.71-1.75-3.33-1.75-1.76,0-2.32,1.2-2.5,1.95-.07.31.17.6.49.6Z"/>
              <path class="cls-12" d="m225.56,57.46l-4.93.69c-.42.06-.67-.39-.43-.75.56-.83,1.61-1.98,3.22-2.21,1.76-.25,2.38.87,2.59,1.6.09.3-.13.63-.45.67Z"/>
              <path class="cls-4" d="m223.5,66h-2c-.83,0-1.5-.67-1.5-1.5h0c0-.83.67-1.5,1.5-1.5h2c.83,0,1.5.67,1.5,1.5h0c0,.83-.67,1.5-1.5,1.5Z"/>
              <path class="cls-4" d="m238.5,66h-2c-.83,0-1.5-.67-1.5-1.5h0c0-.83.67-1.5,1.5-1.5h2c.83,0,1.5.67,1.5,1.5h0c0,.83-.67,1.5-1.5,1.5Z"/>
              <path class="cls-3" d="m232.66,69.99c-.67,0-1.18-.09-1.23-.1-.2-.04-.34-.23-.3-.44.04-.2.23-.34.44-.3.02,0,2.26.4,3.4-.55.44-.37.66-.9.66-1.6,0-.21.17-.38.38-.38s.38.17.38.38c0,.93-.31,1.67-.93,2.18-.79.66-1.92.81-2.78.81Z"/>
            </g>
          </g>
        </g>
        <g>
          <path class="cls-5" d="m248.65,93.67c3.08-1.63,6.9-.45,8.53,2.63,1.66,3.15,3.2,6.21,4.73,9.35,1.52,3.13,3.03,6.26,4.47,9.44,1.44,3.18,2.82,6.4,4.14,9.69,1.3,3.31,2.53,6.65,3.47,10.33.45,1.86.88,3.76.96,6.12,0,.29.02.62.01.87l-.03.71-.07,1.42-.25,2.74c-.4,3.58-.98,7.03-1.62,10.46-1.22,6.74-2.67,13.31-4.18,19.97.35,2.98.56,6.99.58,7.42,0,.03,0,.05,0,.08l.65,4.08c.07.44-.27.85-.72.84-.31,0-.59-.2-.69-.5l-1.17-3.59.38,5.34c.02.3-.15.59-.42.71l-.18.08c-.44.2-.94-.07-1.02-.54l-.89-5.34.16,6.3c0,.37-.27.69-.64.74h-.08c-.4.06-.77-.23-.82-.63l-.71-6.14-.16,5.14c-.01.41-.36.73-.77.71h-.17c-.37-.03-.67-.33-.69-.71l-.2-4.88s0-.07-.01-.11l-.74-3.73c-.11-.57-.82-.79-1.23-.38l-2.17,2.15c-.26.26-.68.28-.97.05l-.1-.08c-.27-.22-.35-.6-.19-.91l2.19-4.21c.94-2.02,1.84-3.15,2.6-3.77l-.05-.02c1.49-6.43,2.74-13.01,3.72-19.51.47-3.31.88-6.62,1.1-9.84l.11-2.37v-1.14s0-.57,0-.57c0-.18-.03-.27-.04-.41-.1-1.05-.45-2.5-.91-3.93-.91-2.89-2.21-5.91-3.58-8.89-1.38-2.98-2.9-5.95-4.49-8.88-3.15-5.87-6.64-11.71-10.21-17.28l-.03-.05c-.09-.14-.18-.29-.26-.44-1.63-3.08-.45-6.9,2.63-8.53Z"/>
          <path class="cls-5" d="m215.59,95.67c-3.08-1.63-6.9-.45-8.53,2.63-1.66,3.15-3.2,6.21-4.73,9.35-1.52,3.13-3.03,6.26-4.47,9.44-1.44,3.18-2.82,6.4-4.14,9.69-1.3,3.31-2.53,6.65-3.47,10.33-.45,1.86-.88,3.76-.96,6.12,0,.29-.02.62-.01.87l.03.71.07,1.42.25,2.74c.4,3.58.98,7.03,1.62,10.46,1.22,6.74,2.67,13.31,4.18,19.97-.35,2.98-.56,6.99-.58,7.42,0,.03,0,.05,0,.08l-.65,4.08c-.07.44.27.85.72.84.31,0,.59-.2.69-.5l1.17-3.59-.38,5.34c-.02.3.15.59.42.71l.18.08c.44.2.94-.07,1.02-.54l.89-5.34-.16,6.3c0,.37.27.69.64.74h.08c.4.06.77-.23.82-.63l.71-6.14.16,5.14c.01.41.36.73.77.71h.17c.37-.03.67-.33.69-.71l.2-4.88s0-.07.01-.11l.74-3.73c.11-.57.82-.79,1.23-.38l2.17,2.15c.26.26.68.28.97.05l.1-.08c.27-.22.35-.6.19-.91l-2.19-4.21c-.94-2.02-1.84-3.15-2.6-3.77l.05-.02c-1.49-6.43-2.74-13.01-3.72-19.51-.47-3.31-.88-6.62-1.1-9.84l-.11-2.37v-1.14s0-.57,0-.57c0-.18.03-.27.04-.41.1-1.05.45-2.5.91-3.93.91-2.89,2.21-5.91,3.58-8.89,1.38-2.98,2.9-5.95,4.49-8.88,3.15-5.87,6.64-11.71,10.21-17.28l.03-.05c.09-.14.18-.29.26-.44,1.63-3.08.45-6.9-2.63-8.53Z"/>
          <g>
            <g>
              <g>
                <g>
                  <polygon class="cls-5" points="243.87 312.7 243.88 312.7 251.42 184.8 232.34 184.8 232.34 298 244.68 298 243.87 312.7"/>
                  <polygon class="cls-9" points="243.87 312.7 244.68 298 232.34 298 231.68 298 231.68 314 231.87 314 231.89 312.55 243.87 312.7"/>
                  <polygon class="cls-12" points="254 320.63 245.1 312.71 243.88 312.7 243.87 312.7 231.89 312.55 231.87 314 231.8 320.35 254 320.63"/>
                </g>
                <g>
                  <polygon class="cls-5" points="218 298 230.34 298 230.34 184.8 211.27 184.8 218.81 312.7 218.81 312.7 218 298"/>
                  <polygon class="cls-9" points="231 298 230.34 298 218 298 218.81 312.7 230.9 312.55 230.92 314 231 314 231 298"/>
                  <polygon class="cls-12" points="218.81 312.7 218.81 312.7 217.7 312.71 208.8 320.63 231 320.35 230.92 314 230.9 312.55 218.81 312.7"/>
                </g>
              </g>
              <g>
                <path class="cls-9" d="m251,93h0c2.49,0,4.82,1.27,6.17,3.36l7.63,11.83-9.79,12.54-5-8,1-19.73Z"/>
                <polygon class="cls-9" points="206.79 98.94 197.5 117.5 205.86 127.11 206.79 98.94"/>
                <path class="cls-2" d="m255,168.93h-49.14v-66.08c0-7.1,5.75-12.85,12.85-12.85h24.49c6.52,0,11.81,5.29,11.81,11.81v67.12Z"/>
              </g>
              <path class="cls-9" d="m210.66,144h40.05c1.94,0,3.64,1.37,4.13,3.34l13.02,52.05c.71,2.84-1.33,5.61-4.13,5.61h-64.46c-2.74,0-4.77-2.67-4.16-5.47l11.39-52.05c.44-2.03,2.17-3.47,4.16-3.47Z"/>
              <g>
                <rect class="cls-10" x="206" y="144" width="49" height="5"/>
                <path class="cls-10" d="m206.13,169.43h-.13v-1h.13c6.44,0,11.69-5.24,11.69-11.69v-7.94h1v7.94c0,7-5.69,12.69-12.69,12.69Z"/>
                <path class="cls-10" d="m256.32,169.43h-.13c-7,0-12.69-5.69-12.69-12.69v-7.94h1v7.94c0,6.44,5.24,11.69,11.69,11.69h.13v1Z"/>
              </g>
              <g>
                <g>
                  <path class="cls-9" d="m243.3,121.5h-2.44c-2.72,0-4.93-2.21-4.93-4.93v-6.74c0-.73.6-1.33,1.33-1.33h9.75c.67,0,1.22.55,1.22,1.22v6.85c0,2.72-2.21,4.93-4.93,4.93Zm-6.04-12c-.18,0-.33.15-.33.33v6.74c0,2.17,1.76,3.93,3.93,3.93h2.44c2.17,0,3.93-1.76,3.93-3.93v-6.85c0-.12-.1-.22-.22-.22h-9.75Z"/>
                  <path class="cls-9" d="m247.69,113.38h-9.88c-.28,0-.5-.22-.5-.5s.22-.5.5-.5h9.88c.28,0,.5.22.5.5s-.22.5-.5.5Z"/>
                </g>
                <g>
                  <path class="cls-9" d="m230.25,99.5c-.08,0-.15,0-.23-.01-.53-.06-1.01-.32-1.34-.74-.33-.42-.48-.94-.42-1.47.06-.53.33-1.01.74-1.34.42-.33.94-.48,1.47-.42.53.06,1.01.32,1.34.74.33.42.48.94.42,1.47h0c-.06.53-.33,1.01-.74,1.34-.36.28-.79.43-1.24.43Zm0-3c-.22,0-.44.07-.62.22-.21.17-.34.4-.37.67-.03.27.04.53.21.74.17.21.4.34.67.37.26.03.53-.04.74-.21.21-.17.34-.4.37-.67h0c.03-.27-.04-.53-.21-.74-.17-.21-.4-.34-.67-.37-.04,0-.08,0-.12,0Z"/>
                  <path class="cls-9" d="m230,109c-.08,0-.15,0-.23-.01-.53-.06-1.01-.32-1.34-.74-.33-.42-.48-.94-.42-1.47.13-1.1,1.12-1.89,2.22-1.76,1.09.13,1.88,1.12,1.76,2.22h0c-.06.53-.33,1.01-.74,1.34-.36.28-.79.43-1.24.43Zm0-3c-.5,0-.93.38-.99.89-.03.27.04.53.21.74.17.21.4.34.67.37.26.03.53-.04.74-.21s.34-.4.37-.67h0c.06-.55-.33-1.05-.88-1.11-.04,0-.08,0-.11,0Z"/>
                  <polygon class="cls-9" points="230.47 90.28 222 99 220 90 230.47 90.28"/>
                  <polygon class="cls-9" points="230 90.28 238.47 99 240.47 90 230 90.28"/>
                </g>
              </g>
            </g>
            <g>
              <rect class="cls-12" x="254.01" y="167.48" width="18.99" height="32.52" rx="5.13" ry="5.13" transform="translate(-15.74 24.95) rotate(-5.26)"/>
              <path class="cls-10" d="m253.87,172.18l6.42,6.35c1.09,1.08,3.36.89,4.29-.35l5.58-7.49c1.02-1.37-.36-2.94-2.4-2.75l-12,1.14c-2,.19-3.06,1.93-1.89,3.1Z"/>
              <path class="cls-10" d="m272.54,195.96l-5.87-2.83c-.99-.48-3.18-.29-4.12.36l-5.67,3.91c-1.03.71.22,1.43,2.18,1.24l11.54-1.08c1.92-.18,3.01-1.08,1.94-1.6Z"/>
              <path class="cls-12" d="m262.85,177.64l-.63.06c-.51.05-.95-.33-1-.83h0c-.05-.51.33-.95.83-1l.63-.06c.51-.05.95.33,1,.83h0c.05.51-.33.95-.83,1Z"/>
            </g>
            <path class="cls-12" d="m216.43,86.96s12.16,53.96,45.96,80.22c1.43,1.11-5.27-.09-7.94,2.98-2.45,2.83-38.14-31.71-45.45-81.55,0,0,3.3-2.48,7.43-1.65Z"/>
          </g>
        </g>
      </g>
      <g>
        <g>
          <g>
            <polygon class="cls-10" points="88.81 309.73 101.82 321 69.73 321 69.73 309.73 88.81 309.73"/>
            <polygon class="cls-10" points="42.85 309.73 29.85 321 61.93 321 61.93 309.73 42.85 309.73"/>
          </g>
          <path class="cls-12" d="m40,164.59v21.76c0,1.93,1.18,3.58,2.85,4.28v119.36h19.08v-119h7.8v119h19.08v-119.72c1.31-.82,2.19-2.27,2.19-3.93v-21.76h-51Z"/>
        </g>
        <g>
          <path class="cls-14" d="m116,110v-18.22c0-.14-.02-.27-.02-.4,0-.13-.01-.25-.02-.38-.41-10.66-8.98-19.27-19.73-19.58h-61.45c-10.75.32-19.33,8.92-19.73,19.58,0,.13-.02.25-.02.38,0,.14-.02.27-.02.4v18.22h18.06v47.15c0,7.1,5.75,12.85,12.85,12.85h38.46c7.1,0,12.85-5.75,12.85-12.85v-47.15h18.78Z"/>
          <path class="cls-5" d="m15.01,91v.38c.01-.13.02-.25.03-.38h-.03Z"/>
          <g>
            <path class="cls-1" d="m102.33,186.25v-.07c0,.07,0,.07,0,.07Z"/>
            <path class="cls-5" d="m114.27,179.64c-.02-.17-.09-.32-.19-.45-.02-.17-.03-.26-.03-.26h-.04s1.55-68.93,1.55-68.93h-16.04s1.97,55.64,2.5,71.08c-.54.65-1.11,1.44-1.72,2.43l-3.42,5.08c-.25.37-.2.87.11,1.19l.12.12c.34.34.87.37,1.25.07l3.09-2.45c.27-.22.6-.24.89-.15.19.52.42,1.06.7,1.6l.34,4.09s0,.1,0,.14l-.44,6.29c-.03.48.3.91.78.99l.22.04c.52.09,1.01-.27,1.09-.79l.94-6.56.02,7.98c0,.52.43.95.95.94h.11c.48,0,.88-.38.92-.86l.7-8.1.36,6.98c.03.62.64,1.04,1.23.84l.25-.08c.37-.12.63-.46.65-.85l.28-6.91.98,4.78c.08.4.41.7.81.74.58.07,1.08-.4,1.05-.98l-.24-5.32s0-.06,0-.1c.04-.71.56-9.33.2-12.6Z"/>
          </g>
          <path class="cls-5" d="m115.99,91h-.03c0,.13.02.25.02.38v-.38Z"/>
        </g>
        <g>
          <path class="cls-12" d="m57.01,54.23h16.42c4.11,0,7.45-3.33,7.45-7.45v-28.27c0-2.5-2.02-4.52-4.52-4.52h-17.25c-5.27,0-9.54,4.27-9.54,9.54v23.25c0,4.11,3.33,7.45,7.45,7.45Z"/>
          <path class="cls-5" d="m79.49,38h-.91v-4.32c0-4.13-3.35-7.48-7.48-7.48h-11.92c-4.13,0-7.48,3.35-7.48,7.48v4.32h-.91c-1.65,0-2.99,1.34-2.99,2.99v2.16c0,1.65,1.34,2.99,2.99,2.99h.91v9.38c0,3.34,2.19,6.16,5.2,7.12v8.64l5.24,11.36c1.43,3.1,5.88,2.93,7.08-.26l4.15-11.1v-8.64c3.02-.96,5.2-3.79,5.2-7.12v-9.38h.91c1.65,0,2.99-1.34,2.99-2.99v-2.16c0-1.65-1.34-2.99-2.99-2.99Z"/>
          <path class="cls-12" d="m82,29.7h-14.52c-4.13,0-7.48-3.35-7.48-7.48v-11.22h5c9.39,0,17,7.61,17,17v1.7Z"/>
          <g>
            <path class="cls-12" d="m71.41,41h0c.37,0,.67-.3.67-.67v-.67c0-.37-.3-.67-.67-.67h0c-.37,0-.67.3-.67.67v.67c0,.37.3.67.67.67Z"/>
            <path class="cls-12" d="m59.41,41h0c.37,0,.67-.3.67-.67v-.67c0-.37-.3-.67-.67-.67h0c-.37,0-.67.3-.67.67v.67c0,.37.3.67.67.67Z"/>
            <path class="cls-3" d="m66.81,44.37h-3c-.21,0-.37-.17-.37-.38s.17-.38.37-.38h2.89c.12-.61-.59-3.15-1.39-5.29-.07-.19.03-.41.22-.48.19-.07.41.03.48.22.57,1.55,1.85,5.24,1.28,6.05-.11.16-.28.25-.48.25Z"/>
            <g>
              <path class="cls-6" d="m61.45,44h-5.89c-1.41,0-2.55-1.15-2.55-2.55v-2.89c0-1.41,1.15-2.55,2.55-2.55h5.89c1.41,0,2.55,1.15,2.55,2.55v2.89c0,1.41-1.15,2.55-2.55,2.55Zm-5.89-7c-.86,0-1.55.7-1.55,1.55v2.89c0,.86.7,1.55,1.55,1.55h5.89c.86,0,1.55-.7,1.55-1.55v-2.89c0-.86-.7-1.55-1.55-1.55h-5.89Z"/>
              <path class="cls-6" d="m76.45,44h-5.89c-1.41,0-2.55-1.15-2.55-2.55v-2.89c0-1.41,1.15-2.55,2.55-2.55h5.89c1.41,0,2.55,1.15,2.55,2.55v2.89c0,1.41-1.15,2.55-2.55,2.55Zm-5.89-7c-.86,0-1.55.7-1.55,1.55v2.89c0,.86.7,1.55,1.55,1.55h5.89c.86,0,1.55-.7,1.55-1.55v-2.89c0-.86-.7-1.55-1.55-1.55h-5.89Z"/>
              <rect class="cls-6" x="63.5" y="38.5" width="5" height="1"/>
            </g>
            <path class="cls-12" d="m60.52,35h-4.95c-.42,0-.65-.48-.39-.81.6-.76,1.71-1.77,3.33-1.77,1.76,0,2.32,1.21,2.5,1.97.07.31-.17.61-.49.61Z"/>
            <path class="cls-12" d="m69.58,35h4.95c.42,0,.65-.48.39-.81-.6-.76-1.71-1.77-3.33-1.77-1.76,0-2.32,1.21-2.5,1.97-.07.31.17.61.49.61Z"/>
            <path class="cls-6" d="m59.21,52h3.39c.81,0,1.47-.66,1.47-1.47v-2.06c0-.81-.66-1.47-1.47-1.47h-5.06c-.81,0-1.47.66-1.47,1.47v.39c0,1.73,1.41,3.14,3.14,3.14Z"/>
          </g>
        </g>
        <g>
          <g>
            <path class="cls-11" d="m25.35,192.3l20.63-4.38c2.25-.48,3.66-2.75,3.17-5.09l-4.69-22.09-28.76,6.11,4.69,22.09c.5,2.33,2.72,3.83,4.96,3.36Z"/>
            <path class="cls-6" d="m45.69,185.53h0c1.38-.29,2.26-1.65,1.97-3.03l-4.71-22.16-5,1.06,4.71,22.16c.29,1.38,1.65,2.26,3.03,1.97Z"/>
          </g>
          <path class="cls-5" d="m16.99,178.92h-.04s-1.49,11.66,4.47,13.79c5.97,2.14,8.8,1.79,10.57-1.72,1.3-2.57-3.12-6.2-3.15-5.98-.03.21-.05.37-.08.51l.41-6.66,2.33-68.87H15.44l1.55,68.92Zm11.68,7.25c-.01.07-.01.07-.01.07v-.07Z"/>
        </g>
        <path class="cls-5" d="m22.92,184.79c2.24,1.85,5.41.06,6.59-.74.27-.18.64-.12.83.14l2.95,4c.55.58,1.48.57,2.02-.02h0c.58-.64.65-1.59.18-2.3l-3.18-4.8c-1.13-1.71-3.13-2.62-5.16-2.36l-2.79.36"/>
      </g>
      <g>
        <path class="cls-7" d="m191.31,143.24c-.09-2.36-.51-4.26-.96-6.12-.94-3.69-2.17-7.02-3.47-10.33-1.32-3.29-2.7-6.51-4.14-9.69-1.43-3.18-2.95-6.31-4.47-9.44-1.53-3.14-3.06-6.2-4.73-9.35-.08-.15-.17-.31-.26-.45-1.88-2.94-5.79-3.79-8.72-1.92-2.94,1.88-3.79,5.79-1.91,8.72l.02.04c3.56,5.57,7.06,11.42,10.21,17.28,1.59,2.94,3.11,5.9,4.49,8.88,1.37,2.97,2.67,5.99,3.58,8.89.45,1.42.81,2.88.91,3.93,0,.14.04.23.04.41v.57s0,1.14,0,1.14l-.11,2.37c-.22,3.22-.63,6.53-1.1,9.84-.99,6.5-2.23,13.08-3.72,19.51h0c-.61.32-1.32.75-2.12,1.35l-3.66,2.48c-.27.18-.37.53-.24.83l.05.11c.14.32.49.48.82.38l2.73-.81c.52-.15,1,.33.84.85l-1.04,3.38s-.02.07-.04.1l-1.99,4.09c-.15.31-.04.69.25.87l.14.09c.33.2.75.09.94-.24l2.39-4.14-2.13,5.34c-.14.35.03.75.39.88l.07.03c.32.12.69-.02.85-.33l2.65-5.24-1.63,4.77c-.14.42.15.87.6.9h.19c.28.03.55-.13.66-.39l2.05-4.55-.63,3.46c-.05.29.09.58.34.72.37.2.83.02.97-.37l1.27-3.63s.02-.04.03-.07c.1-.2.66-1.4,1.32-2.87.61-.86,2.22-5.88,2.14-6.03,1.52-6.69,2.97-13.3,4.2-20.07.64-3.43,1.22-6.87,1.62-10.46l.25-2.74.07-1.42.03-.71c0-.24,0-.58-.01-.87Z"/>
        <path class="cls-7" d="m126.28,108.58c-2.01-2.9-3.89-5.73-5.78-8.63-1.88-2.89-3.76-5.78-5.57-8.73-3.6-5.94-7.19-11.82-10.11-18.64-.36-.86-.68-1.81-1.01-2.72-.08-.24-.17-.44-.24-.7l-.2-.79-.39-1.59c-.15-.56-.16-.96-.24-1.45l-.2-1.4-.26-2.71c-.27-3.57-.34-7.04-.35-10.5-.06-6.93.13-13.73.37-20.63.08-2.33,2.04-4.15,4.37-4.07,2.33.08,4.15,2.04,4.07,4.37v.02s0,.05,0,.05c-.27,6.65-.27,13.42-.02,20.05.16,3.32.36,6.63.75,9.82l.32,2.35.21,1.11.1.55c.03.2.07.37.12.5l.28.86.13.43c.05.15.14.33.21.49.3.67.55,1.32.89,2,2.76,5.52,6.48,11.12,10.35,16.5,3.85,5.4,8.03,10.72,12.22,15.8l.03.04c2.22,2.69,1.84,6.67-.85,8.89-2.69,2.22-6.67,1.84-8.89-.85-.11-.13-.22-.28-.32-.42Z"/>
        <g>
          <g>
            <g>
              <polygon class="cls-7" points="150.34 315.73 139 316 131.27 184.8 150.34 184.8 150.34 315.73"/>
              <g>
                <polygon class="cls-12" points="138 298 138.88 314.03 151 314 151 298 138 298"/>
                <polygon class="cls-14" points="137.59 312.71 128.68 320.63 150.89 320.35 150.79 312.55 137.59 312.71"/>
              </g>
            </g>
            <g>
              <polygon class="cls-7" points="170.97 316.54 182.24 315.18 171.07 184.23 152.19 186.97 170.97 316.54"/>
              <g>
                <polygon class="cls-12" points="180.93 296.24 182.09 312.25 170.07 313.76 168.03 297.89 180.93 296.24"/>
                <polygon class="cls-14" points="183 312.29 191.37 320.76 169.23 319.05 169.83 311.27 183 312.29"/>
              </g>
            </g>
            <rect class="cls-14" x="128" y="162" width="45" height="27" rx="4.31" ry="4.31"/>
          </g>
          <rect class="cls-9" x="130" y="40" width="41" height="67" rx="12.37" ry="12.37"/>
          <g>
            <g>
              <polygon class="cls-12" points="126.11 115.11 116.81 96.54 126.61 84 131.61 92 126.11 115.11"/>
              <polygon class="cls-12" points="173.81 98.94 183.11 117.5 174.75 127.11 173.81 98.94"/>
              <path class="cls-12" d="m127.91,168.93h44.55c1.27,0,2.3-1.03,2.3-2.3v-61.48c0-8.37-6.78-15.15-15.15-15.15h-19.89c-7.79,0-14.11,6.32-14.11,14.11v62.52c0,1.27,1.03,2.3,2.3,2.3Z"/>
            </g>
            <path class="cls-7" d="m165.02,57h-.91v-5.06c0-6.04-4.9-10.94-10.94-10.94h-4.99c-6.04,0-10.94,4.9-10.94,10.94v5.06h-.91c-1.65,0-2.99,1.34-2.99,2.99v2.16c0,1.65,1.34,2.99,2.99,2.99h.91v1.92c0,4.79,3.09,8.86,7.38,10.34v12.89h11.3v-12.64c4.71-1.22,8.2-5.49,8.2-10.58v-1.92h.91c1.65,0,2.99-1.34,2.99-2.99v-2.16c0-1.65-1.34-2.99-2.99-2.99Z"/>
            <g>
              <path class="cls-12" d="m156.83,62h0c.43,0,.78-.35.78-.78v-.45c0-.43-.35-.78-.78-.78h0c-.43,0-.78.35-.78.78v.45c0,.43.35.78.78.78Z"/>
              <path class="cls-12" d="m144.83,62h0c.43,0,.78-.35.78-.78v-.45c0-.43-.35-.78-.78-.78h0c-.43,0-.78.35-.78.78v.45c0,.43.35.78.78.78Z"/>
              <path class="cls-8" d="m151.43,66.37h-2.07c-.21,0-.38-.17-.38-.38s.17-.38.38-.38h1.88c0-.53-.46-2.15-.96-3.49-.07-.19.03-.41.22-.48.2-.07.41.03.48.22.61,1.65,1.26,3.72.87,4.28-.1.14-.26.22-.43.22Z"/>
              <path class="cls-9" d="m147.06,57h-4.95c-.42,0-.65-.3-.39-.5.6-.46,1.71-1.08,3.33-1.08,1.76,0,2.32.74,2.5,1.2.07.19-.17.37-.49.37Z"/>
              <path class="cls-9" d="m155.05,56.78l4.93.43c.42.04.67-.24.43-.46-.56-.51-1.61-1.22-3.22-1.36-1.76-.15-2.38.54-2.59.99-.09.18.13.39.45.41Z"/>
              <path class="cls-8" d="m157.11,66h2c.83,0,1.5-.67,1.5-1.5h0c0-.83-.67-1.5-1.5-1.5h-2c-.83,0-1.5.67-1.5,1.5h0c0,.83.67,1.5,1.5,1.5Z"/>
              <path class="cls-8" d="m142.11,66h2c.83,0,1.5-.67,1.5-1.5h0c0-.83-.67-1.5-1.5-1.5h-2c-.83,0-1.5.67-1.5,1.5h0c0,.83.67,1.5,1.5,1.5Z"/>
              <path class="cls-6" d="m149.24,70.5h-2c-1.51,0-2.74-1.23-2.74-2.74h0c0-.15.12-.26.26-.26h4.47c.15,0,.26.12.26.26v2.47c0,.15-.12.26-.26.26Z"/>
            </g>
          </g>
          <path class="cls-9" d="m162.89,39.95c.56-1.99-1.02-3.95-3.19-3.95h-11.4c-8.36,0-12.3,1.54-12.3,9.2v10.75l12.03-2.64c7.27-1.59,12.99-6.74,14.86-13.37h0Z"/>
        </g>
        <g>
          <path class="cls-12" d="m131.13,0l-25.4,2.32c-.1,0-.2.05-.28.12l-19.28,16.71c-.35.31-.13.89.34.87l13.53-.36,4.13,10.18c.15.37.5.62.9.64l2.81.15c6.04.32,11.91-2.06,16.02-6.5l1.91-2.07c.27-.29.35-.72.2-1.09l-4.31-10.61,9.81-9.52c.34-.33.08-.89-.39-.85Z"/>
          <path class="cls-9" d="m99.79,19.45s8.85-7.31,22.12-8.98l-.95-2.34s-12.75.71-22.12,8.98l.95,2.34Z"/>
          <path class="cls-9" d="m144.43,16.02l-.87-.48c-.18-.1-.32-.25-.42-.43-.07-.13-.15-.26-.25-.37l-1.12-1.33c-.32-.38-.79-.59-1.29-.55-.3.02-.57.09-.81.18l-10.29-12.17c-.24-.29-.68-.33-.97-.08-.29.24-.33.68-.08.97l10.3,12.18c-.41.72-.36,1.66.21,2.33l.94,1.11c.06.07.21.23.33.36.1.1.17.21.22.34l.43,1.1c.25.65,1.07.85,1.6.4l2.24-1.89c.54-.46.46-1.32-.17-1.66Z"/>
        </g>
        <path class="cls-7" d="m110.41,31.63l.79-2.12c.57-1.54.22-3.28-.91-4.47l-3.18-3.36c-.48-.5-1.23-.62-1.84-.28h0c-.56.31-.74,1.04-.38,1.58l2.6,3.03c.17.2.15.5-.04.68-.84.79-2.82,2.94-1.78,5.03"/>
      </g>
    </g>
  </g>
</svg>