<?xml version="1.0" encoding="UTF-8"?>
<svg id="Layer_2" data-name="Layer 2" xmlns="http://www.w3.org/2000/svg" viewBox="0 0 692.09 380.48">
  <defs>
    <style>
      .cls-1 {
        fill: #ebebeb;
      }

      .cls-2 {
        fill: #f5f5f5;
      }

      .cls-3 {
        fill: #eea243;
      }

      .cls-4 {
        fill: #fff;
      }

      .cls-5 {
        fill: #ffbf9d;
      }

      .cls-6 {
        fill: #fafafa;
      }

      .cls-7 {
        fill: #ff9a6c;
      }

      .cls-8 {
        fill: #ff725e;
      }

      .cls-9 {
        fill: #b56760;
      }

      .cls-10 {
        fill: #d9d5cb;
      }

      .cls-11 {
        fill: #daa04b;
      }

      .cls-12 {
        fill: #e0e0e0;
      }

      .cls-13 {
        fill: #455a64;
      }

      .cls-14 {
        fill: #8a4a43;
      }

      .cls-15 {
        fill: #263238;
      }

      .cls-16 {
        opacity: .3;
      }
    </style>
  </defs>
  <g id="Desk">
    <g>
      <g>
        <g>
          <rect class="cls-6" x="10.17" y=".39" width="147.57" height="132.02"/>
          <path class="cls-12" d="m157.74,132.41s-.02-.85-.04-2.45c0-1.62-.02-3.99-.04-7.07-.02-6.2-.05-15.26-.09-26.8-.04-23.07-.1-56.03-.17-95.7l.33.33c-42.5.02-93.21.04-147.55.06h-.01l.39-.39c-.02,48.03-.03,93.23-.05,132.02l-.35-.35c44.02.07,80.87.13,106.73.18,12.94.04,23.13.07,30.1.09,3.47.02,6.14.03,7.97.04.89,0,1.58.02,2.05.02.46,0,.71.02.71.02,0,0-.22.01-.67.02-.47,0-1.14.01-2.02.02-1.81,0-4.46.02-7.9.04-6.96.02-17.12.05-30.02.09-25.92.04-62.84.1-106.95.18h-.35s0-.35,0-.35c-.01-38.79-.03-83.99-.05-132.02v-.39h.41c54.34.02,105.05.04,147.55.06h.34v.33c-.07,39.76-.13,72.79-.17,95.91-.04,11.51-.07,20.54-.09,26.72-.02,3.06-.03,5.4-.04,7.01-.01,1.58-.04,2.38-.04,2.38Z"/>
        </g>
        <path class="cls-12" d="m66.76,23.85c0,.22-7.77.39-17.35.39s-17.35-.18-17.35-.39,7.77-.39,17.35-.39,17.35.18,17.35.39Z"/>
        <path class="cls-12" d="m129.28,33.76c0,.22-21.34.39-47.65.39s-47.66-.18-47.66-.39,21.33-.39,47.66-.39,47.65.18,47.65.39Z"/>
        <rect class="cls-12" x="32.32" y="50.56" width="6.22" height="6.22"/>
        <rect class="cls-12" x="47.62" y="50.56" width="6.22" height="6.22"/>
        <rect class="cls-12" x="63.2" y="50.27" width="6.22" height="6.22"/>
        <rect class="cls-12" x="78.22" y="50.56" width="6.22" height="6.22"/>
        <rect class="cls-12" x="93.53" y="50.56" width="6.22" height="6.22"/>
        <rect class="cls-12" x="108.83" y="50.56" width="6.22" height="6.22"/>
        <rect class="cls-1" x="124.13" y="50.56" width="6.22" height="6.22"/>
        <rect class="cls-1" x="32.32" y="63.77" width="6.22" height="6.22"/>
        <rect class="cls-12" x="47.62" y="63.77" width="6.22" height="6.22"/>
        <rect class="cls-1" x="62.92" y="63.77" width="6.22" height="6.22"/>
        <rect class="cls-12" x="78.22" y="63.77" width="6.22" height="6.22"/>
        <rect class="cls-12" x="93.53" y="63.77" width="6.22" height="6.22"/>
        <rect class="cls-12" x="109.11" y="63.49" width="6.22" height="6.22"/>
        <rect class="cls-12" x="124.13" y="63.77" width="6.22" height="6.22"/>
        <rect class="cls-12" x="32.32" y="76.99" width="6.22" height="6.22"/>
        <rect class="cls-12" x="47.9" y="76.71" width="6.22" height="6.22"/>
        <rect class="cls-12" x="62.92" y="76.99" width="6.22" height="6.22"/>
        <rect class="cls-1" x="78.22" y="76.99" width="6.22" height="6.22"/>
        <rect class="cls-12" x="93.53" y="76.99" width="6.22" height="6.22"/>
        <rect class="cls-12" x="108.83" y="76.99" width="6.22" height="6.22"/>
        <rect class="cls-12" x="124.13" y="76.99" width="6.22" height="6.22"/>
        <rect class="cls-12" x="32.32" y="90.21" width="6.22" height="6.22"/>
        <rect class="cls-12" x="47.62" y="90.21" width="6.22" height="6.22"/>
        <rect class="cls-12" x="62.92" y="90.21" width="6.22" height="6.22"/>
        <rect class="cls-12" x="78.51" y="89.92" width="6.22" height="6.22"/>
        <rect class="cls-12" x="93.53" y="90.21" width="6.22" height="6.22"/>
        <rect class="cls-1" x="108.83" y="90.21" width="6.22" height="6.22"/>
        <rect class="cls-12" x="124.13" y="90.21" width="6.22" height="6.22"/>
        <rect class="cls-12" x="32.32" y="103.42" width="6.22" height="6.22"/>
        <rect class="cls-1" x="47.62" y="103.42" width="6.22" height="6.22"/>
        <rect class="cls-12" x="62.92" y="103.42" width="6.22" height="6.22"/>
        <rect class="cls-12" x="78.22" y="103.42" width="6.22" height="6.22"/>
        <rect class="cls-12" x="93.53" y="103.42" width="6.22" height="6.22"/>
        <rect class="cls-12" x="109.11" y="103.14" width="6.22" height="6.22"/>
        <rect class="cls-12" x="124.13" y="103.42" width="6.22" height="6.22"/>
      </g>
      <g>
        <rect class="cls-12" x="682.28" y="12.02" width="7.11" height="152.89"/>
        <path class="cls-2" d="m579.23,13.2h101.86c.06,0,.1.05.1.1v151.71c0,.06-.05.1-.1.1h-101.86c-.06,0-.1-.05-.1-.1V13.31c0-.06.05-.1.1-.1Z"/>
        <path class="cls-1" d="m682.28,166.3h-104.23c-.06,0-.1-.05-.1-.1V12.12c0-.06.05-.1.1-.1h104.23c.06,0,.1.05.1.1v154.08c0,.06-.05.1-.1.1Zm-101.86-2.36h99.5c.06,0,.1-.05.1-.1V14.49c0-.06-.05-.1-.1-.1h-99.5c-.06,0-.1.05-.1.1v149.35c0,.06.05.1.1.1Z"/>
        <path class="cls-4" d="m589.51,22.58h81.49c.06,0,.1.05.1.1v132.87c0,.06-.05.1-.1.1h-81.49c-.06,0-.1-.05-.1-.1V22.68c0-.06.05-.1.1-.1Z"/>
        <rect class="cls-1" x="607.23" y="60.3" width="45.87" height="53.76" rx=".06" ry=".06"/>
        <path class="cls-12" d="m649.47,107.49c.06.17-2.2,1.16-6.51.66-2.12-.29-4.76-1.05-7.32-2.93-2.5-1.88-4.88-4.9-5.69-8.95-.84-4.01.51-9.02,4.35-12.23.96-.8,2.07-1.47,3.3-1.93,1.31-.49,2.72-.65,4.13-.48,1.4.17,2.87.66,4.13,1.8,1.26,1.15,1.96,3.08,1.63,4.81-.3,1.74-1.25,3.07-2.27,4.13-1.05,1.07-2.24,1.87-3.46,2.55-2.47,1.36-5.29,2.22-8.24,2.35-2.94.14-6.05-.46-8.79-2-2.71-1.52-5.02-3.82-6.47-6.7-1.47-2.85-1.93-6.3-1.16-9.39.74-3.08,2.49-5.83,4.95-7.73,1.23-.95,2.63-1.66,4.15-2.09,1.53-.39,3.11-.47,4.67-.15,1.54.32,3.12,1.08,4.24,2.39,1.14,1.3,1.65,2.99,1.66,4.53.02,1.55-.4,3.05-1.11,4.31-.69,1.26-1.63,2.29-2.62,3.14-1.98,1.68-4.21,2.79-6.5,3.45-2.28.66-4.63.83-6.84.53-2.2-.31-4.27-1.12-5.95-2.28-3.38-2.29-5.33-5.78-5.68-9-.38-3.28.82-5.97,2.11-7.72,1.33-1.78,2.85-2.69,3.89-3.11,1.07-.41,1.68-.39,1.71-.29.04.15-.48.38-1.35.96-.85.59-2.05,1.59-3.03,3.25-.95,1.64-1.74,4.01-1.24,6.59.45,2.57,2.21,5.34,5.05,7.08,2.78,1.77,6.68,2.22,10.42.99,1.86-.6,3.7-1.6,5.22-2.95,1.5-1.35,2.52-3.08,2.44-4.89-.05-1.82-1.19-3.1-3.14-3.47-.95-.19-2.01-.13-3,.14-.98.3-1.97.8-2.83,1.48-1.73,1.36-3.04,3.43-3.57,5.69-.54,2.26-.22,4.65.88,6.82,1.08,2.16,2.87,3.96,4.94,5.13,2.05,1.17,4.44,1.67,6.79,1.58,2.35-.08,4.66-.75,6.68-1.83,1.02-.55,1.96-1.17,2.66-1.88.73-.71,1.23-1.52,1.35-2.2.13-.69-.08-1.29-.55-1.77-.49-.49-1.33-.85-2.21-.97-.89-.13-1.8-.05-2.6.22-.88.3-1.7.76-2.42,1.33-1.46,1.14-2.55,2.7-3.16,4.35-.62,1.65-.77,3.37-.53,5,.49,3.28,2.33,5.99,4.37,7.74,2.08,1.76,4.37,2.66,6.28,3.14,3.88.9,6.21.46,6.24.78Z"/>
      </g>
      <g>
        <g>
          <rect class="cls-4" x="239.13" y="9.28" width="315.9" height="261.5"/>
          <path class="cls-15" d="m555.03,270.78c0-1.82-.09-103.91-.22-261.5l.22.22c-90.46.01-199.12.03-315.87.04h-.03l.26-.26c-.01,94.66-.02,184-.03,261.5l-.23-.23c188.05.14,313.88.23,315.9.23-2.02,0-127.85.09-315.9.23h-.23s0-.23,0-.23c0-77.5-.02-166.83-.03-261.5v-.26h.29c116.75.02,225.41.03,315.87.04h.22s0,.22,0,.22c-.13,157.59-.22,259.68-.22,261.5Z"/>
        </g>
        <path class="cls-12" d="m518.72,79.88c0,.14-56.63.26-126.47.26s-126.49-.12-126.49-.26,56.62-.26,126.49-.26,126.47.12,126.47.26Z"/>
        <path class="cls-12" d="m518.72,107.81c0,.14-56.63.26-126.47.26s-126.49-.12-126.49-.26,56.62-.26,126.49-.26,126.47.12,126.47.26Z"/>
        <path class="cls-12" d="m518.72,135.74c0,.14-56.63.26-126.47.26s-126.49-.12-126.49-.26,56.62-.26,126.49-.26,126.47.12,126.47.26Z"/>
        <path class="cls-12" d="m518.72,163.68c0,.14-56.63.26-126.47.26s-126.49-.12-126.49-.26,56.62-.26,126.49-.26,126.47.12,126.47.26Z"/>
        <path class="cls-12" d="m518.72,191.61c0,.14-56.63.26-126.47.26s-126.49-.12-126.49-.26,56.62-.26,126.49-.26,126.47.12,126.47.26Z"/>
        <path class="cls-12" d="m518.72,219.54c0,.14-56.63.26-126.47.26s-126.49-.12-126.49-.26,56.62-.26,126.49-.26,126.47.12,126.47.26Z"/>
        <rect class="cls-13" x="421.08" y="166.07" width="25.2" height="81.14"/>
        <rect class="cls-13" x="468.67" y="139.26" width="25.2" height="107.95"/>
        <rect class="cls-13" x="288.42" y="209.23" width="25.2" height="37.98"/>
        <rect class="cls-13" x="330.11" y="197.9" width="25.2" height="49.31"/>
        <rect class="cls-13" x="373.32" y="183.55" width="25.2" height="63.66"/>
        <rect class="cls-15" x="229.46" y="4.5" width="335.35" height="19.27" rx="8.71" ry="8.71"/>
        <path class="cls-15" d="m521.02,247.21s-.39.02-1.16.03c-.78,0-1.91.01-3.4.03-3,.01-7.41.03-13.08.05-11.37.02-27.8.05-48.11.08-40.63.02-96.74.05-158.72.08-10.74,0-21.31,0-31.37,0h-.26v-.26c.03-54.64.06-102.92.09-137.55.03-17.3.06-31.19.08-40.77.02-4.78.03-8.47.05-10.99.01-1.25.02-2.2.02-2.85,0-.64.02-.97.02-.97,0,0,.02.33.02.97,0,.65.01,1.6.02,2.85.01,2.52.03,6.21.05,10.99.02,9.58.05,23.47.08,40.77.02,34.63.05,82.9.09,137.55l-.26-.26c10.05,0,20.62,0,31.37,0,61.97.03,118.09.06,158.72.08,20.3.03,36.74.06,48.11.08,5.67.02,10.08.04,13.08.05,1.49.01,2.62.02,3.4.03.77,0,1.16.03,1.16.03Z"/>
        <path class="cls-8" d="m432.88,159.69s-.13.14-.4.4c-.29.27-.69.64-1.22,1.12-1.09.99-2.68,2.44-4.72,4.29-4.13,3.72-10.09,9.1-17.46,15.74-14.8,13.28-35.27,31.64-58,52.03l-.19.17-.17-.18c-.69-.71-1.44-1.47-2.18-2.24-10.09-10.33-19.73-20.21-28.52-29.21h.33c-16.13,13.74-29.89,25.46-39.65,33.75-4.87,4.12-8.73,7.39-11.4,9.64-1.32,1.1-2.34,1.96-3.05,2.55-.34.28-.6.49-.79.65-.18.14-.28.21-.28.21,0,0,.08-.09.25-.24.19-.16.44-.39.76-.68.7-.61,1.7-1.48,3-2.61,2.64-2.28,6.48-5.59,11.31-9.75,9.72-8.33,23.44-20.1,39.52-33.88l.17-.15.16.16c8.8,8.99,18.45,18.86,28.55,29.19.75.77,1.49,1.53,2.18,2.24h-.36c22.77-20.35,43.27-38.67,58.1-51.92,7.41-6.59,13.41-11.92,17.57-15.62,2.07-1.82,3.68-3.24,4.78-4.22.54-.47.96-.83,1.25-1.09.28-.24.44-.36.44-.36Z"/>
        <g>
          <path class="cls-1" d="m469.46,133.96l-30.37-12.1c-9.74.86-12.72,11.33-10.83,17.97-4.47-1.19-9.6.79-12.1,4.69-2.5,3.89-2.18,9.39.77,12.96-5.33,1.46-8.6,8.03-6.54,13.17,2.06,5.13,8.95,7.63,13.82,5.01,3.21-1.73,5.38-5.19,8.83-6.38,3.24-1.11,6.75.04,10.16.35,8.47.77,16.88-4.07,21.57-11.17,4.69-7.1,5.94-16.08,4.7-24.5Z"/>
          <g>
            <g>
              <path class="cls-8" d="m450.02,126.45c-2.89,1.53-5.45,3.64-7.52,6.17-1.35,1.65.21,4.07,2.28,3.55h.05c-2.71,2.93-5.23,6.06-7.53,9.33-1.47,2.09.46,4.88,2.93,4.22,9.69-2.57,18.43-8.72,23.97-17.08l-14.18-6.18Z"/>
              <g class="cls-16">
                <path d="m449.33,130.43c-.49.27-.99.54-1.34.98-.35.43-.51,1.07-.24,1.56.41.73,1.54.8,1.91,1.55.39.79-.34,1.66-1.01,2.24-.7.62-1.41,1.23-2.11,1.85-.52.45-1.09,1.08-.88,1.73.23.73,1.2.86,1.95.77,3.51-.4,6.75-2.64,8.36-5.79l-6.64-4.9Z"/>
              </g>
              <g>
                <g>
                  <path class="cls-8" d="m497.57,118.22s.02.1.04.21c2.27,12.27-1.17,24.92-9.32,34.37l-5.11,5.93-4.72-18.34,19.12-22.18Z"/>
                  <path class="cls-15" d="m497.57,118.22s-.03.04-.09.11c-.07.08-.16.19-.27.32-.24.29-.6.7-1.05,1.23-.92,1.08-2.25,2.64-3.93,4.61-3.36,3.93-8.11,9.47-13.68,15.97l.02-.1c1.33,5.14,2.79,10.8,4.31,16.71.14.56.29,1.11.42,1.62l-.2-.05c1.02-1.18,2.02-2.35,3.01-3.5.98-1.15,1.99-2.26,2.89-3.41,1.84-2.27,3.37-4.65,4.61-7.03,1.25-2.37,2.16-4.76,2.85-7.04.37-1.13.6-2.26.87-3.33.19-1.09.42-2.12.53-3.13.54-4.01.39-7.3.17-9.53-.08-1.13-.25-1.99-.32-2.57-.07-.52-.11-.76-.12-.9,0,0,.02.07.05.22.03.16.07.38.12.66.09.59.27,1.45.37,2.57.25,2.24.42,5.54-.1,9.56-.1,1.01-.33,2.05-.52,3.14-.26,1.08-.49,2.21-.86,3.35-.68,2.29-1.59,4.69-2.84,7.08-1.24,2.39-2.77,4.79-4.62,7.08-.91,1.16-1.91,2.26-2.9,3.42-.99,1.15-2,2.32-3.01,3.5l-.15.17-.06-.22c-.13-.51-.27-1.07-.42-1.62-1.52-5.92-2.97-11.57-4.3-16.72v-.06s.02-.04.02-.04c5.63-6.5,10.44-12.04,13.84-15.96,1.69-1.94,3.03-3.48,3.95-4.54.45-.52.8-.92,1.05-1.2.11-.13.2-.23.27-.3.06-.07.09-.1.09-.1Z"/>
                </g>
                <g>
                  <path class="cls-8" d="m463.94,89.22s-.1,0-.21,0c-12.31-.43-24.14,4.76-32.18,14.09l-5.04,5.85,18.57,1.95,18.86-21.87Z"/>
                  <path class="cls-15" d="m463.94,89.22s-.02.03-.08.1c-.06.08-.15.18-.26.31-.24.28-.58.68-1.02,1.2-.9,1.06-2.21,2.59-3.86,4.52-3.33,3.89-8.04,9.38-13.56,15.82l-.04.04h-.06c-5.21-.55-10.94-1.15-16.93-1.77-.56-.06-1.12-.12-1.64-.17l-.22-.02.15-.17c1-1.16,2-2.31,2.97-3.45.99-1.13,1.92-2.26,2.91-3.32,1.96-2.14,4.08-3.98,6.23-5.54,2.15-1.57,4.36-2.8,6.5-3.8,1.06-.53,2.13-.91,3.14-1.33,1.04-.34,2.02-.72,2.99-.96,3.85-1.09,7.1-1.4,9.32-1.48,1.11-.07,1.98-.01,2.56-.01.29,0,.51.01.67.02.16.01.23.02.23.02-.13,0-.38,0-.89,0-.58.02-1.45-.03-2.56.06-2.22.1-5.44.44-9.28,1.55-.97.25-1.94.62-2.97.97-1.01.41-2.07.8-3.12,1.33-2.12,1-4.32,2.24-6.45,3.8-2.14,1.55-4.24,3.39-6.19,5.52-.98,1.05-1.92,2.19-2.91,3.32-.98,1.13-1.97,2.28-2.97,3.45l-.08-.19c.52.05,1.08.11,1.64.17,5.99.63,11.72,1.23,16.93,1.78l-.09.04c5.53-6.38,10.25-11.82,13.59-15.67,1.67-1.92,3-3.45,3.92-4.51.45-.52.81-.92,1.05-1.2.12-.13.21-.24.27-.31.06-.07.1-.11.1-.11Z"/>
                </g>
                <path class="cls-2" d="m530.82,45.65c-2.66-2.3-13.49.37-27.95,7.94-14.24,7.46-23,17.14-23,17.14l-42.66,49.48,13.04,11.24,7.56,6.52,13.04,11.24,38.71-44.9c3.78-4.39,7.16-9.11,10.04-14.14,2.48-4.32,5.27-9.79,7.48-15.71,5.69-15.23,6.4-26.52,3.74-28.82"/>
              </g>
              <g>
                <line class="cls-2" x1="443.96" y1="112.39" x2="477.43" y2="140.9"/>
                <path class="cls-15" d="m477.43,140.9s-7.57-6.29-16.81-14.17c-9.24-7.87-16.7-14.3-16.66-14.35.04-.05,7.57,6.29,16.81,14.17,9.24,7.87,16.7,14.29,16.66,14.34Z"/>
              </g>
              <g>
                <line class="cls-2" x1="442.52" y1="113.76" x2="475.99" y2="142.27"/>
                <path class="cls-15" d="m475.99,142.27s-7.57-6.29-16.81-14.17c-9.24-7.87-16.7-14.3-16.66-14.35.04-.05,7.57,6.29,16.81,14.17,9.24,7.87,16.7,14.29,16.66,14.34Z"/>
              </g>
              <g>
                <line class="cls-2" x1="441.18" y1="115.36" x2="474.65" y2="143.87"/>
                <path class="cls-15" d="m474.65,143.87s-7.57-6.29-16.81-14.17c-9.24-7.87-16.7-14.3-16.66-14.35.04-.05,7.57,6.29,16.81,14.17,9.24,7.87,16.7,14.29,16.66,14.34Z"/>
              </g>
              <g>
                <line class="cls-2" x1="439.85" y1="116.97" x2="473.31" y2="145.48"/>
                <path class="cls-15" d="m473.31,145.48s-7.57-6.29-16.81-14.17c-9.24-7.87-16.7-14.3-16.66-14.35.04-.05,7.57,6.29,16.81,14.17,9.24,7.87,16.7,14.29,16.66,14.34Z"/>
              </g>
              <g>
                <line class="cls-2" x1="438.51" y1="118.57" x2="471.97" y2="147.09"/>
                <path class="cls-15" d="m471.97,147.09s-7.57-6.29-16.81-14.17c-9.24-7.87-16.7-14.3-16.66-14.35.04-.05,7.57,6.29,16.81,14.17,9.24,7.87,16.7,14.29,16.66,14.34Z"/>
              </g>
              <path class="cls-15" d="m480.79,103.81s-.05.09-.16.26c-.11.18-.3.4-.54.71-.48.6-1.19,1.46-2.08,2.5-1.78,2.1-4.27,4.96-7.04,8.11-2.77,3.15-5.3,5.99-7.13,8.03-.91,1-1.65,1.82-2.19,2.41-.25.27-.45.48-.6.65-.14.15-.22.22-.22.22,0,0,.06-.09.19-.25.15-.17.34-.4.57-.68.52-.6,1.24-1.44,2.13-2.46,1.83-2.09,4.32-4.93,7.08-8.08,2.76-3.14,5.26-5.98,7.09-8.07.89-1.02,1.61-1.85,2.14-2.45.25-.29.45-.51.57-.67.12-.16.19-.24.2-.24Z"/>
              <path class="cls-15" d="m497.57,118.22s-7.55-6.34-16.76-14.27c-9.22-7.93-16.65-14.4-16.61-14.45.04-.05,7.55,6.34,16.76,14.28,9.21,7.93,16.65,14.4,16.61,14.45Z"/>
              <path class="cls-15" d="m469.41,122.46s.12-.03.33.03c.21.06.5.22.73.54.23.31.38.84.14,1.34-.22.48-.75.9-1.39.88-.64-.04-1.13-.51-1.3-1.01-.19-.52,0-1.04.27-1.32.26-.3.57-.43.78-.47.21-.04.33-.01.33,0,0,.02-.12.02-.31.09-.19.06-.46.2-.68.49-.22.27-.36.71-.19,1.15.15.42.59.82,1.11.85.52.02.99-.33,1.19-.74.21-.41.11-.87-.08-1.16-.19-.3-.44-.47-.63-.55-.19-.08-.3-.1-.3-.12Z"/>
              <path class="cls-15" d="m477.84,113.05s.12-.03.33.03c.21.06.5.22.73.54.23.31.38.84.14,1.34-.22.48-.75.9-1.39.88-.64-.04-1.13-.51-1.3-1.01-.19-.52,0-1.04.27-1.32.26-.3.57-.43.78-.47.21-.04.33-.01.33,0,0,.02-.12.02-.31.09-.19.06-.46.2-.68.49-.22.27-.36.71-.2,1.15.15.42.59.82,1.11.85.52.02.99-.33,1.19-.74.21-.41.11-.87-.08-1.16-.19-.3-.44-.47-.63-.55-.19-.08-.3-.1-.3-.12Z"/>
              <g class="cls-16">
                <path d="m445.57,110.52s12.71-14.08,18.36-21.3c-4.28,2.16-9.15,4.67-12.57,8.03-3.46,3.4-5.64,8.42-5.79,13.27Z"/>
              </g>
              <path class="cls-8" d="m437.54,155.75c-1.22-.18-2.49.76-2.68,1.97s.71,2.5,1.92,2.72c1.21.22,2.51-.66,2.75-1.87.24-1.21-.62-2.52-1.82-2.79"/>
            </g>
            <g>
              <circle class="cls-4" cx="501.9" cy="79.33" r="11.99" transform="translate(60.85 331.66) rotate(-38.76)"/>
              <path class="cls-15" d="m513.79,80.82c-.07,0,.13-1.06-.11-2.94-.24-1.84-1.1-4.61-3.53-6.98-1.21-1.16-2.77-2.21-4.66-2.78-1.87-.56-4.04-.77-6.19-.24-1.08.23-2.14.65-3.15,1.22-1.01.56-1.96,1.29-2.77,2.17-1.67,1.73-2.79,4.07-3.13,6.6-.29,2.53.2,5.08,1.4,7.17.57,1.06,1.31,2,2.15,2.79.83.8,1.76,1.47,2.75,1.96,1.96,1.04,4.11,1.38,6.06,1.29,1.97-.09,3.75-.72,5.2-1.55,2.94-1.69,4.46-4.16,5.15-5.89.69-1.76.76-2.84.83-2.82.02,0-.01.26-.08.76-.03.25-.08.56-.18.91-.09.36-.19.77-.38,1.22-.64,1.78-2.15,4.35-5.15,6.13-1.49.87-3.32,1.54-5.36,1.66-2.03.11-4.26-.23-6.31-1.3-1.03-.51-2-1.2-2.87-2.03-.88-.82-1.65-1.8-2.25-2.9-1.25-2.17-1.78-4.84-1.47-7.48.35-2.63,1.52-5.09,3.27-6.88.85-.92,1.84-1.67,2.9-2.25,1.05-.59,2.16-1.02,3.28-1.26,2.24-.53,4.49-.3,6.43.3,1.95.62,3.56,1.72,4.79,2.93,2.47,2.47,3.3,5.33,3.48,7.21.07.48.06.9.06,1.27.01.37-.01.68-.05.93-.05.5-.09.76-.11.76Z"/>
            </g>
            <path class="cls-8" d="m530.82,45.65c-2.66-2.3-13.49.37-27.95,7.94l24.21,20.87c5.69-15.23,6.4-26.52,3.74-28.82"/>
            <path class="cls-15" d="m530.82,45.65s.15.15.42.46c.24.34.51.89.73,1.67.42,1.56.52,3.97.23,7.03-.61,6.11-2.75,14.87-7.17,25.07-2.28,5.07-5.08,10.52-8.76,15.99-1.85,2.73-3.9,5.46-6.19,8.15-2.29,2.67-4.66,5.42-7.09,8.24-9.73,11.3-20.51,23.82-31.97,37.13l-.17.2-.2-.17c-5.4-4.65-11.06-9.53-16.82-14.49-5.76-4.97-11.42-9.85-16.82-14.5l-.19-.17.17-.19c11.48-13.3,22.28-25.81,32.02-37.1,2.44-2.82,4.81-5.57,7.11-8.23,1.15-1.33,2.28-2.64,3.39-3.93,1.15-1.28,2.37-2.43,3.58-3.54,4.87-4.44,9.85-8.03,14.59-10.94,4.77-2.85,9.29-5.05,13.3-6.8,4.03-1.73,7.58-3.01,10.55-3.77,2.97-.77,5.36-1.06,6.97-.91.4.07.76.09,1.05.19.29.11.54.17.72.27.35.23.51.35.51.35,0,0-.19-.1-.54-.31-.18-.1-.43-.15-.72-.24-.29-.09-.65-.1-1.04-.16-1.6-.12-3.97.2-6.92.99-2.96.79-6.49,2.09-10.49,3.84-4,1.77-8.49,3.98-13.23,6.85-4.71,2.91-9.66,6.5-14.49,10.94-1.2,1.11-2.42,2.27-3.54,3.52-1.11,1.29-2.24,2.6-3.38,3.94-2.29,2.67-4.66,5.42-7.09,8.24-9.73,11.3-20.51,23.82-31.97,37.13l-.03-.36c5.4,4.65,11.06,9.53,16.82,14.5,5.76,4.97,11.42,9.84,16.81,14.5l-.36.03c11.47-13.29,22.27-25.8,32.02-37.09,2.44-2.82,4.81-5.57,7.1-8.23,2.28-2.67,4.33-5.38,6.18-8.09,3.67-5.44,6.49-10.87,8.78-15.9,4.44-10.15,6.63-18.88,7.29-24.95.31-3.04.24-5.43-.14-6.99-.2-.77-.46-1.33-.68-1.67-.26-.31-.38-.48-.38-.48Z"/>
          </g>
          <g>
            <path class="cls-15" d="m502.87,88.24c-.07,0-.21-.91-.33-2.4-.12-1.49-.2-3.55-.25-5.82-.04-2.17-.07-4.13-.1-5.81-.02-1.49-.03-2.41.04-2.41.07,0,.21.91.33,2.4.12,1.49.2,3.55.25,5.82.04,2.17.07,4.13.1,5.81.02,1.49.03,2.41-.04,2.42Z"/>
            <path class="cls-15" d="m500.18,85.95c-.14.01-.39-2.34-.56-5.26-.16-2.92-.18-5.29-.04-5.29.14,0,.39,2.35.56,5.26.16,2.91.18,5.28.04,5.29Z"/>
          </g>
        </g>
        <path class="cls-1" d="m445.57,181.05c-2.37-.83-5.03.08-6.38,1.58-1.35,1.5-1.52,3.94-.4,5.61-1.92.79-3.17,2.89-3.12,4.96.04,2.08,1.28,4.05,3.03,5.16,1.75,1.11,3.96,1.41,6,1,4.09-.83,7.36-4.66,7.56-8.82.2-4.16-2.7-8.28-6.69-9.5Z"/>
        <path class="cls-1" d="m401.79,173.5c0,2.98-2.42,5.4-5.4,5.4s-5.4-2.42-5.4-5.4,2.42-5.4,5.4-5.4,5.4,2.42,5.4,5.4Z"/>
        <path class="cls-15" d="m277.7,68.77c0,.14-2.8.26-6.26.26s-6.26-.12-6.26-.26,2.8-.26,6.26-.26,6.26.12,6.26.26Z"/>
        <path class="cls-15" d="m277.7,95.35c0,.14-2.8.26-6.26.26s-6.26-.12-6.26-.26,2.8-.26,6.26-.26,6.26.12,6.26.26Z"/>
        <path class="cls-15" d="m277.7,121.92c0,.14-2.8.26-6.26.26s-6.26-.12-6.26-.26,2.8-.26,6.26-.26,6.26.12,6.26.26Z"/>
        <path class="cls-15" d="m277.7,148.49c0,.14-2.8.26-6.26.26s-6.26-.12-6.26-.26,2.8-.26,6.26-.26,6.26.12,6.26.26Z"/>
        <path class="cls-15" d="m277.7,175.07c0,.14-2.8.26-6.26.26s-6.26-.12-6.26-.26,2.8-.26,6.26-.26,6.26.12,6.26.26Z"/>
        <path class="cls-15" d="m277.7,201.64c0,.14-2.8.26-6.26.26s-6.26-.12-6.26-.26,2.8-.26,6.26-.26,6.26.12,6.26.26Z"/>
      </g>
      <g>
        <g>
          <g>
            <path class="cls-15" d="m557.58,214.91c-7.09.68-12.42,11.68-10.92,17.55.73,2.85,2.27,6.07.09,8.38-2.16,2.29-7.04,2.46-9.08,4.81,0,0-2.62,3.02-2.04,6.64.57,3.62.34,8.52-2.47,10.03l14.8,4.11c1.38-1.61,1.8-4.03,3.18-5.65-1.59,1.7-2.83,7.45,4.93,7.52l4.49-4.58c13.37,2.42,27.46,5.6,37.54-.87"/>
            <path class="cls-15" d="m626.73,241.63c-1.15-2.66-2.89-5.07-3.75-7.84-1.85-5.95.48-13.05-2.97-18.24-2.45-3.7-7.09-5.19-11.43-6.1-4.34-.91-8.45-1.34-11.88-4.15-2.52-2.06-4.12-5.07-6.63-7.14-3.58-2.95-8.52-3.61-13.15-3.47-4.76.14-9.61,1.05-13.67,3.52-4.06,2.48-7.24,6.72-7.57,11.47-.16,2.32.34,4.68-.18,6.94-.57,2.49-2.29,4.54-3.26,6.9-2.03,4.99-.11,11.29,4.37,14.29l36.32,38.98c7.06,1.95,13.91-7.34,18.72-12.86,4.81-5.52,17.96-15.59,15.06-22.32Z"/>
            <path class="cls-5" d="m556.99,232.41c.47-9.65,6.68-21.57,16.3-20.69l30.1,7.14c2.92.27,4.64,2.46,4.62,5.4l-1.63,72.63c.07.01.14.03.21.04,0,0-6.49,20.51-26.41,14.61-3.95-1.17-5.59.31-6.45-4.1h0c-.86-.27,0-.02-.02-.53-.33-5.43-.74-16.63-.74-16.63h0c-.15-5.84-.19-8.23-.19-8.18,0,0-12.35-1.86-15.13-17.9-1.39-7.97-1.18-21.08-.66-31.8Z"/>
            <g>
              <g>
                <g>
                  <path class="cls-15" d="m581.72,244.6c-.02,1.09.88,2.01,2.02,2.05,1.13.04,2.07-.8,2.1-1.89.02-1.09-.88-2.01-2.02-2.05-1.14-.04-2.08.8-2.1,1.89Z"/>
                  <path class="cls-15" d="m560.4,244.93c-.02,1.09.88,2.01,2.02,2.05,1.13.04,2.07-.8,2.1-1.89.02-1.09-.88-2.01-2.01-2.05-1.14-.04-2.08.8-2.1,1.89Z"/>
                  <path class="cls-15" d="m559.41,239.59c.26.35,2.05-1.02,4.47-.9,2.41.09,4.09,1.62,4.38,1.29.14-.15-.11-.77-.84-1.47-.72-.69-1.97-1.39-3.48-1.46-1.51-.07-2.81.51-3.58,1.14-.79.63-1.08,1.23-.95,1.39Z"/>
                </g>
                <path class="cls-15" d="m581.45,240c.31.32,2.06-1.21,4.64-1.34,2.57-.17,4.52,1.16,4.79.8.13-.16-.2-.74-1.05-1.34-.84-.6-2.25-1.15-3.85-1.06-1.6.09-2.92.79-3.67,1.48-.76.69-1,1.31-.85,1.45Z"/>
                <path class="cls-15" d="m573.93,255.85c0-.13-1.37-.34-3.61-.6-.57-.05-1.1-.16-1.21-.54-.14-.41.09-1.02.35-1.68.51-1.38,1.05-2.82,1.61-4.34,2.24-6.17,3.85-11.25,3.6-11.33-.25-.09-2.26,4.84-4.5,11.02-.54,1.52-1.05,2.97-1.54,4.36-.21.65-.56,1.38-.26,2.23.16.42.58.72.94.81.36.11.68.11.96.12,2.25.09,3.64.08,3.65-.05Z"/>
                <path class="cls-7" d="m572.78,282.11s10.82.54,21.44-6.05c0,0-5.23,11.84-21.34,10.58l-.1-4.52Z"/>
                <path class="cls-8" d="m574.94,261.18c.78-1.07,2.17-1.67,3.56-1.54.96.09,1.94.54,2.54,1.31.6.77.74,1.89.21,2.64-.59.85-1.83,1.06-2.9.78-1.06-.29-1.98-.97-2.86-1.65-.24-.19-.49-.39-.64-.65-.15-.26-.19-.6,0-.83"/>
                <path class="cls-15" d="m580.47,257.29c-.36-.02-.33,2.39-2.37,4.13-2.03,1.74-4.6,1.51-4.61,1.85-.03.15.58.46,1.66.47,1.06.02,2.61-.34,3.85-1.41,1.24-1.07,1.76-2.47,1.83-3.46.08-1.01-.2-1.6-.36-1.58Z"/>
              </g>
              <path class="cls-15" d="m580.97,232.48c.23.6,2.44.28,5.04.56,2.61.22,4.72.95,5.06.41.15-.26-.22-.82-1.08-1.39-.85-.57-2.2-1.1-3.76-1.26-1.56-.15-2.99.12-3.93.52-.95.4-1.42.88-1.32,1.16Z"/>
              <path class="cls-15" d="m559.51,231.57c.45.5,2.19-.05,4.29-.11,2.1-.12,3.88.28,4.28-.25.18-.26-.11-.76-.9-1.22-.77-.46-2.06-.83-3.5-.77-1.44.06-2.68.54-3.41,1.06-.73.53-.97,1.05-.77,1.29Z"/>
            </g>
            <path class="cls-15" d="m635.97,237.87c-1.72-2.68.97-6.01-1.54-8.42-2.29-2.2-7.87-1.87-10.03-4.12-1.69-1.76-1.79-2.25-1.97-3.99-.23-2.19-1.9-11.35-15.51-12.24l-1.25,8.53c-.87-.33-1.77-.61-2.65-.86-11.26-3.2-22.91-5.06-34.61-5.52-1.22,2.51.4,5.61,2.74,7.14,2.33,1.53,5.19,1.96,7.88,2.69,2.69.73,5.49,1.99,6.8,4.45,1.39,2.62.72,5.93,1.98,8.62,2.16,4.62,8.97,5.55,11.1,10.19,1.61,3.51-.13,7.55-.31,11.41-.2,4.37,1.82,8.78,5.25,11.49,2.71,2.14,7.33,6.04,7.56,5.17l34.41-25.21c1.7-5.21-7.48-5.66-9.83-9.33Z"/>
          </g>
          <path class="cls-15" d="m609.96,270.68s-1.19-.06-3.18-.84c-1.95-.78-4.76-2.37-6.98-5.52-1.09-1.57-1.99-3.51-2.45-5.71-.47-2.2-.48-4.67.14-7.12.29-1.22.65-2.45.86-3.72.21-1.26.22-2.59-.16-3.84-.36-1.26-1.29-2.29-2.5-2.9-1.2-.64-2.6-.94-3.98-1.37-1.38-.42-2.8-.98-3.82-2.08-1-1.1-1.47-2.53-1.66-3.89-.41-2.71-.14-5.42-1.23-7.62l-.2-.4-.25-.36c-.16-.25-.36-.46-.56-.68-.42-.4-.89-.75-1.39-1.01-1.02-.53-2.12-.83-3.2-1.07-2.15-.46-4.25-.8-5.96-1.73-1.7-.9-3-2.09-3.95-3.27-.95-1.19-1.54-2.37-1.92-3.36-.39-.99-.52-1.82-.62-2.36-.06-.56-.08-.85-.06-.85.07-.02.07,1.19.87,3.14.4.96,1.01,2.11,1.96,3.25.95,1.13,2.23,2.28,3.89,3.13,1.65.87,3.7,1.19,5.88,1.63,1.09.23,2.23.53,3.32,1.09.54.28,1.05.65,1.51,1.09.22.23.44.46.61.73l.28.4.22.43c1.17,2.37.89,5.13,1.3,7.75.18,1.32.64,2.63,1.54,3.62.91.99,2.23,1.53,3.59,1.94,1.36.42,2.78.73,4.07,1.41.64.34,1.24.77,1.72,1.33.48.55.81,1.21,1.03,1.88.42,1.36.39,2.77.17,4.08-.22,1.31-.59,2.54-.88,3.75-1.25,4.82.05,9.47,2.15,12.52,2.12,3.1,4.85,4.72,6.75,5.55.96.42,1.75.65,2.28.8.54.14.82.21.82.23Z"/>
          <path class="cls-15" d="m559.23,215.59c-.01.06-.87-.22-2.47-.26-1.57-.03-3.97.24-6.39,1.76-2.37,1.48-4.68,4.35-5.17,8.09-.25,1.85-.1,3.84.21,5.87.15,1.02.34,2.05.52,3.11.17,1.06.28,2.18.12,3.31-.14,1.12-.72,2.28-1.72,2.88-.99.62-2.12.72-3.14.81-1.04.08-2.03.14-2.94.46-.9.32-1.73.81-2.42,1.42-1.39,1.22-2.23,2.88-2.4,4.51-.19,1.64.1,3.2.37,4.6.29,1.4.57,2.69.65,3.84.1,1.15.04,2.15-.14,2.95-.17.8-.44,1.38-.65,1.75-.1.19-.2.32-.27.4-.07.09-.1.13-.11.12-.07-.03.55-.74.83-2.32.14-.78.17-1.76.05-2.88-.11-1.13-.41-2.38-.72-3.79-.29-1.4-.62-2.99-.44-4.72.16-1.73,1.05-3.52,2.51-4.82.72-.66,1.6-1.18,2.57-1.53.98-.35,2.04-.42,3.06-.5,1.02-.08,2.07-.2,2.91-.74.85-.52,1.35-1.49,1.49-2.52.29-2.1-.38-4.21-.63-6.27-.3-2.05-.45-4.09-.18-6.01.53-3.89,2.97-6.85,5.45-8.33,2.52-1.53,4.99-1.74,6.59-1.65.81.05,1.43.17,1.84.26.41.11.62.18.62.2Z"/>
          <path class="cls-13" d="m629.66,258.55s.02-.09.07-.25c.05-.17.14-.41.2-.74.14-.66.22-1.67-.1-2.92-.31-1.23-1.05-2.7-2.47-3.84-.71-.57-1.59-.99-2.59-1.2-1.01-.21-2.12-.22-3.25-.52-.57-.15-1.13-.4-1.62-.79-.49-.39-.87-.92-1.15-1.49-.56-1.17-.72-2.52-.75-3.88-.02-1.36.04-2.77-.25-4.16-.15-.69-.41-1.37-.83-1.96-.44-.56-.96-1.1-1.63-1.43-1.31-.72-2.87-.97-4.44-1.24-1.56-.27-3.23-.52-4.72-1.36-.75-.41-1.39-1.02-1.88-1.73-.49-.72-.8-1.54-1.02-2.38-.45-1.68-.58-3.42-1.03-5.11-.87-3.38-3.63-6.01-6.76-6.93-1.57-.49-3.2-.41-4.8-.45-.8-.02-1.6-.07-2.38-.27-.78-.18-1.52-.53-2.12-1.05-1.21-1.06-1.71-2.55-2.3-3.84-.55-1.33-1.36-2.47-2.33-3.39-1.96-1.83-4.45-2.77-6.72-2.84-2.29-.1-4.31.68-5.8,1.71-1.5,1.03-2.5,2.29-3.16,3.38-.64,1.11-.96,2.07-1.11,2.73-.1.32-.11.58-.16.75-.03.17-.05.26-.06.26,0,0,.01-.36.15-1.03.13-.67.43-1.64,1.06-2.78.65-1.12,1.65-2.4,3.16-3.47,1.5-1.05,3.56-1.88,5.91-1.79,2.33.06,4.87,1.01,6.89,2.87,1,.94,1.84,2.13,2.41,3.47.59,1.31,1.1,2.76,2.23,3.73,1.13.99,2.75,1.2,4.31,1.23,1.58.04,3.26-.05,4.89.45,3.23.94,6.08,3.65,6.98,7.15.45,1.72.58,3.47,1.02,5.11.22.81.52,1.61.98,2.28.46.67,1.06,1.25,1.77,1.64,2.88,1.59,6.36,1.11,9.14,2.61.7.35,1.26.92,1.73,1.52.44.63.71,1.35.87,2.07.3,1.45.22,2.87.24,4.21.02,1.34.18,2.66.71,3.77.27.55.62,1.05,1.08,1.41.45.37.99.61,1.53.76,1.09.3,2.21.32,3.23.54,1.03.22,1.95.67,2.67,1.26,1.45,1.18,2.18,2.7,2.48,3.95.3,1.27.2,2.3.04,2.96-.06.34-.17.58-.23.74-.06.16-.1.25-.1.24Z"/>
        </g>
        <path class="cls-3" d="m582.87,380.31h78.21l-6.87-17.12s-24.51-66.91-29.59-72.33c-6.65-7.1-17.63-12.8-17.63-12.8l-33.84,17.11s-9.82,27.87-11.12,38.84c-.31,2.57-.48,5.22-.53,7.88-.25,13.71,8.07,26.12,20.76,31.31h0l.6,7.1Z"/>
        <g>
          <path class="cls-5" d="m575.59,272.97l-3.74,4.11s.58-7.94-.37-8.89-2.22,0-2.22,0c0,0-.48-1.59-2.06-1.9-1.59-.32-3.33.79-3.33.79,0,0-3.17-2.02-4.92-.85-1.75,1.17-2.38,2.28-2.38,2.28,0,0-2.06.48-3.17,1.59-1.11,1.11-1.27,1.54-1.27,1.54,0,0-1.9.69-1.9,1.96s-2.06,13.96-2.54,18.72-1.58,12.12-1.58,12.12l19.15-.34s.27-9.9.62-11.09c0,0,3.13-1.27,5.83-4.6,2.7-3.33,4.73-8.41,6.18-10.85.87-1.47,3.36-5.63,3.36-6,.02-1.14-1.27-1.5-2.37-1.22-1.23.31-2.36,1.77-3.28,2.63Z"/>
          <path class="cls-7" d="m575.59,272.97s.14-.16.42-.47c.29-.3.69-.77,1.29-1.31.3-.27.66-.56,1.12-.78.46-.22,1.03-.32,1.63-.23.3.05.61.15.87.37.27.21.44.57.44.93-.05.42-.26.67-.41,1-.17.31-.34.63-.52.96-.73,1.31-1.57,2.74-2.48,4.3-.88,1.56-1.68,3.35-2.65,5.2-.97,1.85-2.03,3.83-3.52,5.67-1.51,1.82-3.43,3.48-5.82,4.58l.13-.15c-.26,1.63-.3,3.49-.4,5.32-.06,1.85-.13,3.76-.2,5.71v.23s-.24,0-.24,0c-5.94.11-12.42.23-19.15.35h-.3s.04-.3.04-.3c.14-1.1.3-2.28.45-3.48.36-2.72.71-5.41,1.05-8.04.3-2.65.66-5.24,1.02-7.77.37-2.53.73-5,1.09-7.4.17-1.2.35-2.39.48-3.55.05-.3.02-.53.09-.9.08-.34.27-.63.48-.86.45-.46.97-.75,1.54-.98l-.14.14c.28-.53.6-.83.93-1.2.32-.34.68-.7,1.09-.96.82-.53,1.69-.85,2.59-1.09l-.14.11c.45-.69.99-1.21,1.57-1.7.29-.24.59-.46.9-.66.34-.21.73-.33,1.11-.37,1.54-.08,2.85.57,4.01,1.24h-.21c1.04-.59,2.17-.98,3.31-.83,1.17.15,2.02,1.07,2.35,2.06l-.27-.09c.52-.35,1.16-.57,1.79-.38.3.1.57.27.74.54.1.14.14.28.18.42.05.14.08.27.1.41.19,1.08.19,2.1.2,3.05,0,1.91-.1,3.58-.21,4.99l-.18-.08c1.21-1.3,2.15-2.31,2.81-3.02.31-.32.55-.58.74-.77.17-.17.26-.26.26-.25s-.07.1-.23.29c-.18.2-.41.47-.7.81-.65.73-1.56,1.76-2.74,3.08l-.2.22.02-.3c.08-1.41.15-3.07.14-4.97-.02-.95-.03-1.97-.23-2.99-.05-.25-.12-.52-.24-.7-.11-.19-.35-.34-.58-.41-.47-.15-1.05.04-1.48.34l-.19.13-.08-.22c-.3-.87-1.07-1.68-2.08-1.79-1-.13-2.1.24-3.05.8l-.1.06-.11-.06c-1.1-.64-2.42-1.24-3.76-1.15-.33.03-.64.14-.92.3-.29.19-.58.41-.86.64-.55.46-1.09.99-1.46,1.58l-.05.08-.09.02c-.84.22-1.7.55-2.44,1.03-.38.24-.68.55-1.01.9-.3.33-.65.73-.83,1.05l-.06.1-.08.03c-.49.2-.99.48-1.35.86-.18.19-.31.41-.37.64-.04.2-.04.57-.08.85-.13,1.18-.3,2.36-.47,3.57-.35,2.4-.7,4.88-1.07,7.4-.36,2.53-.72,5.12-1.01,7.75-.34,2.64-.69,5.33-1.05,8.06-.16,1.19-.31,2.38-.45,3.48l-.26-.3c6.74-.11,13.21-.22,19.15-.32l-.24.24c.07-1.95.15-3.86.22-5.72.11-1.87.13-3.63.43-5.43l.02-.09.12-.05c2.28-1.04,4.2-2.66,5.67-4.43,1.47-1.79,2.54-3.74,3.51-5.58.97-1.84,1.79-3.61,2.7-5.19.93-1.55,1.78-2.97,2.53-4.27.18-.33.36-.64.53-.95.15-.3.37-.64.39-.88.02-.64-.57-1.03-1.11-1.11-.55-.09-1.09-.01-1.52.18-.44.2-.79.47-1.1.73-1.18,1.08-1.77,1.71-1.8,1.67Z"/>
        </g>
        <g class="cls-16">
          <path d="m576.33,356.7l-6.87,6.16c9.7.33,17.92-4.48,25.75-10.22,7.83-5.74,22.3-18.65,24.91-28-13.07,7.31-32.46,22.24-43.78,32.05Z"/>
        </g>
        <g>
          <g>
            <path class="cls-5" d="m476.75,335.74c-.18.03-13.34-1.49-16.74-1.8-1.02-.09-2.03.48-2.35,1.46-.22.68-.09,1.42,1.12,1.86,3.39,1.22,15.16,2.69,15.16,2.69,0,0-5.26-.38-5.46,1.69-.2,2.07,2.41,3.46,2.41,3.46,0,0-1.75.73-1.36,2.25.39,1.52,2.86,2.61,2.86,2.61l1.33.55s-2.19-.01-2.22,1.2c-.04,1.21,1.19,2.3,2.36,2.57,1.17.27,6.54,1.38,6.54,1.38l3.94-9.43-3-9.02-4.6-1.46Z"/>
            <path class="cls-5" d="m516.45,341.17s-17.3,1.73-18.63,1.09c-1.33-.64-14.97-7.78-17.08-8.34-2.1-.56-12.08.23-12.08.23,0,0-2.15,2.3,2.63,3.75,4.96,1.51,7.76.94,7.13,1.19l-1.18,15.96s8.47,3.36,12.34,3.08l5.4-1.55,24.57,4.34-3.1-19.75Z"/>
            <g>
              <path class="cls-5" d="m473.48,339.8c.64.37,1.36.6,2.04.89.68.3,1.35.68,1.79,1.28.44.6.61,1.44.25,2.09-.43.77-1.42,1.02-2.3,1.08-1.14.09-2.29,0-3.4-.23"/>
              <path class="cls-7" d="m471.85,344.9c.02-.08.72.05,1.86.06.56,0,1.25,0,1.97-.12.7-.11,1.52-.42,1.75-1.14.22-.72-.14-1.51-.65-1.97-.52-.49-1.14-.77-1.65-1.01-1.06-.45-1.68-.86-1.64-.92.04-.05.67.22,1.77.58.54.2,1.22.46,1.84,1,.61.52,1.13,1.48.82,2.49-.16.5-.54.88-.95,1.09-.41.22-.83.31-1.22.37-.79.09-1.48.07-2.07.01-1.17-.12-1.85-.37-1.84-.43Z"/>
            </g>
            <g>
              <path class="cls-5" d="m474.11,350.51c2.72.3,5.49.18,8.18-.36.83-.17,1.78-.48,2.05-1.29.21-.64-.14-1.36-.67-1.78s-1.21-.59-1.87-.72c-2.05-.41-4.15-.54-6.24-.66"/>
              <path class="cls-7" d="m475.56,345.71c0-.07,1.18-.08,3.1.04.95.07,2.09.18,3.35.42.62.13,1.33.3,1.92.8.29.25.53.58.65.97.13.38.12.86-.09,1.24-.45.79-1.28,1.01-1.95,1.18-.69.14-1.34.24-1.98.32-1.26.15-2.41.19-3.37.17-.96-.02-1.73-.09-2.27-.17-.53-.07-.82-.14-.82-.18,0-.08,1.19.03,3.08-.02.95-.03,2.07-.1,3.31-.28.62-.09,1.27-.2,1.93-.34.63-.15,1.32-.39,1.6-.92.29-.52.01-1.2-.43-1.59-.46-.4-1.09-.58-1.68-.72-1.22-.26-2.34-.41-3.28-.53-1.89-.21-3.07-.33-3.06-.4Z"/>
            </g>
            <g>
              <path class="cls-5" d="m477.4,350.93c.56-.1,1.13-.19,1.7-.16s1.15.22,1.56.61.63,1.02.44,1.55c-.21.59-.82.92-1.41,1.13-1.58.55-3.3.5-4.97.44"/>
              <path class="cls-7" d="m474.71,354.5c0-.08.68-.1,1.76-.16.54-.03,1.18-.08,1.86-.2.67-.14,1.47-.31,2.07-.74.3-.22.48-.51.5-.82.03-.31-.09-.64-.27-.88-.38-.5-1-.69-1.5-.75-1.03-.09-1.73.07-1.73-.03,0-.04.62-.33,1.76-.33.56.02,1.31.18,1.85.83.25.32.43.74.4,1.22-.02.48-.33.93-.7,1.19-.77.53-1.58.66-2.3.79-.73.11-1.39.11-1.94.1-1.1-.04-1.76-.15-1.76-.21Z"/>
            </g>
            <path class="cls-7" d="m468.43,334.49c.06,0-.05.39,0,1.06.06.33.15.73.45,1.08.29.36.77.63,1.34.83.57.2,1.23.33,1.95.49.74.18,1.46.37,2.29.47,1.63.23,3.46.4,5.39.53h.2s.04.23.04.23c.07.39.11.82.21,1.23.44,2,1.37,3.76,2.42,5.2,1.07,1.43,2.24,2.55,3.29,3.4,2.12,1.69,3.69,2.38,3.64,2.47-.01.03-.41-.12-1.1-.45-.69-.34-1.66-.89-2.77-1.72-1.1-.83-2.33-1.95-3.45-3.4-1.1-1.46-2.09-3.28-2.54-5.37-.11-.43-.15-.88-.22-1.28l.24.23c-1.94-.14-3.77-.32-5.42-.58-.82-.12-1.62-.34-2.31-.53-.71-.17-1.39-.33-1.98-.57-.59-.23-1.11-.56-1.43-.99-.32-.43-.39-.89-.42-1.24,0-.36.04-.63.1-.81.04-.18.07-.27.09-.27Z"/>
          </g>
          <polygon class="cls-3" points="549.61 335.91 508.33 340.48 510.16 364.38 560.05 367.19 549.61 335.91"/>
        </g>
        <g class="cls-16">
          <path d="m557.67,359.87c-1.13-4.3-2.27-8.61-3.4-12.91-.55-2.08-1.12-4.21-2.38-5.95-1.26-1.74-3.83-5.14-5.95-4.79l-7.71.95c.27,4.03.74,8.25,1.12,12.31.38,4.06,1.6,8.13,4.13,11.32,2.53,3.19,6.5,5.39,10.57,5.14,1.35-.08,2.8-.51,3.54-1.64.84-1.28.48-2.96.09-4.44Z"/>
        </g>
        <g>
          <path class="cls-3" d="m622.23,321.25c-3.56,9.55-43.33,36.67-43.33,36.67,0,0-12.38,7.88-19.57,8.03-9.29.19-16.94-7.75-16.99-15.65-.06-10.15-.45-49.37-.45-49.37l25.76-1.18v28.63s19.66-19.22,24.3-24.49c9.02-10.23,18.11-19.53,25.7-16.28"/>
          <path class="cls-15" d="m617.65,287.61s-.4-.11-1.17-.34c-.38-.15-.89-.13-1.47-.22-.29-.06-.61,0-.95,0-.34.04-.71,0-1.09.1-3.1.45-7.14,2.89-11.39,6.83-2.14,1.97-4.38,4.29-6.73,6.89-1.17,1.31-2.39,2.67-3.65,4.09-1.29,1.4-2.65,2.82-4.07,4.27-5.67,5.82-12.19,12.28-19.33,19.31l-.38.37v-.53c0-8.76-.02-18.44-.03-28.63l.26.25c-8.24.38-16.87.78-25.76,1.19l.25-.26c.05,5.15.1,10.6.15,16.12.08,9.47.17,18.72.25,27.65,0,1.12.02,2.23.03,3.33.02,1.1-.01,2.22.09,3.28.18,2.14.91,4.21,1.98,6.03,2.17,3.64,5.64,6.37,9.5,7.59,1.92.61,3.94.86,5.9.72,1.96-.17,3.85-.74,5.67-1.38,3.64-1.32,7-3.04,10.18-4.82,1.6-.89,3.11-1.81,4.54-2.84,1.44-1.01,2.86-2,4.24-2.97,2.76-1.96,5.4-3.86,7.9-5.7,10-7.35,17.81-13.68,22.85-18.45,2.51-2.39,4.32-4.4,5.39-5.87.28-.36.49-.7.67-1,.19-.29.34-.54.43-.75.2-.42.32-.63.32-.63,0,0-.28.94-1.34,2.44-1.05,1.5-2.84,3.54-5.33,5.96-5,4.83-12.79,11.2-22.77,18.6-2.49,1.85-5.12,3.76-7.88,5.73-1.38.98-2.8,1.97-4.24,2.99-1.42,1.03-2.98,1.98-4.56,2.88-3.18,1.79-6.56,3.53-10.24,4.87-1.84.65-3.76,1.23-5.79,1.41-2.03.15-4.1-.1-6.08-.73-3.97-1.25-7.55-4.05-9.78-7.8-1.11-1.88-1.87-4.01-2.06-6.24-.1-1.12-.07-2.21-.09-3.32-.01-1.11-.02-2.22-.03-3.33-.08-8.93-.17-18.18-.26-27.65-.05-5.52-.1-10.97-.14-16.12v-.25s.25-.01.25-.01c8.89-.4,17.52-.8,25.76-1.17h.26s0,.25,0,.25c0,10.2-.02,19.87-.02,28.63l-.38-.16c7.16-7.01,13.69-13.45,19.38-19.24,1.42-1.45,2.79-2.86,4.08-4.25,1.27-1.41,2.5-2.77,3.67-4.07,2.37-2.59,4.63-4.91,6.79-6.87,4.29-3.93,8.39-6.36,11.54-6.78.38-.1.76-.05,1.1-.09.35,0,.67-.05.96.01.59.1,1.1.1,1.48.26.77.26,1.15.41,1.15.41Z"/>
        </g>
        <path class="cls-8" d="m548.35,348.62s.08-.31.3-.84c.22-.53.57-1.28,1.03-2.19.92-1.82,2.32-4.28,4.08-6.86,1.76-2.58,3.55-4.77,4.91-6.29.68-.76,1.25-1.36,1.66-1.76.41-.4.65-.61.67-.58.06.05-.77,1.01-2.05,2.58-1.29,1.57-3.01,3.79-4.76,6.35-1.75,2.56-3.18,4.97-4.18,6.74-1,1.77-1.59,2.89-1.66,2.85Z"/>
        <path class="cls-15" d="m686.67,288.89h0c-3.73-.83-7.43,1.52-8.26,5.25l-18.93,86.17,13.84.03,18.6-83.18c.83-3.73-1.52-7.43-5.25-8.26Z"/>
        <path class="cls-7" d="m571.9,276.85c.14.01.16,1.28.03,2.84-.13,1.56-.35,2.81-.49,2.8-.14-.01-.16-1.28-.03-2.84.13-1.56.35-2.81.49-2.8Z"/>
        <path class="cls-15" d="m567.55,345.62c-.07,0-.14-1-.18-2.6-.05-1.6-.08-3.8-.08-6.22,0-2.43.03-4.62.08-6.22.05-1.59.11-2.58.18-2.58.07,0,.14.99.18,2.58.05,1.6.08,3.8.08,6.24,0,2.44-.03,4.64-.08,6.23-.05,1.59-.11,2.57-.18,2.56Z"/>
      </g>
      <g>
        <g>
          <path class="cls-5" d="m325.35,219.33l4.47-2.73s5.85-5.21,7.44-6.35c1.59-1.14,7.74-3.9,8.61-3.83.87.07,9.31-.46,11.32-1.4s4.18-2.16,4.18-2.16c0,0,1.42,1.55.22,3.63-1.21,2.08-7.38,6-7.38,6l2.32,15.1s-5.75,4.54-9.33,4.83c-3.58.3-7.03-.41-8.04-.09-1.01.32-3.53,1.2-3.53,1.2l-10.26-14.21Z"/>
          <polygon class="cls-15" points="341.34 220.33 380.57 194.31 382.8 197.58 343.93 223.49 341.34 220.33"/>
          <g>
            <path class="cls-5" d="m363.38,212.64s3.02,1.22,1.41,3.96c-1.6,2.74-3.64,1.88-3.64,1.88,0,0,.74,2.96-2.65,4.55,0,0,.39,2.87-1.98,4.56l-1.91.99-1.22-2.35s-7.18-.66-8.26-3.51l-.05-1.48s-1.4-.71-1.17-2.1c.23-1.39.14-1.42,2.84-2.35,2.7-.92,8.43-.31,8.43-.31,0,0-3.07-1.17-3.02-2.76.05-1.59,1.28-2.6,4.58-2.37,3.3.23,6.63,1.29,6.63,1.29Z"/>
            <path class="cls-7" d="m363.38,212.64s-.42-.08-1.19-.26c-.77-.18-1.9-.44-3.36-.65-.73-.1-1.54-.2-2.42-.23-.87-.02-1.85,0-2.76.37-.45.19-.85.51-1.06.95-.2.44-.3,1.02-.08,1.45.23.46.67.85,1.16,1.17.49.33,1.04.61,1.61.83l1.37.55-1.48-.12c-2.17-.18-4.59-.32-7.05.03-.62.1-1.19.25-1.81.48-.59.22-1.26.42-1.71.75-.2.16-.28.4-.34.73l-.08.49c-.02.15-.03.29,0,.43.06.57.51,1.09,1.04,1.38l.14.08v.15c.02.47.04.98.06,1.48l-.02-.08c.06.1.12.22.18.33.36.59.98,1.03,1.62,1.37.64.35,1.34.59,2.04.82,1.4.42,2.83.69,4.21.84l.14.02.06.12c.41.8.81,1.58,1.21,2.35l-.33-.1c.65-.33,1.29-.66,1.91-.98l-.03.02c1.45-1.01,2.04-2.81,1.9-4.34v-.16s.12-.06.12-.06c.91-.43,1.7-1.05,2.13-1.84.46-.78.58-1.7.43-2.47l-.06-.32.3.11c.61.22,1.32.12,1.85-.17.55-.28.97-.73,1.3-1.17.32-.46.57-.92.7-1.37.11-.46.08-.89-.05-1.25-.27-.73-.79-1.13-1.12-1.37-.34-.24-.54-.33-.53-.35,0-.01.22.05.59.27.35.22.92.6,1.24,1.38.16.39.21.87.1,1.38-.12.5-.38.99-.7,1.48-.34.47-.77.97-1.38,1.29-.6.32-1.37.48-2.14.21l.24-.21c.18.89.06,1.87-.44,2.75-.48.89-1.33,1.57-2.3,2.04l.12-.22c.08.87-.03,1.74-.36,2.59-.32.85-.92,1.62-1.7,2.19h-.01s-.02.02-.02.02c-.62.32-1.26.65-1.9.99l-.22.11-.11-.22c-.4-.77-.81-1.55-1.22-2.34l.2.13c-1.43-.15-2.87-.42-4.31-.85-.72-.23-1.44-.47-2.13-.85-.68-.37-1.37-.84-1.82-1.56-.07-.14-.15-.28-.22-.41v-.03s-.02-.06-.02-.06c-.02-.51-.04-1.01-.05-1.48l.14.22c-.67-.37-1.21-.99-1.32-1.78-.02-.19-.01-.39.01-.58l.09-.5c.05-.33.18-.77.52-1.03.63-.46,1.26-.61,1.87-.84.6-.22,1.27-.4,1.9-.5,2.56-.35,4.96-.18,7.17.02l-.1.43c-.61-.25-1.17-.54-1.69-.9-.51-.35-1-.77-1.29-1.35-.51-1.27.34-2.57,1.37-2.92,1.02-.4,2.03-.39,2.92-.35.9.05,1.72.17,2.45.29,1.47.25,2.59.55,3.36.77.38.11.67.21.86.27.19.07.29.11.29.12Z"/>
          </g>
          <path class="cls-7" d="m357.67,223.11c-.07.15-2.65-1.31-6.19-1.83-3.53-.56-6.43.07-6.45-.1-.01-.06.69-.3,1.87-.47,1.18-.17,2.85-.23,4.66.05,1.81.28,3.38.83,4.46,1.34,1.08.51,1.68.95,1.65,1Z"/>
          <path class="cls-7" d="m361.05,218.68c-.09.11-1.41-.76-3.29-1.27-1.87-.54-3.46-.65-3.46-.8,0-.13,1.65-.26,3.6.3,1.97.53,3.26,1.66,3.15,1.77Z"/>
        </g>
        <g>
          <path class="cls-15" d="m189.92,66.78c1.23-2.49,4.18-4.02,6.93-3.57,3.16-2.61,8.18-2.62,11.34-.02,2.39-1.49,5.57-1.61,8.07-.32,2.5,1.29,4.24,3.95,4.42,6.76,2.81-.51,5.86.96,7.22,3.46,1.36,2.51.94,5.86-1.01,7.95,3.09.93,5.17,4.39,4.55,7.56-.62,3.16-3.85,5.59-7.06,5.29l-33.09-19.45c-2.03-1.91-2.62-5.17-1.39-7.67Z"/>
          <g>
            <g>
              <path class="cls-5" d="m225.37,94.8c-1.47-14.47-13.8-25.39-28.35-25.09l-1.45.03c-15.56,1.23-23.21,15.14-21.55,30.66l3.33,51.85,2.27,6.48,26.81,33.6,6.76-30.27.13-14.05s14.93-2.64,14.81-17.62c-.06-7.24-1.4-22.13-2.76-35.59Z"/>
              <path class="cls-7" d="m213.3,148.03s-9.41.73-19.6-5.39c0,0,4.81,10.71,19.59,9.1l.02-3.72Z"/>
              <path class="cls-15" d="m221.32,108.76c.06,1.13-.84,2.11-2.02,2.2-1.18.09-2.18-.75-2.24-1.88-.06-1.13.84-2.11,2.02-2.2,1.18-.09,2.18.76,2.25,1.88Z"/>
              <path class="cls-15" d="m222.49,102.95c-.26.28-1.9-.88-4.21-.83-2.3.02-3.96,1.24-4.22.96-.13-.12.13-.63.86-1.18.71-.55,1.94-1.09,3.37-1.12,1.43-.02,2.65.48,3.36,1.01.72.53.97,1.03.84,1.16Z"/>
              <path class="cls-15" d="m201.61,110.15c.06,1.13-.84,2.11-2.02,2.2-1.18.09-2.18-.75-2.24-1.88-.06-1.13.84-2.11,2.02-2.2,1.18-.09,2.18.76,2.25,1.88Z"/>
              <path class="cls-15" d="m200.46,103.08c-.26.28-1.91-.88-4.21-.83-2.3.02-3.96,1.24-4.22.96-.13-.12.13-.63.86-1.18.71-.55,1.94-1.09,3.37-1.12,1.43-.02,2.65.48,3.36,1.01.72.53.97,1.03.84,1.16Z"/>
              <path class="cls-15" d="m208.39,119.99c-.01-.13,1.41-.41,3.72-.75.59-.07,1.14-.2,1.23-.6.13-.43-.13-1.06-.43-1.73-.58-1.41-1.19-2.89-1.83-4.44-2.55-6.32-4.4-11.53-4.15-11.63.26-.1,2.53,4.94,5.07,11.27.61,1.56,1.2,3.05,1.76,4.47.24.66.63,1.41.35,2.3-.15.44-.57.77-.95.88-.37.12-.7.14-1,.16-2.33.17-3.78.21-3.79.08Z"/>
              <path class="cls-15" d="m201.65,121.72c.37-.03.43,2.47,2.61,4.2,2.17,1.74,4.83,1.4,4.86,1.75.04.16-.58.5-1.71.55-1.1.06-2.72-.26-4.05-1.32-1.33-1.06-1.92-2.5-2.02-3.52-.12-1.04.15-1.67.32-1.66Z"/>
              <path class="cls-15" d="m200.35,96.51c-.26.6-2.25.11-4.66.2-2.41.03-4.4.63-4.66.04-.11-.28.28-.83,1.11-1.36.83-.53,2.11-.98,3.55-1.02,1.44-.04,2.72.35,3.55.83.83.48,1.22,1.02,1.11,1.3Z"/>
              <path class="cls-15" d="m221.83,96.65c-.35.56-1.98.18-3.88.35-1.91.1-3.47.71-3.89.2-.19-.25,0-.79.66-1.36.64-.56,1.76-1.08,3.06-1.18,1.31-.09,2.49.26,3.2.73.73.47,1,.98.85,1.25Z"/>
              <path class="cls-15" d="m223.79,87.96s-4.14-9.3-8.71-11.39c-5.53-2.54-7.76,3.52-13.01,2.17-5.25-1.35-10.53-3.79-15.78.36-5.75,4.54-2.95,7.58-3.17,14.23-.91,26.97-5.67,34.7-7.33,22.03-.18-1.39-4.06-2.41-4.76-8.28-.9-7.6-1.38-16.85.21-22.29,1.34-4.59,3.87-7.79,8.46-11.35,7.24-5.63,17.34-5.96,24.22-5.41,6.87.55,20.26,8.17,19.88,19.93Z"/>
              <path class="cls-5" d="m176.73,114.93c-.14-2.31-2.17-4.09-4.47-3.83-2.79.32-5.86,1.97-5.56,7.74.54,10.23,10.7,7.58,10.7,7.29,0-.2-.41-6.92-.67-11.2Z"/>
              <path class="cls-7" d="m174.97,122.4s-.17.13-.47.29c-.29.15-.79.27-1.33.1-1.1-.34-2.1-2.01-2.25-3.85-.07-.93.07-1.83.37-2.58.27-.77.73-1.31,1.27-1.44.53-.15.94.15,1.08.43.15.28.1.49.15.5.03.02.21-.18.11-.6-.05-.2-.19-.44-.44-.62-.26-.19-.62-.27-1-.21-.79.1-1.46.86-1.78,1.68-.36.83-.55,1.84-.47,2.88.17,2.06,1.33,3.93,2.83,4.28.73.15,1.32-.1,1.62-.36.3-.27.35-.5.31-.52Z"/>
            </g>
            <path class="cls-15" d="m176.52,95.08c1.35.88,2.77,1.79,4.38,1.91,1.61.13,3.42-.83,3.66-2.43.11-.72-.08-1.54.37-2.1.55-.67,1.58-.48,2.44-.41,2.98.25,5.99-1.91,6.69-4.83.78,1.12,2.55,1.04,3.69.27,1.13-.76,1.85-1.99,2.73-3.04.88-1.05,2.12-2,3.48-1.83.76.09,1.48.53,2.24.44,1.34-.15,1.97-1.74,2.14-3.07.18-1.34.3-2.9,1.43-3.65,1.04-.69,2.42-.33,3.66-.18,1.24.16,2.83-.17,3.13-1.38.15-.64-.13-1.3-.5-1.85-1.65-2.48-5.15-3.52-7.88-2.35-1.07-3.36-4.29-5.93-7.81-6.23-3.52-.3-7.12,1.69-8.74,4.83-2.2-1.92-5.37-2.68-8.2-1.97-2.84.71-5.27,2.87-6.31,5.6-2.5-.6-5.32.42-6.86,2.49-1.54,2.07-1.7,5.06-.4,7.29-1.82,1.09-3.36,2.95-3.35,5.07,0,2.12,2.11,4.19,4.15,3.59-.79,1.67-.07,3.89,1.54,4.78,1.62.89,3.88.3,4.87-1.26"/>
          </g>
          <path class="cls-13" d="m169.89,91.25s-.17.86.68,1.96c.42.52,1.13,1.05,2.08,1.18.93.14,2.05-.11,2.9-.91l-.43-.06c.52.87,1.21,1.76,2.1,2.51.57.48,1.2.89,1.89,1.12.68.25,1.44.26,2.07.15,1.29-.17,2.41-.89,2.92-1.76.53-.85.69-1.63.78-2.15.09-.53.1-.82.06-.83-.04,0-.13.27-.28.77-.16.49-.38,1.23-.91,1.97-.94,1.49-4.09,2.3-6.15.27-.82-.7-1.49-1.54-2-2.35l-.19-.3-.25.24c-.69.67-1.65.92-2.45.84-.81-.08-1.46-.5-1.87-.94-.84-.92-.85-1.75-.94-1.72Z"/>
          <path class="cls-13" d="m188.76,67.46s.27.07.73.25c.45.19,1.12.56,1.62,1.32l.13.19.14-.19c.93-1.3,2.5-2.99,4.87-4.11,1.18-.55,2.55-.94,4.01-.97,1.46-.04,2.99.35,4.36,1.15,1.06.62,1.96,1.45,2.63,2.39.65.95,1.06,2.01,1.19,3.06l.04.32.31-.09c1.53-.45,3.1-.19,4.27.43,1.18.62,1.94,1.58,2.38,2.45.86,1.78.6,3.04.7,3.02.02,0,.1-.29.11-.84,0-.55-.09-1.38-.51-2.32-.42-.93-1.2-2-2.46-2.71-1.24-.7-2.94-1.03-4.64-.55l.35.23c-.12-1.14-.56-2.31-1.26-3.33-.71-1.02-1.68-1.91-2.81-2.57-1.46-.85-3.11-1.26-4.67-1.21-1.56.04-3,.48-4.22,1.07-2.46,1.22-4.02,3.01-4.91,4.4h.26c-.59-.81-1.34-1.15-1.83-1.3-.5-.14-.78-.11-.79-.09Z"/>
        </g>
        <polygon class="cls-15" points="155.74 380.22 156.1 326.37 163.68 306.73 163.69 301.43 249.27 300 249.27 306.17 259.09 330.58 259.62 380.22 210.18 380.22 206.05 357.8 205.1 380.22 155.74 380.22"/>
        <g>
          <path class="cls-2" d="m177.13,148.06l17.86,13.99,11.31,14.36,4.14-14.89,2.96-11.68,4.86,4.83,12.33,26.26,13.87,126.91s-24.19,7.08-36.72,7.94-32.5-2.58-32.5-2.58v-66.77l-7.11-66.13,8.58-25.34.41-6.9Z"/>
          <path class="cls-15" d="m213.23,314.94s-.02-.12-.04-.36c-.01-.26-.03-.61-.05-1.05-.03-.95-.08-2.3-.15-4.02-.12-3.52-.29-8.57-.5-14.79-.43-12.49-1.12-29.73-2.1-48.77-.99-19.04-2.08-36.27-2.94-48.73-.43-6.21-.78-11.24-1.03-14.76-.12-1.72-.21-3.06-.27-4.01-.02-.44-.04-.78-.06-1.05,0-.24-.01-.36,0-.36,0,0,.03.12.05.35.03.26.06.61.11,1.04.09.95.21,2.29.37,4.01.31,3.48.72,8.52,1.2,14.75.95,12.46,2.11,29.69,3.1,48.73.98,19.04,1.61,36.29,1.95,48.78.17,6.25.28,11.3.33,14.8.02,1.72.04,3.07.05,4.02,0,.44,0,.78,0,1.05,0,.24,0,.36-.02.36Z"/>
          <path class="cls-3" d="m174.35,154.66l-4.13,5.69-33.83,17.8,18.83,57.41,5.07,32.2-19.02,76.49s23.07,7.94,25.1,5.4c.85-1.07,3.27-6.57,5.79-12.59,5.02-11.99,8.29-24.64,9.69-37.57,1.41-13.02,2.71-29.62,1.76-40.87-1.77-21.04-4.56-55.78-4.82-64.91-.25-9.13-1.87-43.59-1.87-43.59l-2.58,4.52Z"/>
          <path class="cls-3" d="m215.8,151.28l11.19,6.54,36.24,11.91-2.9,25.63-1.66,66.33,11.41,79.61s-12.17,4.31-16.99,2.54c-4.82-1.77-11.41-12.68-11.66-19.27-.25-6.59-9.63-70.49-9.63-70.49l-9.13-85.95-6.87-16.85Z"/>
          <path class="cls-15" d="m227.68,157.78s.17.17.45.51c.31.38.73.89,1.25,1.53,1.11,1.39,2.68,3.36,4.65,5.83l.1.12-.13.1c-1.18.89-2.51,1.9-3.94,2.99l-.05-.33c1.44.45,2.99.95,4.63,1.46l.15.05v.15c-.09,8.25-.2,18.63-.32,29.88-.2,13.74-.38,26.17-.51,35.22-.09,4.47-.16,8.11-.22,10.67-.04,1.23-.06,2.2-.08,2.9-.01.31-.03.55-.04.75-.01.17-.02.26-.03.26s-.02-.09-.02-.26c0-.2,0-.45-.02-.75,0-.7,0-1.67-.01-2.9.01-2.56.03-6.2.05-10.67.09-9.05.22-21.48.36-35.22.16-11.25.31-21.63.42-29.88l.14.2c-1.63-.53-3.18-1.04-4.61-1.51l-.34-.11.29-.21c1.45-1.07,2.79-2.07,3.98-2.95l-.03.22c-1.92-2.51-3.46-4.51-4.54-5.92-.5-.67-.9-1.19-1.19-1.59-.27-.36-.4-.56-.39-.56Z"/>
          <path class="cls-15" d="m182.59,247.74s-.04-.08-.1-.25c-.06-.2-.14-.44-.24-.74-.22-.69-.53-1.64-.92-2.84-.81-2.46-2.01-6.02-3.55-10.4-.78-2.19-1.64-4.58-2.56-7.14-.95-2.55-1.83-5.36-2.6-8.33-1.5-5.96-2.65-12.63-3.63-19.65-1.26-9.14-2.07-17.76-2.56-25.17v-.1s.07-.07.07-.07c1.4-1.35,2.72-2.63,3.99-3.84l.02.32c-1.34-1.02-2.59-1.97-3.78-2.88l-.15-.11.11-.15c2.86-3.88,5.19-7.03,6.82-9.25.8-1.06,1.42-1.9,1.88-2.5.2-.26.37-.47.5-.64.11-.14.18-.21.18-.21,0,0-.04.09-.14.24-.12.18-.27.4-.46.67-.43.62-1.03,1.47-1.8,2.56-1.6,2.24-3.88,5.43-6.69,9.35l-.04-.26c1.19.89,2.45,1.83,3.8,2.84l.19.15-.17.17c-1.25,1.23-2.57,2.51-3.96,3.87l.07-.18c.54,7.4,1.37,16.01,2.62,25.13.98,7,2.11,13.66,3.58,19.6.76,2.97,1.6,5.74,2.54,8.3.9,2.57,1.73,4.97,2.5,7.17,1.5,4.39,2.65,7.97,3.4,10.46.38,1.24.65,2.21.83,2.87.08.31.14.55.19.75.04.17.05.26.05.26Z"/>
          <polygon class="cls-16" points="153.54 295.1 173.22 302.82 174.53 298.43 181.21 304.55 182.41 293.92 176.24 282.42 154.98 289.31 153.54 295.1"/>
          <g>
            <path class="cls-5" d="m220.39,294.95l-7.99-4.85-7.02-6.36s2.17,1.87,5.46,2.97c3.29,1.1,5.14-1.92,5.14-1.92,0,0-2.88-1.82-3.86-2.36-.99-.55-10.94-7.98-13.47-8.52-2.52-.55-19.17-3.94-19.17-3.94l-.26.86-8.23,17.54,7.31,1.96s2.08,2.85,3.73,6.14c1.64,3.29,9.62,6.53,12.7,8.14,3.07,1.61,6.54-1.21,6.54-1.21,3.53.81,4.4-2.98,4.4-2.98,4.06-.55,4.4-4.96,4.4-4.96,0,0,7.36,2.85,9.63,3.25.93.16,1.42-.28,1.67-.88.45-1.05-.02-2.28-1-2.87Z"/>
            <path class="cls-7" d="m210.08,295.45c-.06.12-2.18-.73-4.65-2.09-2.49-1.36-4.24-2.87-4.15-2.98.09-.11,1.95,1.19,4.4,2.52,2.45,1.35,4.47,2.41,4.4,2.55Z"/>
            <path class="cls-7" d="m197.14,294.79c.08-.13,2.18,1.04,4.59,2.72,2.41,1.68,4.39,2.99,4.32,3.11-.07.13-2.2-1-4.61-2.68-2.41-1.68-4.36-3.03-4.29-3.15Z"/>
            <path class="cls-7" d="m193.97,298.18c.1-.09,1.63,1.19,3.7,2.58,2.06,1.4,3.7,2.6,3.61,2.73-.08.11-1.83-.89-3.91-2.3-2.09-1.4-3.51-2.9-3.4-3.01Z"/>
            <path class="cls-7" d="m196.02,276.75c.01-.06.71.01,1.78.38,1.07.36,2.48,1.08,3.84,2.14,1.36,1.07,2.4,2.23,3.08,3.12.68.89,1.02,1.5.97,1.53-.14.11-1.74-2.16-4.37-4.25-2.63-2.12-5.34-2.79-5.29-2.94Z"/>
          </g>
          <path class="cls-3" d="m118.98,274.37c-2.12-1.32-3.43-3.6-3.52-6.1-.08-2.23.02-5.55.6-10.39,1.41-11.71,20.57-79.7,20.57-79.7l19.27,52.99-6.62,23.07,33.73,16.15-9.39,26.5s-44.82-16.4-54.65-22.52Z"/>
          <path class="cls-3" d="m263.23,169.73l30.96,58.85.83,1.21,33.76-17.23,11.12,22.49-45.43,27.58c-5.18,3.09-11.86,1.58-15.22-3.42l-20.08-29.97-5.4-24.63,9.45-34.88Z"/>
          <path class="cls-15" d="m259.38,186.52s.04.26.06.74c.02.54.04,1.24.07,2.13.03,1.91.08,4.56.14,7.83.08,6.61.12,15.74.02,25.82-.1,10.09-.31,19.22-.52,25.82-.12,3.26-.22,5.92-.29,7.82-.05.88-.08,1.59-.11,2.13-.03.49-.06.74-.07.74-.02,0-.03-.26-.03-.74,0-.54,0-1.24.01-2.13.03-1.91.07-4.56.13-7.82.12-6.61.27-15.73.37-25.82.1-10.08.12-19.21.13-25.82,0-3.26.02-5.92.02-7.83.01-.88.02-1.59.03-2.13.01-.49.03-.74.04-.74Z"/>
          <path class="cls-15" d="m144.1,192.91s.09.2.21.59c.13.45.3,1.02.52,1.73.45,1.57,1.06,3.74,1.81,6.39,1.51,5.4,3.57,12.86,5.67,21.16,2.1,8.3,3.76,15.87,4.8,21.38.52,2.75.92,4.99,1.16,6.54.11.73.2,1.32.27,1.79.06.41.08.63.06.63-.02,0-.07-.21-.16-.61-.09-.46-.21-1.04-.36-1.77-.32-1.6-.77-3.81-1.32-6.5-1.14-5.49-2.85-13.03-4.95-21.32-2.1-8.29-4.1-15.77-5.52-21.19-.68-2.67-1.24-4.85-1.65-6.43-.17-.72-.31-1.3-.42-1.76-.09-.4-.13-.62-.11-.62Z"/>
          <path class="cls-15" d="m130.15,279.82s.08.01.22.06c.16.06.37.13.63.22.58.22,1.39.52,2.43.91,2.14.82,5.22,2,9.06,3.48,7.76,3.02,18.63,7.26,31.22,12.16l-.33.15c1.96-5.55,4.09-11.56,6.29-17.78,1.05-2.97,2.09-5.89,3.09-8.72l.13.32c-12.94-6.25-24.51-11.83-33.34-16.1h.02c-2.82-.88-5.54-1.13-7.87-.89-2.35.21-4.3.85-5.83,1.48-1.53.65-2.63,1.32-3.38,1.78-.35.23-.62.41-.83.55-.19.12-.29.18-.29.17,0,0,.08-.08.26-.22.2-.15.47-.35.81-.59.73-.48,1.83-1.19,3.36-1.88,1.53-.67,3.5-1.34,5.88-1.58,2.37-.27,5.14-.05,8.01.84h.01s.01,0,.01,0c8.85,4.23,20.44,9.77,33.4,15.96l.21.1-.08.22c-1,2.83-2.04,5.75-3.09,8.72-2.21,6.22-4.34,12.23-6.31,17.77l-.09.24-.24-.09c-12.57-4.98-23.42-9.27-31.16-12.34-3.82-1.54-6.88-2.76-9.01-3.62-1.02-.42-1.82-.75-2.4-.99-.25-.11-.45-.2-.62-.26-.14-.06-.21-.1-.2-.1Z"/>
          <path class="cls-15" d="m295.25,229.19c.06,0,.15.88.08,2.32-.06,1.43-.33,3.4-.78,5.53-.45,2.13-.9,4.04-1.2,5.43-.31,1.39-.49,2.25-.57,2.24-.07,0,0-.89.21-2.3.21-1.41.61-3.34,1.06-5.46.45-2.12.77-4.05.93-5.45.16-1.41.2-2.29.28-2.29Z"/>
        </g>
        <path class="cls-15" d="m295.25,230.61c.14.04-.53,2.46-1.63,5.35-1.1,2.88-1.99,5.2-2.12,5.16-.14-.04.53-2.46,1.63-5.35,1.1-2.88,1.99-5.2,2.12-5.16Z"/>
        <path class="cls-15" d="m205.88,175.89s-.36-.28-.95-.86c-.65-.64-1.49-1.48-2.51-2.5-2.17-2.22-5.12-5.23-8.49-8.68h.37c-1.07,1.23-1.83,2.88-2.19,4.65-.19.92-.26,1.85-.21,2.72l.03.59-.45-.37c-4.3-3.48-7.78-6.9-10.38-9.23-1.29-1.18-2.34-2.11-3.07-2.75-.73-.64-1.13-.99-1.1-1.02.02-.02.46.28,1.22.87.77.59,1.85,1.49,3.18,2.63,2.67,2.26,6.2,5.64,10.47,9.08l-.42.22c-.06-.92.01-1.9.22-2.86.38-1.85,1.18-3.57,2.32-4.89l.18-.21.19.2c3.32,3.5,6.22,6.55,8.36,8.8.98,1.06,1.79,1.94,2.41,2.61.56.62.85.96.83.98Z"/>
        <path class="cls-15" d="m217.25,156.91s.04.28.04.8c0,.52-.03,1.28-.1,2.23-.14,1.9-.49,4.59-1.26,7.66l-.16.63-.3-.58c-.79-1.54-1.89-3.13-3.29-4.54-.38-.38-.76-.74-1.14-1.07l.42-.14c-.92,4.1-2.09,7.65-3.07,10.14-.49,1.25-.91,2.24-1.23,2.91-.31.67-.51,1.03-.54,1.02-.03-.01.1-.4.36-1.09.29-.79.65-1.78,1.08-2.96.89-2.52,2-6.06,2.89-10.13l.09-.42.33.28c.39.33.79.7,1.18,1.1,1.44,1.46,2.56,3.09,3.36,4.69l-.45.05c.79-3.03,1.2-5.68,1.43-7.57.23-1.88.3-3,.36-3Z"/>
        <g>
          <polygon class="cls-3" points="248.05 290.34 251.07 299.73 268.18 298.15 262.84 289.17 248.05 290.34"/>
          <path class="cls-15" d="m248.05,290.34s.33-.06,1.02-.13c.76-.08,1.76-.17,3-.3,2.59-.25,6.32-.6,10.76-.97h.14s.08.11.08.11c1.62,2.72,3.44,5.75,5.36,8.96l.21.35-.41.04c-.28.03-.58.05-.88.08-6.15.55-11.8,1.05-16.24,1.44h-.16s-.05-.14-.05-.14c-.92-2.93-1.63-5.33-2.12-6.96-.22-.76-.41-1.38-.55-1.87-.12-.42-.18-.64-.16-.63.02.01.11.25.26.69.17.49.39,1.12.66,1.89.57,1.68,1.35,3.97,2.29,6.75l-.21-.14c4.43-.42,10.08-.97,16.23-1.56.3-.03.6-.06.88-.08l-.2.39c-1.9-3.22-3.7-6.26-5.31-8.99l.22.11c-4.33.32-7.99.55-10.61.71-1.26.07-2.28.13-3.07.18-.72.04-1.12.05-1.14.04Z"/>
        </g>
        <g>
          <rect class="cls-3" x="237.4" y="215.85" width="18.38" height="5.93"/>
          <path class="cls-15" d="m255.78,221.78s-.02-.16-.04-.43c-.01-.33-.03-.72-.04-1.18-.02-1.08-.05-2.53-.09-4.31l.17.17c-4.38.06-11,.09-18.38.09.12-.12-.26.26.26-.26h0v.38s0,.38,0,.38v.76c0,.51,0,1.01,0,1.5,0,.99,0,1.96,0,2.9l-.25-.25c5.24.01,9.79.07,13.07.12,1.59.03,2.89.05,3.87.07.91.02,1.42.04,1.44.06.02.02-.45.04-1.33.06-.97.02-2.25.04-3.81.07-3.27.05-7.9.1-13.25.12h-.25s0-.25,0-.25c0-.94,0-1.91,0-2.9,0-.5,0-1,0-1.5v-.76s0-.38,0-.38v-.36h0v-.02h0c.52-.53.15-.15.26-.27,7.39,0,14,.04,18.38.09h.17s0,.17,0,.17c-.04,1.82-.07,3.31-.09,4.41-.03,1.01-.05,1.54-.08,1.52Z"/>
        </g>
        <path class="cls-16" d="m234.58,170.21l2.82,3.89s-.79,59.02-3.79,73.68l.96-77.57Z"/>
      </g>
      <g>
        <path class="cls-9" d="m84.97,204.9c.11-14.32-10.8-26.32-25.06-27.58l-1.42-.13c-15.36-.46-24.33,12.34-24.36,27.71l-3.39,54.02-1.53,11.03,35.3,9.06,2.99-23.33s14.89-.99,16.37-15.66c.71-7.09,1-21.8,1.1-35.12Z"/>
        <path class="cls-14" d="m67.62,255.67s-9.43-.26-18.75-7.33c0,0,3.35,11.3,18.12,11.27l.63-3.94Z"/>
        <path class="cls-15" d="m79.24,218.52c-.06,1.11-1.05,1.98-2.21,1.94-1.16-.04-2.05-.97-2-2.08.06-1.11,1.05-1.98,2.21-1.94,1.16.04,2.06.97,2,2.08Z"/>
        <path class="cls-15" d="m81.17,211.81c-.28.25-1.77-1.07-4.03-1.26-2.25-.23-4.01.79-4.23.49-.11-.13.2-.6.97-1.07.76-.46,2.01-.86,3.42-.73,1.41.13,2.54.75,3.18,1.34.65.59.84,1.11.7,1.22Z"/>
        <path class="cls-15" d="m58.39,217.5c-.06,1.11-1.05,1.98-2.21,1.94-1.16-.04-2.05-.97-2-2.08.06-1.11,1.05-1.98,2.21-1.94,1.16.04,2.06.97,2,2.08Z"/>
        <path class="cls-15" d="m58.95,210.27c-.28.25-1.77-1.07-4.03-1.26-2.25-.23-4.01.79-4.23.49-.11-.13.2-.6.97-1.06.76-.46,2.01-.86,3.42-.73,1.41.13,2.54.75,3.18,1.34.65.59.84,1.11.7,1.22Z"/>
        <path class="cls-15" d="m65.66,227.73c0-.13,1.43-.25,3.72-.34.58,0,1.14-.07,1.27-.46.17-.4-.01-1.05-.23-1.74-.42-1.44-.86-2.95-1.32-4.54-1.82-6.46-3.08-11.75-2.81-11.82.26-.07,1.94,5.11,3.76,11.57.43,1.59.85,3.11,1.24,4.56.16.67.47,1.45.1,2.29-.19.42-.64.69-1.02.76-.38.08-.7.06-.99.05-2.3-.08-3.72-.19-3.72-.32Z"/>
        <path class="cls-15" d="m58.88,228.71c.37.01.16,2.46,2.1,4.39,1.94,1.93,4.58,1.89,4.56,2.23.02.16-.62.42-1.73.36-1.08-.06-2.63-.55-3.82-1.72-1.19-1.18-1.61-2.65-1.6-3.66,0-1.03.32-1.62.49-1.59Z"/>
        <path class="cls-15" d="m60.31,201.47c-.28.59-2.51.1-5.18.19-2.68.03-4.88.62-5.19.04-.13-.28.29-.82,1.21-1.34.91-.52,2.32-.96,3.93-1,1.61-.03,3.04.35,3.97.82.94.48,1.38,1,1.26,1.29Z"/>
        <path class="cls-15" d="m80.92,205.2c-.44.48-1.95-.19-3.82-.38-1.86-.26-3.48.04-3.8-.53-.14-.27.16-.77.89-1.19.72-.42,1.9-.72,3.18-.57,1.28.15,2.35.72,2.96,1.3.61.59.78,1.13.59,1.37Z"/>
        <path class="cls-9" d="m35.22,219.4c.11-2.28-1.69-4.24-3.97-4.22-2.76.02-5.95,1.3-6.27,6.98-.57,10.07,9.66,8.56,9.7,8.27.02-.2.34-6.82.54-11.03Z"/>
        <path class="cls-14" d="m32.7,226.53s-.18.11-.49.23c-.3.12-.8.18-1.31-.05-1.04-.45-1.84-2.19-1.79-4.01.03-.92.27-1.78.63-2.48.35-.72.85-1.21,1.39-1.27.54-.09.9.25,1.01.54.12.29.04.49.1.51.03.03.23-.16.17-.58-.03-.2-.14-.45-.36-.65-.23-.21-.58-.33-.96-.31-.78,0-1.52.69-1.92,1.46-.44.77-.74,1.74-.77,2.77-.05,2.03.88,3.99,2.32,4.49.7.22,1.3.04,1.62-.18.33-.23.39-.45.36-.47Z"/>
      </g>
      <path class="cls-13" d="m27.67,259.23s-9.78,9.01-13.1,22.32c-4.22,16.96,11.27,98.79,11.27,98.79l81.79-.12-17.54-64.75s-20.29-39.58-20.58-40.47c-.3-.89-.99-9.34-.99-9.34l-37.43-15.39-3.42,8.95Z"/>
      <g>
        <path class="cls-9" d="m203.88,346.72c-.78-1.72-6.4-4.95-6.4-4.95-.47-1.72-3.27-3.35-3.27-3.35,0,0-1.41-1.41-3.6-2.19-2.19-.78-21.84,1.56-21.84,1.56l-14.67,1.02.84,19.32c0,.47,13.77-5.01,13.77-5.01,0,0,5.79,1.41,10.95,2.35,5.16.94,15.13-2.77,15.13-2.77l3.82,3.7c.72,1.02,1.18,3.64,1.18,5.21s1.98,2.99,3.23,1.9.37-6.52.37-6.52c0,0,1.06.49,2.16-.31,1.02-.74-.89-8.23-1.67-9.95Z"/>
        <path class="cls-14" d="m195.03,347.36s.87-.27,2.22.15c1.34.4,3.02,1.55,4.16,3.36,1.14,1.8,1.61,3.68,1.9,5,.28,1.33.38,2.17.32,2.18-.07.02-.3-.79-.67-2.09-.38-1.29-.9-3.1-1.98-4.81-1.08-1.7-2.62-2.83-3.85-3.29-1.24-.48-2.1-.4-2.1-.5Z"/>
      </g>
      <path class="cls-16" d="m29.2,311.19s37.85,40.44,52.4,48.34c15.69,8.53,22.57,8.27,22.57,8.27l-2.44-11.17-72.53-45.44Z"/>
      <path class="cls-13" d="m170.21,336.18l-63.05-7.54s-38.2-46.99-47.99-54.27c-9.79-7.27-26.21-4.85-31.34,0-2.68,2.53-4.25,6.01-5.16,9.49-1.66,6.38-1.12,13.13,1.28,19.27l2.06,5.27c1.12.84,60.58,54.38,75.97,55.5,15.39,1.12,69.43-3.22,69.43-3.22l-1.2-24.52Z"/>
      <path class="cls-15" d="m69.51,275.01s-.62-.12-1.71-.43c-1.09-.31-2.66-.8-4.57-1.46-3.84-1.3-9.06-3.31-14.79-5.62-5.73-2.31-10.91-4.42-14.68-5.88-1.83-.7-3.34-1.28-4.47-1.72-1.06-.4-1.64-.64-1.63-.67.01-.03.61.14,1.69.48,1.08.34,2.63.87,4.53,1.56,3.81,1.37,9.01,3.43,14.74,5.74,5.73,2.3,10.92,4.36,14.72,5.75,1.89.71,3.44,1.25,4.51,1.62,1.07.37,1.66.59,1.65.63Z"/>
      <path class="cls-15" d="m52.92,270.56s-.69-.17-1.94-.46c-1.24-.29-3.06-.66-5.34-.78-2.27-.11-5.01-.02-7.93.7-1.46.36-2.95.87-4.43,1.56-1.48.69-2.91,1.6-4.28,2.65-2.75,2.1-4.82,4.78-5.97,7.54-1.2,2.75-1.71,5.45-1.94,7.71-.23,2.27-.26,4.12-.26,5.4,0,.59,0,1.08,0,1.47,0,.34-.02.52-.03.52-.02,0-.04-.17-.07-.51-.03-.4-.06-.88-.1-1.48-.06-1.28-.09-3.15.1-5.44.2-2.29.67-5.04,1.87-7.87,1.16-2.84,3.28-5.62,6.1-7.77,1.4-1.07,2.87-2,4.38-2.7,1.51-.7,3.05-1.21,4.53-1.57,2.98-.71,5.77-.77,8.06-.61,2.3.17,4.13.59,5.36.95.62.16,1.09.34,1.41.45.32.11.48.18.48.2Z"/>
      <path class="cls-15" d="m59.17,274.37s.36.27,1.03.82c.33.28.76.61,1.24,1.03.47.44,1.01.95,1.62,1.53,2.44,2.32,5.87,5.9,10.1,10.6,8.48,9.38,20.26,23.17,34.17,40.15l-.14-.08c18.38,2.28,39.89,4.95,63.07,7.82l.21.03v.22c.39,7.76.79,15.9,1.2,24.19v.25s-.24.02-.24.02c-.61.05-1.28.1-1.94.15-11.17.86-22.08,1.6-32.63,2.2-5.27.29-10.46.56-15.54.74-5.08.18-10.05.34-14.92.26-1.21,0-2.42-.08-3.62-.12-.3-.02-.6-.02-.9-.05l-.9-.15c-.61-.07-1.18-.28-1.75-.44-2.27-.75-4.4-1.75-6.42-2.87-4.06-2.2-7.79-4.66-11.35-7.11-7.1-4.92-13.47-9.85-19.22-14.41-11.48-9.16-20.49-16.91-26.68-22.3-3.07-2.71-5.46-4.81-7.09-6.25-.8-.71-1.41-1.26-1.83-1.64-.41-.37-.62-.57-.62-.57,0,0,.23.17.65.53.43.37,1.05.9,1.87,1.6,1.65,1.42,4.06,3.5,7.16,6.17,6.24,5.34,15.27,13.05,26.78,22.16,5.76,4.54,12.14,9.45,19.24,14.34,3.56,2.44,7.29,4.89,11.32,7.07,2.01,1.11,4.12,2.1,6.34,2.82,2.21.76,4.63.65,7.05.73,4.84.07,9.82-.09,14.89-.28,5.07-.18,10.25-.47,15.53-.75,10.54-.61,21.45-1.35,32.62-2.21.66-.05,1.33-.1,1.94-.15l-.24.27c-.4-8.29-.8-16.43-1.18-24.19l.22.24c-23.18-2.9-44.68-5.6-63.06-7.9h-.09s-.06-.08-.06-.08c-13.87-17-25.6-30.83-34.02-40.25-4.2-4.72-7.6-8.32-10.01-10.67-.6-.59-1.13-1.1-1.59-1.55-.48-.42-.89-.77-1.22-1.06-.66-.57-.99-.87-.99-.87Z"/>
      <path class="cls-15" d="m104.18,338.93c-.13-.01.04-2.42.9-5.25.85-2.84,2.02-4.94,2.14-4.88.14.07-.81,2.24-1.64,5.02-.84,2.78-1.25,5.12-1.4,5.1Z"/>
      <path class="cls-15" d="m6.92,281.51h0c-3.82,0-6.92,3.1-6.92,6.92v91.99h13.85v-91.99c0-3.82-3.1-6.92-6.92-6.92Z"/>
      <g id="Objects">
        <g>
          <path class="cls-11" d="m641.6,41.8s-11.74,2.75-22.64,0l-1.9,3.17s4.53,1.6,12.69,1.6,12.96-1.48,12.96-1.48l-1.11-3.3Z"/>
          <path class="cls-10" d="m584.45,75.53s8.13-24.25,13.37-24.73c0,0,8.46,5.4,6.15,23.16l-3.28,7.47s-4.96,2-10.29-1.71c-5.33-3.71-5.95-4.18-5.95-4.18h0Z"/>
          <path class="cls-11" d="m584.45,75.7l-1.55,3.09s4.77.77,6.7,2.13c1.93,1.35,4.83,3.03,6.57,3.35s2.77,0,2.77,0l1.74-2.83s-4.25,1.03-6.25-1.67c-2-2.71-9.15-4.19-9.99-4.06h0Z"/>
          <path class="cls-10" d="m674.97,75.54s-8.06-25.49-13.3-25.97c0,0-8.52,6.69-6.21,24.41l3.28,7.45s4.96,1.99,10.29-1.71c5.33-3.7,5.95-4.17,5.95-4.17h0Z"/>
          <path class="cls-10" d="m656.04,139.11s-8.22,3.82-16.88,2.68c-8.66-1.14-11.89-1.78-15.39-1.67-3.5.11-9.01,1.76-12.51,1.15-3.5-.61-8.55-1.77-8.55-1.77,0,0,38.19-15.31,53.32-.38h0Z"/>
          <path class="cls-10" d="m642.71,45.1h-25.26s6.18,9.87,12.3,9.87,12.96-9.87,12.96-9.87Z"/>
          <path class="cls-11" d="m645.23,44.27l16.43,5.38s-1.19,9.59-3.26,12.36-2.12,10.15-2.65,11.15c0,0,.29,9.82.29,19.38,0,0-.64,7.69-.64,12.29s.64,32.13.64,32.13c0,0-7.54-2.14-9.27-2.04-1.73.11-18.75,2.04-18.75,2.04,0,0-11.22.87-15.75.87s-9.56-.47-9.56-.47c0,0,1.37-47.43.76-57.5l-1.23-10.83s-2.91-8.17-2.46-11.08c.28-1.75-.26-5.64-1.98-7.17l17.74-6.71s5.07,9.23,14.19,9.23,15.49-9.02,15.49-9.02Z"/>
          <path class="cls-11" d="m641.6,41.8s-3.41,11.28-11.89,11.28-10.75-11.28-10.75-11.28l-3.41,2.27s3.18,12.27,14.01,12.27,15.67-12.04,15.67-12.04l-3.63-2.5h0Z"/>
          <path class="cls-11" d="m602.73,136.92s4.97-.09,7.4-1.15c2.43-1.06,12-.32,13.91-1.03s9.68-.25,13.25-.25,6.19-2.04,9.31-2.04,9.44,4.01,9.44,4.01v2.81s-6.31-4.08-9.44-4.08-5.74,2.04-9.31,2.04-11.95-.81-12.92-.14c-.98.68-13.1.2-14.25,1.41-1.15,1.21-7.4,1.15-7.4,1.15v-2.73h0Z"/>
          <path class="cls-11" d="m674.97,75.7l1.55,3.09s-4.77.77-6.7,2.13c-1.93,1.35-4.83,3.03-6.57,3.35-1.74.32-2.77,0-2.77,0l-1.74-2.83s4.25,1.03,6.25-1.67c2-2.71,9.15-4.19,9.99-4.06h0Z"/>
        </g>
      </g>
      <g>
        <g>
          <polygon class="cls-4" points="414.64 324.71 367.28 324.71 380.24 366.09 429.43 366.09 414.64 324.71"/>
          <path class="cls-12" d="m367.28,324.71c-.85.55-13.96,41.38-13.96,41.38h28.06l-14.1-41.38Z"/>
          <path class="cls-15" d="m429.43,366.09s-.04-.06-.09-.19c-.06-.15-.14-.34-.23-.58-.2-.54-.49-1.3-.85-2.26-.74-2.01-1.79-4.9-3.12-8.53-2.65-7.34-6.37-17.67-10.73-29.74l.23.16c-7.27,0-15.24.01-23.56.02-8.41,0-16.46-.01-23.8-.02l.23-.32c4.08,12.1,7.57,22.45,10.06,29.81,1.21,3.65,2.17,6.55,2.85,8.57.31.98.56,1.74.74,2.29.07.24.13.44.18.59.04.13.05.2.05.21,0,0-.04-.06-.09-.19-.06-.15-.13-.34-.22-.58-.19-.54-.47-1.3-.81-2.26-.7-2.01-1.71-4.9-2.98-8.53-2.52-7.34-6.08-17.67-10.23-29.74l-.11-.32h.34c7.34,0,15.39-.01,23.8-.02,8.32,0,16.29.01,23.56.02h.17s.06.16.06.16c4.28,12.1,7.95,22.44,10.55,29.8,1.27,3.65,2.28,6.55,2.99,8.58.33.98.59,1.74.78,2.29.08.24.14.44.19.59.04.13.06.2.05.21Z"/>
          <path class="cls-15" d="m391.31,366.09c-.14.05-3.4-9.18-7.3-20.61-3.89-11.43-6.94-20.73-6.8-20.78.14-.05,3.4,9.18,7.3,20.61,3.89,11.43,6.94,20.73,6.8,20.77Z"/>
          <path class="cls-15" d="m401.24,366.09c-.14.05-3.4-9.18-7.3-20.61-3.89-11.43-6.94-20.73-6.8-20.78.14-.05,3.4,9.18,7.3,20.61,3.89,11.43,6.94,20.73,6.8,20.77Z"/>
          <path class="cls-15" d="m411.18,366.09c-.14.05-3.4-9.18-7.3-20.61-3.89-11.43-6.94-20.73-6.8-20.78.14-.05,3.4,9.18,7.3,20.61,3.89,11.43,6.94,20.73,6.8,20.77Z"/>
          <path class="cls-15" d="m421.11,366.09c-.14.05-3.4-9.18-7.3-20.61-3.89-11.43-6.94-20.73-6.8-20.78.14-.05,3.4,9.18,7.3,20.61,3.89,11.43,6.94,20.73,6.8,20.77Z"/>
          <path class="cls-15" d="m377.23,328.88c0,.14-1.38.26-3.07.26s-3.07-.12-3.07-.26,1.38-.26,3.07-.26,3.07.12,3.07.26Z"/>
          <path class="cls-15" d="m386.85,328.88c0,.14-1.38.26-3.07.26s-3.07-.12-3.07-.26,1.38-.26,3.07-.26,3.07.12,3.07.26Z"/>
          <path class="cls-15" d="m396.38,328.88c0,.14-1.38.26-3.07.26s-3.07-.12-3.07-.26,1.38-.26,3.07-.26,3.07.12,3.07.26Z"/>
          <path class="cls-15" d="m414.15,328.88c0,.14-1.04.26-2.33.26s-2.33-.12-2.33-.26,1.04-.26,2.33-.26,2.33.12,2.33.26Z"/>
          <path class="cls-15" d="m406.6,328.88c0,.14-1.38.26-3.07.26s-3.07-.12-3.07-.26,1.38-.26,3.07-.26,3.07.12,3.07.26Z"/>
          <path class="cls-15" d="m416.65,331.84c0,.14-10.51.26-23.47.26s-23.48-.12-23.48-.26,10.51-.26,23.48-.26,23.47.12,23.47.26Z"/>
          <path class="cls-15" d="m418.68,337.42c0,.14-10.51.26-23.47.26s-23.48-.12-23.48-.26,10.51-.26,23.48-.26,23.47.12,23.47.26Z"/>
          <path class="cls-15" d="m420.49,343.66c0,.14-10.51.26-23.47.26s-23.48-.12-23.48-.26,10.51-.26,23.48-.26,23.47.12,23.47.26Z"/>
          <path class="cls-15" d="m422.87,349.91c0,.14-10.51.26-23.47.26s-23.48-.12-23.48-.26,10.51-.26,23.48-.26,23.47.12,23.47.26Z"/>
          <path class="cls-15" d="m424.72,356.15c0,.14-10.51.26-23.47.26s-23.48-.12-23.48-.26,10.51-.26,23.48-.26,23.47.12,23.47.26Z"/>
          <path class="cls-8" d="m397.93,342.12s.15-.03.43-.04c.28-.01.69-.02,1.22,0,1.05.05,2.64.07,4.42.89.87.43,1.75,1.11,2.38,2.09.64.95.96,2.32.48,3.59-.47,1.26-1.58,2.26-2.9,2.77-1.34.51-2.85.51-4.29.25-1.44-.27-2.82-.67-4.07-1.32-1.24-.64-2.31-1.63-2.82-2.85-.53-1.19-.52-2.6.12-3.62.63-1.03,1.66-1.57,2.58-1.83.95-.27,1.85-.23,2.6-.13.76.11,1.38.29,1.89.46.51.16.89.31,1.15.42.26.1.39.17.39.19-.01.04-.57-.13-1.59-.41-1-.23-2.55-.69-4.33-.17-.86.26-1.79.79-2.32,1.7-.54.89-.54,2.12-.05,3.21.47,1.1,1.44,1.99,2.61,2.59,1.17.6,2.53,1,3.92,1.26,1.38.25,2.8.24,4.02-.22,1.21-.46,2.21-1.37,2.63-2.46.43-1.1.18-2.3-.39-3.19-.56-.91-1.37-1.57-2.17-1.99-1.66-.82-3.23-.91-4.27-1.02-1.05-.08-1.64-.11-1.64-.15Z"/>
          <path class="cls-8" d="m393.74,352.09c-.05-.05.6-.74,1.68-1.82,1.22-1.21,2.65-2.63,4.23-4.2,1.58-1.57,3.01-3,4.23-4.21,1.09-1.07,1.78-1.72,1.83-1.67.05.05-.54.79-1.56,1.93-1.02,1.14-2.47,2.68-4.13,4.32-1.66,1.65-3.2,3.09-4.35,4.1-1.15,1.01-1.89,1.6-1.93,1.55Z"/>
          <path class="cls-8" d="m409.42,351.78c-.04.06-1.01-.52-2.55-1.5-1.54-.98-3.65-2.37-5.95-3.93-2.31-1.56-4.38-3-5.87-4.06-1.49-1.06-2.38-1.75-2.34-1.8.04-.06,1.01.52,2.55,1.5,1.54.98,3.64,2.37,5.95,3.93,2.31,1.56,4.38,2.99,5.86,4.05,1.49,1.06,2.39,1.75,2.35,1.81Z"/>
          <path class="cls-8" d="m397.13,333.94c.01.14-1.17.36-2.65.28-1.48-.07-2.63-.41-2.6-.55.03-.15,1.2-.04,2.63.03,1.43.08,2.61.09,2.62.24Z"/>
          <path class="cls-8" d="m397.07,335.33c0,.14-.8.31-1.81.38-1.01.07-1.84,0-1.85-.14,0-.14.8-.31,1.81-.38,1.01-.07,1.84,0,1.85.14Z"/>
          <path class="cls-8" d="m406.84,334.23c.01.14-.83.33-1.89.34-1.06,0-1.91-.18-1.89-.32.01-.14.86-.19,1.89-.2,1.03,0,1.88.04,1.89.18Z"/>
          <path class="cls-8" d="m417.9,339.49c.01.14-.54.3-1.23.35-.69.05-1.26-.02-1.27-.17-.01-.14.54-.3,1.23-.35.69-.05,1.26.02,1.27.17Z"/>
          <path class="cls-8" d="m389.86,340.64c.02.14-1.01.39-2.3.35-1.29-.03-2.31-.33-2.28-.47.03-.15,1.04-.08,2.29-.05,1.25.04,2.27.02,2.29.17Z"/>
          <path class="cls-8" d="m381.74,347.43c0,.14-.82.3-1.85.35-1.03.05-1.87-.02-1.88-.17,0-.14.82-.3,1.85-.35,1.03-.05,1.87.02,1.88.17Z"/>
          <path class="cls-8" d="m396.83,360.19c.02.14-.79.39-1.82.56-1.03.17-1.88.19-1.9.05-.02-.14.79-.39,1.82-.56,1.03-.17,1.88-.19,1.9-.05Z"/>
          <path class="cls-8" d="m405.19,354.25c.01.14-1.17.35-2.63.32-1.47-.03-2.64-.3-2.62-.44.02-.15,1.19-.12,2.63-.09,1.44.03,2.61.06,2.62.2Z"/>
          <path class="cls-8" d="m415.64,353.17c0,.14-.87.31-1.97.38-1.1.07-1.99,0-2-.14,0-.14.87-.31,1.97-.38,1.1-.07,1.99,0,2,.14Z"/>
        </g>
        <path class="cls-15" d="m367.28,324.71c.14.05-2.88,9.35-6.73,20.77-3.85,11.43-7.09,20.66-7.23,20.61-.14-.05,2.88-9.35,6.73-20.78,3.85-11.43,7.09-20.65,7.22-20.61Z"/>
        <path class="cls-15" d="m427.6,362.15c0,.14-10.51.26-23.47.26s-23.48-.12-23.48-.26,10.51-.26,23.48-.26,23.47.12,23.47.26Z"/>
      </g>
      <g>
        <path class="cls-12" d="m256.45,301.36l-.48-.1c-1.01-.22-2.01.42-2.23,1.43l-13.11,59.63h-65.1c-1.04,0-1.88.84-1.88,1.88h0c0,1.04.84,1.88,1.88,1.88h68.24l14.11-62.47c.23-1.02-.42-2.03-1.44-2.25Z"/>
        <path class="cls-15" d="m256.45,301.36s.48-.02,1.06.6c.27.3.52.81.46,1.43-.1.6-.27,1.27-.43,2.04-.68,3.08-1.67,7.58-2.94,13.29-2.57,11.46-6.22,27.8-10.62,47.42l-.04.17h-.18c-19.84,0-43.31.02-68.37.03-.94-.03-1.78-.76-1.97-1.68-.21-.91.26-1.91,1.08-2.34.39-.23.92-.27,1.3-.25h1.21c.8,0,1.61,0,2.41,0,3.2,0,6.37,0,9.51,0,6.27,0,12.4,0,18.36,0,11.91.01,23.11.02,33.33.03l-.22.17c4.2-18.93,7.69-34.66,10.14-45.68,1.23-5.49,2.2-9.8,2.87-12.76.19-.72.23-1.43.61-1.9.36-.47.86-.68,1.24-.73.4-.06.69.03.88.07.19.05.29.08.29.08,0,0-.1,0-.29-.05-.19-.04-.48-.11-.86-.04-.37.06-.84.27-1.17.73-.35.44-.38,1.14-.56,1.87-.64,2.96-1.57,7.28-2.75,12.78-2.4,11.03-5.83,26.78-9.96,45.72l-.04.17h-.18c-10.22,0-21.42.02-33.33.03-5.95,0-12.08,0-18.36,0-3.14,0-6.31,0-9.51,0-.8,0-1.6,0-2.41,0h-1.21c-.43-.01-.73.02-1.05.19-.62.32-.98,1.08-.82,1.77.14.69.78,1.24,1.49,1.27,25.05.01,48.5.03,68.34.04l-.22.17c4.47-19.6,8.19-35.93,10.8-47.38,1.32-5.7,2.35-10.18,3.06-13.26.17-.76.35-1.44.46-2.02.06-.59-.16-1.07-.41-1.37-.54-.61-1.03-.61-1.01-.64Z"/>
      </g>
      <g>
        <rect class="cls-12" x="118.88" y="366.16" width="464.56" height="14.06"/>
        <path class="cls-15" d="m583.44,380.22c0-.41-.02-4.53-.06-14.06l.06.06c-48.93.02-238.43.1-464.54.2h-.02l.26-.26c0,4.82,0,9.61,0,14.06l-.26-.26c258,.14,461.73.26,464.56.26-2.82,0-206.56.12-464.56.26h-.26s0-.26,0-.26c0-4.44,0-9.24,0-14.06v-.26h.28c226.11.1,415.6.18,464.54.2h.06v.06c-.04,9.52-.06,13.65-.06,14.06Z"/>
      </g>
      <g>
        <g>
          <rect class="cls-6" x="434.26" y="357.39" width="96.17" height="8.63"/>
          <path class="cls-15" d="m530.44,366.02s-.01-.2-.02-.58c0-.4-.01-.95-.02-1.67-.01-1.48-.03-3.62-.06-6.38l.1.1c-16.02.09-53.06.16-96.17.16h0l.26-.26c0,2.96,0,5.89,0,8.63l-.26-.26c26.92.04,50.92.08,68.22.11,8.65.03,15.62.06,20.45.08,2.4.02,4.26.03,5.55.04.62,0,1.1.01,1.45.02.33,0,.51.02.51.02,0,0-.15.01-.47.02-.34,0-.81.01-1.42.02-1.28,0-3.12.02-5.49.04-4.82.02-11.77.04-20.39.08-17.34.03-41.41.07-68.41.11h-.26s0-.26,0-.26c0-2.75,0-5.68,0-8.63l.26-.26h0c43.11,0,80.14.06,96.17.16h.1s0,.1,0,.1c-.03,2.79-.05,4.95-.06,6.44-.01.71-.02,1.26-.02,1.65,0,.37-.02.55-.02.55Z"/>
        </g>
        <g>
          <rect class="cls-6" x="425.44" y="352.58" width="95.06" height="4.81"/>
          <path class="cls-15" d="m520.5,357.39s0-.1-.01-.3c0-.22,0-.51-.02-.89,0-.81-.02-2-.04-3.61l.08.08c-12.07.11-50.1.18-95.06.18h0c.12-.12-.26.26.26-.26h0v1.23c0,.41,0,.82,0,1.22,0,.81,0,1.6,0,2.36l-.26-.26c26.45.04,50.17.08,67.31.11,8.57.03,15.49.06,20.29.08,2.38.02,4.24.03,5.52.04.62,0,1.1.01,1.44.02.33,0,.5.02.5.02,0,0-.15.01-.47.02-.34,0-.81.01-1.41.02-1.27,0-3.1.02-5.46.04-4.79.02-11.69.05-20.23.08-17.19.03-40.98.07-67.5.11h-.26s0-.26,0-.26c0-.76,0-1.55,0-2.36,0-.4,0-.81,0-1.22v-1.21h0c.52-.53.14-.16.26-.27h0c44.96,0,82.99.08,95.06.18h.08s0,.08,0,.08c-.02,1.63-.03,2.84-.04,3.66,0,.38-.01.66-.02.87,0,.19,0,.28-.01.28Z"/>
        </g>
        <path class="cls-15" d="m527.75,362.85c0,.14-20.82.26-46.5.26s-46.51-.12-46.51-.26,20.82-.26,46.51-.26,46.5.12,46.5.26Z"/>
        <path class="cls-15" d="m530.04,360.56c0,.14-20.82.26-46.5.26s-46.51-.12-46.51-.26,20.82-.26,46.51-.26,46.5.12,46.5.26Z"/>
      </g>
      <g>
        <g>
          <rect class="cls-12" x="303.35" y="308.52" width="3.38" height="48.79" transform="translate(633.23 643.03) rotate(175.88)"/>
          <path class="cls-13" d="m303.39,342.57l4.8-.35,1.13,15.71c.1,1.33-.9,2.48-2.23,2.57h0c-1.33.1-2.48-.9-2.57-2.23l-1.13-15.71Z"/>
          <rect class="cls-13" x="302.67" y="335.33" width=".93" height="20.44" transform="translate(630.36 668.4) rotate(175.87)"/>
          <path class="cls-15" d="m308.19,342.22c0,.1-1.96.38-4.83.7l.21-.25c.09,1.1.18,2.29.28,3.54.17,2.32.29,4.43.35,5.95.06,1.52.07,2.47,0,2.48-.07,0-.2-.93-.36-2.45-.16-1.52-.34-3.62-.5-5.94-.08-1.25-.16-2.45-.23-3.54l-.02-.23.23-.02c2.88-.23,4.87-.33,4.88-.23Z"/>
        </g>
        <g>
          <rect class="cls-12" x="308.55" y="309.83" width="3.38" height="38.09"/>
          <path class="cls-13" d="m312.58,324.71h-4.81v-15.75c0-1.33,1.08-2.41,2.41-2.41h0c1.33,0,2.41,1.08,2.41,2.41v15.75Z"/>
          <rect class="cls-13" x="312.58" y="311.53" width=".93" height="20.44"/>
          <path class="cls-15" d="m307.77,324.71c0-.1,1.99-.24,4.87-.35l-.23.24c0-1.1-.02-2.29-.02-3.55,0-2.33.03-4.44.08-5.96.05-1.53.11-2.47.18-2.47s.14.94.18,2.47c.05,1.53.08,3.63.08,5.96,0,1.26-.02,2.45-.02,3.55v.23s-.23,0-.23,0c-2.89.02-4.88-.02-4.88-.13Z"/>
        </g>
        <g>
          <rect class="cls-12" x="315.36" y="318.77" width="3.38" height="38.09"/>
          <path class="cls-13" d="m319.38,333.65h-4.81v-15.75c0-1.33,1.08-2.41,2.41-2.41h0c1.33,0,2.41,1.08,2.41,2.41v15.75Z"/>
          <rect class="cls-13" x="319.38" y="320.47" width=".93" height="20.44"/>
          <path class="cls-15" d="m314.57,333.65c0-.1,1.99-.24,4.87-.35l-.23.24c0-1.1-.02-2.29-.02-3.55,0-2.33.03-4.44.08-5.96.05-1.53.11-2.47.18-2.47s.14.94.18,2.47.08,3.63.08,5.96c0,1.26-.02,2.45-.02,3.55v.23s-.23,0-.23,0c-2.89.02-4.88-.02-4.88-.13Z"/>
        </g>
        <g>
          <rect class="cls-12" x="321.77" y="308.43" width="3.38" height="38.09"/>
          <path class="cls-13" d="m325.79,323.31h-4.81v-15.75c0-1.33,1.08-2.41,2.41-2.41h0c1.33,0,2.41,1.08,2.41,2.41v15.75Z"/>
          <rect class="cls-13" x="325.79" y="310.13" width=".93" height="20.44"/>
          <path class="cls-15" d="m320.98,323.31c0-.1,1.99-.24,4.87-.35l-.23.24c0-1.1-.02-2.29-.02-3.55,0-2.33.03-4.44.08-5.96.05-1.53.11-2.47.18-2.47s.14.94.18,2.47c.05,1.53.08,3.63.08,5.96,0,1.26-.02,2.45-.02,3.55v.23s-.23,0-.23,0c-2.89.02-4.88-.02-4.88-.13Z"/>
        </g>
        <polygon class="cls-8" points="326.3 366.09 304.67 366.09 301.82 334.49 329.4 334.49 326.3 366.09"/>
      </g>
    </g>
  </g>
</svg>