<?xml version="1.0" encoding="utf-8"?>
<!-- Generator: Adobe Illustrator 27.5.0, SVG Export Plug-In . SVG Version: 6.00 Build 0)  -->
<svg version="1.1" id="Layer_2_00000116216372552882605660000006300305022328130985_"
	 xmlns="http://www.w3.org/2000/svg" xmlns:xlink="http://www.w3.org/1999/xlink" x="0px" y="0px" viewBox="0 0 204.9 114.1"
	 style="enable-background:new 0 0 204.9 114.1;" xml:space="preserve">
<style type="text/css">
	.st0{fill:#EFA320;}
	.st1{fill:#010101;}
	.st2{fill:#FFFFFF;}
	.st3{fill:#E6E6E5;}
	.st4{fill:#EEA242;}
	.st5{fill:url(#SVGID_1_);}
	.st6{fill:url(#SVGID_00000183971512304825186790000007898734129268121784_);}
	.st7{fill:#818181;}
	.st8{fill:url(#SVGID_00000068642417125680293470000008104417084570152853_);}
	.st9{fill:url(#SVGID_00000052097913459500933820000003404201376890526654_);}
	.st10{fill:#736458;}
	.st11{fill:#EEA241;}
	.st12{opacity:0.12;}
	.st13{fill:#CA2027;}
	.st14{fill:#ED2224;}
	.st15{fill:#E51E25;}
	.st16{fill:none;stroke:#010101;stroke-width:0.8399;stroke-miterlimit:10;}
	.st17{fill:#EEA242;stroke:#010101;stroke-width:3.3598;stroke-miterlimit:10;}
</style>
<g>
	<ellipse class="st0" cx="-173" cy="66.5" rx="124.7" ry="123.3"/>
	<path class="st1" d="M-173-55.2c32.9,0,63.8,12.7,87,35.6c23.2,23,36,53.5,36,86s-12.8,63-36,86c-23.2,23-54.1,35.6-87,35.6
		s-63.8-12.7-87-35.6c-23.2-23-36-53.5-36-86s12.8-63,36-86C-236.8-42.5-205.9-55.2-173-55.2 M-173-58.6c-69.8,0-126.4,56-126.4,125
		s56.6,125,126.4,125s126.4-56,126.4-125S-103.2-58.6-173-58.6L-173-58.6z"/>
</g>
<g>
	<path class="st2" d="M-306.1,79c-2.7-5.9-4.2-12.4-4.2-18.8c0-24.7,20.4-44.9,45.4-44.9c25,0,45.4,20.1,45.4,44.9
		c0,6.6-1.5,13.3-4.4,19.3l-41.9,8.6L-306.1,79z"/>
	<path class="st1" d="M-264.9,17c11.6,0,22.6,4.5,30.9,12.7c8.3,8.2,12.9,19,12.9,30.5c0,6.1-1.3,12.2-3.9,17.8l-40.7,8.3l-39.1-8.8
		c-2.4-5.4-3.7-11.4-3.7-17.4c0-11.5,4.6-22.3,12.9-30.5C-287.5,21.5-276.5,17-264.9,17 M-264.9,13.6c-25.8,0-47.1,21-47.1,46.6
		c0,7,1.6,13.9,4.7,20.3l41.4,9.3l43.1-8.8c3.3-6.5,4.9-13.6,4.9-20.8C-217.8,34.6-239.1,13.6-264.9,13.6L-264.9,13.6z"/>
</g>
<g>
	<path class="st2" d="M-141.3,87.3c-0.1,0-0.2,0-0.2,0l-60-5.3c-0.2,0-0.5-0.1-0.7-0.2l-24.1-9.4c-1.2-0.5-2.1-1.8-2-3.3
		c0-0.4,0-0.8,0-1.1c0-20.8,21.4-37.6,47.6-37.6s47.6,16.9,47.6,37.6c0,6.3-2,12.5-5.8,18C-139.5,86.8-140.4,87.3-141.3,87.3z"/>
	<path class="st1" d="M-180.8,32.1c12.3,0,23.9,3.8,32.7,10.8c8.5,6.8,13.2,15.7,13.2,25.1c0,5.9-1.9,11.8-5.5,17
		c-0.2,0.3-0.6,0.5-0.9,0.5c0,0-0.1,0-0.1,0l-60-5.3c-0.1,0-0.2,0-0.3-0.1l-24.1-9.4c-0.6-0.2-1-0.9-0.9-1.7c0-0.5,0-0.9,0-1.2
		c0-9.4,4.7-18.3,13.2-25.1C-204.7,35.9-193.1,32.1-180.8,32.1 M-180.8,28.7c-27,0-49.3,17.7-49.3,39.3c0,0.3,0,0.7,0,1.1
		c-0.1,2.2,1.2,4.2,3.1,4.9l24.1,9.4c0.4,0.1,0.8,0.2,1.2,0.3l60,5.3c0.1,0,0.3,0,0.4,0c1.4,0,2.8-0.7,3.7-2c4-5.8,6.1-12.3,6.1-19
		C-131.5,46.5-153.7,28.7-180.8,28.7L-180.8,28.7z"/>
</g>
<g>
	<path class="st1" d="M-277.9,67.5c-3.5,0-6.4-2.5-6.4-5.6s2.9-5.6,6.4-5.6s6.4,2.5,6.4,5.6S-274.3,67.5-277.9,67.5z"/>
	<path class="st1" d="M-277.9,56.7c3.3,0,6,2.3,6,5.2s-2.7,5.2-6,5.2c-3.3,0-6-2.3-6-5.2S-281.2,56.7-277.9,56.7 M-277.9,55.9
		c-3.8,0-6.8,2.7-6.8,6c0,3.3,3.1,6,6.8,6c3.8,0,6.8-2.7,6.8-6C-271,58.6-274.1,55.9-277.9,55.9L-277.9,55.9z"/>
</g>
<g>
	<g>
		<path class="st1" d="M-244.4,151.1c17.9-3.4,36-5.9,54.1-7.5c18.2-1.6,36.5-2.2,54.8-1.9c8.9,0.2,18.2,0.5,26.3,4.6
			c2.9,1.4,5.4-2.9,2.5-4.4c-7.6-3.8-16.1-4.9-24.5-5.2c-9.2-0.3-18.4-0.3-27.6,0c-18.6,0.5-37.2,2-55.6,4.4
			c-10.5,1.4-21,3.1-31.4,5c-1.3,0.3-2.1,1.9-1.8,3.1C-247.1,150.7-245.7,151.3-244.4,151.1L-244.4,151.1z"/>
	</g>
</g>
<g>
	<path class="st2" d="M-229.4,147.1c-1.1,5.7,4.7,6.6-0.9,14.3c5.8-0.8,8.6,2.9,14.3,4.2c-2.3-1.9-2.3-5.2-2.4-8.2
		c-0.3-3.9-1.1-7.7-2.6-11.3"/>
	<g>
		<path class="st1" d="M-230.6,146.7c-0.2,1.3-0.2,2.6,0.1,3.8c0.2,1,0.7,1.9,1,2.8c1,2.8-0.3,5.1-1.9,7.3c-0.5,0.7,0.2,2,1.1,1.9
			c2.5-0.3,4.7,0.2,6.9,1.3c2.3,1.1,4.6,2.2,7.1,2.8c1.2,0.3,2.2-1.2,1.2-2.1c-2.2-2-1.9-5.4-2.1-8.2c-0.3-3.7-1.2-7.3-2.6-10.8
			c-0.3-0.6-0.8-1.1-1.5-0.9c-0.6,0.2-1.1,0.9-0.9,1.5c1.5,3.6,2.4,7.5,2.6,11.4c0.2,3.1,0.3,6.5,2.8,8.6c0.4-0.7,0.8-1.4,1.2-2.1
			c-2.6-0.6-4.8-1.8-7.2-2.9c-2.4-1.1-4.8-1.6-7.5-1.3c0.4,0.6,0.7,1.3,1.1,1.9c1.8-2.5,3.2-5.4,2.4-8.5c-0.6-2.1-1.8-3.8-1.4-6.1
			C-227.9,145.8-230.3,145.1-230.6,146.7L-230.6,146.7z"/>
	</g>
</g>
<g>
	<path class="st2" d="M-200.7,143.1c0.3,3.8,0.2,9.2-0.8,12.9c-0.2,0.6-0.3,1.2-0.1,1.7c0.4,1.1,2.2,1.4,2.5,2.5
		c0.2,0.7-0.3,1.4-0.7,2.1c-1.4,1.9-2.7,3.9-4.1,5.8c8.4-2.2,17,2.2,25.6,2.1c-1.8-2-1.9-5-2-7.7c-0.2-6.8-1.2-14.2-2.5-20.9"/>
	<g>
		<path class="st1" d="M-201.9,143.1c0.2,2.2,0.2,4.5,0.1,6.7c-0.1,1.2-0.2,2.3-0.3,3.5c-0.2,1.1-0.6,2.2-0.7,3.4
			c-0.1,1,0.2,1.9,0.9,2.6c0.5,0.5,1.7,0.9,1.6,1.5c0,0.5-0.6,1.1-0.9,1.4c-0.4,0.6-0.8,1.2-1.2,1.7c-0.8,1.2-1.6,2.3-2.5,3.5
			c-0.7,0.9,0.4,2.1,1.4,1.9c8.4-2.1,16.9,2.1,25.3,2.2c1.2,0,1.6-1.4,0.9-2.2c-1.4-1.6-1.5-3.9-1.6-6c-0.1-2.5-0.2-4.9-0.4-7.3
			c-0.4-4.9-1.2-9.8-2.2-14.7c-0.3-1.6-2.8-0.9-2.4,0.7c1.1,5.2,1.8,10.5,2.2,15.8c0.3,4.4-0.5,9.7,2.6,13.3
			c0.3-0.7,0.6-1.4,0.9-2.2c-8.7-0.1-17.2-4.2-26-2.1c0.5,0.6,0.9,1.2,1.4,1.9c0.8-1.2,1.6-2.3,2.5-3.5c0.7-1.1,1.7-2.1,2.2-3.3
			c0.4-0.9,0.4-2-0.1-2.8c-0.5-0.8-1.6-1-2.1-1.7c-0.3-0.4,0.1-1.3,0.2-1.7c0.1-0.6,0.2-1.1,0.3-1.7c0.2-1.2,0.3-2.4,0.4-3.6
			c0.2-2.4,0.1-4.9,0-7.3C-199.5,141.5-202,141.5-201.9,143.1L-201.9,143.1z"/>
	</g>
</g>
<g>
	<path class="st3" d="M-213.3,144.8c-0.6,4.9-1.4,9.8-2.2,14.7c3.7-0.9,7.5-1.3,11.3-1c-2.6-4.7-4.1-9.3-4.4-14.6"/>
	<g>
		<path class="st1" d="M-214.6,144.8c-0.6,4.8-1.3,9.6-2.2,14.4c-0.2,0.9,0.6,1.8,1.5,1.5c3.6-0.9,7.2-1.2,10.9-1
			c1,0.1,1.5-1.1,1.1-1.9c-2.4-4.3-3.9-9-4.3-14c-0.1-1.6-2.6-1.6-2.5,0c0.4,5.4,2,10.5,4.6,15.3c0.4-0.6,0.7-1.3,1.1-1.9
			c-3.9-0.2-7.8,0.1-11.6,1.1c0.5,0.5,1,1,1.5,1.5c0.9-5,1.6-10,2.2-15c0.1-0.7-0.6-1.3-1.3-1.3
			C-214.1,143.5-214.5,144.1-214.6,144.8L-214.6,144.8z"/>
	</g>
</g>
<g>
	<path class="st3" d="M-177.3,141.4c0.9,5.6,1.3,11.7,1.2,17.5c6,0.2,6.6,2.3,12.6,2.5c-1.2-1.6,3.5-5.2,3.2-7.2
		c-0.3-2.1,0.8-4.5,1.1-6.7c0.3-2.4-0.2-4.4,0.1-6.8"/>
	<g>
		<path class="st1" d="M-178.5,141.8c0.9,5.7,1.2,11.4,1.2,17.1c0,0.7,0.6,1.2,1.3,1.3c2.2,0.1,4.1,0.6,6.2,1.3
			c2.1,0.7,4.2,1.1,6.4,1.2c0.9,0,1.6-1.1,1.1-1.9c-0.1-0.2-0.1,0.1,0-0.1c0.1-0.2,0.2-0.5,0.3-0.7c0.4-0.7,0.8-1.3,1.3-1.9
			c0.8-1.1,1.7-2.3,1.8-3.7c0-1,0-1.9,0.2-2.9c0.2-1.1,0.6-2.2,0.8-3.4c0.4-2.5,0-5,0.2-7.5c0.2-1.6-2.3-1.6-2.5,0
			c-0.3,2.6,0.3,5.2-0.3,7.8c-0.3,1.1-0.6,2.2-0.8,3.4c-0.1,0.5-0.2,1.1-0.1,1.7c0,0.3,0.1,0.8,0,1c-0.5,2.4-4.7,4.8-3,7.5
			c0.4-0.6,0.7-1.3,1.1-1.9c-2.2-0.1-4.1-0.6-6.2-1.3c-2.1-0.7-4.2-1.1-6.4-1.2c0.4,0.4,0.8,0.8,1.3,1.3c0-6-0.3-11.9-1.3-17.8
			C-176.3,139.5-178.8,140.2-178.5,141.8L-178.5,141.8z"/>
	</g>
</g>
<g>
	<path class="st2" d="M-150.8,140.2c-1.2,7,4,7.5-3.2,17.1c11-3.4,9.5,4.2,16.9,4.6c-1.7-1.3-0.1-6.1-0.9-8.1
		c-2-4.7-3.1-8.6-4.4-13.6"/>
	<g>
		<path class="st1" d="M-152,139.9c-0.2,1.5-0.3,3-0.1,4.6c0.2,1.1,0.5,2.2,0.7,3.3c0.4,3.3-1.8,6.4-3.7,8.9
			c-0.7,0.9,0.4,2.1,1.4,1.9c3.2-1,6.3-1.3,9,0.9c1,0.8,1.9,1.7,3.1,2.4c1.4,0.8,3,1.2,4.6,1.3c1.1,0.1,1.7-1.5,0.9-2.2
			c-0.8-0.7-0.4-2.6-0.4-3.6c0.1-1.6,0.2-3-0.4-4.5c-1.7-4.2-3-8.6-4.2-13c-0.4-1.6-2.8-0.9-2.4,0.7c0.6,2.3,1.2,4.6,2,6.9
			c0.7,2.3,1.7,4.5,2.5,6.8c0.9,2.6-1.3,6.5,1.2,8.6c0.3-0.7,0.6-1.4,0.9-2.2c-3-0.2-4.6-2.1-6.8-3.8c-3.1-2.3-6.9-1.8-10.4-0.8
			c0.5,0.6,0.9,1.2,1.4,1.9c2.1-2.8,4.4-6.2,4.1-9.9c-0.2-2.6-1.1-4.9-0.7-7.5C-149.4,138.9-151.8,138.3-152,139.9L-152,139.9z"/>
	</g>
</g>
<g>
	<path class="st3" d="M-132.6,140.8c0.1,5.2,1.7,12.3,1.6,17.5c4.3-0.7,13.2,3.1,11.2,0c-1.8-2.9-2-4.5-1.8-4.6
		c0.4-0.2,3.8,0,3.8-0.5c-0.7-5.3-1-6.5,1.1-11.4"/>
	<g>
		<path class="st1" d="M-133.9,140.8c0.1,5.9,1.7,11.6,1.6,17.5c0,0.9,0.8,1.3,1.6,1.2c2.3-0.3,4.9,0.4,7.1,0.9
			c1.4,0.3,4.6,1.2,5.2-0.9c0.3-1.2-0.7-2.3-1.2-3.3c-0.3-0.6-0.6-1.1-0.7-1.7c0-0.2-0.1-0.3-0.1-0.5c0.1,0.4,0,0,0,0
			c0,0,0-0.1,0-0.1c0,0.5-0.3,0.8-0.8,1c0,0,0.1,0,0.2,0c0.3,0,0.5,0,0.8,0c0.6,0,1.1,0,1.7-0.1c0.5-0.1,1.1-0.1,1.5-0.5
			c0.6-0.6,0.4-1.5,0.3-2.2c-0.2-1.6-0.4-3.1-0.3-4.7c0.1-1.7,0.8-3.3,1.4-4.8c0.3-0.6,0.2-1.3-0.5-1.7c-0.5-0.3-1.5-0.2-1.7,0.5
			c-1.2,2.7-2,5.3-1.7,8.3c0.1,0.7,0.2,1.5,0.3,2.2c0.1,0.4,0,0.9,0.2,1.3c0.2,0.6,1.1-0.8,0.6-0.8c0,0-0.4,0.1-0.2,0
			c-1,0.1-2,0-3,0.2c-2.6,0.6-0.4,4.5,0.3,5.7c0.2,0.3,0.4,0.6,0.6,1c0.1,0.2,0,0.1,0-0.1c0-0.4,0.2-0.5,0.5-0.7
			c0.2-0.1,0,0.1-0.1,0c0,0,0.3,0,0,0c-0.9,0-1.7-0.2-2.6-0.3c-2.7-0.5-5.6-1.2-8.4-0.8c0.5,0.4,1.1,0.8,1.6,1.2
			c0.1-5.9-1.5-11.6-1.6-17.5C-131.4,139.2-133.9,139.2-133.9,140.8L-133.9,140.8z"/>
	</g>
</g>
<g>
	<path class="st1" d="M-222.9,112.3c-1.5,3.4-3.1,6.8-3.9,10.5c-0.3,1.2-0.5,2.4-0.2,3.5c0.5,2.5,3.3,4.3,5.9,4.1
		c2.6-0.3,4.8-2.4,5.5-4.9c0.6-2.5-0.2-5.3-2-7.2c-0.8-0.9-1.9-1.7-2.2-2.9c-0.4-1.4,0.4-3.1-0.5-4.2c-0.6-0.7-1.7-0.9-2.5-0.4
		c-0.8,0.5-1,1.6-0.6,2.4"/>
	<g>
		<path class="st1" d="M-224,111.7c-1,2.2-2,4.4-2.8,6.6c-0.8,2.1-1.6,4.5-1.6,6.8c0,3.9,3.6,7,7.5,6.5c3.8-0.5,6.7-4,6.7-7.9
			c0-2-0.7-4-2-5.6c-0.5-0.7-1.2-1.3-1.8-1.9c-0.7-0.8-0.8-1.6-0.7-2.7c0.1-2.1-0.8-4.4-3.3-4.3c-2.3,0.1-3.4,2.6-2.5,4.6
			c0.7,1.5,2.9,0.2,2.2-1.3c-0.2-0.4,0-0.8,0.4-0.8c0.6-0.1,0.7,0.6,0.7,1c0,1.5-0.2,2.8,0.6,4.1c0.7,1.2,1.9,1.9,2.6,3.1
			c0.8,1.2,1.2,2.6,1.2,4c-0.1,2.5-2.1,5-4.7,5.1c-1.2,0.1-2.5-0.4-3.4-1.3c-1-1.1-1.2-2.4-1-3.8c0.6-3.9,2.4-7.5,4-11
			C-221.1,111.5-223.3,110.2-224,111.7L-224,111.7z"/>
	</g>
</g>
<g>
	<path class="st1" d="M-211.1,116.1c-1.3,2.4-1.3,5.4-0.6,8c0.4,1.4,0.9,2.8,2.1,3.8c1.9,1.6,4.9,1.2,6.7-0.4
		c1.8-1.6,2.5-4.3,2.1-6.7c-0.2-1.5-0.8-2.9-1.8-4.1c-1.4-1.7-3.7-2.6-5.1-4.3c-0.7-0.8-1.2-1.9-1.8-2.8s-1.4-1.8-2.5-2.1
		c-0.5-0.1-1-0.2-1.5,0.1c-1,0.5-1.1,1.8-0.9,2.9c0.4,2.1,1.6,4.1,3.3,5.4"/>
	<g>
		<path class="st1" d="M-212.2,115.5c-1.1,2.2-1.4,4.6-1.1,7c0.3,2.1,0.8,4.3,2.3,5.9c3,3.3,8.3,1.8,10.4-1.8
			c2.2-3.8,1.2-9-2.1-11.8c-0.8-0.7-1.6-1.2-2.4-1.8c-1-0.8-1.8-1.7-2.4-2.8c-1.1-1.8-2.4-3.9-4.8-4c-2.6-0.2-3.5,2.4-3.2,4.5
			c0.4,2.4,1.8,4.6,3.7,6c1.3,1,3.1-0.8,1.8-1.8c-1.2-1-2.2-2.2-2.7-3.6c-0.3-0.8-0.9-3.2,0.8-2.5c1.5,0.7,2.1,2.7,3,3.9
			c0.9,1.3,2.2,2.2,3.5,3.1c1.3,1,2.5,2,3.1,3.6c0.5,1.4,0.6,3,0.2,4.5c-0.7,2.5-3.7,4.9-6.3,3.2c-1.5-1-2-3.1-2.2-4.7
			c-0.3-1.9-0.2-4,0.7-5.7C-209.3,115.3-211.5,114-212.2,115.5L-212.2,115.5z"/>
	</g>
</g>
<g>
	<path class="st4" d="M-246.3-13.7c17.7,10.8,48.7-9.6,65,4.1C-165.5,3.7-148.1-0.9-122-7c19.8-4.6,34.1,35.4,41.2,61
		c1.2,4.2,1.8,11.6,5.1,14.1c4.2,3.2,18,4.4,18.3-1.8c0.6-10.2-4.4-16.3-5.9-24.3c-0.5-2.7,0.3-17,3-17c3.1,0,3,5.2,7.5-3.9
		c7.9-15.9,1.5-42-6.7-55.5c-3.8-6.3-11.1-10.1-14.1-16.9c-2.5-5.8-13.3-10.2-20-7.5c-6.8,2.7-12.1,14.8-9.7,21.8
		c0-17.2-11.6-33.7-27.4-39.1c-9.2-3.1-20.2-2.4-27.2,4.5c-6.7,6.7-0.6,14.5,0.3,25.3c0,0.2,0.3-0.1,0.2-0.2
		c-3.5-25-22.1-33.8-44.3-34.2c-1.4,0-13,3.6-14.1,4.6c-1.2,1-4.8,3.6-4.8,5.2c0,9.6,3.4,11.8,10.3,17.1
		c-12.3-9.8-21.8-15.8-36.7-11.3c-4.2,1.3-10.4,12.1-11,16.6c-0.4,3.3,1,10.8,1.4,14.1C-255.1-21.9-248.7-20-246.3-13.7"/>
	<g>
		<path class="st1" d="M-247-12.6c5.9,3.6,13,3.8,19.7,3.2c7.5-0.7,14.8-2.4,22.2-3.3c6.5-0.8,13.8-1.2,19.8,2
			c3.2,1.7,5.8,4.4,9,6.2c3.1,1.8,6.6,3.1,10.1,3.8c7.6,1.6,15.4,0.8,22.9-0.5c4.5-0.8,9-1.8,13.4-2.8c2.5-0.6,5-1.2,7.5-1.7
			c1.3-0.3,2.6-0.5,4-0.5c5.5,0.2,10,4.2,13.4,8.2c4.6,5.4,8,11.9,11,18.4c3.3,7.3,6.1,14.9,8.5,22.5c1.1,3.5,2.2,7.1,3.2,10.7
			c1,3.6,1.4,7.3,2.7,10.8c0.6,1.6,1.4,3.2,2.7,4.3c1,0.9,2.2,1.4,3.4,1.8c2.8,1,6,1.5,8.9,1.3c2.6-0.1,5.7-0.7,7.4-3
			c0.9-1.3,1-2.7,1-4.3c0-2.3-0.3-4.6-0.8-6.9c-0.9-4.1-2.7-7.8-4-11.8c-1-2.9-1.3-5-1.2-8c0.1-3,0.3-6,1-8.9c0.2-1,0.4-2.1,1-2.9
			c-0.1,0.2,0.1-0.3,0,0c0,0-0.2,0-0.1,0c0.2,0.1,0.4,0.1,0.7,0.3c1.5,0.9,2.8,1.8,4.4,0.4c1.2-1.1,2-2.7,2.8-4.1
			c0.9-1.8,1.8-3.7,2.4-5.6c2.5-8,2.3-16.7,1-24.8c-1.3-8.2-3.8-16.2-7.5-23.6c-1.8-3.6-4-6.8-6.9-9.7c-3-3-6.5-5.8-8.6-9.6
			c-0.8-1.5-1.5-3-2.7-4.3c-1.2-1.3-2.7-2.4-4.3-3.3c-3.3-1.8-7.3-3-11.1-2.7c-7.6,0.4-12.4,7.3-14.3,14.1
			c-0.9,3.2-1.3,6.9-0.3,10.1c0.4,1.3,2.5,1.1,2.5-0.3c-0.1-14.7-8.1-29-20.7-36.7c-6.2-3.8-13.6-6-21-5.3
			c-3.7,0.3-7.3,1.3-10.5,3.1c-3,1.7-6,4.2-7.3,7.4c-1.4,3.4-0.7,7.1,0.1,10.6c0.5,2.1,1.1,4.1,1.6,6.1c0.3,1.1,0.5,2.2,0.7,3.4
			c0.1,0.9,0,2.4,0.7,3.1c0.5,0.5,1.3,0.5,1.8,0c0.8-0.8,0.4-1.8,0.3-2.8c-0.2-1.2-0.4-2.4-0.7-3.5c-0.5-2.1-1.1-4.1-1.9-6.1
			c-1.5-3.6-3.4-7-6-10c-4.8-5.7-11.4-9.5-18.5-11.6c-3.8-1.2-7.8-1.9-11.7-2.2c-3.1-0.3-6.2-0.6-9.2,0.2c-3.2,0.8-6.3,1.8-9.4,3
			c-2.7,1-5,2.8-6.9,5c-1.5,1.8-1.2,3.9-1,6.2c0.2,2,0.8,4,1.7,5.9c2,3.7,5.7,6.1,9,8.6c1.1,0.9,2.6-1.1,1.5-2
			c-6.1-4.9-12.6-10-20.3-12.1c-3.6-1-7.3-1.3-11-0.9c-3.3,0.4-6.9,0.8-9.5,3.1c-2.3,2-4.1,4.8-5.6,7.5c-1.4,2.4-2.8,5.2-3.3,8
			c-0.6,3.2,0.1,6.7,0.6,9.9c0.5,3.5,0.8,7.1,1.8,10.5c1,3.3,2.6,6.2,4.7,8.9c1.6,2.1,3.5,4.1,4.5,6.6c0.6,1.5,3,0.8,2.4-0.7
			c-1.8-4.5-5.7-7.7-7.8-12c-1.5-3.1-2.1-6.3-2.5-9.7c-0.4-3.3-1-6.6-1.2-9.9c-0.2-2.6,0.4-4.8,1.5-7.2c1.3-2.8,2.8-5.5,4.7-7.9
			c0.8-1,1.7-2,2.7-2.7c1.2-0.8,2.6-1.1,4-1.4c3.6-0.8,7.3-1,10.9-0.3c8.3,1.5,15.3,6.9,21.7,12.1c0.5-0.7,1-1.3,1.5-2
			c-2.6-2-5.6-4-7.5-6.8c-0.9-1.3-1.4-2.7-1.7-4.2c-0.2-0.9-0.3-1.8-0.4-2.7c-0.1-0.8-0.3-1.9,0.1-2.6c0.7-1.4,2.4-2.5,3.6-3.4
			c0.1-0.1,0.7-0.6,0.6-0.5c-0.2,0.1,0.2-0.1,0.2-0.1c0.4-0.2,0.8-0.4,1.2-0.5c2.8-1.1,5.7-2,8.5-2.8c1-0.3,2.1-0.7,3.2-0.8
			c-0.2,0,0,0,0.1,0c0.4,0,0.9,0,1.3,0c1,0,2,0.1,2.9,0.1c3.7,0.3,7.3,0.8,10.8,1.7c6.5,1.6,12.7,4.5,17.6,9.2
			c2.8,2.7,5,5.8,6.7,9.3c0.9,1.9,1.7,3.9,2.3,5.9c0.3,1.1,0.6,2.2,0.9,3.4c0.1,0.5,0.2,1.1,0.3,1.6c0.1,0.3,0.1,0.6,0.2,0.9
			c0,0.1,0,0.2,0.1,0.4c0,0.6,0.1,0.5,0.3-0.2c0.6,0,1.2,0,1.8,0c0,0,0,0-0.1-0.1c0.1,0.3,0.2,0.6,0.4,0.9
			c-0.3-3.7-1.2-7.2-2.2-10.8c-0.7-2.8-1.6-5.9-1.1-8.8c0.5-3.2,2.9-5.5,5.5-7.2c2.9-1.9,6.2-3,9.5-3.4c13.6-1.7,26.6,6.7,33.6,17.9
			c4.1,6.4,6.4,13.9,6.4,21.5c0.8-0.1,1.6-0.2,2.5-0.3c-1.1-3.3-0.5-6.9,0.7-10c1.2-3.3,3.1-6.7,5.9-8.9c5.5-4.4,14.7-1.5,19.1,3.1
			c1.2,1.2,1.7,2.7,2.6,4.2c1,1.8,2.3,3.4,3.7,4.9c2.9,3,6.3,5.7,8.7,9.1c2.1,3,3.7,6.4,5,9.8c1.5,3.7,2.7,7.6,3.7,11.5
			c2,8,2.9,16.6,1.6,24.8c-0.7,4-1.9,7.7-3.9,11.3c-0.4,0.7-0.8,1.5-1.3,2.1c-0.1,0.2-0.3,0.3-0.5,0.5c0,0-0.4,0.3-0.2,0.2
			c0,0,0,0-0.1,0c-0.3-0.2-0.6-0.4-0.8-0.6c-1.5-1-3.5-1.3-4.6,0.4c-1.3,2-1.6,4.9-1.8,7.2c-0.3,2.7-0.5,5.5-0.5,8.3
			c0.1,3.2,1.3,6.3,2.4,9.2c1.5,3.9,3,7.8,3.5,11.9c0.1,1.1,0.2,2.2,0.2,3.3c0,0.7,0,1.5-0.3,2.1c-0.4,0.9-1.4,1.4-2.2,1.7
			c-2.6,0.9-5.7,0.8-8.4,0.3c-2.5-0.5-5.3-1.2-6.7-3.5c-1.9-3.1-2.3-7.1-3.1-10.6c-0.8-3.4-1.9-6.8-2.9-10.1
			c-2.3-7.3-4.8-14.5-7.8-21.6c-2.9-6.7-6.1-13.4-10.4-19.4c-3.3-4.6-7.4-9.2-12.8-11.4c-2.3-0.9-4.7-1.3-7.2-1.1
			c-1.9,0.2-3.7,0.7-5.6,1.2c-2.4,0.6-4.7,1.1-7.1,1.6c-8,1.8-16.2,3.6-24.5,3.5c-7-0.1-13.8-1.8-19.7-5.7c-2.9-1.9-5.3-4.3-8.5-5.7
			c-3-1.3-6.2-1.8-9.4-2c-7.1-0.4-14.2,1-21.2,2.2c-6.8,1.2-13.9,2.5-20.9,1.6c-3-0.4-5.9-1.3-8.6-2.9
			C-247.1-15.6-248.4-13.4-247-12.6L-247-12.6z"/>
	</g>
</g>
<g>
	<linearGradient id="SVGID_1_" gradientUnits="userSpaceOnUse" x1="-141.7985" y1="118.3475" x2="-137.5093" y2="118.3475">
		<stop  offset="0" style="stop-color:#FFFFFF"/>
		<stop  offset="1" style="stop-color:#010101"/>
	</linearGradient>
	<path class="st5" d="M-139.9,121.3c-0.7,0-1.6-1.1-1.9-2.1c0-0.1,0-0.3,0.1-0.4c0,0,0.1-0.1,0.2-0.1c0.6,0,0.9-0.3,1.1-0.8
		c0.2-0.5,0-1.1-0.4-1.4c-0.1-0.1-0.1-0.2-0.1-0.3c0-0.1,0.1-0.2,0.1-0.3c0.4-0.3,0.9-0.5,1.4-0.5c1.2,0,1.8,0.9,1.8,2.7
		c0,1.6-0.8,2.4-2,3C-139.7,121.2-139.8,121.3-139.9,121.3z"/>
	<path class="st1" d="M-139.3,115.9c0.4,0,1.4,0,1.4,2.3c0,1.2-0.5,1.9-1.8,2.7c-0.1,0-0.1,0-0.2,0c-0.4,0-1.1-0.8-1.4-1.7
		c0.6,0,1.1-0.4,1.3-1c0.2-0.7,0.1-1.4-0.5-1.9C-140.2,116-139.8,115.9-139.3,115.9 M-139.3,115c-0.6,0-1.2,0.2-1.6,0.5
		c-0.4,0.3-0.4,1,0,1.3c0.5,0.4,0.3,1.4-0.4,1.4h-0.1c-0.5,0-0.8,0.5-0.6,1c0.3,1.1,1.3,2.4,2.3,2.4c0.2,0,0.4,0,0.6-0.2
		c1.3-0.7,2.3-1.6,2.3-3.4S-137.7,115-139.3,115L-139.3,115z"/>
</g>
<g>
	
		<linearGradient id="SVGID_00000050637801445682451900000008243686655858934436_" gradientUnits="userSpaceOnUse" x1="-191.0171" y1="15.4064" x2="-185.874" y2="15.4064">
		<stop  offset="0" style="stop-color:#FFFFFF"/>
		<stop  offset="1" style="stop-color:#010101"/>
	</linearGradient>
	<path style="fill:url(#SVGID_00000050637801445682451900000008243686655858934436_);" d="M-188.1,18.3c-0.2,0-0.3,0-0.5-0.1
		c-1.4-0.7-2.4-1.5-2.4-3c0-1.8,0.7-2.7,2.2-2.7c0.6,0,1.2,0.2,1.7,0.5c0.1,0.1,0.2,0.2,0.2,0.3c0,0.1-0.1,0.2-0.2,0.3
		c-0.4,0.3-0.6,0.8-0.4,1.3c0.2,0.5,0.6,0.8,1.2,0.8h0.1c0.1,0,0.2,0.1,0.3,0.2c0,0.1,0.1,0.2,0,0.3
		C-186.3,17.2-187.2,18.3-188.1,18.3z"/>
	<path class="st1" d="M-188.8,12.9c0.5,0,1,0.1,1.4,0.4c-0.5,0.4-0.8,1.1-0.5,1.8c0.2,0.7,0.8,1.1,1.6,1.1l0,0
		c-0.3,0.8-1.2,1.7-1.8,1.7c-0.1,0-0.2,0-0.3-0.1c-1.6-0.7-2.2-1.5-2.2-2.7C-190.6,13.2-189.6,12.9-188.8,12.9 M-188.8,12.1
		c-1.9,0-2.6,1.3-2.6,3.1c0,1.8,1.1,2.7,2.6,3.4c0.2,0.1,0.4,0.2,0.7,0.2c1.2,0,2.3-1.3,2.6-2.4c0.2-0.5-0.2-1-0.8-1h-0.1
		c-0.8,0-1.1-1-0.5-1.4c0.5-0.3,0.4-1-0.1-1.3C-187.4,12.3-188.1,12.1-188.8,12.1L-188.8,12.1z"/>
</g>
<g>
	<path class="st7" d="M-114.1,31.1c-0.7,0-1.3-0.3-1.9-0.8c-0.4-0.4-0.4-1.3,0-1.7c0.6-0.6,0.6-1.6,0.3-2.3
		c-0.2-0.5-0.7-0.9-1.1-0.9h-0.1c-0.1,0-0.2-0.1-0.3-0.2c-0.2-0.2-0.3-0.6-0.2-1.1c0.4-1.8,1.6-3.8,2.6-3.8c0.2,0,0.3,0.1,0.5,0.2
		c1.5,1.1,2.8,2.5,2.8,5.6C-111.5,28.4-111.9,31.1-114.1,31.1z"/>
	<path class="st1" d="M-114.9,20.8c0,0,0.1,0,0.3,0.1c1.6,1.1,2.7,2.5,2.7,5.2c0,2.1-0.4,4.6-2.2,4.6c-0.6,0-1.1-0.2-1.6-0.7
		c-0.2-0.2-0.2-0.8,0-1.1c0.7-0.8,0.7-2,0.4-2.8c-0.3-0.7-0.9-1.1-1.5-1.1h-0.1c-0.1-0.1-0.2-0.4-0.1-0.7
		C-116.6,22.3-115.5,20.8-114.9,20.8 M-114.9,19.9c-1.3,0-2.6,2.3-3,4.2c-0.2,0.9,0.3,1.8,0.9,1.8h0.1c0.9,0,1.2,1.7,0.5,2.5l0,0
		c-0.5,0.6-0.5,1.8,0.1,2.3c0.6,0.6,1.4,0.9,2.2,0.9c2.2,0,3-2.3,3-5.4c0-3.1-1.3-4.7-3-5.9C-114.4,20-114.6,19.9-114.9,19.9
		L-114.9,19.9z"/>
</g>
<g>
	<path class="st1" d="M-243.7,9.1c-0.2,0-0.3,0-0.5-0.1c-1.4-0.7-2.4-1.5-2.4-3c0-1.8,0.7-2.7,2.2-2.7c0.6,0,1.2,0.2,1.7,0.5
		c0.1,0.1,0.2,0.2,0.2,0.3c0,0.1-0.1,0.2-0.2,0.3c-0.4,0.3-0.6,0.8-0.4,1.3c0.2,0.5,0.6,0.8,1.2,0.8h0.1c0.1,0,0.2,0.1,0.3,0.2
		c0,0.1,0.1,0.2,0,0.3C-241.8,8-242.8,9.1-243.7,9.1z"/>
	<path class="st1" d="M-244.3,3.7c0.5,0,1,0.1,1.4,0.4c-0.5,0.4-0.8,1.1-0.5,1.8c0.2,0.7,0.8,1.1,1.6,1.1l0,0
		c-0.3,0.8-1.2,1.7-1.8,1.7c-0.1,0-0.2,0-0.3-0.1c-1.6-0.7-2.2-1.5-2.2-2.7C-246.1,3.9-245.2,3.7-244.3,3.7 M-244.3,2.8
		c-1.9,0-2.6,1.3-2.6,3.1c0,1.8,1.1,2.7,2.6,3.4c0.2,0.1,0.4,0.2,0.7,0.2c1.2,0,2.3-1.3,2.6-2.4c0.2-0.5-0.2-1-0.8-1h-0.1
		c-0.8,0-1.1-1-0.5-1.4c0.5-0.3,0.4-1-0.1-1.3C-243,3-243.6,2.8-244.3,2.8L-244.3,2.8z"/>
</g>
<g>
	
		<radialGradient id="SVGID_00000142174236852318083290000010290024322143713446_" cx="-308.2652" cy="48.8057" r="7.3211" gradientTransform="matrix(0.4362 0 0 0.4314 38.4404 68.1201)" gradientUnits="userSpaceOnUse">
		<stop  offset="0.7388" style="stop-color:#FFFFFF;stop-opacity:0"/>
		<stop  offset="0.8057" style="stop-color:#FFFFFF;stop-opacity:0.4301"/>
		<stop  offset="0.8165" style="stop-color:#FFFFFF;stop-opacity:0.5"/>
		<stop  offset="0.8231" style="stop-color:#DABF26"/>
		<stop  offset="0.8304" style="stop-color:#F1DC3C"/>
		<stop  offset="0.835" style="stop-color:#F5E13F"/>
		<stop  offset="0.8386" style="stop-color:#DABF26"/>
		<stop  offset="0.8423" style="stop-color:#DCC230"/>
		<stop  offset="0.8606" style="stop-color:#E3CD65"/>
		<stop  offset="0.8795" style="stop-color:#EAD88C"/>
		<stop  offset="0.8985" style="stop-color:#EFE2AD"/>
		<stop  offset="0.9177" style="stop-color:#F4EBC9"/>
		<stop  offset="0.9371" style="stop-color:#F8F2DE"/>
		<stop  offset="0.957" style="stop-color:#FBF8EE"/>
		<stop  offset="0.9774" style="stop-color:#FEFDF9"/>
		<stop  offset="0.9993" style="stop-color:#FFFFFF"/>
	</radialGradient>
	<path style="fill:url(#SVGID_00000142174236852318083290000010290024322143713446_);" d="M-96.4,92.8c-1.5,0-2.2-1.1-2.2-3.4
		c0-2,1-3,2.4-3.8c0.1-0.1,0.3-0.1,0.5-0.1c0.9,0,1.9,1.4,2.2,2.6c0.1,0.2,0,0.4-0.1,0.6c0,0.1-0.1,0.2-0.3,0.2h-0.1
		c-0.5,0-0.9,0.3-1.1,0.8c-0.2,0.6-0.1,1.3,0.4,1.6c0.1,0.1,0.2,0.3,0.2,0.5c0,0.2-0.1,0.4-0.2,0.5C-95.2,92.6-95.8,92.8-96.4,92.8z
		"/>
	<path class="st1" d="M-95.7,85.9c0.6,0,1.5,1.2,1.8,2.3c0,0.1,0,0.1,0,0.2h0c-0.7,0-1.2,0.4-1.5,1.1c-0.3,0.8-0.1,1.6,0.5,2.1
		c0,0,0,0.1,0,0.2c0,0.1,0,0.1,0,0.1c-0.4,0.3-0.9,0.5-1.4,0.5c-0.4,0-1.8,0-1.8-3c0-1.8,0.8-2.7,2.2-3.5
		C-95.9,85.9-95.8,85.9-95.7,85.9 M-95.7,85.1c-0.2,0-0.4,0.1-0.7,0.2c-1.5,0.9-2.6,2-2.6,4.2s0.7,3.8,2.6,3.8
		c0.7,0,1.4-0.2,1.9-0.7c0.5-0.4,0.5-1.2,0.1-1.6l0,0c-0.6-0.5-0.3-1.7,0.5-1.7h0.1c0.5,0,0.9-0.6,0.8-1.2
		C-93.5,86.7-94.6,85.1-95.7,85.1L-95.7,85.1z"/>
</g>
<g>
	
		<linearGradient id="SVGID_00000036952186074275153660000014503935815850654877_" gradientUnits="userSpaceOnUse" x1="-268.3171" y1="124.6888" x2="-265.6387" y2="124.6888">
		<stop  offset="0" style="stop-color:#FFFFFF"/>
		<stop  offset="1" style="stop-color:#010101"/>
	</linearGradient>
	<path style="fill:url(#SVGID_00000036952186074275153660000014503935815850654877_);" d="M-267.2,126.7c-0.4,0-0.9-0.7-1.2-1.4
		c0-0.1,0-0.2,0.1-0.2c0,0,0,0,0,0c0.4,0,0.7-0.2,0.9-0.6c0.2-0.4,0.1-0.9-0.3-1.2c0,0-0.1-0.1-0.1-0.2c0-0.1,0-0.1,0.1-0.1
		c0.3-0.2,0.6-0.3,0.9-0.3c0.3,0,1.1,0,1.1,1.8c0,1.1-0.5,1.7-1.3,2.1C-267,126.7-267.1,126.7-267.2,126.7z"/>
	<path class="st1" d="M-266.8,123.1c0.2,0,0.7,0,0.7,1.4c0,0.8-0.3,1.3-1.1,1.7c-0.1-0.1-0.4-0.4-0.6-0.9c0.4-0.1,0.7-0.4,0.8-0.8
		c0.2-0.5,0.1-1-0.2-1.4C-267,123.1-266.9,123.1-266.8,123.1 M-266.8,122.3c-0.4,0-0.8,0.1-1.1,0.4c-0.3,0.2-0.3,0.7,0,1
		c0.4,0.3,0.2,1-0.3,1h-0.1c-0.3,0-0.5,0.4-0.4,0.7c0.2,0.8,0.9,1.7,1.6,1.7c0.1,0,0.3,0,0.4-0.1c0.9-0.5,1.5-1.2,1.5-2.5
		C-265.2,123.2-265.6,122.3-266.8,122.3L-266.8,122.3z"/>
</g>
<g>
	<path class="st10" d="M-157,184.3c-0.7,0-1.6-1.1-1.9-2.1c0-0.1,0-0.3,0.1-0.4c0,0,0.1-0.1,0.2-0.1c0.6,0,0.9-0.3,1.1-0.8
		c0.2-0.5,0-1.1-0.4-1.4c-0.1-0.1-0.1-0.2-0.1-0.3c0-0.1,0.1-0.2,0.1-0.3c0.4-0.3,0.9-0.5,1.4-0.5c1.2,0,1.8,0.9,1.8,2.7
		c0,1.6-0.8,2.4-2,3C-156.8,184.3-156.9,184.3-157,184.3z"/>
	<path class="st1" d="M-156.5,178.9c0.4,0,1.4,0,1.4,2.3c0,1.2-0.5,1.9-1.8,2.7c-0.1,0-0.1,0-0.2,0c-0.4,0-1.1-0.8-1.4-1.7
		c0.6,0,1.1-0.4,1.3-1c0.2-0.7,0.1-1.4-0.5-1.9C-157.3,179-156.9,178.9-156.5,178.9 M-156.5,178.1c-0.6,0-1.2,0.2-1.6,0.5
		c-0.4,0.3-0.4,1,0,1.3c0.5,0.4,0.3,1.4-0.4,1.4h-0.1c-0.5,0-0.8,0.5-0.6,1c0.3,1.1,1.3,2.4,2.3,2.4c0.2,0,0.4,0,0.6-0.2
		c1.3-0.7,2.3-1.6,2.3-3.4S-154.8,178.1-156.5,178.1L-156.5,178.1z"/>
</g>
<g>
	<path class="st11" d="M-64.2,101.2c3.3-0.8,6.8-1.2,10.2-1.2c2.2,0,4.5,0.2,6.2,1.6c1.4,1.1,2,3,2.1,4.7c0.1,3.3-2.1,6.5-5,8.1
		s-6.5,1.8-9.7,0.9c-3.2-0.9-6.1-2.7-8.6-5"/>
	<g>
		<path class="st1" d="M-63.8,102.4c2.2-0.5,4.5-0.9,6.7-1c2-0.1,4.1-0.3,6.1,0.2c4.1,0.9,5,5.3,3,8.6c-2,3.4-5.8,4.7-9.6,4.5
			c-4-0.3-7.6-2.5-10.6-5.1c-1.2-1.1-3,0.7-1.8,1.8c5.4,4.8,13.9,8.3,20.6,3.8c2.8-1.9,4.9-5.1,4.9-8.5c0-3.7-2.3-6.6-5.9-7.4
			c-2.2-0.5-4.5-0.4-6.7-0.3c-2.5,0.2-5,0.5-7.4,1.1C-66.1,100.4-65.4,102.8-63.8,102.4L-63.8,102.4z"/>
	</g>
</g>
<g>
	<path class="st11" d="M-262.4,150.7c-3.2,1.3-6.5,2.2-9.9,2.7c-2.1,0.3-4.5,0.5-6.3-0.6c-1.5-0.9-2.5-2.6-2.8-4.3
		c-0.6-3.3,1-6.7,3.6-8.8c2.6-2.1,6.1-2.8,9.5-2.4c3.3,0.4,6.5,1.7,9.3,3.6"/>
	<g>
		<path class="st1" d="M-262.7,149.4c-2,0.8-4.1,1.5-6.2,2c-2,0.5-4.1,1-6.2,0.9c-2,0-3.7-0.9-4.5-2.7c-0.8-1.6-0.7-3.5-0.1-5.1
			c1.3-3.7,4.9-5.8,8.6-6.1c4.1-0.4,8.1,1.2,11.5,3.4c1.4,0.9,2.6-1.3,1.3-2.2c-6.2-3.9-15-5.9-20.9-0.4c-2.5,2.3-3.9,5.9-3.3,9.3
			c0.6,3.7,3.5,6.1,7.1,6.3c2.1,0.1,4.4-0.3,6.4-0.8c2.4-0.5,4.8-1.3,7-2.2C-260.6,151.3-261.2,148.8-262.7,149.4L-262.7,149.4z"/>
	</g>
</g>
<g>
	<g>
		<path class="st1" d="M-60.3,10.2c-0.3-3.2-2.3-5.6-5-7.2c-3.1-1.9-6.8-2.4-10.1-3.8c-6-2.6-9.3-9.2-9.7-15.6
			c-0.2-3.7,1.1-8.9,5.6-9.2c1.6-0.1,1.6-2.6,0-2.5c-3.5,0.2-6.2,2.7-7.4,5.9c-1.3,3.5-0.8,7.7,0.2,11.2c0.9,3.3,2.6,6.4,5,8.8
			c2.6,2.7,6,4,9.6,5.1c3.6,1.1,8.9,2.8,9.3,7.2C-62.6,11.8-60.1,11.9-60.3,10.2L-60.3,10.2z"/>
	</g>
</g>
<g>
	<g>
		<path class="st1" d="M-121.4-8.4c-2-1.4-4-2.8-5.9-4.3c-1.8-1.4-3.4-3-4-5.2c-1.1-4.7,2-9.2,4-13.1c1-1.9,2.3-4.3,2.2-6.5
			c-0.1-1.9-1.7-3.4-3.4-4c-1.9-0.7-4.2-0.8-6.1-0.4c-1.7,0.3-3.1,1.1-3.7,2.8c-0.5,1.5,1.9,2.2,2.4,0.7c0.4-1.4,3.2-1.1,4.3-1
			c1.1,0.1,2.2,0.2,3.1,0.8c1,0.7,1,1.6,0.6,2.7c-1.1,3.9-3.8,7.2-5.2,11.1c-1.3,3.6-1.5,7.7,0.8,10.9c2.4,3.3,6.3,5.5,9.5,7.8
			C-121.3-5.2-120.1-7.4-121.4-8.4L-121.4-8.4z"/>
	</g>
</g>
<g>
	<g>
		<path class="st1" d="M-172.1-11.3c-3.1-1.1-5.9-3.6-7-6.7c-1.3-3.4-0.7-7.4,1.7-10.3c2-2.5,4.7-4.9,3.9-8.5
			c-0.8-3.6-4.4-5.5-7.7-6.1c-1.6-0.3-2.3,2.1-0.7,2.4c1.8,0.4,3.8,1,5.1,2.5c1.1,1.4,1.3,3,0.4,4.6c-0.9,1.5-2.2,2.7-3.3,4.1
			c-1,1.4-1.8,3-2.2,4.6c-1.6,6.9,2.7,13.5,9.2,15.8C-171.2-8.4-170.6-10.8-172.1-11.3L-172.1-11.3z"/>
	</g>
</g>
<g>
	<g>
		<path class="st1" d="M-211.5-14.9c-1-1-2.3-1.6-3.6-2.1c-1.3-0.6-2.5-1.2-2.8-2.6c-0.3-1.6,0.1-3.3-0.1-4.9
			c-0.2-1.6-0.6-3.1-1.3-4.5c-1.4-3.1-3.5-5.7-5.8-8.1c-2.1-2.3-4.4-5-7.5-5.8c-1.6-0.4-2.2,2-0.7,2.4c3,0.8,5.3,3.9,7.3,6.1
			c2.1,2.4,4.2,5.1,5.1,8.2c0.5,1.6,0.5,3.1,0.4,4.7c0,1.5,0,3,0.8,4.3c1.5,2.4,4.5,2.4,6.4,4.2C-212.1-11.9-210.3-13.7-211.5-14.9
			L-211.5-14.9z"/>
	</g>
</g>
<g>
	<g>
		<path class="st1" d="M-227.6-36.5c-1.6,1.5-3.6,2.6-5.8,2.4c-2.1-0.2-3.5-1.9-4.7-3.4c-1.2-1.5-2.4-3-4.2-3.9
			c-1.9-0.9-4.1-1.1-6.1-0.5c-1.6,0.4-0.9,2.8,0.7,2.4c2.1-0.6,4.4,0,6,1.5c1.5,1.4,2.5,3.3,4,4.6c3.7,3.2,8.8,1.9,12-1.3
			C-224.6-35.8-226.4-37.6-227.6-36.5L-227.6-36.5z"/>
	</g>
</g>
<g>
	<g>
		<path class="st1" d="M-130.8-21.7c1-1.5,3-4.2,5.1-2.9c0.9,0.6,1.6,1.4,2.6,1.9c0.9,0.5,1.9,0.7,3,0.9c4.2,0.5,8-2,9.5-5.8
			c0.6-1.5-1.8-2.2-2.4-0.7c-1.5,3.8-6.2,5.1-9.6,3c-0.9-0.6-1.6-1.4-2.6-1.8c-0.9-0.4-2-0.4-3-0.1c-2.2,0.6-3.6,2.5-4.8,4.3
			C-133.9-21.6-131.7-20.4-130.8-21.7L-130.8-21.7z"/>
	</g>
</g>
<g>
	<g>
		<path class="st1" d="M-81.5-1.9c1.9,1.4,3.6,3.3,4.6,5.5c1.1,2.3,1,4.5,0.5,7c-0.5,2.4-0.6,4.7,1.5,6.3c2.2,1.7,5,2.9,7.5,4.1
			c1.5,0.7,2.7-1.5,1.3-2.2c-1.3-0.6-2.6-1.2-3.8-1.9c-1.2-0.6-2.6-1.2-3.6-2.1c-1-0.9-0.7-2.3-0.5-3.5c0.3-1.2,0.5-2.4,0.5-3.6
			c0-4.8-3.1-9-6.8-11.8C-81.5-5-82.8-2.8-81.5-1.9L-81.5-1.9z"/>
	</g>
</g>
<g>
	<g>
		<path class="st1" d="M-176.3-40.8c-0.7-0.4-1.5-0.9-2-1.6c-0.5-0.9-0.2-2-0.3-2.9c-0.2-2.1-1.3-3.8-2.7-5.3
			c-2.9-3.1-6.8-5.5-10.7-7.3c-0.6-0.3-1.3-0.2-1.7,0.5c-0.3,0.5-0.2,1.5,0.5,1.7c3.9,1.7,7.7,4.1,10.5,7.3c0.6,0.7,1.2,1.5,1.4,2.4
			c0.3,1,0.1,2,0.2,3c0.2,2.1,1.8,3.4,3.5,4.4C-176.1-37.8-174.9-40-176.3-40.8L-176.3-40.8z"/>
	</g>
</g>
<g>
	<path class="st1" d="M-188.3,74.1c-3.2,0-5.8-2.3-5.8-5c0-2.8,2.6-5,5.8-5s5.8,2.3,5.8,5C-182.5,71.8-185.1,74.1-188.3,74.1z"/>
	<path class="st1" d="M-188.3,64.4c3,0,5.4,2.1,5.4,4.6c0,2.5-2.4,4.6-5.4,4.6s-5.4-2.1-5.4-4.6C-193.6,66.5-191.2,64.4-188.3,64.4
		 M-188.3,63.6c-3.4,0-6.2,2.4-6.2,5.4s2.8,5.4,6.2,5.4s6.2-2.4,6.2-5.4S-184.8,63.6-188.3,63.6L-188.3,63.6z"/>
</g>
<g class="st12">
	<g>
		<path class="st1" d="M-194.8-52.5c1.4,0.7,2.9,1.5,4.2,2.3c0.4,0.2,0.7,0.5,1.1,0.7c0.1,0.1,1,0.8,0.5,0.4
			c-0.5-0.4,0.4,0.3,0.5,0.4c0.3,0.3,0.6,0.5,0.9,0.8c0.5,0.5,0.9,1,1.3,1.5c-0.8-0.9,0,0.1,0.1,0.3c0.2,0.3,0.4,0.7,0.6,1
			c0.1,0.1,0.6,1.1,0.3,0.5c-0.3-0.6,0.1,0.3,0.2,0.5c0.1,0.5,0.1,1.2,0.1,0c0-0.3,0.7-1.7,0.2-1c-1.6,2.2-0.3,5.6,1.8,6.9
			c0.1,0,1,0.5,0.9,0.6c-0.5-0.4-0.6-0.4-0.3-0.2c0.1,0.1,0.3,0.2,0.4,0.4c0.2,0.2,0.4,0.5,0.6,0.7c0.2,0.3,0.2,0.2-0.2-0.3
			c0.1,0.1,0.2,0.3,0.3,0.5c0.2,0.3,0.3,0.5,0.5,0.8c0.1,0.2,0.2,0.3,0.2,0.5c0.2,0.3,0.1,0.2-0.2-0.3c0.1,0.1,0.4,1,0.3,1.1
			c0-0.2,0-0.4-0.1-0.6c0.1-0.4,0.2-0.8,0.3-1.2c0.6-0.6,1.2-1.2,1.8-1.8c-1,0.8-2,1.5-2.8,2.6c-0.4,0.6-0.8,1.2-1.1,1.8
			c-0.7,1.2-1.5,2.4-2,3.7c-1.6,3.5-2.2,7-1.6,10.8c1,6.4,5.7,11.2,11.5,13.4c2.5,1,5.6-1.1,6.2-3.5c0.7-2.9-0.9-5.2-3.5-6.2
			c1.2,0.5,0.1,0-0.1-0.1c-0.3-0.2-0.6-0.4-1-0.6c-0.2-0.1-0.4-0.3-0.6-0.4c0.1,0.1,0.3,0.2,0.4,0.3c-0.3-0.1-0.6-0.5-0.8-0.7
			c-0.3-0.3-0.5-0.5-0.8-0.8c-0.8-0.8,0.4,0.7-0.1-0.1c-0.2-0.3-0.4-0.6-0.6-0.9c-0.2-0.4-0.5-0.9-0.2-0.2c-0.4-0.8-0.5-1.7-0.7-2.5
			c0.2,1.2,0-0.1,0-0.4c0-0.4,0-0.9,0-1.3c0-1.1-0.2,0.7,0.1-0.4c0.1-0.4,0.2-0.8,0.3-1.2c0.2-1.1-0.3,0.5,0.2-0.4
			c0.2-0.5,0.5-0.9,0.7-1.4c0.4-0.8,0.9-1.5,1.3-2.2c0.2-0.4,0.5-0.7,0.6-1.1c0.4-0.5,0.1-0.3-0.8,0.8c0.3-0.2,0.6-0.4,0.8-0.6
			c2.4-1.9,2.8-5.1,1.9-7.9c-1.2-3.8-3.8-7.1-7.2-9.1c0.6,2.3,1.2,4.6,1.8,6.9c1.6-2.1,1.4-5.2,0.5-7.5c-0.9-2.4-2.1-4.3-3.8-6.3
			c-2.8-3.3-6.6-5.6-10.4-7.5c-2.4-1.2-5.6-0.7-6.9,1.8C-197.8-57.1-197.3-53.8-194.8-52.5L-194.8-52.5z"/>
	</g>
</g>
<g class="st12">
	<g>
		<path class="st1" d="M-245.2-35.4c0.6-0.4-0.2,0.1-0.4,0.1c0.1,0,1.2-0.3,0.2-0.1c-0.8,0.1-0.1,0.1,0.1,0.1
			c0.5-0.1-0.9-0.2-0.4-0.1c0,0,0.8,0.2,0.8,0.2C-245-35.2-246-35.8-245.2-35.4c0.1,0.2,0.3,0.3,0.5,0.4c0.1,0,0.9,0.6,0.3,0.2
			c-0.6-0.4,0,0.1,0.1,0.2c0.2,0.2,0.4,0.4,0.6,0.6c0.3,0.3,0.7,0.7,1,1c1,0.9,2.1,1.7,3.2,2.4c4.5,2.8,10.4,3.2,15.1,0.4
			c2.3-1.4,3.3-4.6,1.8-6.9c-1.5-2.3-4.5-3.3-6.9-1.8c-0.2,0.1-0.4,0.2-0.6,0.3c-0.9,0.5,0.7-0.2,0.1-0.1c-0.2,0-0.4,0.1-0.7,0.2
			c-0.2,0-0.9,0.1-0.2,0.1c0.8-0.1-0.2,0-0.3,0c-0.2,0-0.5,0-0.7,0c-0.2,0-0.5-0.1-0.7-0.1c1.1-0.1,0.6,0.1,0.2,0
			c-0.5-0.1-1-0.4-1.5-0.5c0.3,0,0.9,0.4,0.3,0.1c-0.2-0.1-0.4-0.2-0.6-0.3c-0.2-0.1-0.4-0.2-0.6-0.4c-0.1-0.1-0.9-0.7-0.3-0.2
			c0.6,0.5,0,0-0.2-0.1c-0.2-0.2-0.4-0.4-0.7-0.6c-1.9-1.8-3.7-3.4-6.2-4.3c-2.7-1-5.9-0.8-8.3,0.7c-2.2,1.4-3.3,4.6-1.8,6.9
			C-250.6-35-247.6-33.9-245.2-35.4L-245.2-35.4z"/>
	</g>
</g>
<g class="st12">
	<g>
		<path class="st1" d="M-236.6-38.6c1.3,0.9,2.6,1.8,3.9,2.7c-0.7-0.5,0.1,0.1,0.3,0.3c0.3,0.2,0.6,0.5,0.8,0.7
			c0.6,0.5,1.2,1.1,1.7,1.6c0.5,0.5,1,1,1.5,1.6c0.1,0.1,0.9,1.2,0.3,0.3c0.2,0.3,0.4,0.6,0.6,0.8c0.4,0.6,0.8,1.3,1.2,2
			c0.2,0.3,0.3,0.6,0.5,0.9c0.2,0.3,0.1,0.2-0.1-0.3c0.1,0.2,0.2,0.4,0.2,0.6c0.3,0.7,0.5,1.4,0.6,2.2c0,0.1,0.2,1.3,0.1,0.5
			c-0.1-0.7,0,0.4,0,0.5c0.1,1.8,0.1,3.6,0.6,5.3c1.2,4.2,4.7,6.3,8.7,7.5c2.5,0.7,5.6-0.9,6.2-3.5c0.6-2.7-0.8-5.4-3.5-6.2
			c-0.4-0.1-0.7-0.2-1.1-0.3c-0.2-0.1-1.1-0.5-0.5-0.2c0.7,0.4-0.4-0.2-0.4-0.3c0.5,0.4,0.6,0.5,0.3,0.2c-0.3-0.3-0.2-0.2,0.2,0.3
			c-0.5-0.7,0,0.5,0,0c0-0.1-0.3-0.9-0.2-0.9c-0.1,0,0.1,1.1,0,0c0-0.3,0-0.7-0.1-1c-0.2-3.6-1-7-2.7-10.2
			c-3.1-5.9-8.6-10.2-14-13.8c-2.2-1.5-5.7-0.5-6.9,1.8C-239.8-43-239-40.2-236.6-38.6L-236.6-38.6z"/>
	</g>
</g>
<g class="st12">
	<g>
		<path class="st1" d="M-132.5-37.7c-0.5,0.6-0.6,0.7-0.2,0.3c-0.6,0.4-0.7,0.5-0.3,0.2c-1.4,0.6,0,0.1,0.3,0c0.6-0.1,0.4-0.1-0.3,0
			c0.2,0,0.5,0,0.7,0c0.5,0,0.9,0,1.4,0c0.6,0.1,0.5,0-0.3-0.1c0.2,0,0.5,0.1,0.7,0.2c0.9,0.2-0.8-0.5,0,0c-0.4-0.2-0.7-0.5-0.9-0.9
			c0.3,0.5,0.3,0.5,0-0.1c0.1,0.6,0.1,0.5,0-0.2c0,0.3,0.1,0.5,0.1,0.8c0.1,1.1,0.2,2.2,0.2,3.2c0,0.2,0,0.4,0,0.6
			c0,0.4,0,0.3,0-0.4c-0.1,0.3-0.1,0.5-0.2,0.8c-0.2,0.5-0.2,0.5,0.1-0.1c-0.1,0.2-0.3,0.5-0.4,0.7c0.4-0.5,0.4-0.5,0,0
			c-0.4,0.4-0.8,0.8-1.1,1.2c-0.9,0.9-1.7,1.9-2.3,3c-2.6,4.5-2.8,10-0.6,14.7c1.9,4.3,6.1,7.5,10.6,8.7c2.6,0.6,5.6-0.8,6.2-3.5
			c0.6-2.6-0.8-5.5-3.5-6.2c-0.4-0.1-0.7-0.2-1.1-0.3c-0.9-0.3,0.7,0.4-0.2-0.1c-0.4-0.2-0.8-0.4-1.1-0.6c0,0-0.5-0.3-0.5-0.3
			c0-0.1,0.8,0.7,0.2,0.1c-0.3-0.3-0.5-0.5-0.8-0.8c-0.1-0.1-0.2-0.3-0.4-0.4c-0.4-0.4,0.3,0.3,0.2,0.3c0,0-0.7-1.1-0.7-1.1
			c0,0-0.2-0.5-0.2-0.5c0.1,0,0.3,1,0.1,0.2c-0.1-0.4-0.2-0.7-0.3-1.1c-0.3-0.9,0,0.8,0-0.2c0-0.4,0-0.8,0-1.1c0-0.1,0.1-0.7,0-0.8
			c0.1,0.1-0.2,1,0,0.2c0.1-0.4,0.2-0.7,0.3-1.1c0.1-0.2,0.1-0.4,0.2-0.5c0.2-0.6-0.1,0.4-0.1,0.3c0,0,0.5-0.9,0.5-1
			c0.1-0.2,0.2-0.3,0.3-0.5c0.3-0.6-0.8,0.9,0-0.1c1.5-1.6,3-3.2,3.8-5.2c0.9-2,1.2-4.2,1.1-6.4c-0.1-2.3-0.3-4.8-1.3-6.9
			c-1.1-2.2-3.3-3.7-5.6-4.3c-4.7-1.2-10.4-0.2-13.2,4.1c-1.4,2.2-0.5,5.7,1.8,6.9C-136.9-34.6-134.1-35.3-132.5-37.7L-132.5-37.7z"
			/>
	</g>
</g>
<g class="st12">
	<g>
		<path class="st1" d="M-116.1-30.7c-0.2,0.4-0.5,0.9-0.8,1.3c0.3-0.3,0.5-0.7,0.8-1c-0.4,0.5-0.9,1-1.4,1.4c0.3-0.3,0.7-0.5,1-0.8
			c-0.6,0.5-1.3,0.9-2.1,1.2c0.4-0.2,0.8-0.3,1.2-0.5c-0.9,0.4-1.8,0.6-2.7,0.8c0.4-0.1,0.9-0.1,1.3-0.2c-0.7,0.1-1.4,0.1-2.2,0.1
			c0.4,0.1,0.9,0.1,1.3,0.2c-0.3,0-0.6-0.1-0.8-0.2c0.4,0.2,0.8,0.3,1.2,0.5c-0.2-0.1-0.5-0.3-0.7-0.4c0.3,0.3,0.7,0.5,1,0.8
			c-0.7-0.6-1.5-1.3-2.3-1.7c-1.6-0.7-3.4-1.1-5-0.6c-1.2,0.4-2.3,1.2-3,2.3c-0.6,1.1-0.9,2.7-0.5,3.9c0.4,1.2,1.2,2.4,2.3,3
			c1.2,0.6,2.6,0.9,3.9,0.5c0.1-0.1,0.2-0.1,0.4-0.1c-0.4,0.1-0.9,0.1-1.3,0.2c0.1,0,0.1,0,0.2,0c-0.4-0.1-0.9-0.1-1.3-0.2
			c0.2,0,0.4,0.1,0.6,0.1c-0.4-0.2-0.8-0.3-1.2-0.5c0.3,0.1,0.5,0.3,0.7,0.4c-0.3-0.3-0.7-0.5-1-0.8c0.9,0.8,1.8,1.5,2.9,2
			c1.2,0.5,2.4,0.7,3.6,0.7c1.6,0,3.3-0.3,4.8-0.8c3.3-1.2,6.3-3.3,7.9-6.5c0.6-1.2,0.9-2.5,0.5-3.9c-0.3-1.2-1.2-2.4-2.3-3
			c-1.2-0.6-2.6-0.9-3.9-0.5C-114.3-32.6-115.6-31.8-116.1-30.7L-116.1-30.7z"/>
	</g>
</g>
<g class="st12">
	<g>
		<path class="st1" d="M-79.1-31.6c-5.6-0.5-10.2,3.9-11.9,8.9c-1.7,4.7-1.5,10.5,0.6,15c0.9,2,2.3,3.7,3.7,5.4
			c0.6,0.7,1.2,1.4,1.7,2.1c0.3,0.3,0.8,0.8,1,1.2c0,0-0.5-0.7-0.2-0.3c0.2,0.3,0.4,0.5,0.6,0.8c0.6,0.8,1,1.7,1.5,2.6
			c0.4,0.8,0.1,0.2,0,0c0.1,0.3,0.2,0.5,0.3,0.8c0.2,0.5,0.4,1.1,0.5,1.6c0.1,0.5,0.2,1,0.3,1.5c0.1,0.4,0.2,1.6,0.1,0.6
			c0.1,1.1,0.1,2.3,0.1,3.4c0.1,1.8,0.4,3.5,1.2,5.2c0.8,1.6,2.1,2.7,3.4,3.7c2.2,1.7,4.8,2.8,7.5,3.6c2.5,0.7,5.6-0.9,6.2-3.5
			c0.6-2.7-0.8-5.4-3.5-6.2c-0.4-0.1-0.9-0.2-1.3-0.4c-0.3-0.1-1.2-0.6-0.4-0.2c-0.9-0.5-1.8-1-2.7-1.5c-0.8-0.5,0.5,0.4-0.2-0.2
			c-0.7-0.7,0.4,0.5-0.2-0.2c0.1,0.1,0.2,0.7,0.1,0.2c0-0.2-0.2-0.4-0.1-0.6c0,0,0,0.9,0.1,0.3c0-0.3,0-0.6,0-0.8
			c-0.1-4.4-0.9-8.5-2.9-12.5c-0.9-1.8-2.1-3.4-3.3-5c-0.5-0.7-1.1-1.3-1.6-1.9C-78.8-8.5-80-9.5-80-10c0,0,0.5,0.7,0.2,0.3
			c-0.1-0.2-0.2-0.3-0.3-0.5c-0.2-0.3-0.4-0.6-0.6-0.9c-0.2-0.4-0.4-0.7-0.6-1.1c0,0-0.2-0.5-0.2-0.5c0.1,0,0.3,1,0.1,0.2
			c-0.1-0.4-0.2-0.7-0.3-1.1c0-0.1-0.2-0.8-0.1-0.2c0.1,0.6,0-0.1,0-0.2c0-1,0-1.9,0-2.9c0-0.3,0.1-0.6,0.1-0.9c0-0.7-0.2,0.8,0,0.1
			c0.1-0.5,0.2-1,0.3-1.5c0.1-0.2,0.2-0.4,0.2-0.6c0.1-0.7-0.4,0.6,0,0c0.1-0.1,0.6-1.3,0.7-1.2c0.1,0-0.7,0.7-0.2,0.3
			c0.2-0.1,0.4-0.4,0.5-0.5c0.4-0.5-0.3,0.3-0.3,0.2c0,0,0.7-0.4,0.8-0.5c0.5-0.3-0.3,0.2-0.4,0.1c0,0,0.7-0.2,0.7-0.2
			c0,0.1-1,0-0.4,0.1c0.3,0,0.6,0,0.9,0c2.6,0.2,5.2-2.5,5-5C-74.2-29.5-76.2-31.3-79.1-31.6L-79.1-31.6z"/>
	</g>
</g>
<g class="st12">
	<g>
		<path class="st1" d="M-80,4.7c3.5,1.2,7.2,1.2,10.7,2.2c0.4,0.1,0.8,0.2,1.2,0.4c0.2,0.1,0.8,0.3,0.1,0c-0.7-0.3,0,0,0.1,0.1
			c0.4,0.2,0.7,0.4,1.1,0.6c0.2,0.1,0.4,0.2,0.6,0.4c-0.1-0.1-0.9-0.7-0.4-0.3c0.3,0.3,0.5,0.5,0.8,0.8c0.5,0.5-0.3-0.4-0.3-0.4
			c0.1,0,0.3,0.4,0.3,0.4c0.1,0.2,0.2,0.4,0.3,0.6c0.3,0.5-0.3-1-0.2-0.5c0.1,0.4,0.2,0.8,0.3,1.2c-0.1-0.4-0.1-0.9-0.2-1.3
			c0,0.4,0.1,0.7,0,1.1c-0.1,2.6,2.4,5.2,5,5c2.8-0.1,5-2.2,5-5c0.1-2.9-1.1-5.5-2.9-7.8c-1.6-2.1-3.9-3.4-6.4-4.3
			c-4-1.6-8.5-1.4-12.6-2.8c-2.5-0.9-5.6,1-6.2,3.5C-84.2,1.3-82.7,3.7-80,4.7L-80,4.7z"/>
	</g>
</g>
<g>
	<g>
		<g>
			<path class="st13" d="M-309.9,58.1c1.4,0.3,2.6,0.1,4-0.3c0.2-0.1,0.4-0.1,0.6-0.1c0.2,0,0.1,0.1,0.2,0.1c0.2,0.2,0.4,0.7,0.7,1
				c0.8,1.1,2,1.6,3.4,1.3c1.3-0.3,2.5-1.2,3.5-2c0.5-0.4,0.5-1.3,0-1.8c-0.5-0.5-1.3-0.4-1.8,0c-0.7,0.6-1.7,1.3-2.6,1.4
				c-0.2,0-0.3-0.2-0.4-0.3c-0.3-0.4-0.5-0.8-0.8-1.2c-0.8-0.9-1.9-1.2-3-1c-0.6,0.1-1.1,0.3-1.6,0.4c-0.5,0.1-1,0.1-1.5-0.1
				C-310.8,55.2-311.4,57.7-309.9,58.1L-309.9,58.1z"/>
		</g>
	</g>
	<g>
		<g>
			<path class="st14" d="M-303.9,58.2c0.9-0.2,1.6-0.7,2.3-1.4c0.3-0.3,0.6-0.7,0.8-1.1c0.1-0.2,0.2-0.5,0.3-0.7
				c0-0.1,0.1-0.2,0.1-0.3c0.1-0.2,0,0.1,0-0.1c0-0.1,0.1-0.2,0.1-0.2c0,0,0,0.1-0.1,0.1c0.1-0.1,0.1-0.1,0,0c0,0-0.2,0.1-0.2,0.1
				c0,0,0.3,0,0.3,0c0.5,0,1,0,1.5-0.1c1.1,0,2.2,0,3-0.8c0.5-0.4,0.5-1.3,0-1.8c-0.5-0.5-1.3-0.5-1.8,0c0.2-0.1-0.1,0,0,0
				c0.1-0.1-0.2,0-0.2,0c0.1,0,0.1,0,0,0c-0.1,0-0.2,0-0.3,0c-0.5,0-1,0-1.4,0.1c-1.1,0-2.2,0-3,1c-0.3,0.4-0.4,0.8-0.6,1.2
				c0,0.1-0.1,0.1-0.1,0.2c0.1-0.2,0,0,0,0.1c-0.1,0.2-0.2,0.3-0.3,0.5c-0.1,0.2,0.2-0.2-0.1,0.1c-0.1,0.1-0.1,0.1-0.2,0.2
				c-0.1,0.1-0.1,0.1-0.2,0.2c-0.1,0.1,0.1-0.1-0.1,0c-0.2,0.1-0.3,0.2-0.5,0.3c-0.1,0.1-0.1,0,0,0c-0.1,0-0.2,0.1-0.3,0.1
				c-0.6,0.2-1.1,0.9-0.9,1.5C-305.2,58-304.6,58.4-303.9,58.2L-303.9,58.2z"/>
		</g>
	</g>
</g>
<g>
	<g>
		<path class="st13" d="M-295.6,28.3c0.6,0.6,1.2,1.2,1.8,1.7c0.6,0.5,1.2,1,1.7,1.7c0.3,0.4,0.3,1.2,0.4,1.7
			c0.2,0.8,0.5,1.5,0.8,2.3c0.6,1.4,1.1,3.1,2.7,3.6c0.7,0.2,1.5,0.2,2.2,0.2c0.9,0,1.8-0.1,2.7-0.2c0.7-0.1,1-1,0.9-1.5
			c-0.2-0.7-0.9-1-1.5-0.9c-0.7,0.1-1.4,0.1-2.1,0.1c-0.4,0-1.1,0.1-1.4-0.2c-0.2-0.1-0.3-0.4-0.4-0.6c-0.2-0.3-0.3-0.7-0.5-1
			c-0.3-0.6-0.5-1.2-0.7-1.8c-0.2-0.6-0.3-1.2-0.4-1.9c-0.1-0.7-0.5-1.3-1-1.8c-1.1-1.1-2.2-2.1-3.3-3.2
			C-295,25.4-296.8,27.2-295.6,28.3L-295.6,28.3z"/>
	</g>
</g>
<g>
	<g>
		<path class="st13" d="M-289.5,37.3C-289.6,37.5-289.5,37.5-289.5,37.3c0,0.1,0,0.2,0,0.2c0,0.2-0.1,0.3-0.1,0.4
			c0.1-0.2,0,0.1-0.1,0.1c-0.1,0.1-0.2,0.3-0.2,0.4c0.1-0.2-0.1,0.1-0.1,0.1c-0.1,0.1-0.2,0.2-0.3,0.3c-0.1,0.1-0.1,0.1,0,0
			c-0.1,0.1-0.1,0.1-0.2,0.1c-0.1,0.1-0.2,0.1-0.3,0.2c-0.1,0-0.2,0.1-0.2,0.1c0.1,0,0.1,0-0.1,0c-0.1,0-0.2,0.1-0.4,0.1
			c-0.2,0-0.3,0.1-0.5,0.1c0,0-0.5,0.1-0.3,0.1c-0.6,0.1-1.2,0.1-1.8,0.5c-0.7,0.5-1.1,1.3-0.8,2.1c0.2,0.8,1,1.2,1.7,1.7
			c1.2,0.8,2.4,1.5,3.6,2.1c0.6,0.3,1.4,0.2,1.7-0.5c0.3-0.6,0.2-1.4-0.5-1.7c-1.2-0.6-2.3-1.3-3.4-2c-0.3-0.2-0.6-0.4-0.9-0.6
			c-0.2-0.1,0.1,0.1-0.1-0.1c0.3,0.4,0.1,0.5,0,0.9c-0.1,0.1-0.1,0.1,0,0c-0.1,0.1-0.1,0.1,0,0.1c-0.2,0.1-0.1,0,0.1,0
			c0.1,0,0.1,0,0.2,0c-0.2,0-0.2,0-0.1,0c0.2,0,0.4-0.1,0.7-0.1c2.6-0.4,4.8-2.1,5-4.9c0-0.7-0.6-1.3-1.3-1.3
			C-289,36.1-289.5,36.6-289.5,37.3L-289.5,37.3z"/>
	</g>
</g>
<g>
	<g>
		<g>
			<path class="st13" d="M-227.2,39.2c-0.7,1.2-1.5,2.5-2.6,3.5c-0.9,0.8-1.9,1.2-3,1.5c-2.3,0.7-4.4,1.3-5.8,3.3
				c-1.3,1.9-1.7,4.3-2.4,6.5c-0.3,1-0.7,2-1.4,2.8c-0.9,0.9-2.1,0.8-3.2,0.4c-1.5-0.5-2.2,1.9-0.7,2.4c2.7,0.9,5.3,0.1,6.7-2.5
				c1.3-2.3,1.4-4.9,2.5-7.3c1.2-2.5,3.5-2.7,5.8-3.6c2.9-1,4.7-3.3,6.2-5.9C-224.2,39.1-226.3,37.8-227.2,39.2L-227.2,39.2z"/>
		</g>
	</g>
	<g>
		<g>
			<path class="st13" d="M-242.8,58.3c-0.8-3-3-6.2-6.4-6.7c-0.7-0.1-1.5-0.1-2.2,0.2c-0.9,0.3-1.7,0.7-2.5,1c0,0-0.5,0.1-0.5,0.1
				c0.1,0.3,0.2,0.1,0.3,0.1c0,0-0.3-1.3-0.3-1.4c-0.2-1.1-0.4-2.2-0.6-3.4c-0.1-0.7-0.9-1-1.5-0.9c-0.7,0.2-1,0.9-0.9,1.5
				c0.2,1.1,0.4,2.2,0.6,3.4c0.2,0.9,0.2,1.9,0.9,2.6c1.6,1.6,3.9-0.2,5.5-0.6c0.2-0.1,0.4-0.1,0.7-0.1c0.3,0,0.4,0,0.8,0.1
				c0.5,0.1,1,0.5,1.4,0.8c1.2,1,1.9,2.4,2.3,3.9C-244.7,60.5-242.3,59.8-242.8,58.3L-242.8,58.3z"/>
		</g>
	</g>
	<g>
		<g>
			<path class="st13" d="M-253.7,53c-1.2,1.6-1.3,3.7-1.9,5.6c0,0-0.1,0.3-0.1,0.2c0.1-0.1-0.1,0.2-0.1,0.2
				c-0.1,0.2-0.2,0.4-0.3,0.5c0.1-0.1-0.1,0.1-0.1,0.1c-0.1,0.1-0.2,0.2-0.3,0.2c0.2-0.2-0.1,0-0.1,0.1c-0.1,0.1-0.2,0.1-0.3,0.2
				c-0.1,0-0.1,0,0.1,0c-0.1,0-0.1,0-0.2,0.1c-0.1,0-0.2,0.1-0.4,0.1c-0.1,0-0.2,0-0.3,0.1c0.3-0.1,0,0-0.1,0c-0.5,0-0.9,0-1.4,0
				c-0.7,0-1.3,0.6-1.3,1.3c0,0.7,0.6,1.2,1.3,1.3c1,0,2.1,0,3.1-0.4c1.2-0.5,2.1-1.4,2.6-2.5c0.5-1,0.7-2.1,1-3.2
				c0.1-0.5,0.3-1,0.4-1.5c0-0.1,0.1-0.2,0.1-0.3c-0.1,0.3,0.1-0.1,0.1-0.2c0.1-0.2,0.2-0.4,0.4-0.6c0.4-0.5,0.1-1.4-0.5-1.7
				C-252.6,52.2-253.3,52.4-253.7,53L-253.7,53z"/>
		</g>
	</g>
</g>
<g>
	<g>
		<path class="st13" d="M-273,16.5c-1,1.9-0.8,4,0,5.9c0.9,2,2.6,3.5,4,5.1c1.6,1.9,2.2,3.8,1.4,6.2c-0.8,2.3-1.8,4.6-2.5,6.9
			c-0.4,1.6,2,2.2,2.4,0.7c0.6-2.3,1.6-4.4,2.4-6.6c0.8-2.1,0.9-4.3,0-6.3c-0.9-1.9-2.4-3.2-3.8-4.7c-1.4-1.5-2.8-3.8-1.7-5.9
			C-270.1,16.4-272.3,15.1-273,16.5L-273,16.5z"/>
	</g>
</g>
<g>
	<g>
		<path class="st13" d="M-267.5,34c-0.4,1.2,0.1,2.5,1,3.3c0.4,0.4,0.8,0.6,1.1,0.9c0.4,0.3,0.5,0.6,0.7,0.9
			c0.6,1.9,0.4,4.5,2.5,5.4c0.6,0.3,1.4,0.2,1.7-0.5c0.3-0.5,0.2-1.4-0.5-1.7c0,0-0.3-0.2-0.2-0.1c0.1,0.1-0.1-0.1-0.1-0.1
			c0,0-0.2-0.2-0.1-0.1c0-0.1-0.1-0.1-0.1-0.2c-0.1-0.2-0.2-0.6-0.3-1c-0.2-0.9-0.2-1.8-0.6-2.6c-0.4-1.1-1-1.7-1.9-2.4
			c-0.2-0.1-0.2-0.2-0.4-0.3c-0.1-0.1-0.1-0.1-0.2-0.2c-0.3-0.3,0,0.1-0.1-0.1c-0.1-0.2-0.2-0.3-0.2-0.4c0-0.1,0-0.2,0-0.1
			c0-0.3,0,0.1,0.1-0.2c0.2-0.6-0.3-1.4-0.9-1.5C-266.7,33-267.3,33.4-267.5,34L-267.5,34z"/>
	</g>
</g>
<g>
	<g>
		<path class="st11" d="M-228.5,62.9c0.6-0.1,1.5,0.5,2.1,0.5c0.9,0.1,1.7-0.1,2.5-0.5c1.6-0.8,2.5-2.5,4.1-3.2
			c0.7-0.3,1.4-0.3,2.1-0.2c0.8,0.2,1.4,0.8,2.1,1.1c1.5,0.7,3.3,0.6,4.2-0.9c0.9-1.4-1.3-2.6-2.2-1.3c-0.2,0.3-0.8-0.1-1.1-0.2
			c-0.7-0.4-1.3-0.8-2-1.1c-1.5-0.5-3.2-0.4-4.6,0.4c-1.4,0.8-2.3,2.2-3.7,3c-0.7,0.4-1.2,0.3-1.9,0.1c-0.8-0.3-1.5-0.4-2.3-0.2
			C-230.7,60.8-230.1,63.2-228.5,62.9L-228.5,62.9z"/>
	</g>
</g>
<g>
	<g>
		<path class="st11" d="M-216.2,59.4c0.7-0.6,1.2-1.3,1.6-2.1c0.3-0.6,0.7-1.3,1.3-1.8c1.2-0.8,2.9-0.8,4.3-1.1
			c1.8-0.5,3.2-1.5,3.9-3.2c0.7-1.7,0.6-3.5,1.3-5.2c0.3-0.6-0.3-1.4-0.9-1.5c-0.7-0.2-1.3,0.2-1.5,0.9c-0.7,1.6-0.6,3.4-1.3,5
			c-0.6,1.3-1.9,1.6-3.2,1.8c-1.6,0.3-3.1,0.5-4.4,1.6c-1.3,1.1-1.6,2.9-2.9,3.9c-0.5,0.4-0.4,1.3,0,1.8
			C-217.4,60-216.7,59.9-216.2,59.4L-216.2,59.4z"/>
	</g>
</g>
<g>
	<g>
		<path class="st15" d="M-219.1,74.5c0-0.2-0.1-0.4-0.1-0.6c0-0.1-0.1-0.2-0.1-0.3c0,0-0.1-0.3,0-0.2c0,0.1,0,0.1,0-0.1
			c0,0,0,0.1,0,0.1c0-0.1,0-0.2,0,0c0-0.1,0.1-0.1,0.1-0.2c-0.1,0.2,0,0.1,0,0c0.1-0.1-0.2,0.1,0,0c0.1,0,0.2-0.1,0.2-0.1
			c0.1-0.1,0.1,0,0,0c0.1,0,0.1,0,0.2-0.1c0.4-0.1,0.8-0.2,1.2-0.4c1.7-0.5,3.4-1,5.1-1.5c0.6-0.2,1.1-0.9,0.9-1.5
			c-0.2-0.6-0.9-1.1-1.5-0.9c-2,0.6-4,1.2-6,1.8c-0.9,0.3-1.7,0.7-2.2,1.4c-0.3,0.4-0.4,1-0.4,1.5c0.1,0.5,0.2,1,0.4,1.6
			c0.1,0.6,0.9,1.1,1.5,0.9C-219.3,75.8-219,75.2-219.1,74.5L-219.1,74.5z"/>
	</g>
</g>
<g>
	<g>
		<path class="st11" d="M-215.2,70.8c-0.1-0.1-0.1-0.3-0.1-0.4C-215.3,70.5-215.3,70.6-215.2,70.8c-0.1-0.2-0.1-0.4-0.1-0.5
			c0,0.1,0,0.2,0,0.3c0-0.2,0.1-0.3,0.1-0.5c0,0.1-0.1,0.2-0.1,0.3c0.1-0.1,0.1-0.2,0.2-0.4c-0.1,0.1-0.1,0.2-0.2,0.3
			c0.1-0.1,0.2-0.2,0.3-0.3c-0.1,0.1-0.2,0.1-0.3,0.2c0,0,0,0,0,0c0.1-0.1,0.3-0.2,0.4-0.3c0.1-0.1,0.2-0.3,0.2-0.4
			c0.1-0.3,0-0.7-0.1-1c-0.2-0.3-0.4-0.5-0.8-0.6c-0.3-0.1-0.7-0.1-1,0.1c-0.2,0.1-0.3,0.2-0.5,0.4c-0.1,0.1-0.2,0.3-0.3,0.4
			c-0.1,0.1-0.1,0.2-0.1,0.3c-0.1,0.2-0.2,0.4-0.2,0.6c-0.1,0.2-0.1,0.4-0.1,0.6c0,0.1,0,0.2,0,0.3c0,0.2,0,0.4,0.1,0.6
			c0,0.1,0.1,0.2,0.1,0.3c0,0.2,0.1,0.3,0.2,0.4c0.1,0.1,0.2,0.2,0.4,0.3c0.3,0.2,0.7,0.2,1,0.1c0.3-0.1,0.6-0.3,0.8-0.6
			c0-0.1,0.1-0.2,0.1-0.3C-215.1,71.2-215.1,71-215.2,70.8L-215.2,70.8z"/>
	</g>
</g>
<g>
	<g>
		<path class="st11" d="M-197.6,33.5c0.3,2.7,2.7,3.4,4.4,5.1c1.8,1.7,2.9,4.1,3.3,6.6c0.2,1.2-0.2,2.7,0.6,3.7
			c0.9,1,2.4,0.7,3.6,0.8c3.1,0.1,6.2,0.9,9,2.2c1.5,0.7,2.7-1.5,1.3-2.2c-2.6-1.2-5.3-2-8.1-2.3c-0.7-0.1-1.3-0.1-2-0.2
			c-0.4,0-1.7,0.2-1.9,0c0.3,0.2,0.1-0.3,0.1-0.5c0-0.3,0-0.6,0-0.9c0-0.6-0.1-1.2-0.2-1.7c-0.4-2.3-1.5-4.4-3-6.2
			c-0.7-0.9-1.5-1.6-2.5-2.2c-0.7-0.5-2-1.1-2.1-2C-195.2,31.9-197.8,31.9-197.6,33.5L-197.6,33.5z"/>
	</g>
</g>
<g>
	<g>
		<path class="st11" d="M-185.7,49.3c0.1,1,0.5,1.9,1,2.8c0.5,0.8,1.2,1.5,1.8,2.2c0.3,0.3,0.5,0.5,0.7,0.9c0.1,0.2,0.2,0.3,0.3,0.5
			c-0.1-0.1,0,0,0,0.1c0,0.1,0.1,0.2,0.1,0.3c0,0.1,0.1,0.2,0.1,0.3c0,0.2,0-0.2,0,0.1c0,0.2,0,0.4,0,0.6c0-0.2-0.1,0.2-0.1,0.3
			c0.1-0.2,0,0-0.1,0.1c-0.1,0.2,0.2-0.2-0.1,0.1c-0.5,0.5-0.5,1.3,0,1.8c0.5,0.5,1.3,0.5,1.8,0c1.4-1.5,1.1-3.9-0.1-5.5
			c-0.6-0.8-1.3-1.5-2-2.3c-0.6-0.7-0.9-1.6-1.1-2.6c-0.1-0.7-1-1-1.5-0.9C-185.5,48-185.8,48.6-185.7,49.3L-185.7,49.3z"/>
	</g>
</g>
<g>
	<g>
		<g>
			<path class="st11" d="M-137.5,81.3c-3.6-1.2-7.5-1.3-11.3-1.2c-0.9,0-1.9-0.1-2.8,0c-0.1,0-0.1,0-0.2,0c-0.2-0.1-0.2,0.1,0.2,0.4
				c0,0,0-0.3,0.1-0.4c0.1-0.4,0.1-0.9,0.1-1.3c0-1.9-0.7-3.8-1.8-5.4c-0.9-1.3-3.1-0.1-2.2,1.3c1.1,1.6,1.7,3.4,1.4,5.4
				c-0.1,0.9,0.1,1.7,0.9,2.2c0.9,0.5,1.9,0.4,2.9,0.4c4-0.1,8.2-0.2,12,1.1C-136.6,84.2-135.9,81.8-137.5,81.3L-137.5,81.3z"/>
		</g>
	</g>
	<g>
		<g>
			<path class="st11" d="M-152.9,78.2c1.1,0.2,2.2,0.2,3.2-0.1c1-0.3,2-0.9,2.3-1.9c0.4-1.3-0.5-2.4-1.5-3c-0.5-0.3-1-0.6-1.6-0.8
				c-0.1,0-0.2-0.1-0.3-0.1c-0.2-0.1,0.2,0.1,0,0c-0.1,0-0.1-0.1-0.2-0.1c0,0-0.3-0.1-0.3-0.2c0,0,0.2,0.2,0.1,0
				c-0.1-0.1,0.1,0.1,0.1,0.1c0.2,0.3,0.1,0.2,0.1,0.1c0,0.1,0,0.2,0,0.3c0,0.1,0,0.2,0,0.1c0-0.1-0.1,0.3-0.1,0.1
				c0.1-0.2,0.1,0-0.1,0.1c0,0,0.2-0.2,0.2-0.2c0,0.1-0.2,0.1-0.1,0.1c0.1,0,0.1-0.1,0.2-0.1c0.2-0.1,0.5-0.3,0.7-0.4
				c0,0,0.2-0.1,0,0c0.1,0,0.1-0.1,0.2-0.1c0.2-0.1,0.3-0.1,0.5-0.2c0.6-0.2,1.1-0.9,0.9-1.5c-0.2-0.6-0.9-1.1-1.5-0.9
				c-1,0.3-2.1,0.8-2.9,1.5c-0.5,0.5-0.7,1.1-0.5,1.8c0.1,0.6,0.6,1,1.1,1.3c0.3,0.2,0.6,0.3,0.9,0.4c0,0,0.1,0,0.1,0.1
				c0,0,0.2,0.1,0.1,0c-0.1-0.1,0,0,0,0c0.1,0,0.2,0.1,0.2,0.1c0.2,0.1,0.4,0.2,0.6,0.4c0.1,0,0.1,0.1,0.2,0.1
				c0.1,0.1-0.1,0-0.1-0.1c0,0,0.3,0.3,0.3,0.3c0.2,0.2-0.1-0.2,0,0c0,0,0.1,0.1,0.1,0.1c0,0-0.1-0.3-0.1-0.1c0,0,0,0.1,0,0.1
				c0,0.1,0-0.2,0-0.2c0,0.2,0-0.1,0-0.1c0,0,0,0.1,0,0.1c0-0.2,0.1-0.3,0.1-0.2c-0.1,0.1,0-0.1,0.1-0.1c0,0-0.1,0.1-0.1,0.1
				c-0.2,0.2,0.2-0.1,0,0c-0.1,0-0.2,0.1-0.2,0.1c0,0-0.1,0-0.1,0.1c-0.2,0.1,0.2-0.1,0,0c-0.1,0-0.2,0.1-0.3,0.1
				c-0.2,0.1-0.5,0.1-0.7,0.2c0,0,0.3,0,0.1,0c-0.1,0-0.2,0-0.2,0c-0.1,0-0.2,0-0.4,0c-0.1,0-0.1,0-0.2,0c0,0-0.3,0-0.1,0
				c0.2,0,0,0,0,0c-0.1,0-0.2,0-0.3-0.1c-0.6-0.2-1.4,0.2-1.5,0.9C-154,77.3-153.6,78-152.9,78.2L-152.9,78.2z"/>
		</g>
	</g>
</g>
<g>
	<g>
		<path class="st15" d="M-136.4,58c-1.1,0.5-2.6-0.6-3.6-1.1c-1.3-0.6-2.8-1-4.2-0.5c-1.3,0.4-2.4,1.3-3.5,2c-1,0.6-2.2,1.2-3.2,0.4
			c-0.5-0.4-1.4-0.1-1.7,0.5c-0.4,0.7-0.1,1.3,0.5,1.7c1.2,0.9,2.9,0.9,4.3,0.4c1.5-0.6,2.6-1.7,4.1-2.4c1.5-0.7,2.6,0.1,3.9,0.7
			c1.6,0.8,3.2,1.2,4.8,0.4C-133.6,59.5-134.9,57.3-136.4,58L-136.4,58z"/>
	</g>
</g>
<g>
	<path class="st4" d="M-139.5,86.9l-7.5,5.4c-10.5,7.6-22.9,11.7-35.5,11.8c-3.9,0-7.4,0-9.6-0.2l-0.4,0c-5.4-0.4-10.8-1.8-15.8-4.2
		l-0.6-0.3c-8.6-4.1-15.2-11.9-18.3-21.6l-2.4-7.5c8.9,3.9,20,9.4,28.9,13.4"/>
	<g>
		<path class="st1" d="M-140.1,85.9c-3.5,2.5-7,5.2-10.6,7.5c-7.8,5-16.7,8.2-25.9,9.2c-4.5,0.5-9.1,0.4-13.7,0.3
			c-4.3-0.2-8.5-0.8-12.6-2.2c-7.7-2.6-14.5-7.3-18.9-14.2c-3.2-5-4.8-10.7-6.6-16.3c-0.6,0.5-1.2,0.9-1.9,1.4
			c9.7,4.3,19.2,9.1,28.9,13.4c1.5,0.6,2.8-1.5,1.3-2.2c-9.7-4.3-19.2-9.1-28.9-13.4c-0.9-0.4-2.2,0.3-1.9,1.4
			c1.6,4.9,2.9,9.9,5.4,14.5c3.9,7.1,9.9,12.7,17.3,16c8.7,3.9,18.1,4.5,27.5,4.1c9.4-0.4,18.7-3,27.1-7.5c5.2-2.8,9.9-6.4,14.7-9.9
			C-137.5,87.1-138.8,84.9-140.1,85.9L-140.1,85.9z"/>
	</g>
</g>
<g>
	<g>
		<path class="st11" d="M-145.9,58c-0.1-0.1-0.3-0.1-0.4-0.2c0,0-0.1-0.1-0.1-0.1c0.2,0.1,0.1,0.1,0,0c-0.1-0.1-0.2-0.2-0.3-0.3
			c-0.2-0.2,0.1,0.1,0,0c0-0.1-0.1-0.1-0.1-0.2c-0.1-0.1-0.1-0.2-0.2-0.4c-0.1-0.1,0.1,0.2,0,0c0-0.1,0-0.1-0.1-0.2
			c0-0.1,0-0.4-0.1-0.4c0.1,0,0,0.3,0,0c0-0.1,0-0.2,0-0.2c0-0.1,0-0.1,0-0.2c0,0,0-0.3,0-0.1c0,0.2,0-0.1,0-0.1c0-0.1,0-0.1,0-0.2
			c0-0.1,0.1-0.3,0.1-0.4c0,0.1-0.1,0.2,0,0.1c0-0.1,0.1-0.1,0.1-0.2c0-0.1,0.1-0.1,0.1-0.2c0,0,0.2-0.2,0.1-0.1
			c-0.1,0.1,0.1-0.1,0.1-0.1c0,0,0.1-0.1,0.1-0.1c0.1-0.1,0.1-0.1,0.2-0.1c0.1-0.1-0.2,0.2,0,0c0.1-0.1,0.2-0.2,0.4-0.2
			c0.6-0.3,0.8-1.2,0.5-1.7c-0.4-0.6-1.1-0.8-1.7-0.5c-1.5,0.8-2.5,2.5-2.4,4.1c0,1.7,1,3.4,2.5,4.1c0.6,0.3,1.4,0.2,1.7-0.5
			C-145.2,59.2-145.3,58.3-145.9,58L-145.9,58z"/>
	</g>
</g>
<g>
	<g>
		<path class="st11" d="M-164.3,34.3c0,2.1,0.7,4.1,2.1,5.6c0.6,0.7,1.5,1.3,1.8,2.2c0.4,0.9-0.1,1.3-0.8,1.8
			c-0.7,0.6-1.2,1.3-1.3,2.2c-0.1,1.1,0.4,2,0.9,3c0.8,1.7,1.9,3.3,3.8,4c1.5,0.5,2.2-1.9,0.7-2.4c-1.3-0.5-2.1-2.3-2.6-3.6
			c-0.3-0.9-0.1-1,0.6-1.6c0.6-0.5,1.1-1.2,1.3-2c0.4-1.8-0.6-3.4-1.8-4.6c-1.3-1.4-2.2-2.7-2.1-4.6
			C-161.7,32.7-164.3,32.7-164.3,34.3L-164.3,34.3z"/>
	</g>
</g>
<g>
	<g>
		<path class="st15" d="M-157.1,46.4c0,0.1-0.1,0.2-0.2,0.3C-157.2,46.7-157.1,46.6-157.1,46.4c-0.1,0.1-0.1,0.2-0.2,0.3
			c0.1-0.1,0.2-0.1,0.3-0.2c-0.2,0.1-0.4,0.2-0.6,0.3c0.1,0,0.2-0.1,0.3-0.1c-0.5,0.2-1.1,0.4-1.6,0.7c-0.3,0.2-0.5,0.4-0.8,0.6
			c-0.3,0.3-0.5,0.7-0.6,1.1c-0.1,0.3-0.1,0.7,0.1,1c0.2,0.3,0.5,0.5,0.8,0.6c0.3,0.1,0.7,0.1,1-0.1c0.3-0.2,0.5-0.4,0.6-0.8
			c0-0.1,0-0.2,0.1-0.3c0,0.1-0.1,0.2-0.1,0.3c0-0.1,0.1-0.2,0.2-0.3c-0.1,0.1-0.1,0.2-0.2,0.3c0.1-0.1,0.2-0.2,0.3-0.3
			c-0.1,0.1-0.2,0.1-0.3,0.2c0.2-0.1,0.4-0.3,0.6-0.3c-0.1,0-0.2,0.1-0.3,0.1c0.5-0.2,1-0.3,1.4-0.6c0.5-0.3,1-0.7,1.3-1.2
			c0.1-0.1,0.1-0.3,0.1-0.5c0-0.2,0-0.3,0-0.5c-0.1-0.3-0.3-0.6-0.6-0.8c-0.3-0.2-0.6-0.2-1-0.1C-156.6,46-157,46.2-157.1,46.4
			L-157.1,46.4z"/>
	</g>
</g>
<path class="st16" d="M-138,83.4"/>
<g>
	<g>
		<path class="st1" d="M-200.7,85c9.8,1.5,19.8,1.6,29.7,2.1c10,0.5,20.1,1.2,30.1,1.9c1.6,0.1,1.6-2.4,0-2.5
			c-9.9-0.7-19.7-1.3-29.6-1.8c-9.8-0.5-19.8-0.6-29.5-2.1C-201.6,82.4-202.3,84.8-200.7,85L-200.7,85z"/>
	</g>
</g>
<g>
	<g>
		<path class="st1" d="M-226.8,80.6c3.9,1.2,7.4,3.8,10.9,5.9c3.8,2.3,7.6,4.6,11.3,6.9c1.4,0.8,2.7-1.3,1.3-2.2
			c-3.9-2.4-7.8-4.7-11.7-7.1c-3.6-2.2-7.1-4.7-11.1-5.9C-227.7,77.6-228.3,80.1-226.8,80.6L-226.8,80.6z"/>
	</g>
</g>
<g>
	<g>
		<path class="st1" d="M-210.5,89c10.4-0.6,20.5,0.7,30.6,3.2c9.5,2.4,19.2,5.3,29.1,3.7c1.6-0.3,0.9-2.7-0.7-2.4
			c-9.9,1.6-19.7-1.7-29.2-4.1c-9.8-2.4-19.8-3.5-29.9-3C-212.1,86.5-212.1,89-210.5,89L-210.5,89z"/>
	</g>
</g>
<g>
	<g>
		<path class="st1" d="M-204.4,93.4c2,0.2,3.7,1.3,5.3,2.3c1.7,1.1,3.5,2.2,5.3,3.2c3.6,2.1,7.3,4.1,11.1,6c1.4,0.7,2.7-1.5,1.3-2.2
			c-4-2-7.9-4.1-11.8-6.4c-3.4-2-7-5.1-11.1-5.4C-206,90.7-206,93.3-204.4,93.4L-204.4,93.4z"/>
	</g>
</g>
<g>
	<g>
		<path class="st1" d="M-228.6,72.6c5.1,2.5,10.1,5.2,15.2,7.5c4.7,2.2,9.5,4.8,14.7,5.5c1.6,0.2,1.6-2.3,0-2.5
			c-2.6-0.3-5-1.3-7.4-2.4c-2.3-1-4.6-2.1-6.9-3.2c-4.8-2.3-9.6-4.7-14.4-7.1C-228.8,69.7-230,71.9-228.6,72.6L-228.6,72.6z"/>
	</g>
</g>
<g>
	<g>
		<path class="st1" d="M-174.8,123.9c1.6,0,1.6-2.5,0-2.5C-176.4,121.4-176.4,123.9-174.8,123.9L-174.8,123.9z"/>
	</g>
</g>
<path class="st16" d="M-306.2,83.4"/>
<path class="st17" d="M-226.8,81.6c-0.6,1.6-1.7,3.8-3.3,6.2c-1.2,1.8-3.7,5-8.9,8.7c-7,4.9-13.8,7.2-17.9,8.2c-4,1-12.2,3.1-22.6,1
	c-1.8-0.4-3.7-1.1-5.6-2.1c-6.9-3.5-12.7-9.2-16.9-16.1c-1.5-2.5-3.1-5-5.3-8.5"/>
<g>
	<g>
		<path class="st1" d="M-306.6,80.3c1.6,0,1.6-2.5,0-2.5C-308.2,77.8-308.2,80.3-306.6,80.3L-306.6,80.3z"/>
	</g>
</g>
<g>
	<g>
		<path class="st1" d="M-307.4,80.8c5.4,0.9,11.1,0.6,16.5,0.8c4.9,0.2,9.9,0.4,14.8,0.5c8.6,0.2,17.2,0.1,25.8,0.3
			c7.1,0.1,14.2,0.2,21.4,0.1c1.6,0,1.6-2.5,0-2.5c-11.1,0.2-22.2-0.2-33.3-0.3c-8.8,0-17.6-0.2-26.5-0.5c-2.7-0.1-5.3-0.2-8-0.2
			c-3.4-0.1-6.8,0-10.1-0.6C-308.3,78.1-309,80.5-307.4,80.8L-307.4,80.8z"/>
	</g>
</g>
<g>
	<g>
		<path class="st1" d="M-306,81c4.8,1.9,9.7,3.8,14.7,5.1c5,1.2,10.1,1.5,15.2,1.1c5.2-0.4,10.3-0.9,15.5-1c5.2-0.1,10.4,0,15.6-0.1
			c5.7-0.2,11.5-0.8,17-2.3c1.6-0.4,0.9-2.9-0.7-2.4c-9.8,2.6-20,2.2-30,2.3c-5.1,0-10.1,0.4-15.2,0.8c-5.2,0.4-10.2,0.5-15.3-0.6
			c-5.5-1.2-10.8-3.3-16.1-5.4C-306.8,78-307.5,80.4-306,81L-306,81z"/>
	</g>
</g>
<g>
	<g>
		<path class="st1" d="M-280.3,85.4c-6.6,3.8-14.4,2.6-21.4,1.1c-1.6-0.3-2.3,2.1-0.7,2.4c7.8,1.7,16.2,2.8,23.4-1.3
			C-277.7,86.8-278.9,84.6-280.3,85.4L-280.3,85.4z"/>
	</g>
</g>
<g>
	<g>
		<path class="st1" d="M-296.7,95.5c10.2,0.1,19.7,3.9,29.8,4.8c2.1,0.2,4.3,0.5,6.4,0c1.6-0.3,3.1-1,4.6-1.7
			c3.4-1.6,6.6-3.7,10.1-5c2-0.8,3.8-0.9,5.9-0.5c2.5,0.5,4.7,0.7,7-0.6c1.4-0.8,0.1-3-1.3-2.2c-2.1,1.2-4.2,0.4-6.4,0.1
			c-1.8-0.3-3.5-0.2-5.2,0.4c-3.4,1.1-6.6,3.1-9.8,4.7c-1.5,0.8-3.1,1.6-4.8,2.1c-1.8,0.5-3.5,0.4-5.4,0.3c-5-0.4-9.8-1.5-14.6-2.6
			c-5.4-1.2-10.9-2.3-16.5-2.3C-298.3,92.9-298.3,95.4-296.7,95.5L-296.7,95.5z"/>
	</g>
</g>
<g>
	<g>
		<path class="st15" d="M-295.6,78.6c0-0.4-0.1-0.8-0.2-1.2c-0.1-0.3,0,0.3,0,0c0-0.1,0-0.1,0-0.2c0-0.2,0-0.1,0,0
			c0-0.1,0-0.2,0-0.2c0.1-0.2-0.1,0.2,0,0.1c0,0,0.1-0.1,0.1-0.1c0.1-0.1-0.2,0.2-0.1,0.1c0,0,0.1-0.1,0.1-0.1
			c0.1-0.1-0.2,0.1-0.1,0.1c0,0,0.1-0.1,0.1-0.1c0.1,0,0.2-0.1,0.3-0.1c1.3-0.6,2.5-1.2,3.8-1.8c0.6-0.3,0.8-1.2,0.5-1.7
			c-0.4-0.6-1.1-0.8-1.7-0.5c-0.7,0.3-1.4,0.7-2.1,1c-0.6,0.3-1.3,0.6-1.9,0.9c-0.7,0.4-1.2,1-1.4,1.7c-0.1,0.4-0.1,0.8-0.1,1.2
			c0,0.3,0.1,0.5,0.1,0.8c0,0.1,0,0.2,0.1,0.3c0,0.1,0.1,0.4,0,0.1c0,0.3,0.1,0.6,0.4,0.9c0.2,0.2,0.6,0.4,0.9,0.4
			C-296.2,79.8-295.5,79.3-295.6,78.6L-295.6,78.6z"/>
	</g>
</g>
<g>
	<g>
		<path class="st15" d="M-293.2,74.5c0-0.1,0-0.2-0.1-0.3C-293.2,74.3-293.2,74.4-293.2,74.5c0-0.2,0-0.4,0-0.7c0,0.1,0,0.2,0,0.3
			c0-0.2,0.1-0.4,0.2-0.6c0,0.1-0.1,0.2-0.1,0.3c0-0.1,0.1-0.2,0.2-0.3c-0.1,0.1-0.1,0.2-0.2,0.3c0,0,0,0,0-0.1
			c0.1-0.1,0.2-0.2,0.3-0.4c0.1-0.2,0.1-0.3,0.1-0.5c0-0.3-0.1-0.7-0.4-0.9c-0.2-0.2-0.6-0.4-0.9-0.4c-0.3,0-0.7,0.1-0.9,0.4
			c-0.1,0.1-0.2,0.3-0.3,0.4c-0.1,0.2-0.2,0.3-0.2,0.5c-0.1,0.2-0.1,0.4-0.2,0.5c-0.1,0.6-0.1,1.2,0,1.8c0.1,0.3,0.3,0.6,0.6,0.8
			c0.3,0.2,0.7,0.2,1,0.1c0.3-0.1,0.6-0.3,0.8-0.6C-293.1,75.2-293.1,74.8-293.2,74.5L-293.2,74.5z"/>
	</g>
</g>
</svg>
