<?xml version="1.0" encoding="UTF-8"?>
<svg id="Layer_2" data-name="Layer 2" xmlns="http://www.w3.org/2000/svg" viewBox="0 0 504.25 606.83">
  <defs>
    <style>
      .cls-1 {
        fill: #eea243;
      }

      .cls-2 {
        fill: #f0a202;
      }

      .cls-3 {
        fill: #dcd7cd;
      }
    </style>
  </defs>
  <g id="Objects">
    <g>
      <path class="cls-2" d="m316.17,0s-63.22,14.79-121.96,0l-10.24,17.1s24.41,8.64,68.34,8.64,69.83-7.97,69.83-7.97l-5.96-17.76Z"/>
      <g>
        <path class="cls-3" d="m8.33,182.59S52.1,55.49,80.34,52.97c0,0,45.58,28.3,33.11,121.38l-17.67,39.13s-26.7,10.45-55.41-8.97c-28.71-19.43-32.04-21.91-32.04-21.91Z"/>
        <path class="cls-2" d="m8.33,182.59L0,199.25s25.68,4.17,36.09,11.45c10.41,7.29,26.02,16.31,35.39,18.04,9.37,1.73,14.92,0,14.92,0l9.37-15.27s-22.9,5.55-33.66-9.02c-10.76-14.58-49.28-22.56-53.78-21.86Z"/>
        <path class="cls-3" d="m495.92,182.59s-43.44-133.97-71.67-136.5c0,0-45.91,35.17-33.45,128.25l17.67,39.13s26.69,10.45,55.4-8.97c28.71-19.43,32.04-21.91,32.04-21.91Z"/>
        <path class="cls-3" d="m393.98,591.26s-44.28,20.56-90.91,14.44c-46.63-6.12-64.03-9.6-82.87-9.01-18.84.59-48.54,9.48-67.38,6.18-18.84-3.3-46.04-9.55-46.04-9.55,0,0,205.7-82.44,287.2-2.06Z"/>
        <path class="cls-3" d="m322.13,17.76h-136.07s33.29,53.14,66.24,53.14,69.83-53.14,69.83-53.14Z"/>
        <path class="cls-2" d="m335.74,13.46l88.51,32.63s-6.41,58.2-17.54,75.05c-11.13,16.85-11.42,61.59-14.28,67.71,0,0,1.54,59.65,1.54,117.65,0,0-3.43,46.71-3.43,74.61s3.43,195.03,3.43,195.03c0,0-40.63-13.02-49.93-12.35-9.3.66-100.97,12.35-100.97,12.35,0,0-60.44,5.3-84.81,5.3s-51.49-2.86-51.49-2.86c0,0,7.4-287.96,4.07-349.07l-6.6-65.78s-15.7-49.6-13.23-67.24c1.48-10.61-1.39-34.24-10.69-43.53L175.85,12.24s27.32,56.01,76.45,56.01,83.44-54.78,83.44-54.78Z"/>
        <path class="cls-1" d="m316.17,0s-18.36,60.78-64.04,60.78S194.21,0,194.21,0l-18.36,12.24s17.14,66.08,75.46,66.08S335.74,13.46,335.74,13.46l-19.58-13.46Z"/>
        <path class="cls-2" d="m106.78,578.59s26.75-.5,39.85-6.19c13.1-5.69,64.64-1.72,74.95-5.53,10.31-3.81,52.16-1.34,71.39-1.34s33.32-10.99,50.16-10.99,50.84,21.6,50.84,21.6v15.11s-34.01-21.99-50.84-21.99-30.92,10.99-50.16,10.99-64.35-4.38-69.6-.73c-5.25,3.65-70.56,1.07-76.74,7.6-6.19,6.53-39.85,6.19-39.85,6.19v-14.73Z"/>
        <path class="cls-2" d="m495.92,182.59l8.33,16.66s-25.68,4.17-36.09,11.45c-10.41,7.29-26.02,16.31-35.39,18.04-9.37,1.73-14.92,0-14.92,0l-9.37-15.27s22.9,5.55,33.66-9.02c10.76-14.58,49.27-22.56,53.78-21.86Z"/>
      </g>
    </g>
  </g>
</svg>