<?xml version="1.0" encoding="UTF-8"?>
<svg id="Layer_2" data-name="Layer 2" xmlns="http://www.w3.org/2000/svg" viewBox="0 0 460.8 493.19">
  <defs>
    <style>
      .cls-1 {
        fill: #eea243;
      }

      .cls-2 {
        fill: #dcd7cd;
      }
    </style>
  </defs>
  <g id="Objects">
    <g>
      <path class="cls-1" d="m288.92,0s-57.78,13.52-111.45,0l-9.36,15.62s22.31,7.89,62.45,7.89,63.81-7.28,63.81-7.28l-5.45-16.23Z"/>
      <path class="cls-2" d="m7.61,166.01S47.61,46.64,73.41,44.26c0,0,41.65,26.58,30.26,114l-16.15,36.75s-24.4,9.82-50.63-8.43c-26.23-18.24-29.28-20.58-29.28-20.58Z"/>
      <path class="cls-1" d="m7.61,166.86l-7.61,15.22s23.47,3.81,32.98,10.46c9.51,6.66,23.78,14.91,32.34,16.49,8.56,1.58,13.63,0,13.63,0l8.57-13.95s-20.93,5.08-30.76-8.24c-9.83-13.32-45.03-20.61-49.15-19.98Z"/>
      <path class="cls-2" d="m453.19,166.09s-39.69-125.48-65.49-127.85c0,0-41.96,32.94-30.57,120.13l16.15,36.65s24.39,9.79,50.63-8.4c26.24-18.2,29.28-20.52,29.28-20.52Z"/>
      <path class="cls-2" d="m360.03,478.96s-40.46,18.79-83.07,13.19c-42.61-5.6-58.51-8.77-75.73-8.23-17.22.54-44.36,8.66-61.58,5.65-17.22-3.01-42.07-8.72-42.07-8.72,0,0,187.98-75.34,262.45-1.89Z"/>
      <path class="cls-2" d="m294.37,16.23h-124.34s30.42,48.56,60.53,48.56,63.81-48.56,63.81-48.56Z"/>
      <path class="cls-1" d="m306.81,12.17l80.89,26.46s-5.86,47.19-16.03,60.85c-10.17,13.66-10.44,49.94-13.05,54.9,0,0,1.41,48.36,1.41,95.39,0,0-3.14,37.87-3.14,60.49s3.14,158.13,3.14,158.13c0,0-37.13-10.55-45.63-10.02-8.5.54-92.27,10.02-92.27,10.02,0,0-55.23,4.3-77.51,4.3s-47.05-2.32-47.05-2.32c0,0,6.76-233.47,3.72-283.02l-6.03-53.33s-14.34-40.22-12.09-54.52c1.36-8.6-1.27-27.76-9.77-35.3L160.7,11.18s24.97,45.41,69.86,45.41,76.25-44.42,76.25-44.42Z"/>
      <path class="cls-1" d="m288.92,0s-16.77,55.54-58.52,55.54S177.47,0,177.47,0l-16.77,11.18s15.66,60.38,68.96,60.38,77.15-59.27,77.15-59.27l-17.89-12.3Z"/>
      <path class="cls-1" d="m97.58,468.19s24.45-.45,36.42-5.65c11.97-5.2,59.07-1.57,68.49-5.05s47.66-1.22,65.24-1.22,30.45-10.05,45.84-10.05,46.46,19.74,46.46,19.74v13.81s-31.08-20.09-46.46-20.09-28.26,10.05-45.84,10.05-58.8-4-63.61-.67c-4.8,3.33-64.47.98-70.13,6.94-5.65,5.96-36.42,5.65-36.42,5.65v-13.46Z"/>
      <path class="cls-1" d="m453.19,166.86l7.61,15.22s-23.46,3.81-32.98,10.46c-9.51,6.66-23.78,14.91-32.34,16.49-8.57,1.58-13.64,0-13.64,0l-8.56-13.95s20.93,5.08,30.76-8.24c9.83-13.32,45.03-20.61,49.15-19.98Z"/>
    </g>
  </g>
</svg>