<?xml version="1.0" encoding="UTF-8"?>
<svg id="Layer_1" data-name="Layer 1" xmlns="http://www.w3.org/2000/svg" xmlns:xlink="http://www.w3.org/1999/xlink" viewBox="0 0 263.87 244.85">
  <defs>
    <style>
      .cls-1 {
        fill: url(#linear-gradient);
      }

      .cls-2 {
        fill: url(#linear-gradient-6);
        stroke: #000;
        stroke-miterlimit: 10;
        stroke-width: 4px;
      }

      .cls-3 {
        opacity: .12;
      }

      .cls-4 {
        fill: #e6e6e6;
      }

      .cls-5 {
        fill: #e70000;
      }

      .cls-6 {
        fill: #fff;
      }

      .cls-7 {
        fill: red;
      }

      .cls-8 {
        fill: #736357;
      }

      .cls-9 {
        fill: #bbc0e6;
      }

      .cls-10 {
        fill: #c4c0e6;
      }

      .cls-11 {
        fill: #ca0000;
      }

      .cls-12 {
        fill: gray;
      }

      .cls-13 {
        fill: url(#linear-gradient-3);
      }

      .cls-14 {
        fill: url(#linear-gradient-4);
      }

      .cls-15 {
        fill: url(#linear-gradient-2);
      }

      .cls-16 {
        fill: url(#linear-gradient-5);
      }

      .cls-17 {
        opacity: .17;
      }

      .cls-18 {
        fill: url(#radial-gradient);
      }
    </style>
    <linearGradient id="linear-gradient" x1="53.3" y1="165.11" x2="259.24" y2="165.11" gradientTransform="translate(0 234.06) scale(1 -1)" gradientUnits="userSpaceOnUse">
      <stop offset="0" stop-color="#ff98b7"/>
      <stop offset=".77" stop-color="#ea81c5"/>
    </linearGradient>
    <linearGradient id="linear-gradient-2" x1="167.89" y1="54.68" x2="172.12" y2="54.68" gradientTransform="translate(0 234.06) scale(1 -1)" gradientUnits="userSpaceOnUse">
      <stop offset="0" stop-color="#fff"/>
      <stop offset="1" stop-color="#000"/>
    </linearGradient>
    <linearGradient id="linear-gradient-3" x1="119.34" y1="146.87" x2="124.41" y2="146.87" gradientTransform="translate(0 234.06) scale(1 -1)" gradientUnits="userSpaceOnUse">
      <stop offset="0" stop-color="#fff"/>
      <stop offset="1" stop-color="#000"/>
    </linearGradient>
    <radialGradient id="radial-gradient" cx="433.07" cy="185.96" fx="433.07" fy="185.96" r="8.72" gradientTransform="translate(55.45 210.64) scale(.36 -.32)" gradientUnits="userSpaceOnUse">
      <stop offset=".74" stop-color="#fff" stop-opacity="0"/>
      <stop offset=".76" stop-color="#fff" stop-opacity="0"/>
      <stop offset=".77" stop-color="#fff" stop-opacity=".04"/>
      <stop offset=".79" stop-color="#fff" stop-opacity=".1"/>
      <stop offset=".79" stop-color="#fff" stop-opacity=".18"/>
      <stop offset=".8" stop-color="#fff" stop-opacity=".28"/>
      <stop offset=".81" stop-color="#fff" stop-opacity=".4"/>
      <stop offset=".82" stop-color="#fff" stop-opacity=".5"/>
      <stop offset=".82" stop-color="#dbc01f"/>
      <stop offset=".83" stop-color="#f1dc3a"/>
      <stop offset=".84" stop-color="#f5e13f"/>
      <stop offset=".84" stop-color="#dbc01f"/>
      <stop offset=".85" stop-color="#e1ca45"/>
      <stop offset=".87" stop-color="#e9d876"/>
      <stop offset=".89" stop-color="#efe4a0"/>
      <stop offset=".91" stop-color="#f5eec2"/>
      <stop offset=".93" stop-color="#f9f5dd"/>
      <stop offset=".95" stop-color="#fcfaf0"/>
      <stop offset=".98" stop-color="#fefdfb"/>
      <stop offset="1" stop-color="#fff"/>
    </radialGradient>
    <linearGradient id="linear-gradient-4" x1="43.1" y1="49" x2="45.74" y2="49" gradientTransform="translate(0 234.06) scale(1 -1)" gradientUnits="userSpaceOnUse">
      <stop offset="0" stop-color="#fff"/>
      <stop offset="1" stop-color="#000"/>
    </linearGradient>
    <linearGradient id="linear-gradient-5" x1="81.3" y1="82.44" x2="170.19" y2="82.44" gradientTransform="translate(0 234.06) scale(1 -1)" gradientUnits="userSpaceOnUse">
      <stop offset="0" stop-color="#93278f"/>
      <stop offset="1" stop-color="#000"/>
    </linearGradient>
    <linearGradient id="linear-gradient-6" x1="4.64" y1="77.57" x2="84.05" y2="77.57" gradientTransform="translate(0 234.06) scale(1 -1)" gradientUnits="userSpaceOnUse">
      <stop offset="0" stop-color="#93278f"/>
      <stop offset="1" stop-color="#000"/>
    </linearGradient>
  </defs>
  <g>
    <g>
      <ellipse class="cls-10" cx="137.12" cy="132.9" rx="123.01" ry="110.45"/>
      <path d="m137.12,23.96c32.42,0,62.9,11.34,85.83,31.92,22.91,20.58,35.53,47.93,35.53,77.02s-12.62,56.45-35.53,77.02c-22.92,20.58-53.4,31.92-85.83,31.92s-62.9-11.34-85.83-31.92c-22.91-20.58-35.53-47.93-35.53-77.02s12.62-56.45,35.53-77.02c22.92-20.58,53.4-31.92,85.83-31.92m0-3.01c-68.85,0-124.67,50.12-124.67,111.95s55.82,111.95,124.67,111.95,124.67-50.12,124.67-111.95S205.97,20.95,137.12,20.95h0Z"/>
    </g>
    <g>
      <path class="cls-6" d="m5.78,144.12c-2.7-5.25-4.12-11.06-4.12-16.84,0-22.16,20.09-40.19,44.78-40.19s44.78,18.03,44.78,40.19c0,5.95-1.5,11.91-4.35,17.28l-41.34,7.68-39.75-8.12Z"/>
      <path d="m46.44,88.59c11.44,0,22.25,4.05,30.44,11.4,8.18,7.34,12.68,17.03,12.68,27.29,0,5.48-1.32,10.97-3.84,15.96l-40.18,7.47-38.59-7.89c-2.38-4.88-3.63-10.22-3.63-15.54,0-10.25,4.5-19.94,12.68-27.29,8.19-7.35,19-11.4,30.44-11.4m0-3.01C20.97,85.58,0,104.4,0,127.28c0,6.29,1.58,12.49,4.63,18.15l40.88,8.36,42.48-7.9c3.21-5.78,4.88-12.15,4.88-18.61,0-22.88-20.96-41.7-46.44-41.7h.01Z"/>
    </g>
    <g>
      <path class="cls-6" d="m168.4,151.56h-.23l-59.23-4.73c-.24-.02-.48-.07-.71-.15l-23.77-8.38c-1.21-.43-2.03-1.65-1.98-2.97.01-.39.02-.74.02-1.01,0-18.58,21.06-33.7,46.95-33.7s46.95,15.12,46.95,33.7c0,5.61-1.98,11.18-5.72,16.12-.54.71-1.39,1.13-2.27,1.13h-.01Z"/>
      <path d="m129.45,102.11c12.15,0,23.59,3.45,32.23,9.7,8.42,6.1,13.06,14.09,13.06,22.5,0,5.3-1.88,10.58-5.43,15.26-.23.31-.56.48-.91.48h-.08l-59.23-4.73c-.09,0-.17-.03-.26-.06l-23.77-8.38c-.56-.2-.95-.84-.92-1.52.02-.41.03-.78.03-1.06,0-8.41,4.64-16.4,13.06-22.5,8.64-6.26,20.09-9.7,32.23-9.7m0-3.01c-26.66,0-48.6,15.89-48.6,35.21,0,.25-.01.59-.02.96-.07,1.97,1.16,3.76,3.04,4.42l23.77,8.38c.38.13.77.22,1.17.25l59.23,4.73c.12,0,.25.01.37.01,1.42,0,2.78-.65,3.64-1.78,3.94-5.19,6.02-11.02,6.02-16.97,0-19.31-21.94-35.21-48.6-35.21h-.02Z"/>
    </g>
    <g>
      <ellipse cx="33.67" cy="128.85" rx="6.32" ry="5.03"/>
      <path d="m33.67,124.19c3.26,0,5.9,2.09,5.9,4.65s-2.65,4.65-5.9,4.65-5.9-2.09-5.9-4.65,2.65-4.65,5.9-4.65m0-.75c-3.72,0-6.73,2.42-6.73,5.41s3.01,5.41,6.73,5.41,6.73-2.42,6.73-5.41-3.01-5.41-6.73-5.41h0Z"/>
    </g>
    <path d="m66.69,208.68c17.64-3.06,35.45-5.31,53.35-6.7,17.99-1.4,36.05-1.96,54.1-1.68,8.77.14,17.98.47,25.98,4.11,1.2.55,2.69.29,3.4-.81.65-1,.31-2.54-.89-3.09-7.6-3.47-16.08-4.37-24.48-4.64-9.03-.29-18.09-.21-27.13,0-18.31.44-36.6,1.75-54.77,3.93-10.34,1.24-20.64,2.73-30.88,4.51-1.32.23-2.07,1.67-1.74,2.78.38,1.25,1.73,1.81,3.06,1.58h0Z"/>
    <g>
      <path class="cls-6" d="m81.49,205.1c-1.08,5.08,4.65,5.91-.92,12.81,5.7-.75,8.53,2.6,14.15,3.73-2.22-1.7-2.23-4.7-2.42-7.31-.25-3.48-1.13-6.92-2.61-10.14"/>
      <path d="m80.29,204.8c-.23,1.16-.24,2.3.08,3.45.24.88.68,1.69,1.01,2.54.97,2.47-.28,4.53-1.89,6.56-.52.65.17,1.81,1.07,1.7,2.45-.29,4.63.21,6.84,1.16s4.51,2.01,6.98,2.53c1.14.24,2.19-1.1,1.21-1.89-2.21-1.78-1.88-4.87-2.12-7.3-.33-3.32-1.19-6.56-2.58-9.65-.26-.57-.82-.96-1.53-.79-.59.14-1.12.82-.87,1.39,1.47,3.26,2.35,6.69,2.59,10.21.18,2.73.33,5.79,2.76,7.74l1.21-1.89c-2.54-.53-4.75-1.65-7.11-2.6s-4.78-1.47-7.37-1.17l1.07,1.7c1.77-2.23,3.2-4.82,2.38-7.61-.55-1.87-1.73-3.45-1.34-5.47.28-1.42-2.11-2.03-2.4-.6h0Z"/>
    </g>
    <g>
      <path class="cls-6" d="m109.83,201.53c.28,3.42.22,8.24-.79,11.55-.15.5-.31,1.03-.12,1.51.42,1.01,2.15,1.22,2.47,2.26.2.64-.25,1.29-.67,1.84-1.35,1.73-2.7,3.46-4.05,5.19,8.25-1.93,16.77,1.93,25.29,1.92-1.81-1.79-1.89-4.45-1.96-6.87-.17-6.06-1.14-12.76-2.48-18.71"/>
      <path d="m108.59,201.53c.16,2.04.19,4.08.07,6.12-.06,1-.15,2-.32,2.98s-.51,1.93-.68,2.9c-.16.91.08,1.77.82,2.42.35.3,1.61.78,1.72,1.2.1.36-.58,1.01-.79,1.28-.4.51-.79,1.02-1.19,1.53-.87,1.12-1.75,2.24-2.62,3.36-.66.84.43,1.88,1.4,1.66,8.31-1.87,16.64,1.91,24.96,1.96,1.14,0,1.56-1.21.88-1.93-1.39-1.45-1.5-3.51-1.57-5.34-.08-2.17-.18-4.33-.4-6.5-.44-4.45-1.17-8.87-2.15-13.24-.32-1.42-2.71-.82-2.4.6,1.03,4.63,1.79,9.31,2.18,14.02.18,2.15.16,4.31.35,6.45s.7,4.01,2.22,5.6l.88-1.93c-8.61-.05-16.98-3.82-25.62-1.88l1.4,1.66c.87-1.12,1.75-2.24,2.62-3.36.75-.96,1.79-1.97,2.18-3.12.31-.89.05-1.83-.66-2.5-.44-.41-1.67-.81-1.8-1.38-.1-.41.26-1.08.36-1.49.11-.46.2-.91.28-1.38.19-1.09.31-2.18.39-3.28.15-2.14.12-4.29-.05-6.43-.11-1.44-2.6-1.45-2.49,0h0l.03.02Z"/>
    </g>
    <g>
      <path class="cls-4" d="m97.32,203.03c-.62,4.4-1.34,8.79-2.17,13.16,3.62-.83,7.39-1.14,11.12-.91-2.57-4.2-4.04-8.31-4.38-13.09"/>
      <path d="m96.08,203.03c-.61,4.3-1.32,8.58-2.13,12.86-.16.84.55,1.61,1.53,1.39,3.54-.8,7.15-1.08,10.79-.87.98.06,1.5-.99,1.07-1.7-2.36-3.89-3.87-8.08-4.21-12.52-.11-1.44-2.6-1.45-2.49,0,.37,4.86,1.97,9.41,4.55,13.66l1.07-1.7c-3.85-.22-7.71.11-11.45.95l1.53,1.39c.85-4.47,1.58-8.96,2.22-13.46.09-.61-.63-1.13-1.24-1.13-.74,0-1.16.52-1.24,1.13h0Z"/>
    </g>
    <g>
      <path class="cls-4" d="m132.86,200.05c.89,5.06,1.24,10.52,1.19,15.64,5.93.21,6.52,2.02,12.46,2.22-1.16-1.41,3.42-4.7,3.14-6.44-.31-1.9.79-4.06,1.04-5.97.29-2.17-.16-3.93.13-6.1"/>
      <path d="m131.66,200.35c.87,5.07,1.19,10.21,1.15,15.34,0,.63.57,1.1,1.24,1.13,2.14.09,4.09.52,6.11,1.14s4.16,1,6.35,1.09c.93.04,1.57-.99,1.07-1.7-.1-.14-.07.1,0-.09.09-.22.19-.42.32-.63.37-.58.82-1.12,1.25-1.66.76-.95,1.72-2.07,1.74-3.3.01-.89-.04-1.67.18-2.57.25-1,.59-1.99.77-3,.4-2.22-.04-4.46.22-6.69.17-1.44-2.32-1.43-2.49,0-.27,2.33.25,4.67-.32,6.97-.25,1.01-.59,2-.77,3.03-.08.49-.15.99-.14,1.49,0,.28.08.69.04.87-.51,2.11-4.67,4.28-2.95,6.72l1.07-1.7c-2.14-.09-4.09-.52-6.11-1.14s-4.16-1-6.35-1.09l1.24,1.13c.04-5.33-.33-10.66-1.24-15.94-.25-1.43-2.64-.82-2.4.6h.02Z"/>
    </g>
    <g>
      <path class="cls-6" d="m158.98,198.94c-1.18,6.25,3.96,6.76-3.18,15.3,10.82-3.01,9.34,3.77,16.72,4.14-1.69-1.14-.06-5.49-.86-7.25-1.94-4.24-3.1-7.74-4.36-12.19"/>
      <path d="m157.78,198.64c-.24,1.36-.28,2.68-.06,4.05.17,1.01.5,1.99.65,3,.43,2.92-1.77,5.71-3.65,7.98-.67.81.44,1.92,1.4,1.66,1.85-.5,3.91-.99,5.84-.61,1.16.22,2.14.77,3.01,1.43.97.74,1.89,1.54,2.98,2.14,1.39.77,2.94,1.13,4.56,1.22,1.04.06,1.69-1.3.88-1.93s-.41-2.44-.35-3.3c.11-1.46.13-2.72-.49-4.09-1.68-3.75-2.96-7.62-4.07-11.54-.4-1.4-2.8-.81-2.4.6.59,2.07,1.21,4.13,1.93,6.17s1.67,4,2.44,6.02c.89,2.34-1.28,5.87,1.18,7.75l.88-1.93c-2.94-.18-4.52-1.92-6.74-3.39-3.08-2.05-6.84-1.65-10.31-.71l1.4,1.66c2.1-2.53,4.32-5.55,4.02-8.87-.21-2.3-1.13-4.35-.71-6.7.25-1.42-2.14-2.03-2.4-.6h0Z"/>
    </g>
    <g>
      <path class="cls-4" d="m176.95,199.48c.05,4.66,1.69,11.01,1.6,15.67,4.25-.61,13,2.76,11.05-.01-1.81-2.56-1.94-4.04-1.76-4.12.42-.2,3.77-.03,3.71-.46-.66-4.74-1.01-5.8,1.08-10.19"/>
      <path d="m175.71,199.48c.09,5.26,1.68,10.41,1.6,15.67-.01.81.8,1.19,1.57,1.09,2.23-.29,4.79.39,7.01.77,1.42.24,4.57,1.05,5.16-.8.34-1.06-.72-2.08-1.22-2.94-.29-.5-.54-1.01-.71-1.56-.05-.15-.09-.3-.12-.46.05.33.01.01.01.01v-.09c-.01.42-.28.72-.8.91,0,0,.11-.02.17-.03.26-.02.52-.03.78-.04.56-.02,1.13-.03,1.68-.09s1.09-.12,1.5-.47c.64-.54.39-1.31.29-2-.2-1.39-.44-2.81-.33-4.22.11-1.49.75-2.95,1.4-4.31.27-.56.18-1.2-.45-1.54-.52-.28-1.44-.15-1.7.4-1.15,2.43-1.95,4.76-1.69,7.43.06.66.16,1.32.25,1.98.05.38.04.85.17,1.2.21.55,1.07-.68.61-.75-.02,0-.35.05-.19.03-.98.13-2.02-.02-2.99.18-2.52.53-.37,4.02.31,5.1.19.3.41.58.59.88.12.2,0,.06.02-.07.03-.32.19-.48.46-.65.2-.13-.03.06-.07,0,.01.02.29-.01,0,0-.91,0-1.65-.14-2.57-.3-2.7-.47-5.49-1.12-8.24-.76l1.57,1.09c.08-5.26-1.51-10.42-1.6-15.67-.02-1.45-2.51-1.45-2.49,0h.02Z"/>
    </g>
    <g>
      <path d="m87.91,173.99c-1.52,3.04-3.06,6.11-3.89,9.37-.26,1.04-.46,2.13-.21,3.17.52,2.27,3.22,3.88,5.79,3.65s4.77-2.12,5.41-4.37c.63-2.25-.21-4.73-1.94-6.45-.81-.81-1.85-1.53-2.16-2.59-.36-1.25.38-2.74-.47-3.77-.54-.66-1.68-.84-2.44-.38s-1.02,1.46-.56,2.17"/>
      <path d="m86.83,173.42c-.98,1.95-1.96,3.91-2.77,5.93-.77,1.91-1.58,4.01-1.6,6.07-.05,3.53,3.59,6.29,7.41,5.86s6.61-3.63,6.58-7.04c-.01-1.81-.73-3.59-1.94-5.02-.53-.63-1.18-1.15-1.75-1.74-.73-.76-.74-1.41-.68-2.38.12-1.91-.81-3.93-3.28-3.82-2.31.1-3.4,2.34-2.44,4.11.71,1.3,2.85.16,2.15-1.14-.17-.32.04-.68.42-.72.59-.06.69.52.7.92.04,1.32-.22,2.52.6,3.71.71,1.03,1.85,1.74,2.58,2.76.77,1.07,1.22,2.32,1.16,3.6-.09,2.23-2.08,4.45-4.63,4.57-1.23.06-2.46-.4-3.33-1.19-1.03-.94-1.19-2.17-.96-3.44.63-3.45,2.36-6.73,3.94-9.89.66-1.31-1.48-2.46-2.15-1.14h0Z"/>
    </g>
    <g>
      <path d="m99.51,177.39c-1.27,2.18-1.24,4.81-.57,7.19.36,1.26.92,2.53,2.03,3.37,1.85,1.4,4.86,1.1,6.64-.38,1.78-1.47,2.42-3.84,2.07-5.99-.21-1.33-.78-2.62-1.74-3.65-1.43-1.52-3.62-2.34-5.01-3.88-.68-.76-1.14-1.66-1.74-2.47s-1.39-1.58-2.43-1.86c-.49-.13-1.03-.14-1.48.08-.95.45-1.07,1.63-.87,2.58.39,1.89,1.58,3.63,3.28,4.8"/>
      <path d="m98.44,176.82c-1.08,1.95-1.37,4.09-1.07,6.25.27,1.87.84,3.88,2.28,5.3,2.96,2.92,8.24,1.59,10.23-1.59,2.12-3.39,1.19-8.02-2.07-10.53-.77-.59-1.6-1.09-2.4-1.64-1.02-.7-1.75-1.49-2.4-2.48-1.07-1.63-2.39-3.48-4.7-3.61-2.56-.15-3.48,2.11-3.12,4.05.4,2.12,1.77,4.08,3.62,5.41,1.24.89,3.01-.7,1.76-1.6-1.19-.85-2.14-1.93-2.65-3.24-.27-.7-.87-2.9.76-2.25,1.47.59,2.08,2.38,2.96,3.48s2.16,1.96,3.41,2.78,2.45,1.8,3.01,3.2c.52,1.29.62,2.72.22,4.05-.69,2.28-3.66,4.4-6.24,2.87-1.46-.87-1.93-2.74-2.18-4.2-.3-1.73-.15-3.54.72-5.11.71-1.29-1.43-2.44-2.15-1.14h.01Z"/>
    </g>
    <g>
      <path class="cls-1" d="m64.78,61.15c17.43,9.71,48.01-8.57,64.08,3.68,15.6,11.9,32.8,7.75,58.51,2.3,19.5-4.14,33.61,31.71,40.63,54.58,1.17,3.8,1.81,10.38,5.06,12.66,4.09,2.86,17.71,3.96,18.07-1.62.58-9.1-4.37-14.55-5.78-21.74-.47-2.4.31-15.2,2.91-15.2,3.05,0,2.99,4.67,7.44-3.48,7.78-14.24,1.44-37.58-6.6-49.69-3.77-5.68-10.95-9-13.9-15.09-2.5-5.17-13.08-9.14-19.76-6.75-6.68,2.39-11.92,13.24-9.53,19.55,0-15.39-11.42-30.19-27.02-35.05-9.03-2.81-19.95-2.12-26.8,4.06s-.59,13.02.28,22.63c.02.18.25-.05.23-.22-3.47-22.37-21.83-30.26-43.74-30.6-1.42-.02-12.8,3.25-13.87,4.11-1.16.93-4.72,3.23-4.72,4.66,0,8.63,3.37,10.54,10.14,15.28-12.11-8.81-21.47-14.13-36.22-10.16-4.18,1.12-10.24,10.88-10.81,14.91-.42,2.96.97,9.69,1.35,12.66,1.43,11.17,7.7,12.83,10.07,18.53"/>
      <path d="m64.16,62.12c5.81,3.2,12.84,3.44,19.43,2.89,7.38-.62,14.61-2.17,21.95-2.98,6.41-.71,13.55-1.06,19.45,1.78,1.43.69,2.64,1.57,3.9,2.48,1.52,1.1,3.12,2.11,4.8,3,3.09,1.62,6.47,2.8,9.95,3.49,7.47,1.47,15.19.81,22.64-.35,4.5-.7,8.96-1.59,13.41-2.52,2.43-.51,4.85-1.03,7.28-1.54,1.34-.28,2.63-.48,4.01-.44,5.35.19,9.78,3.66,13.11,7.17,4.6,4.85,7.97,10.66,10.9,16.45,3.27,6.45,5.95,13.15,8.34,19.91,1.13,3.21,2.2,6.44,3.2,9.68s1.42,6.56,2.67,9.7c.59,1.47,1.35,3,2.65,4.07.95.79,2.12,1.29,3.31,1.7,2.78.95,5.91,1.34,8.87,1.22,2.52-.11,5.53-.59,7.22-2.46,1.04-1.16,1.15-2.51,1.15-3.95.01-2.1-.27-4.2-.8-6.25-.92-3.57-2.63-6.91-3.89-10.38-.99-2.7-1.33-4.43-1.25-7.19.08-2.69.31-5.42.95-8.05.22-.92.44-1.88.98-2.6.11-.15-.11.21.03-.03.03-.05.11-.07.13-.12-.07.13-.28.02-.31.11.03-.1.63.13.75.19.62.33,1.16.81,1.85,1.01.94.28,1.83.01,2.57-.55,1.17-.9,1.95-2.26,2.65-3.47.97-1.66,1.81-3.37,2.45-5.16,2.55-7.15,2.32-14.96,1.05-22.31s-3.69-14.49-7.31-21.09c-1.77-3.22-3.9-6.06-6.71-8.62s-6.19-5.05-8.33-8.27c-.94-1.42-1.54-2.88-2.77-4.13s-2.69-2.22-4.24-3.02c-3.24-1.67-7.09-2.69-10.84-2.57-3.52.11-6.55,1.4-8.97,3.7-2.6,2.48-4.43,5.66-5.48,8.93-.92,2.89-1.3,6.14-.25,9.04.43,1.18,2.45,1.02,2.44-.3-.06-13.17-8.06-26.04-20.43-32.92-6.15-3.42-13.46-5.31-20.69-4.73-3.57.29-7.09,1.14-10.23,2.74s-5.92,3.73-7.23,6.68-.71,6.32.11,9.37c.5,1.85,1.08,3.68,1.54,5.54.25.98.47,1.96.64,2.95.14.83-.02,2.28.7,2.88.49.4,1.28.46,1.76,0,.81-.77.41-1.83.24-2.76-.2-1.06-.44-2.12-.72-3.17-.51-1.87-1.16-3.71-1.98-5.49-1.46-3.2-3.42-6.18-5.91-8.81-4.75-5.02-11.26-8.35-18.18-10.25-3.76-1.03-7.65-1.65-11.56-2-2.01-.18-4.05-.31-6.07-.32-1.05,0-2.08.27-3.09.51-3.07.75-6.13,1.63-9.1,2.67-.97.34-2.02.66-2.84,1.26-1.33.98-2.75,1.95-3.86,3.13-.64.68-1.17,1.41-1.23,2.32-.07,1.12.07,2.29.22,3.4.26,1.83.77,3.62,1.77,5.24,1.99,3.24,5.6,5.4,8.76,7.62,1.11.78,2.61-.97,1.51-1.77-6.06-4.4-12.49-8.96-20.1-10.88-3.54-.9-7.27-1.15-10.92-.76-3.26.34-6.8.78-9.32,2.82-2.32,1.87-4.1,4.38-5.6,6.82-1.34,2.18-2.71,4.62-3.15,7.11-.5,2.86.17,5.94.61,8.77.5,3.17.78,6.45,1.81,9.52.97,2.89,2.6,5.43,4.64,7.79,1.59,1.85,3.39,3.62,4.34,5.84.57,1.34,2.97.76,2.4-.6-1.74-4.08-5.65-6.91-7.76-10.81-1.49-2.75-1.99-5.71-2.45-8.72s-1.01-5.8-1.2-8.73c-.07-1.08-.11-2.16.17-3.21s.73-2.12,1.23-3.13c1.24-2.51,2.79-4.97,4.7-7.11.79-.88,1.65-1.78,2.67-2.44,1.16-.75,2.64-.96,4.02-1.23,3.49-.68,7.14-.86,10.66-.28,8.22,1.35,15.12,6.2,21.48,10.82l1.51-1.77c-2.56-1.79-5.5-3.54-7.33-6.01-.84-1.13-1.39-2.38-1.72-3.71-.19-.76-.31-1.54-.37-2.32-.06-.73-.27-1.81-.02-2.42s.99-1.14,1.49-1.56c.67-.57,1.39-1.09,2.1-1.61.23-.17.46-.36.7-.53-.28.19-.04.04.11-.04.4-.19.71-.31,1.08-.44,2.72-.99,5.54-1.79,8.35-2.53,1.08-.28,2.16-.56,3.26-.76.39-.07-.15-.01.14-.01.38,0,.77.01,1.15.02,1,.03,1.99.07,2.98.13,3.62.22,7.22.69,10.75,1.48,6.41,1.45,12.57,4.04,17.37,8.23,2.76,2.41,4.99,5.26,6.66,8.39.89,1.67,1.61,3.42,2.19,5.2.33,1,.61,2.02.85,3.05.13.53.24,1.07.34,1.6.04.18.07.36.1.55.03.18.07.37.1.55.03.46.11.38.25-.26h1.76l-.07-.06.36.8c-.32-3.26-1.2-6.4-2.1-9.55-.73-2.53-1.61-5.28-1.13-7.91.51-2.79,2.76-4.85,5.27-6.37,2.79-1.69,6.01-2.7,9.32-3.11,13.43-1.64,26.3,5.87,33.29,15.87,4.05,5.8,6.37,12.54,6.41,19.42l2.44-.3c-1.07-2.93-.44-6.18.66-9.02s3.01-5.83,5.67-7.83c5.31-4,14.33-1.56,18.8,2.48,1.2,1.09,1.76,2.35,2.57,3.67.97,1.59,2.24,3.03,3.6,4.36,2.78,2.72,6.08,5.03,8.53,8.02,2.13,2.6,3.69,5.68,5.05,8.66,1.51,3.33,2.75,6.76,3.71,10.25,1.99,7.18,3.04,14.86,1.84,22.23-.56,3.44-1.65,6.75-3.43,9.83-.61,1.06-1.51,2.64-2.37,3.25-.25.18-.14.02-.18.08.04-.06.29-.01.01-.02.13,0,.18.08.1,0-.04-.04.15.1-.15-.06-.15-.09-.3-.18-.45-.27-1.37-.87-3.23-1.58-4.53-.19-1.53,1.64-1.77,4.39-2.06,6.42-.36,2.52-.58,5.08-.51,7.63.08,2.8,1.15,5.5,2.22,8.1,1.42,3.45,2.98,6.88,3.52,10.56.14.97.21,1.94.22,2.92,0,.76.1,1.63-.23,2.34-.31.67-1.11,1.17-1.9,1.47-2.44.94-5.49.82-8.06.45-2.3-.34-5.28-.89-6.77-2.68-2.13-2.56-2.52-6.29-3.25-9.33s-1.77-5.98-2.76-8.93c-2.23-6.64-4.73-13.21-7.69-19.61-2.82-6.08-6-12.11-10.19-17.53-3.26-4.21-7.29-8.4-12.62-10.46-2.28-.88-4.78-1.32-7.26-1.1-1.84.16-3.63.63-5.42,1.01-2.32.49-4.63.98-6.95,1.46-7.94,1.63-16.05,3.22-24.24,3.18-6.99-.04-13.73-1.59-19.59-5.13-2.84-1.72-5.21-3.86-8.39-5.08-2.93-1.13-6.06-1.65-9.23-1.8-7.05-.35-14.12.94-21.04,2.01-6.72,1.04-13.73,2.21-20.56,1.38-2.95-.36-5.81-1.17-8.37-2.57-1.37-.75-2.62,1.2-1.25,1.95h0l.06.03Z"/>
    </g>
    <g>
      <path class="cls-15" d="m169.74,181.98c-.71,0-1.54-.99-1.84-1.88-.04-.11-.02-.23.06-.33.03-.04.09-.1.18-.1h.1c.45,0,.84-.26,1.01-.67.18-.46.04-.96-.34-1.26-.08-.06-.13-.17-.13-.29s.06-.22.15-.28c.41-.27.89-.41,1.38-.41,1.2,0,1.81.81,1.81,2.41,0,1.43-.81,2.12-2.01,2.73-.12.06-.24.09-.36.09h0Z"/>
      <path d="m170.3,177.14c.38,0,1.4,0,1.4,2.03,0,1.09-.49,1.74-1.8,2.4-.07.04-.13.04-.16.04-.4,0-1.12-.69-1.43-1.55.59-.03,1.11-.38,1.33-.92.24-.6.05-1.28-.47-1.66.34-.22.73-.34,1.14-.34m0-.75c-.58,0-1.15.17-1.62.48-.41.27-.43.87-.04,1.17.52.4.25,1.27-.39,1.27h-.1c-.45,0-.79.46-.64.91.33.98,1.25,2.15,2.24,2.15.19,0,.37-.04.56-.13,1.3-.65,2.23-1.45,2.23-3.06s-.61-2.79-2.23-2.79h-.01Z"/>
    </g>
    <g>
      <path class="cls-13" d="m122.18,89.8c-.17,0-.32-.03-.48-.1-1.42-.61-2.36-1.3-2.36-2.72,0-1.6.74-2.41,2.18-2.41.6,0,1.18.15,1.67.43.11.06.17.16.18.27,0,.11-.05.21-.15.27-.43.28-.6.75-.44,1.2.16.46.61.75,1.14.75h.11c.12,0,.24.05.31.15.04.05.09.14.04.26-.36.92-1.33,1.9-2.22,1.9h.02Z"/>
      <path d="m121.52,84.95c.49,0,.97.12,1.39.34-.52.38-.73.99-.52,1.57.21.6.83,1.01,1.53,1.01h.04c-.33.75-1.14,1.55-1.79,1.55-.1,0-.2-.02-.3-.06-1.55-.66-2.12-1.31-2.12-2.38,0-1.8.95-2.03,1.77-2.03m0-.75c-1.88,0-2.6,1.18-2.6,2.79s1.08,2.41,2.6,3.06c.22.09.44.13.65.13,1.15,0,2.23-1.17,2.61-2.15.17-.45-.22-.91-.75-.91h-.11c-.76,0-1.07-.87-.46-1.27.45-.29.42-.9-.05-1.17-.55-.31-1.21-.48-1.89-.48h0Z"/>
    </g>
    <g>
      <path class="cls-12" d="m195.21,101.26c-.67,0-1.32-.26-1.89-.74-.38-.32-.4-1.15-.04-1.5.58-.57.58-1.47.29-2.07-.23-.48-.64-.76-1.12-.76h-.13c-.11,0-.21-.09-.26-.15-.17-.19-.3-.57-.19-.97.42-1.63,1.58-3.44,2.59-3.44.17,0,.34.05.51.16,1.46.95,2.81,2.21,2.81,5,0,2.04-.45,4.46-2.57,4.46h0Z"/>
      <path d="m194.46,92s.12,0,.27.09c1.58,1.03,2.64,2.22,2.64,4.7,0,1.87-.37,4.09-2.15,4.09-.56,0-1.11-.22-1.6-.64-.2-.17-.24-.75-.02-.97.7-.69.71-1.77.37-2.48-.3-.62-.86-.99-1.5-.99h-.06c-.08-.08-.2-.34-.12-.66.45-1.74,1.56-3.15,2.19-3.15m0-.75c-1.31,0-2.56,2.03-2.99,3.73-.2.77.25,1.58.86,1.58h.13c.87,0,1.23,1.51.53,2.21-.52.51-.48,1.57.06,2.03.64.54,1.39.84,2.17.84,2.16,0,2.98-2.06,2.98-4.84s-1.24-4.18-2.98-5.31c-.25-.16-.5-.23-.75-.23h-.01Z"/>
    </g>
    <g>
      <path d="m67.4,81.53c-.17,0-.32-.03-.48-.1-1.42-.61-2.36-1.3-2.36-2.72,0-1.6.74-2.41,2.18-2.41.6,0,1.18.15,1.67.43.11.06.17.16.18.27,0,.11-.05.21-.15.27-.43.28-.6.75-.44,1.2.16.46.61.75,1.14.75h.11c.12,0,.24.05.31.15.04.05.09.14.04.26-.36.92-1.33,1.9-2.22,1.9h.02Z"/>
      <path d="m66.75,76.68c.49,0,.97.12,1.39.34-.52.38-.73.99-.52,1.57.21.6.83,1.01,1.53,1.01h.04c-.33.75-1.14,1.55-1.79,1.55-.1,0-.2-.02-.3-.06-1.55-.66-2.12-1.31-2.12-2.38,0-1.8.95-2.03,1.77-2.03m0-.75c-1.88,0-2.6,1.18-2.6,2.79s1.08,2.41,2.6,3.06c.22.09.44.13.65.13,1.15,0,2.23-1.17,2.61-2.15.17-.45-.22-.91-.75-.91h-.11c-.76,0-1.07-.87-.46-1.27.45-.29.42-.9-.05-1.17-.55-.31-1.21-.48-1.89-.48h0Z"/>
    </g>
    <g>
      <path class="cls-18" d="m212.69,156.54c-1.45,0-2.18-1.02-2.18-3.04,0-1.8.96-2.67,2.39-3.42.15-.08.29-.11.45-.11.87,0,1.85,1.22,2.21,2.36.05.17.02.36-.09.5-.04.05-.13.14-.25.14h-.11c-.49,0-.91.28-1.1.74-.22.53-.08,1.12.36,1.47.12.1.19.26.18.44,0,.17-.08.33-.21.41-.49.34-1.06.52-1.64.52h-.01Z"/>
      <path d="m213.34,150.34c.58,0,1.48,1.03,1.81,2.09.02.06,0,.12-.02.15h-.05c-.66,0-1.23.38-1.48.98-.28.68-.09,1.44.48,1.89.02.01.04.07.04.14,0,.08-.03.12-.04.13-.42.29-.9.44-1.39.44-.44,0-1.77,0-1.77-2.66,0-1.62.84-2.39,2.19-3.1.08-.04.16-.06.24-.06m0-.75c-.22,0-.44.05-.65.17-1.51.8-2.6,1.78-2.6,3.75s.72,3.42,2.6,3.42c.68,0,1.34-.21,1.89-.59.47-.33.5-1.07.05-1.43-.61-.49-.3-1.56.46-1.56h.11c.53,0,.92-.57.75-1.11-.38-1.2-1.46-2.63-2.61-2.63h0v-.02Z"/>
    </g>
    <g>
      <path class="cls-14" d="m44.24,186.85c-.37,0-.93-.63-1.14-1.29-.03-.09.03-.17.05-.18h0c.41,0,.72-.2.85-.53.16-.37.05-.79-.26-1.05-.03-.03-.05-.08-.05-.14s.03-.11.06-.13c.26-.18.56-.27.86-.27.28,0,1.11,0,1.11,1.65,0,.99-.53,1.48-1.32,1.9-.06.03-.12.05-.17.05h.01Z"/>
      <path d="m44.62,183.63c.19,0,.7,0,.7,1.28,0,.73-.28,1.12-1.1,1.56-.15-.06-.44-.36-.63-.77.36-.11.66-.37.81-.72.18-.43.11-.92-.18-1.27.13-.05.26-.08.4-.08m0-.75c-.4,0-.79.13-1.11.35-.28.19-.3.64-.03.85.36.29.17.92-.27.92h-.07c-.31,0-.54.34-.44.66.22.71.86,1.56,1.53,1.56.13,0,.26-.03.38-.1.89-.47,1.53-1.06,1.53-2.23s-.42-2.03-1.53-2.03h0v.02Z"/>
    </g>
    <g>
      <path class="cls-8" d="m152.86,238.45c-.71,0-1.54-.99-1.84-1.88-.04-.11-.02-.23.06-.32.03-.04.09-.1.18-.1h.09c.45,0,.84-.26,1.01-.68.18-.46.04-.96-.35-1.26-.08-.06-.13-.17-.13-.29s.06-.22.15-.28c.41-.27.89-.41,1.38-.41,1.2,0,1.81.81,1.81,2.41,0,1.43-.81,2.12-2.01,2.73-.12.06-.24.09-.36.09h0Z"/>
      <path d="m153.42,233.6c.38,0,1.4,0,1.4,2.03,0,1.09-.49,1.74-1.8,2.4-.07.04-.13.04-.16.04-.4,0-1.12-.69-1.43-1.55.59-.03,1.11-.38,1.33-.92.24-.6.05-1.28-.47-1.66.34-.22.73-.34,1.14-.34m0-.75c-.58,0-1.15.17-1.62.48-.41.27-.43.87-.04,1.17.52.4.25,1.27-.39,1.27h-.1c-.45,0-.79.46-.64.91.33.98,1.25,2.15,2.24,2.15.19,0,.37-.04.56-.13,1.3-.65,2.23-1.45,2.23-3.06s-.61-2.79-2.23-2.79h-.01Z"/>
    </g>
    <g>
      <path class="cls-9" d="m244.46,164.03c3.28-.7,6.66-1.05,10.04-1.03,2.14,0,4.44.22,6.08,1.47,1.34,1.03,2.02,2.64,2.05,4.23.07,2.96-2.02,5.79-4.91,7.23s-6.43,1.6-9.62.81c-3.18-.79-6.03-2.46-8.47-4.46"/>
      <path d="m244.79,165.12c3.34-.7,6.76-1.06,10.19-.99,2.94.06,5.82.9,6.34,3.87.42,2.44-1.08,4.9-3.19,6.34-2.4,1.63-5.64,2.03-8.53,1.54-3.46-.59-6.49-2.31-9.08-4.41-1.19-.96-2.95.63-1.76,1.6,5.36,4.34,13.74,7.49,20.38,3.39,2.79-1.72,4.8-4.63,4.73-7.76-.07-3.35-2.52-5.95-6.13-6.57-4.39-.75-9.3-.08-13.61.82-1.56.33-.9,2.5.66,2.18h0Z"/>
    </g>
    <g>
      <path class="cls-9" d="m48.94,208.31c-3.12,1.16-6.39,1.99-9.72,2.46-2.12.3-4.43.42-6.26-.58-1.51-.82-2.46-2.32-2.78-3.88-.59-2.92.97-6,3.56-7.84s6.07-2.5,9.35-2.18,6.39,1.56,9.15,3.18"/>
      <path d="m48.61,207.22c-3.17,1.17-6.5,2.04-9.89,2.48-2.93.38-6.07.04-7.12-2.87-.88-2.45.22-5.14,2.17-6.89,2.09-1.87,5.11-2.64,7.98-2.59,3.56.06,6.89,1.39,9.84,3.1,1.35.78,2.6-1.17,1.25-1.95-6.04-3.5-14.61-5.24-20.49-.46-2.52,2.04-3.96,5.22-3.44,8.28.57,3.33,3.39,5.56,7.05,5.76,2.14.12,4.36-.31,6.43-.73,2.34-.48,4.63-1.15,6.85-1.97,1.46-.54.82-2.72-.66-2.18h0l.03.02Z"/>
    </g>
    <path d="m248.3,82.56c-.29-2.98-2.53-5.24-5.31-6.67-3.16-1.62-6.85-1.99-10.09-3.42-5.83-2.57-8.92-8.64-9.05-14.34-.08-3.17,1.4-7.37,5.56-7.58,1.59-.08,1.6-2.34,0-2.26-3.52.18-6.25,2.5-7.37,5.44-1.19,3.11-.73,6.76.27,9.86.96,2.98,2.64,5.83,5.07,8.03,2.7,2.45,6.1,3.56,9.68,4.56s8.4,2.52,8.77,6.36c.14,1.44,2.63,1.45,2.49,0h0l-.02.02Z"/>
    <path d="m188.03,65.91c-1.59-1.05-3.19-2.09-4.78-3.14-1.28-.85-2.58-1.73-3.58-2.86-2.26-2.54-1.75-5.89-.5-8.73,1.33-3.02,3.47-5.68,4.68-8.76.55-1.41.86-2.92-.08-4.26-.87-1.22-2.33-1.96-3.88-2.22-2.74-.47-7.46-.68-8.48,2.36-.47,1.39,1.93,1.99,2.4.6.3-.89,1.9-.92,2.72-.93,1.42-.02,3.16-.05,4.38.7,1.5.92.91,2.32.36,3.6-.59,1.38-1.38,2.67-2.15,3.97-1.48,2.49-2.95,5.02-3.38,7.86s.31,5.47,2.39,7.62c1.08,1.12,2.42,2.03,3.74,2.9,1.63,1.08,3.27,2.15,4.91,3.23,1.3.85,2.54-1.1,1.25-1.95h0Z"/>
    <path d="m138.01,63.24c-3.09-.99-5.78-3.19-6.95-6.01-1.23-2.98-.71-6.43,1.43-8.96,1.93-2.28,4.73-4.34,4.13-7.55-.64-3.41-4.28-5.18-7.7-5.79-1.56-.27-2.23,1.9-.66,2.18,1.78.31,3.66.83,4.89,2.12,1.13,1.18,1.38,2.68.55,4.05-.77,1.27-1.98,2.27-2.96,3.39-1.08,1.23-1.9,2.61-2.36,4.13-1.91,6.3,2.38,12.5,8.96,14.61,1.51.49,2.16-1.69.66-2.18h.01Z"/>
    <path d="m99.16,60.09c-.98-.89-2.2-1.37-3.45-1.87s-2.51-.98-2.86-2.27c-.39-1.43.03-3.01-.15-4.47s-.6-2.74-1.22-4.04c-1.3-2.7-3.4-5.04-5.58-7.19s-4.43-4.62-7.62-5.4c-1.55-.38-2.21,1.8-.66,2.18,1.62.4,2.85,1.37,4.01,2.43,1.09.99,2.16,2.02,3.19,3.07,2.05,2.1,4.02,4.43,4.95,7.14.48,1.4.55,2.75.5,4.2-.05,1.38-.03,2.83.81,4.03,1.49,2.13,4.49,2.12,6.33,3.79,1.13,1.03,2.89-.57,1.76-1.6h-.01Z"/>
    <path d="m83.28,40.75c-1.53,1.36-3.55,2.37-5.76,2.14s-3.42-1.65-4.65-3.08c-1.17-1.34-2.37-2.69-4.11-3.44-1.92-.83-4.05-1-6.11-.5-1.54.37-.89,2.55.66,2.18,2.08-.5,4.27-.05,5.84,1.3,1.45,1.24,2.42,2.88,3.93,4.07,3.68,2.91,8.71,1.81,11.95-1.07,1.14-1.02-.61-2.61-1.76-1.6h.01Z"/>
    <path d="m178.7,53.97c1.02-1.34,2.92-3.76,5.02-2.56.91.52,1.6,1.23,2.59,1.67.93.41,1.91.66,2.94.78,4.12.46,7.88-1.78,9.39-5.21.6-1.35-1.81-1.93-2.4-.6-1.49,3.38-6.14,4.6-9.48,2.69-.88-.5-1.54-1.25-2.52-1.6-.92-.34-1.96-.35-2.91-.12-2.19.53-3.56,2.21-4.78,3.82-.91,1.2,1.24,2.33,2.15,1.14h0Z"/>
    <path d="m227.37,71.73c1.88,1.29,3.49,2.97,4.5,4.91,1.08,2.09,1.04,4.08.52,6.29s-.54,4.31,1.63,5.75,4.84,2.53,7.31,3.56c1.44.6,2.71-1.34,1.25-1.95-1.26-.52-2.51-1.08-3.73-1.67-1.14-.55-2.43-1.08-3.45-1.81s-.95-1.78-.72-2.84c.24-1.12.57-2.22.62-3.38.16-4.4-2.95-8.29-6.67-10.82-1.28-.87-2.52,1.09-1.25,1.95h-.01Z"/>
    <path d="m133.89,36.85c-.7-.39-1.5-.81-1.93-1.46-.5-.77-.21-1.77-.29-2.62-.17-1.85-1.27-3.42-2.65-4.74-2.91-2.78-6.67-4.96-10.51-6.5-.62-.25-1.33-.16-1.7.4-.31.48-.17,1.3.45,1.54,3.8,1.52,7.61,3.65,10.37,6.51.61.63,1.15,1.35,1.41,2.15.29.89.09,1.81.19,2.72.22,1.87,1.73,3.02,3.4,3.94,1.37.76,2.62-1.2,1.25-1.95h.01Z"/>
    <g>
      <path d="m122.06,139.72c-3.14,0-5.7-2.02-5.7-4.5s2.55-4.5,5.7-4.5,5.7,2.02,5.7,4.5-2.55,4.5-5.7,4.5Z"/>
      <path d="m122.06,131.09c2.91,0,5.28,1.85,5.28,4.13s-2.37,4.13-5.28,4.13-5.28-1.85-5.28-4.13,2.37-4.13,5.28-4.13m0-.75c-3.37,0-6.11,2.18-6.11,4.88s2.74,4.88,6.11,4.88,6.11-2.18,6.11-4.88-2.74-4.88-6.11-4.88h0Z"/>
    </g>
    <g class="cls-3">
      <path d="m115.61,26.36c1.39.63,2.77,1.29,4.09,2.05.3.17.6.35.9.54.11.07,1.27.83.65.41s.49.38.59.46c.26.21.51.42.76.63.36.32,1.31.95,1.4,1.38-.42-.51-.47-.57-.15-.17.1.13.2.25.29.38.22.3.43.61.62.92.11.17.51.66.46.83-.25-.56-.31-.68-.17-.36.06.14.11.27.16.41.06.18.12.37.16.55l-.1-.64c0,.5.02.37.09-.39.36-.65.39-.77.09-.37-.69.84-.84,2.51-.5,3.48.4,1.12,1.14,2.09,2.28,2.7.11.06.98.65,1.05.62-.59-.42-.68-.47-.28-.17.16.13.31.26.45.39.04.03.6.64.63.63-.45-.54-.52-.62-.21-.23.12.16.23.31.34.48.1.15.44.96.58,1-.27-.6-.34-.74-.21-.42.05.13.1.27.15.4.06.18.12.36.17.55.11.47.09.32-.06-.47.05-.8.4-1.5,1.05-2.1.66-.46.78-.56.37-.29-1.98,1.13-3.02,3.23-4.16,5.01-1.03,1.62-1.98,3.36-2.41,5.2-.9,3.84-.35,7.88,1.83,11.3s5.46,5.61,9.36,6.99c2.43.86,5.56-.94,6.11-3.15.65-2.59-.87-4.63-3.47-5.55-.5-.18-.4-.14.31.12-.19-.08-.38-.17-.57-.26-.37-.18-.74-.38-1.09-.59l-.26-.16c-.43-.28-.34-.22.25.18,0,0-.86-.71-.93-.78-.22-.2-.42-.42-.64-.63-.33-.37-.27-.29.19.24-.12-.15-.24-.31-.36-.47-.23-.32-.44-.65-.63-.99l-.14-.26c-.21-.42-.18-.35.11.23-.22-.13-.74-1.91-.62-2.14.09.68.11.76.06.26-.02-.21-.03-.42-.03-.63,0-.16-.09-1.18.06-1.26l-.09.57c.04-.21.08-.42.13-.62.1-.41.25-.81.37-1.22.27-.93-.42.7.03-.11.22-.39.43-.77.66-1.15.43-.71.89-1.4,1.35-2.09.08-.12.68-1.22.79-1.21.28.02-1.5,1.17-.75.7,2.77-1.72,3.57-4.47,2.69-7.34-1.07-3.51-3.72-6.53-7.17-8.37.59,2.06,1.19,4.12,1.78,6.17,1.64-1.97,1.37-4.79.41-6.95s-2.2-3.91-3.87-5.62c-2.71-2.78-6.33-4.77-9.96-6.4-2.33-1.05-5.49-.64-6.8,1.62-1.19,2.04-.7,5.05,1.78,6.17h.03Z"/>
    </g>
    <g class="cls-3">
      <path d="m65.92,41.67c.58-.34-.18.08-.39.08.07,0,1.16-.23.2-.1-.81.11-.1.07.09.05.54-.05-.93-.22-.41-.05.04.01.75.2.75.19-.04.05-1.01-.47-.31-.12.19.09.37.18.55.28.07.04.92.58.28.15-.59-.39.03.05.15.14.22.18.42.36.63.54.34.29.67.58,1.01.87.97.8,2.03,1.55,3.15,2.17,4.48,2.47,10.3,2.87,14.86.36,2.22-1.22,3.25-4.1,1.78-6.17s-4.42-2.93-6.8-1.62c-.19.1-.39.2-.58.3-.89.46.66-.14.11-.05-.21.04-.43.12-.64.17-.17.04-.91.12-.16.06.83-.06-.16,0-.34,0h-.67c-.22,0-.46-.06-.67-.05,1.06-.06.63.07.17-.03s-.98-.37-1.43-.41c.26.02.86.37.27.08-.2-.1-.4-.19-.59-.29s-.39-.21-.57-.32c-.08-.05-.91-.63-.32-.17.55.42-.04-.04-.15-.12-.22-.17-.43-.34-.64-.52-1.9-1.6-3.69-3.01-6.14-3.87-2.62-.92-5.81-.73-8.2.64-2.2,1.26-3.27,4.08-1.78,6.17s4.45,2.97,6.8,1.62h0v.02Z"/>
    </g>
    <g class="cls-3">
      <path d="m74.36,38.81c.7.43,1.4.85,2.09,1.3.3.19.59.38.88.58.07.05.8.61.87.59-.53-.37-.58-.41-.15-.1.14.1.28.21.42.31.33.24.65.49.96.74.54.43,1.07.88,1.58,1.34.55.5,1.08,1.01,1.58,1.55.11.12.22.24.33.36.33.38.29.32-.15-.18.24.14.44.55.59.76.41.55.8,1.13,1.15,1.72.19.32.35.64.53.96.45.81-.33-.87.02.05.22.58.44,1.16.6,1.75.09.35.16.7.23,1.05.06.35.04.2-.06-.44.02.2.04.4.06.6.12,1.58.11,3.21.58,4.75,1.17,3.81,4.6,5.68,8.54,6.71,2.5.65,5.52-.8,6.11-3.15s-.8-4.85-3.47-5.55c-.35-.09-.69-.18-1.03-.28-.15-.04-.29-.09-.44-.14-.5-.17-.39-.13.33.14-.04-.1-.69-.34-.8-.39-.79-.39.72.67.09.02.41.52.51.63.31.35-.09-.12-.16-.25-.23-.38.28.64.34.73.17.27l-.08-.28c-.31-.84.08,1.04-.03-.12-.03-.3-.04-.6-.06-.9-.18-3.28-.92-6.23-2.56-9.18-3.03-5.44-8.5-9.3-13.96-12.6-2.17-1.31-5.6-.45-6.8,1.62-1.32,2.27-.53,4.77,1.78,6.17h.02Z"/>
    </g>
    <g class="cls-3">
      <path d="m177.02,39.63c.19-.28.52-.52-.29.33.1-.11.51-.41-.1.05s-.2.18-.06.09c.56-.4-.26.16-.44.16.26,0,.71-.16.95-.22.51-.13-.63.07-.61.07.18.01.39-.03.57-.04.67-.03,1.33.06,1.99.05-.11,0-1.24-.23-.47-.03.14.04.28.06.41.1s.27.1.4.12c-.71-.29-.9-.36-.57-.19.22.12.16.07-.17-.15-.6-.46-.19-.15-.09-.04-.83-.86-.43-.57-.26-.26-.05-.08-.23-.79-.21-.36,0,.16.13.86.07.16s.03.31.05.48c.05.42.09.83.11,1.25.02.37.04.73.04,1.1,0,.23-.13,1.32,0,.64s-.12.39-.17.6c-.04.18-.29.52.03.03.4-.62-.1.16-.18.29s-.19.26-.28.39c-.34.51.62-.6.14-.19-.24.21-.46.46-.7.69-.79.76-1.53,1.55-2.2,2.41-1.03,1.32-1.79,2.9-2.21,4.47-.94,3.53-.45,7.32,1.56,10.49,2.12,3.33,5.81,5.85,9.92,6.77,2.52.56,5.51-.73,6.11-3.15s-.77-4.95-3.47-5.55c-.39-.09-.78-.2-1.16-.31-.82-.24,1.01.46-.06-.04-.31-.15-.62-.3-.92-.48-.15-.08-.35-.26-.5-.31.19.06.79.61.29.2-.3-.24-.6-.49-.88-.75-.16-.15-.89-.93-.39-.38s-.18-.28-.29-.44-.2-.31-.29-.48c-.09-.15-.47-.9-.13-.2s-.09-.3-.15-.52c-.06-.18-.09-.38-.15-.56-.11-.34.05-.69.03.35,0-.33-.06-.67-.07-1.01v-.43c0-.12.14-1.03,0-.26s.09-.36.13-.54c.1-.38.24-.74.37-1.1.16-.46.34-.17-.13.28.09-.09.15-.28.21-.39.19-.33.63-.75.75-1.1-.01.03-.66.69-.28.34.16-.15.3-.31.46-.47.27-.27.55-.53.82-.8.81-.8,1.64-1.67,2.2-2.64,1.09-1.9,1.54-4.02,1.51-6.16-.03-1.99-.17-4.22-1.02-6.05-1.04-2.24-3.07-3.76-5.64-4.44-4.64-1.24-10.47-.26-13.2,3.6-1.4,1.99-.52,5.07,1.78,6.17,2.46,1.18,5.3.51,6.8-1.62h0l.04-.02Z"/>
    </g>
    <g class="cls-3">
      <path d="m193.21,45.94c-.22.4-.47.77-.76,1.13l.78-.91c-.41.48-.88.9-1.4,1.28l1.01-.71c-.64.44-1.33.81-2.06,1.1l1.19-.45c-.87.33-1.77.55-2.7.68l1.32-.16c-.71.08-1.42.12-2.14.06l1.32.16c-.29-.04-.56-.1-.83-.19l1.19.45c-.24-.11-.45-.24-.67-.38l1.01.71c-.74-.54-1.45-1.17-2.31-1.55-1.53-.67-3.31-1.02-4.97-.5-1.23.39-2.3,1.03-2.97,2.07-.62.97-.89,2.39-.5,3.48s1.13,2.15,2.28,2.7,2.57.85,3.83.45c.12-.05.24-.08.37-.09l-1.32.16h.19c-.44-.05-.88-.11-1.32-.16.21.03.38.07.58.13l-1.19-.45c.25.11.47.23.68.38l-1.01-.71c.93.68,1.78,1.35,2.88,1.77s2.34.63,3.58.61c1.57-.02,3.23-.23,4.72-.71,3.23-1.04,6.26-2.94,7.8-5.8.59-1.1.87-2.26.5-3.48-.32-1.05-1.21-2.18-2.28-2.7-1.15-.55-2.55-.83-3.83-.45-1.18.35-2.41,1.03-2.97,2.07h0Z"/>
    </g>
    <g class="cls-3">
      <path d="m229.76,45.12c-5.64-.5-10.2,3.67-11.86,8.19-.76,2.07-.99,4.39-.98,6.56.01,2.45.61,4.7,1.8,6.89.98,1.8,2.44,3.39,3.85,4.92.55.6,1.12,1.19,1.67,1.8.14.15.27.3.41.45.7.76-.5-.63-.09-.11.29.37.59.73.86,1.12.58.81,1.06,1.65,1.52,2.52.23.44.33.18-.09-.2.1.09.21.52.25.6.2.5.37,1.01.52,1.52.12.41.22.82.31,1.24,0,.02.16.56.12.63.14-.23-.1-.89-.04-.25.1.96.1,1.9.13,2.86.05,1.67.36,3.23,1.14,4.74s2.11,2.56,3.53,3.51c2.17,1.46,4.71,2.5,7.31,3.17s5.52-.79,6.11-3.15-.79-4.87-3.47-5.55c-.47-.12-.93-.25-1.38-.4-.17-.06-.34-.12-.51-.17-.65-.21.8.36.19.07-.86-.41-1.71-.8-2.52-1.29-.14-.09-.78-.49-.2-.11.53.34.07.05-.03-.05,0,0-.49-.39-.48-.44.01-.07.63.99.19.15.05.1.43.96.13.21-.07-.17-.06-.61-.04-.01.02.69,0,0,0-.18-.02-.27-.02-.53-.03-.8-.07-3.91-.9-7.53-2.78-11.06-1.64-3.07-4.27-5.56-6.61-8.19-.34-.38.3.35.29.34-.09-.15-.26-.32-.37-.47-.24-.31-.47-.63-.69-.95-.19-.28-.37-.57-.53-.87-.07-.12-.12-.28-.2-.38.27.61.34.75.2.43-.06-.13-.11-.27-.16-.4-.12-.33-.18-.67-.29-1-.18-.54.04.34.02.32-.07-.07-.05-.57-.06-.71-.05-.91,0-1.82.07-2.72.02-.18.09-.45.07-.62.06.44-.14.82,0,.12.08-.41.18-.81.31-1.21.06-.2.15-.39.21-.59.15-.52-.49.8-.05.08.17-.28.6-.73.67-1.05-.11.5-.59.61-.19.24.18-.17.39-.33.56-.51.43-.43-.81.46-.26.17.23-.12.45-.25.67-.37.5-.27.26.14-.33.11.16,0,.44-.12.6-.16.86-.24-.34.12-.4.04.04.05.86.02.93.03,2.6.23,5.08-2.24,4.97-4.51-.13-2.64-2.19-4.27-4.97-4.51h0v-.04Z"/>
    </g>
    <g class="cls-3">
      <path d="m228.84,77.59c3.41,1.09,7.06,1.1,10.53,1.95.4.1.8.21,1.19.33.16.05.83.31.13.02s-.03,0,.11.06c.37.16.73.34,1.08.54.18.1.42.21.57.35-.1-.09-.86-.67-.38-.24.26.23.51.46.75.69.51.49-.27-.34-.28-.34.05,0,.26.35.29.4.11.17.2.35.32.53.29.43-.33-.91-.2-.42.09.35.21.67.28,1.03l-.18-1.2c.04.32.05.63.04.95-.08,2.36,2.35,4.62,4.97,4.51,2.76-.11,4.88-1.98,4.97-4.51s-1.09-4.94-2.84-6.95c-1.62-1.85-3.89-3.02-6.27-3.87-3.99-1.44-8.4-1.24-12.44-2.54-2.45-.79-5.55.89-6.11,3.15-.63,2.53.84,4.71,3.47,5.55h0Z"/>
    </g>
    <g>
      <path class="cls-11" d="m2.12,125.38c1.4.31,2.61.09,3.96-.24.2-.05.42-.12.64-.09.15.02.11.05.2.13.18.18.43.63.66.92.79,1.02,1.94,1.47,3.31,1.17,1.27-.28,2.46-1.03,3.44-1.79.51-.4.45-1.19,0-1.6-.51-.46-1.25-.4-1.76,0-.65.5-1.65,1.2-2.54,1.24-.21,0-.29-.14-.38-.27-.27-.36-.49-.74-.8-1.09-.75-.85-1.83-1.09-2.98-.9-.55.09-1.06.29-1.61.39-.49.09-.99.05-1.48-.06-1.55-.34-2.22,1.83-.66,2.18h0Z"/>
      <path class="cls-7" d="m8,125.5c.84-.22,1.63-.64,2.23-1.22.3-.29.58-.62.78-.97.12-.21.22-.42.31-.64.04-.09.08-.19.12-.28.08-.19-.05.05.03-.05.05-.07.08-.14.13-.21l-.07.08c.09-.08.1-.09.03-.03,0,0-.17.12-.17.07,0-.01.31-.02.34-.02.5-.02,1-.03,1.5-.05,1.07-.04,2.12-.01,2.97-.7.49-.39.48-1.2,0-1.6-.52-.43-1.24-.42-1.76,0,.15-.12-.09.02.03-.02.14-.05-.18.03-.17.03.12-.03.1,0-.01,0-.1,0-.2,0-.3.01-.47.02-.95.03-1.42.05-1.08.04-2.22,0-2.94.85-.28.33-.44.7-.61,1.09-.03.06-.05.13-.08.19.09-.2-.01.02-.04.05-.09.15-.18.3-.29.44s.19-.18-.05.05l-.15.15c-.07.06-.14.11-.2.17-.1.08.13-.07-.06.04-.16.09-.31.18-.48.25-.1.05-.12.04,0,0-.1.03-.21.06-.31.09-.62.16-1.08.8-.87,1.39s.86.96,1.53.79h-.02Z"/>
    </g>
    <path class="cls-11" d="m16.16,98.73l1.77,1.55c.54.48,1.23.94,1.69,1.49.31.36.28,1.04.4,1.49.19.71.48,1.38.79,2.05.57,1.22,1.12,2.8,2.65,3.25.67.2,1.45.2,2.15.21.88,0,1.76-.07,2.63-.19.67-.09,1.03-.85.87-1.39-.2-.65-.86-.87-1.53-.79s-1.38.11-2.08.1c-.38,0-1.12.06-1.38-.14-.16-.12-.26-.4-.35-.57-.16-.3-.31-.59-.46-.89-.27-.54-.52-1.08-.71-1.65s-.28-1.11-.41-1.67c-.14-.62-.49-1.13-.99-1.57-1.08-.97-2.19-1.92-3.29-2.88-1.15-1.01-2.91.59-1.76,1.6h0Z"/>
    <path class="cls-11" d="m22.16,106.82q-.01.14,0,.02c-.01.07-.03.14-.04.21-.04.14-.08.27-.14.4.08-.18-.04.06-.07.11-.07.12-.16.24-.25.35.14-.17-.06.06-.1.09-.1.1-.21.19-.33.28-.11.08-.12.09-.01.01-.07.05-.14.09-.21.13-.11.06-.22.12-.33.17-.08.04-.15.07-.23.1.1-.04.08-.03-.06.02-.12.04-.24.07-.36.11-.16.04-.33.08-.49.11-.04,0-.52.08-.29.05-.62.08-1.21.12-1.75.44-.69.41-1.05,1.15-.82,1.89s1,1.12,1.65,1.5c1.16.69,2.37,1.33,3.6,1.91.58.27,1.38.15,1.7-.4.3-.52.17-1.25-.45-1.54-1.15-.54-2.27-1.13-3.36-1.77-.28-.17-.56-.34-.84-.51-.21-.12.08.13-.07-.06.25.33.12.45.01.8q-.07.07,0,0c-.14.09-.15.11-.03.05-.18.12-.07.03.06,0,.06-.01.12-.03.19-.04-.17.02-.2.02-.09.01.21-.02.43-.05.64-.08,2.53-.34,4.77-1.91,4.93-4.36.04-.59-.6-1.15-1.24-1.13-.71.03-1.2.5-1.24,1.13h.02Z"/>
    <g>
      <path class="cls-11" d="m83.69,108.53c-.72,1.12-1.49,2.23-2.55,3.1-.85.71-1.89,1.06-2.98,1.35-2.25.59-4.34,1.17-5.75,2.99-1.33,1.7-1.7,3.88-2.39,5.83-.3.85-.65,1.81-1.36,2.46-.89.81-2.06.69-3.17.36-1.53-.45-2.18,1.73-.66,2.18,2.64.77,5.21.07,6.59-2.19,1.24-2.03,1.43-4.42,2.5-6.51,1.16-2.25,3.42-2.45,5.75-3.18,2.89-.9,4.66-2.92,6.16-5.25.81-1.26-1.34-2.39-2.15-1.14h0Z"/>
      <path class="cls-11" d="m68.31,125.56c-.83-2.71-2.99-5.6-6.29-6.01-.73-.09-1.47-.05-2.18.14-.86.23-1.64.66-2.51.88-.02,0-.49.13-.5.09.05.29.22.13.26.1.03-.02-.26-1.18-.28-1.28-.19-1-.37-2-.55-3-.11-.6-.93-.94-1.53-.79-.71.18-.97.78-.87,1.39.18,1,.36,2,.55,3,.15.79.24,1.69.9,2.29,1.53,1.41,3.82-.19,5.45-.57.2-.05.38-.06.69-.05.27,0,.39.03.75.13.45.13,1.01.42,1.42.75,1.16.94,1.88,2.18,2.29,3.53s2.82.8,2.4-.6h0Z"/>
      <path class="cls-11" d="m57.51,120.84c-1.14,1.46-1.26,3.36-1.92,5-.01.03-.14.31-.08.19s-.1.19-.12.22c-.09.17-.2.33-.31.48.1-.13-.12.12-.12.13-.08.08-.17.15-.26.22.17-.14-.06.04-.11.07-.11.06-.22.11-.33.17-.08.03-.06.03.05-.02-.05.02-.1.03-.15.05-.12.04-.24.07-.36.09-.1.02-.21.04-.31.06.28-.06-.04,0-.09,0-.46.04-.92.03-1.38.01-.65-.02-1.27.53-1.24,1.13.03.63.55,1.1,1.24,1.13,1.02.03,2.09.01,3.06-.34,1.17-.42,2.06-1.22,2.58-2.26.46-.91.72-1.87.99-2.84.13-.45.26-.9.43-1.34.04-.09.08-.19.12-.28-.1.24.07-.13.09-.17.11-.19.23-.38.37-.55.38-.48.11-1.28-.45-1.54-.64-.31-1.3-.11-1.7.4h0Z"/>
    </g>
    <path class="cls-11" d="m38.45,88.19c-.95,1.68-.83,3.61.02,5.31.9,1.81,2.57,3.1,3.97,4.57,1.53,1.6,2.14,3.25,1.4,5.31-.78,2.16-1.86,4.21-2.55,6.41-.44,1.4,1.96,2,2.4.6.66-2.09,1.63-4.04,2.43-6.08.75-1.91.79-3.84-.23-5.67-.9-1.62-2.44-2.82-3.74-4.17s-2.56-3.35-1.55-5.13c.73-1.29-1.41-2.43-2.15-1.14h0Z"/>
    <path class="cls-11" d="m43.87,103.88c-.4,1.05.13,2.22.97,2.97.36.32.8.57,1.13.83.36.28.53.51.64.83.61,1.67.38,3.99,2.46,4.88.61.26,1.34.15,1.7-.4.32-.49.16-1.28-.45-1.54-.03-.01-.29-.14-.18-.07.09.05-.08-.07-.1-.08-.05-.04-.16-.19-.07-.07-.05-.06-.09-.13-.13-.2-.13-.22-.24-.51-.33-.87-.2-.78-.24-1.6-.55-2.36-.38-.94-1.02-1.57-1.88-2.17-.16-.11-.21-.15-.37-.28-.07-.06-.14-.11-.2-.17-.26-.24.02.05-.1-.11s-.16-.23-.18-.35c0-.06-.01-.18,0-.06,0-.26-.04.08.05-.17.22-.58-.25-1.23-.87-1.39-.68-.17-1.31.21-1.53.79h-.01Z"/>
    <path class="cls-5" d="m82.4,129.72c.61-.11,1.46.4,2.08.48.86.1,1.68-.08,2.45-.43,1.55-.7,2.48-2.24,4.06-2.86.65-.25,1.38-.3,2.06-.14.77.19,1.37.67,2.08.99,1.47.67,3.22.57,4.15-.78.86-1.23-1.29-2.36-2.15-1.14-.18.26-.8-.05-1.09-.2-.65-.35-1.25-.72-1.97-.95-1.48-.48-3.17-.32-4.55.35s-2.27,1.95-3.62,2.65c-.67.35-1.18.28-1.88.06-.78-.24-1.48-.36-2.29-.22-1.57.28-.9,2.45.66,2.18h0Z"/>
    <path class="cls-5" d="m94.54,126.62c.7-.49,1.15-1.2,1.57-1.9.34-.57.67-1.2,1.27-1.58,1.18-.74,2.85-.7,4.2-1.01,1.76-.41,3.13-1.35,3.83-2.89s.64-3.15,1.32-4.63c.26-.56-.28-1.24-.87-1.39-.72-.18-1.27.22-1.53.79-.66,1.43-.56,3.07-1.25,4.48-.58,1.18-1.86,1.44-3.14,1.65-1.54.26-3.08.47-4.34,1.4s-1.55,2.58-2.83,3.48c-.53.37-.43,1.2,0,1.6.52.48,1.23.38,1.76,0h.01Z"/>
    <path class="cls-5" d="m91.61,140.12c-.04-.18-.09-.35-.15-.52-.03-.08-.05-.15-.07-.23,0-.02-.07-.23-.05-.14,0,.07,0,.05,0-.08l-.02.07c-.03-.06.05-.14-.03.01.03-.05.06-.1.1-.15-.12.19-.03.06.03,0,.12-.1-.16.08-.02.02.07-.03.15-.08.22-.11.11-.06.08-.04-.02,0,.06-.02.13-.04.19-.07.37-.12.76-.22,1.14-.32,1.67-.46,3.34-.92,5.01-1.38.62-.17,1.08-.8.87-1.39s-.86-.97-1.53-.79c-1.96.54-3.92,1.07-5.87,1.62-.84.24-1.68.59-2.17,1.28-.29.4-.42.91-.37,1.38s.25.92.35,1.4c.12.58.92.97,1.53.79.68-.2,1-.77.87-1.39h0Z"/>
    <path class="cls-5" d="m95.49,136.75c-.05-.12-.09-.24-.11-.36l.04.3c-.02-.14-.02-.29,0-.43l-.04.3c.02-.15.07-.3.13-.44l-.13.27c.05-.11.12-.22.2-.32l-.19.23c.08-.09.16-.17.26-.24l-.25.18h.02c.14-.09.26-.18.35-.3.11-.11.18-.24.22-.38.08-.27.04-.63-.13-.87s-.43-.45-.74-.52-.7-.06-.96.11c-.15.1-.32.21-.45.34s-.24.26-.34.4c-.06.08-.1.16-.14.24-.08.16-.16.32-.21.49s-.07.36-.09.54c-.01.09-.02.18-.01.26,0,.18.04.36.08.54.02.09.05.18.09.26.04.15.11.27.22.38.09.12.2.22.35.29.27.14.66.2.96.11s.59-.26.74-.52l.13-.27c.06-.2.06-.4,0-.6h0Z"/>
    <path class="cls-5" d="m112.85,103.41c.29,2.42,2.68,3.08,4.38,4.58,1.76,1.55,2.89,3.7,3.21,5.91.15,1.06-.21,2.39.62,3.27s2.36.64,3.52.68c3.07.11,6.11.79,8.9,1.95,1.44.6,2.71-1.34,1.25-1.95-2.55-1.06-5.19-1.78-7.98-2.1-.66-.08-1.33-.13-1.99-.16-.36-.02-1.66.16-1.9-.02.25.18.14-.25.14-.43,0-.28-.01-.56-.04-.84-.05-.52-.12-1.04-.23-1.55-.44-2.05-1.48-3.97-2.94-5.57-.7-.76-1.52-1.41-2.42-1.98-.66-.42-1.94-.96-2.04-1.8-.17-1.43-2.66-1.44-2.49,0h0Z"/>
    <path class="cls-5" d="m124.62,117.55c.13.87.48,1.74,1.01,2.48s1.17,1.32,1.8,1.95c.27.27.47.48.68.79.1.15.19.3.27.46-.05-.11,0,.02.02.06.02.08.05.15.08.23.03.09.05.19.07.29.04.19,0-.14,0,.05.01.17.02.34,0,.51.03-.18-.06.17-.08.23.06-.15,0,0-.05.07-.11.16.19-.18-.06.07-.46.45-.49,1.15,0,1.6.46.42,1.3.45,1.76,0,1.41-1.38,1.09-3.53-.05-4.97-.59-.75-1.33-1.37-1.97-2.08-.58-.64-.93-1.45-1.06-2.32-.09-.6-.94-.93-1.53-.79-.72.18-.96.78-.87,1.39h0l-.02-.02Z"/>
    <g>
      <path class="cls-5" d="m172.15,146.16c-3.53-1.09-7.41-1.14-11.1-1.1-.89.01-1.89-.08-2.77.04-.06,0-.12,0-.18-.02-.22-.06-.15.07.19.38-.03,0,.04-.27.05-.36.06-.4.1-.8.1-1.2-.03-1.74-.73-3.39-1.8-4.82-.9-1.19-3.05-.07-2.15,1.14,1.1,1.47,1.65,3.03,1.36,4.81-.13.79.1,1.55.9,1.98.85.46,1.9.36,2.85.33,3.95-.09,8.1-.17,11.88.99,1.52.47,2.17-1.71.66-2.18h.01Z"/>
      <path class="cls-5" d="m156.91,143.39c1.04.22,2.16.18,3.18-.11.95-.28,1.94-.78,2.26-1.69.41-1.13-.49-2.11-1.44-2.72-.49-.31-1.03-.53-1.58-.73-.11-.04-.22-.08-.32-.12-.17-.06.19.08.03,0-.06-.03-.11-.05-.17-.07-.04-.02-.27-.11-.27-.14,0-.02.22.2.07.04-.11-.12.05.06.07.09.15.23.08.22.06.13.04.1.04.21.02.31-.02.11-.03.14-.01.08.03-.13-.13.25-.06.13.08-.14.07.03-.07.07.03,0,.21-.17.21-.18,0,.08-.21.13-.06.05.06-.03.12-.07.18-.11.23-.13.48-.23.73-.34.05-.02.22-.08-.01,0,.06-.02.13-.05.19-.07.16-.06.32-.11.48-.16.61-.19,1.08-.78.87-1.39-.2-.55-.87-1-1.53-.79-.96.31-2.12.67-2.83,1.38-.44.45-.67,1-.52,1.6.14.53.63.94,1.13,1.19.28.14.57.24.87.35.05.02.09.03.14.05.03.01.23.09.09.03s.03.01.05.02c.08.03.16.07.24.11.21.1.42.2.62.32.05.03.1.07.16.1.12.07-.07-.04-.07-.05,0,0,.27.22.28.24.19.18-.07-.14.02.02,0,.02.06.11.07.11-.02,0-.07-.23-.06-.13,0,.04.02.08.04.11.05.1-.02-.16-.02-.16,0,.17.02-.11.03-.13-.01.01-.03.1-.03.12,0-.16.13-.25.06-.15-.08.12.01-.09.1-.11-.03,0-.12.11-.14.13-.17.16.2-.11.02-.01-.08.04-.16.09-.25.13-.04.02-.09.04-.14.06-.2.09.19-.06.04-.02-.1.03-.21.07-.31.1-.23.06-.51.07-.73.15,0,0,.25-.02.11-.02-.08,0-.15.01-.23.02h-.54s-.3,0-.1,0c.16,0,.03,0-.01,0-.09-.02-.17-.03-.26-.05-.63-.14-1.38.18-1.53.79-.14.58.19,1.24.87,1.39h0v.03Z"/>
    </g>
    <path class="cls-5" d="m173.23,125.35c-1.11.48-2.55-.55-3.5-.96-1.33-.58-2.72-.87-4.16-.44-1.3.4-2.35,1.17-3.5,1.81-.97.54-2.17,1.03-3.17.33-.53-.37-1.39-.07-1.7.4-.38.58-.09,1.17.45,1.54,1.21.84,2.83.81,4.2.33,1.47-.51,2.6-1.51,4.01-2.11s2.58.07,3.87.67c1.54.71,3.13,1.07,4.75.37,1.44-.63.18-2.57-1.25-1.95h0Z"/>
    <g>
      <path class="cls-16" d="m170.19,151.25l-7.43,4.85c-10.4,6.79-22.56,10.47-35.02,10.59-3.89.04-7.35-.03-9.49-.16l-.35-.02c-5.38-.32-10.65-1.58-15.58-3.72l-.57-.25c-8.48-3.69-15.03-10.69-18.09-19.34l-2.36-6.67c8.8,3.52,19.72,8.44,28.52,11.96"/>
      <path d="m169.57,150.28c-3.45,2.25-6.84,4.62-10.42,6.69-7.66,4.43-16.4,7.35-25.44,8.27-4.53.46-9.13.42-13.69.25-4.25-.15-8.41-.74-12.45-1.97-7.55-2.3-14.1-6.51-18.49-12.6-3.24-4.5-4.78-9.62-6.57-14.68l-1.83,1.27c9.58,3.84,18.94,8.13,28.52,11.96,1.45.58,2.72-1.36,1.25-1.95-9.58-3.84-18.94-8.13-28.52-11.96-.91-.36-2.19.25-1.83,1.27,1.56,4.41,2.9,8.95,5.37,13.03,3.88,6.41,9.92,11.36,17.25,14.34,8.51,3.45,17.75,3.93,26.94,3.57,9.33-.37,18.49-2.71,26.71-6.72,5.11-2.5,9.73-5.75,14.44-8.82,1.29-.84.05-2.8-1.25-1.95h.01Z"/>
    </g>
    <path class="cls-5" d="m163.83,125.33c-.13-.05-.25-.12-.37-.19-.04-.03-.09-.07-.14-.09.2.07.11.08.02,0-.1-.08-.18-.17-.27-.25-.19-.19.09.13,0,0-.04-.06-.08-.11-.12-.17-.07-.1-.13-.21-.19-.32-.07-.12.07.21,0,0-.02-.06-.05-.13-.07-.19s-.04-.32-.09-.36c.05.04.02.24,0,.02v-.37s.03-.28,0-.09.02-.08.02-.09c.01-.05.03-.11.04-.16.03-.12.07-.28.14-.39-.04.06-.09.17-.02.05.04-.06.07-.12.1-.18s.08-.11.12-.17c.02-.03.18-.21.06-.08s.06-.06.07-.07c.04-.04.08-.08.12-.11.05-.05.11-.09.16-.13.11-.1-.24.14-.01.01.12-.07.24-.13.37-.19.58-.26.79-1.06.45-1.54-.38-.54-1.08-.69-1.7-.4-1.49.67-2.42,2.22-2.41,3.71s.95,3.03,2.45,3.68c.59.25,1.37.17,1.7-.4.29-.5.18-1.27-.45-1.54h.02Z"/>
    <path class="cls-5" d="m145.7,104.14c-.05,1.87.67,3.63,2.05,5.02.62.62,1.45,1.17,1.79,1.97s-.1,1.15-.77,1.64-1.18,1.14-1.24,1.95c-.07.94.41,1.82.84,2.65.81,1.55,1.88,2.97,3.72,3.57,1.51.49,2.16-1.69.66-2.18-1.33-.43-2.09-2.09-2.56-3.19-.34-.79-.07-.91.6-1.4s1.12-1.04,1.3-1.78c.37-1.6-.63-3.02-1.8-4.12-1.3-1.22-2.14-2.39-2.1-4.15.04-1.45-2.45-1.45-2.49,0h0v.02Z"/>
    <path class="cls-5" d="m152.8,114.99c-.04.1-.1.18-.17.27l.19-.23c-.08.09-.16.17-.26.24l.25-.18c-.18.12-.38.22-.58.3l.3-.11c-.53.2-1.09.32-1.59.59-.27.15-.54.33-.74.55-.27.29-.5.63-.57,1.01-.05.31-.06.59.13.87.15.23.45.46.74.52.32.07.68.05.96-.11.25-.15.52-.39.57-.67.02-.09.04-.17.08-.25l-.13.27c.04-.09.1-.17.16-.25l-.19.23c.08-.1.18-.18.28-.25l-.25.18c.19-.13.39-.23.61-.31l-.3.11c.47-.18.95-.29,1.41-.5.51-.23,1.02-.63,1.25-1.12.09-.13.14-.27.15-.42.04-.15.03-.3-.02-.45-.08-.26-.3-.55-.57-.67-.29-.14-.64-.21-.96-.11-.29.08-.62.26-.74.52h0v-.03Z"/>
    <path d="m109.76,149.53c7.54,1.05,15.18,1.24,22.79,1.6,7.71.36,15.42.76,23.12,1.2,4.36.25,8.73.51,13.09.78,1.6.1,1.59-2.16,0-2.26-15.18-.95-30.38-1.65-45.57-2.41-4.27-.21-8.54-.5-12.77-1.09-1.56-.22-2.24,1.96-.66,2.18h0Z"/>
    <path d="m84.07,145.53c3.9,1.1,7.38,3.42,10.84,5.33,3.7,2.04,7.4,4.09,11.11,6.13,1.37.76,2.62-1.19,1.25-1.95-3.82-2.11-7.64-4.22-11.45-6.33-3.55-1.96-7.08-4.24-11.08-5.37-1.53-.43-2.19,1.75-.66,2.18h-.01Z"/>
    <path d="m100.11,153.05c7.95-.4,15.94.08,23.74,1.52,7.51,1.38,14.8,3.67,22.39,4.65,4.25.55,8.49.66,12.74.04,1.57-.23.91-2.41-.66-2.18-7.52,1.1-15.06-.46-22.32-2.15-7.48-1.74-14.89-3.39-22.61-3.99-4.42-.34-8.86-.38-13.29-.16-1.59.08-1.6,2.34,0,2.26h0Z"/>
    <path d="m106.14,157.03c1.95.14,3.64,1.15,5.24,2.07,1.71.98,3.44,1.95,5.19,2.88,3.56,1.9,7.19,3.68,10.89,5.34,1.43.64,2.69-1.3,1.25-1.95-3.93-1.77-7.79-3.66-11.57-5.7-1.83-.99-3.61-2.04-5.43-3.04s-3.53-1.7-5.57-1.85c-1.59-.12-1.59,2.14,0,2.26h0Z"/>
    <path d="m82.27,138.44c5.04,2.3,10.05,4.66,15.17,6.82,4.56,1.93,9.25,4.29,14.31,4.83,1.59.17,1.57-2.09,0-2.26-2.54-.27-4.94-1.17-7.25-2.11-2.18-.89-4.36-1.79-6.52-2.71-4.86-2.08-9.64-4.32-14.44-6.51-1.42-.65-2.68,1.29-1.25,1.95h-.02Z"/>
    <path d="m135.38,184.35c1.6,0,1.6-2.26,0-2.26s-1.6,2.26,0,2.26h0Z"/>
    <path class="cls-2" d="m84.05,146.43c-.64,1.43-1.66,3.4-3.25,5.52-1.21,1.61-3.64,4.49-8.82,7.82-6.86,4.4-13.63,6.42-17.65,7.36-3.99.93-12.05,2.73-22.29.92-1.77-.31-3.67-1.02-5.54-1.89-6.77-3.17-12.48-8.21-16.64-14.38-1.51-2.24-3.03-4.5-5.22-7.63"/>
    <path d="m5.32,145.31c1.6,0,1.6-2.26,0-2.26s-1.6,2.26,0,2.26h0Z"/>
    <path d="m4.58,145.71c3.05.48,6.12.49,9.2.55,2.49.05,4.97.12,7.46.19,4.85.15,9.7.32,14.55.4,8.57.15,17.14.11,25.72.24,6.84.11,13.69.17,20.53.07,1.6-.02,1.6-2.28,0-2.26-10.94.16-21.87-.19-32.81-.24-8.63-.04-17.25-.13-25.88-.41-2.69-.09-5.37-.17-8.06-.23-3.34-.08-6.74.01-10.05-.5-1.56-.24-2.24,1.93-.66,2.18h0Z"/>
    <path d="m5.96,145.96c4.67,1.68,9.36,3.37,14.25,4.47,4.99,1.13,10,1.41,15.13,1.09s10.3-.8,15.48-.87c5.08-.07,10.16.03,15.23-.13,5.67-.18,11.36-.69,16.85-2.04,1.54-.38.89-2.56-.66-2.18-9.67,2.37-19.74,2-29.66,2.07-5.1.04-10.15.36-15.23.75-5.05.38-10.01.43-14.99-.56-5.42-1.07-10.6-2.94-15.74-4.79-1.49-.54-2.13,1.65-.66,2.18h0Z"/>
    <path d="m31.24,149.89c-6.51,3.41-14.16,2.34-21.14.96-1.56-.31-2.22,1.86-.66,2.18,7.66,1.52,15.94,2.55,23.06-1.18,1.38-.73.13-2.68-1.25-1.95h-.01Z"/>
    <path d="m15.14,158.88c9.91.1,19.24,3.39,29.03,4.29,2.09.19,4.34.45,6.42.09,1.62-.28,3.16-.9,4.65-1.53,3.4-1.44,6.61-3.31,10.12-4.54,1.91-.67,3.58-.81,5.61-.47,2.53.42,4.82.74,7.15-.5,1.38-.74.13-2.69-1.25-1.95-2,1.07-4.03.42-6.16.14-1.77-.24-3.46-.17-5.16.34-3.46,1.04-6.63,2.82-9.87,4.3-1.5.68-3.02,1.36-4.64,1.8-1.77.48-3.59.32-5.42.2-4.76-.32-9.41-1.31-14.05-2.27-5.41-1.12-10.86-2.08-16.43-2.14-1.6-.02-1.6,2.24,0,2.26h0v-.02Z"/>
    <path class="cls-5" d="m16.18,143.77c-.05-.37-.12-.73-.19-1.09-.06-.26,0,.25,0-.01v-.2c0-.19.03-.07-.02.03.02-.05.03-.14.05-.19.05-.2-.14.22-.03.05.03-.04.06-.08.08-.12.06-.11-.21.2-.07.08.04-.04.08-.07.12-.11.14-.12-.22.13-.1.07.05-.02.09-.06.14-.08.08-.04.16-.08.25-.12,1.24-.55,2.48-1.08,3.73-1.62.59-.26.79-1.06.45-1.54-.39-.55-1.07-.68-1.7-.4-.68.29-1.36.59-2.03.88-.62.27-1.27.51-1.88.82-.65.33-1.14.85-1.36,1.5-.12.34-.14.72-.1,1.07.03.23.07.46.12.69.02.08.03.16.05.24.01.07.06.38.02.06.04.31.11.57.36.8.22.2.57.34.88.33.61-.02,1.32-.5,1.24-1.13h0Z"/>
    <path class="cls-5" d="m18.6,140.11c-.02-.09-.04-.17-.06-.26l.04.3c-.03-.22-.03-.44,0-.66l-.04.3c.03-.19.08-.37.16-.55l-.13.27c.05-.1.1-.19.17-.28l-.19.23s.03-.03.04-.05c.12-.1.21-.22.26-.36.08-.13.11-.28.11-.43,0-.28-.14-.61-.36-.8s-.55-.34-.88-.33c-.31.01-.67.1-.88.33-.11.12-.22.24-.31.38s-.16.3-.22.45-.12.32-.15.48c-.1.54-.11,1.05.04,1.59.08.27.31.53.57.67s.66.2.96.11.59-.26.74-.52.21-.57.13-.87h0Z"/>
  </g>
  <path d="m234.46,134.32c1.03-1.24,2.03-2.57,2.39-4.12s0-3.1-.83-4.5c-.76-1.27-1.85-2.35-2.66-3.6-.87-1.35-1.99-3.32-1.71-4.95.23-1.39,1.92-2.23,2.84-3.24.97-1.06,1.71-2.25,2.28-3.53,1.27-2.87,1.51-6.08.77-9.1-.34-1.42-2.74-.82-2.4.6.67,2.77.34,5.82-1.02,8.39-.65,1.22-1.49,2.24-2.58,3.16-1.14.97-2.12,1.96-2.34,3.42-.47,3.09,1.78,6.18,3.65,8.56.9,1.14,1.82,2.41,1.64,3.88s-1.24,2.73-2.19,3.87,1.19,2.28,2.15,1.14h0v.02Z"/>
  <path d="m233.37,112.26c-2.76-.4-2.6-3.41-2.4-5.32.26-2.39.17-4.71-1.23-6.83-.58-.88-1.33-1.62-2.24-2.22-.39-.26-.85-.48-1.08-.89-.27-.48-.18-1.17-.17-1.69,0-2.74.03-5.48.04-8.23,0-1.45-2.48-1.45-2.49,0-.01,3-.19,6.04-.03,9.03.06,1.19.41,2.25,1.44,3.04s1.9,1.28,2.54,2.35c1.53,2.54.41,5.14.62,7.84.18,2.27,1.64,4.71,4.33,5.1,1.56.22,2.24-1.95.66-2.18h.01Z"/>
  <g class="cls-17">
    <path d="m238.54,133.09c1.92-2.53,2.26-6.24,1.11-9.1-.67-1.67-1.7-3.03-3.17-4.2-.3-.24-.59-.49-.88-.74-.67-.55.51.82.05,0,.65,1.14.24.25.11,0,.09.72.12.83.09.33,0-.15,0-.3.02-.45.03-.35,0-.2-.07.46.04-.2.09-.39.15-.58.06-.21.13-.71.3-.83-.25.53-.3.64-.14.34.08-.15.15-.29.24-.43.19-.33.39-.66.59-.98.9-1.46,1.72-2.97,2.28-4.57,1.07-3.08,1.26-6.4,1.45-9.6.14-2.36-2.39-4.62-4.97-4.51-2.81.11-4.82,1.98-4.97,4.51-.04.73-.09,1.46-.15,2.19-.05.65,0,1.55-.22,2.18l.08-.54c-.03.22-.07.44-.11.66-.06.33-.13.65-.2.97-.15.64-.33,1.27-.55,1.89-.05.15-.62,1.27-.25.66s-.21.35-.28.48c-.36.61-.75,1.21-1.11,1.82-.91,1.54-1.6,3.11-1.86,4.85-.29,1.96-.08,3.95.99,5.71.82,1.35,2.03,2.15,3.17,3.2.11.1.21.2.31.31-.47-.58-.6-.72-.39-.43.07.1.14.21.2.32.22.42.16.29-.18-.39-.04.16.18.59.22.74.26.85-.03-1.06-.04-.17,0,.26,0,.52-.01.79-.04.9.29-.96,0-.17-.07.2-.23.51-.25.73.34-.69.39-.83.15-.41-.09.14-.19.28-.29.41-1.48,1.95-.47,5.1,1.78,6.17,2.53,1.22,5.22.46,6.8-1.62h0Z"/>
  </g>
  <g class="cls-17">
    <path d="m220.5,85.4c-.62,3.14-1.11,6.18-.51,9.35.56,2.98,2.37,5.55,5.15,7.21.19.11.38.22.58.33.18.1.94.64.28.12-.72-.57-.01.1.1.12-.45-.57-.57-.71-.38-.41.19.31.11.14-.23-.49.31.82-.1-1.12-.05-.27.05.75.27-.85.07-.36-.17.43-.25.91-.41,1.34-.33.89-.7,1.77-.88,2.7-.16.81-.28,1.59-.19,2.4.07.56.13,1.13.3,1.67.35,1.09-.22.24.2-1.12-.7,2.27.86,5.01,3.47,5.55,2.64.55,5.37-.72,6.11-3.15.35-1.14.28-2.3-.1-3.42-.08-.24-.14-.89-.13-.13.02.88.07-.06.05-.24-.08-.5-.26,1.09-.03.35.07-.25.14-.49.22-.74.16-.46.34-.9.51-1.35,1.13-3.01,1.01-6.3-1.52-8.71-.56-.54-1.26-.99-1.93-1.4-.34-.2-.87-.64-1.26-.73.6.45.76.55.47.32-.11-.08-.21-.18-.31-.27-.6-.53.4.64.15.17-.08-.12-.16-.23-.23-.36-.18-.34-.19-.33-.02.03.16.37.17.37.01,0l-.1-.28c-.1-.28-.16-.57-.24-.86-.27-.98.04,1.03-.02.02-.03-.57-.06-1.13-.04-1.7.01-.35.04-.7.08-1.05.02-.23.02-1.35.01-.19,0-.67.26-1.41.39-2.07.46-2.32-.69-4.98-3.47-5.55-2.43-.5-5.62.67-6.11,3.15h0v.02Z"/>
  </g>
</svg>